<svg width="510" height="510" viewBox="0 0 510 510" fill="none" xmlns="http://www.w3.org/2000/svg">
<path d="M48 408H462" stroke="black" stroke-width="10" stroke-linecap="round"/>
<mask id="mask0_18_17731" style="mask-type:alpha" maskUnits="userSpaceOnUse" x="0" y="0" width="510" height="408">
<rect width="510" height="408" fill="#D9D9D9"/>
</mask>
<g mask="url(#mask0_18_17731)">
<path d="M66 192L104.553 103H405.447L444 192H66Z" stroke="black" stroke-width="10" stroke-linejoin="round"/>
<path d="M129 192C129 196.99 128.185 201.932 126.602 206.542C125.019 211.152 122.699 215.341 119.774 218.87C116.849 222.399 113.376 225.198 109.555 227.107C105.733 229.017 101.637 230 97.5 230C93.3634 230 89.2672 229.017 85.4455 227.107C81.6237 225.198 78.1512 222.399 75.2261 218.87C72.3011 215.341 69.9808 211.152 68.3978 206.542C66.8148 201.932 66 196.99 66 192L97.5 192H129Z" stroke="black" stroke-width="10" stroke-linejoin="round"/>
<path d="M192 192C192 196.99 191.185 201.932 189.602 206.542C188.019 211.152 185.699 215.341 182.774 218.87C179.849 222.399 176.376 225.198 172.555 227.107C168.733 229.017 164.637 230 160.5 230C156.363 230 152.267 229.017 148.445 227.107C144.624 225.198 141.151 222.399 138.226 218.87C135.301 215.341 132.981 211.152 131.398 206.542C129.815 201.932 129 196.99 129 192L160.5 192H192Z" stroke="black" stroke-width="10" stroke-linejoin="round"/>
<path d="M255 192C255 196.99 254.185 201.932 252.602 206.542C251.019 211.152 248.699 215.341 245.774 218.87C242.849 222.399 239.376 225.198 235.555 227.107C231.733 229.017 227.637 230 223.5 230C219.363 230 215.267 229.017 211.445 227.107C207.624 225.198 204.151 222.399 201.226 218.87C198.301 215.341 195.981 211.152 194.398 206.542C192.815 201.932 192 196.99 192 192L223.5 192H255Z" stroke="black" stroke-width="10" stroke-linejoin="round"/>
<path d="M318 192C318 196.99 317.185 201.932 315.602 206.542C314.019 211.152 311.699 215.341 308.774 218.87C305.849 222.399 302.376 225.198 298.555 227.107C294.733 229.017 290.637 230 286.5 230C282.363 230 278.267 229.017 274.445 227.107C270.624 225.198 267.151 222.399 264.226 218.87C261.301 215.341 258.981 211.152 257.398 206.542C255.815 201.932 255 196.99 255 192L286.5 192H318Z" stroke="black" stroke-width="10" stroke-linejoin="round"/>
<path d="M381 192C381 196.99 380.185 201.932 378.602 206.542C377.019 211.152 374.699 215.341 371.774 218.87C368.849 222.399 365.376 225.198 361.555 227.107C357.733 229.017 353.637 230 349.5 230C345.363 230 341.267 229.017 337.445 227.107C333.624 225.198 330.151 222.399 327.226 218.87C324.301 215.341 321.981 211.152 320.398 206.542C318.815 201.932 318 196.99 318 192L349.5 192H381Z" stroke="black" stroke-width="10" stroke-linejoin="round"/>
<path d="M444 192C444 196.99 443.185 201.932 441.602 206.542C440.019 211.152 437.699 215.341 434.774 218.87C431.849 222.399 428.376 225.198 424.555 227.107C420.733 229.017 416.637 230 412.5 230C408.363 230 404.267 229.017 400.445 227.107C396.624 225.198 393.151 222.399 390.226 218.87C387.301 215.341 384.981 211.152 383.398 206.542C381.815 201.932 381 196.99 381 192L412.5 192H444Z" stroke="black" stroke-width="10" stroke-linejoin="round"/>
<path d="M96 230V408H416V230" stroke="black" stroke-width="10"/>
<path d="M138 356H228" stroke="black" stroke-width="10" stroke-linecap="round"/>
<rect x="138" y="268" width="90" height="140" stroke="black" stroke-width="10" stroke-linejoin="round"/>
<rect x="277" y="268" width="90" height="88" fill="#EB0F60" stroke="#EB0F60" stroke-width="10" stroke-linejoin="round"/>
</g>
</svg>
