<svg width="1250" height="830" viewBox="0 0 1250 830" fill="none" xmlns="http://www.w3.org/2000/svg">
<path d="M653.83 755.1C653.887 754.992 653.903 754.868 653.876 754.749C653.849 754.63 653.78 754.525 653.682 754.453C653.584 754.38 653.464 754.345 653.342 754.354C653.221 754.363 653.106 754.414 653.02 754.5L650.03 757.66C649.812 757.89 649.512 758.024 649.195 758.033C648.879 758.043 648.571 757.926 648.34 757.71L634.81 744.93C634.77 744.892 634.722 744.863 634.671 744.844C634.619 744.825 634.564 744.817 634.509 744.819C634.453 744.822 634.399 744.836 634.35 744.86C634.3 744.884 634.256 744.918 634.22 744.96L631.99 747.54C631.824 747.739 631.632 747.914 631.42 748.06C624.867 752.673 618.213 756.963 611.46 760.93C610.213 761.663 608.927 761.99 607.6 761.91C607.381 761.896 607.168 761.835 606.976 761.732C606.783 761.629 606.615 761.485 606.483 761.311C606.351 761.138 606.258 760.938 606.211 760.725C606.164 760.512 606.163 760.292 606.21 760.08C606.75 757.553 607.877 755.13 609.59 752.81C609.641 752.743 609.676 752.665 609.691 752.582C609.705 752.499 609.7 752.413 609.674 752.332C609.649 752.251 609.604 752.177 609.545 752.115C609.485 752.054 609.411 752.008 609.33 751.98C607.17 751.24 605.5 750.59 603.94 749.51C599.633 746.537 596.117 743.9 593.39 741.6C579.67 730.04 560.16 713.37 534.86 691.59C528.487 686.103 523.403 681.587 519.61 678.04C505.157 664.54 488.743 648.833 470.37 630.92C464.98 625.66 456.47 617.94 449.46 610.91C404.027 565.323 376.717 538.083 367.53 529.19C348.157 510.437 335.503 498.013 329.57 491.92C318.937 480.987 311.31 473.363 306.69 469.05C297.437 460.41 289.977 453.09 284.31 447.09C266.17 427.877 256.637 417.743 255.71 416.69C254.67 415.517 254.807 414.323 256.12 413.11C275.35 395.44 283.85 387.35 302 371.7C307.353 367.093 314.647 360.34 323.88 351.44C329.327 346.187 336.113 338.937 344.24 329.69C363.76 307.47 388.24 281.7 409.45 257.87C421.123 244.763 429.613 235.53 434.92 230.17C450.027 214.917 458.84 205.897 461.36 203.11C479.54 183.04 492.33 171.46 517.21 148.22C520.69 144.96 525.9 138.39 530.17 134.84C534.43 131.31 539.58 127.31 544.1 123.2C551.4 116.57 559.2 109.31 568.3 101.83C579.65 92.4799 590.79 80.49 600.14 69.89C600.84 69.09 601.683 68.2766 602.67 67.45C602.94 67.2244 603.283 67.1059 603.634 67.1169C603.985 67.128 604.318 67.2679 604.57 67.51L626.65 88.35C626.857 88.5469 627.134 88.6533 627.42 88.6458C627.707 88.6383 627.98 88.5175 628.18 88.3099L647.65 67.67C647.924 67.3811 648.297 67.2069 648.694 67.1828C649.092 67.1587 649.483 67.2863 649.79 67.54C654.55 71.51 658.99 76.37 664.15 80.92C671.143 87.0733 676.257 91.76 679.49 94.98C686.203 101.673 697.43 112.947 713.17 128.8C727.49 143.22 743.33 160.87 756.69 173.44C786.163 201.173 803.98 217.647 810.14 222.86C816.65 228.38 825.86 236.11 833.24 243.46C850.04 260.2 864.273 274.647 875.94 286.8C887.74 299.09 899.12 312.12 909.64 326.5C915.78 334.893 920.76 341.197 924.58 345.41C926.627 347.663 930.6 350.943 936.5 355.25C945.347 361.697 953.467 368.167 960.86 374.66C973.707 385.933 987.833 398.747 1003.24 413.1C1003.66 413.49 1003.91 414.028 1003.94 414.6C1003.96 415.171 1003.77 415.73 1003.39 416.16C1000.7 419.213 998 422.343 995.28 425.55C989.92 431.89 984.77 435.96 978.95 441.88C958.263 462.907 946.007 475.363 942.18 479.25C934.5 487.06 926.03 494.05 919.02 501.23C894.747 526.097 869.207 552.857 842.4 581.51C834.29 590.18 827.43 598.8 819.45 606.08C813.24 611.75 809.97 617.6 803.74 623.49C799.433 627.557 791.827 634.7 780.92 644.92C775.02 650.453 767.88 657.81 759.5 666.99C755.2 671.7 750.27 676.73 745.96 680.28C740.83 684.49 736.91 687.83 732.51 692.41C727.84 697.27 722.11 702.35 718.09 706.79C711.97 713.537 708.117 717.787 706.53 719.54C704.703 721.567 698.487 727.263 687.88 736.63C686.807 737.577 683.38 741.023 677.6 746.97C676.808 747.781 675.941 748.518 675.01 749.17C671.223 751.81 666.027 755.187 659.42 759.3C657.24 760.66 655.45 762.06 652.89 761.85C652.589 761.826 652.3 761.725 652.048 761.558C651.797 761.391 651.592 761.163 651.452 760.894C651.312 760.626 651.243 760.326 651.249 760.023C651.256 759.72 651.339 759.423 651.49 759.16L653.83 755.1ZM603.57 84.98C587.917 101.307 570.597 119.93 551.61 140.85C548.01 144.817 540.413 151.853 528.82 161.96C526.78 163.74 525.1 165.93 522.92 168.48C521.9 169.68 520.307 171.203 518.14 173.05C508.45 181.32 501.47 188.32 492.93 197.61C489.117 201.757 484.563 206.427 479.27 211.62C465.56 225.08 453.25 236.8 439.44 251.31C405.36 287.103 380.033 313.657 363.46 330.97C343.88 351.42 323.66 371.41 305.03 390.53C303.87 391.717 301.503 394.02 297.93 397.44C294.39 400.82 289.99 405.68 285.39 409.36C283.757 410.66 281.857 412.24 279.69 414.1C279.569 414.205 279.471 414.333 279.401 414.476C279.331 414.62 279.29 414.776 279.282 414.936C279.273 415.095 279.297 415.255 279.352 415.405C279.407 415.555 279.491 415.693 279.6 415.81C293.19 430.32 310.47 448.81 326.83 464.64C331.023 468.7 336.5 474.083 343.26 480.79C376.027 513.31 400.11 537.093 415.51 552.14C445.65 581.6 474.08 611.38 504.75 640.25C511.617 646.717 519.19 654.113 527.47 662.44C557.623 692.767 585.313 721.487 610.54 748.6C610.622 748.687 610.721 748.757 610.831 748.804C610.941 748.851 611.06 748.876 611.18 748.876C611.3 748.876 611.418 748.851 611.528 748.804C611.638 748.757 611.738 748.687 611.82 748.6L623.68 736.03C623.995 735.697 624.169 735.254 624.163 734.796C624.158 734.338 623.973 733.902 623.65 733.58C610.39 720.35 598.48 707.69 585.05 696.07C576.837 688.963 571.007 683.807 567.56 680.6C548.093 662.493 527.573 643.04 506 622.24C494.69 611.33 481.66 597.73 471.47 587.59C440.73 557.023 409.853 526.483 378.84 495.97C371.06 488.31 361.21 477.79 351.9 469C343.26 460.85 337.72 455.65 328.95 446.45C321.837 438.99 312.15 428.757 299.89 415.75C299.805 415.659 299.738 415.553 299.693 415.437C299.649 415.321 299.628 415.197 299.632 415.074C299.636 414.95 299.664 414.828 299.715 414.716C299.766 414.604 299.839 414.503 299.93 414.42C321.21 394.84 331.72 384.99 348.34 370.84C351.08 368.507 357.743 362.287 368.33 352.18C373.663 347.087 379.94 340.473 387.16 332.34C400.353 317.467 409.807 306.94 415.52 300.76C439.873 274.427 456.2 256.467 464.5 246.88C466.14 244.993 468.03 242.953 470.17 240.76C474.91 235.92 479.47 230.73 484.52 225.69C498.34 211.88 509.34 200.21 520.67 188.08C524.277 184.22 529.38 179.217 535.98 173.07C542.633 166.877 551.407 158.627 562.3 148.32C567.32 143.58 571.61 137.89 576.78 133.78C584.007 128.047 590.787 122.157 597.12 116.11C603.873 109.663 610.677 103.923 617.53 98.89C617.604 98.837 617.665 98.7681 617.709 98.6882C617.754 98.6082 617.779 98.5193 617.785 98.4277C617.791 98.336 617.776 98.2439 617.743 98.1578C617.709 98.0718 617.657 97.994 617.59 97.9299L603.86 84.9699C603.82 84.934 603.767 84.915 603.713 84.9168C603.659 84.9187 603.608 84.9413 603.57 84.98ZM613.14 269.04C612.32 269.62 611.54 270.543 610.8 271.81C607.14 278.063 603.753 284.437 600.64 290.93C600.554 291.11 600.412 291.258 600.236 291.351C600.059 291.445 599.857 291.479 599.66 291.448C599.462 291.418 599.28 291.325 599.139 291.183C598.999 291.041 598.908 290.858 598.88 290.66C598.133 285.293 598.507 279.993 600 274.76C600.167 274.187 602.35 267.783 606.55 255.55C608.463 249.99 607.94 244.92 604.98 240.34C603.09 237.41 600.13 235.61 596.66 235.51C596.472 235.503 596.285 235.546 596.119 235.636C595.954 235.725 595.815 235.858 595.717 236.02C595.619 236.181 595.566 236.367 595.563 236.557C595.56 236.747 595.607 236.934 595.7 237.1C598.053 241.293 599.12 245.757 598.9 250.49C598.48 259.55 595.69 268.63 593.97 276.11C591.2 288.15 591.27 297.64 594.84 308.95C595.68 311.58 597.41 314.3 599.55 315.66C602.14 317.29 604.81 316.49 605.68 313.6C606.02 312.473 606.153 311.677 606.08 311.21C604.793 302.997 605.373 294.863 607.82 286.81C609.767 280.417 611.697 274.613 613.61 269.4C613.633 269.338 613.635 269.27 613.617 269.207C613.598 269.143 613.56 269.087 613.507 269.047C613.455 269.007 613.391 268.984 613.325 268.983C613.259 268.982 613.194 269.002 613.14 269.04ZM626.89 248.3L629.12 252.54C629.927 254.077 631.182 255.336 632.72 256.15C636.92 258.37 641.933 259.337 647.76 259.05C651.41 258.87 659.29 258.06 662.48 255.04C664.647 252.993 664.74 250.993 662.76 249.04C660.71 247.03 657.37 246.78 654.34 247.81C645.66 250.77 636.33 250.9 628.53 246.68C628.301 246.559 628.039 246.513 627.783 246.551C627.526 246.588 627.289 246.706 627.105 246.888C626.921 247.069 626.801 247.304 626.762 247.559C626.724 247.813 626.768 248.073 626.89 248.3ZM624.92 294.58C624.853 294.66 624.86 294.917 624.94 295.35C628.17 312.84 650.95 313.8 664.3 310.21C668.14 309.18 673.59 304.61 668.97 300.82C666.28 298.61 662.41 298.58 658.63 299.64C649.82 302.13 633.06 302.73 626.86 294.63C626.748 294.481 626.603 294.359 626.437 294.274C626.271 294.189 626.088 294.142 625.902 294.137C625.715 294.132 625.53 294.17 625.36 294.246C625.19 294.323 625.04 294.437 624.92 294.58ZM749.34 319.6C749.107 320.533 749.373 321.277 750.14 321.83C752.75 323.71 756.4 322.8 759.25 321.41C759.346 321.362 759.452 321.34 759.559 321.345C759.665 321.35 759.769 321.382 759.86 321.438C759.951 321.494 760.026 321.572 760.079 321.665C760.131 321.758 760.159 321.863 760.16 321.97V330.99C760.16 331.123 760.127 331.254 760.064 331.372C760.002 331.491 759.911 331.593 759.8 331.67C757.13 333.55 753.52 336.09 749.97 336.66C748.903 336.833 748.087 337.56 747.52 338.84C747.444 339.014 747.408 339.204 747.417 339.394C747.426 339.584 747.479 339.769 747.571 339.935C747.663 340.101 747.792 340.243 747.948 340.349C748.104 340.456 748.283 340.525 748.47 340.55L749.52 340.69C749.737 340.723 749.96 340.702 750.17 340.63L754.95 338.98C755.244 338.877 755.563 338.876 755.857 338.978C756.151 339.08 756.403 339.278 756.57 339.54C757.377 340.773 758.737 341.853 760.65 342.78C760.796 342.85 760.964 342.859 761.117 342.807C761.27 342.755 761.397 342.644 761.47 342.5C763.17 339.12 762.31 335.68 762.47 333.09C762.48 332.918 762.529 332.751 762.614 332.6C762.699 332.449 762.817 332.319 762.96 332.22C768.17 328.67 771.96 326.04 777.86 327.34C780.51 327.93 781.72 330.56 780.84 332.86C778.45 339.05 767.08 340.59 769.6 330.96C769.615 330.905 769.613 330.848 769.594 330.794C769.576 330.741 769.541 330.695 769.496 330.661C769.451 330.628 769.396 330.609 769.34 330.607C769.283 330.605 769.228 330.62 769.18 330.65C767.86 331.47 767.95 331.99 767.64 333.94C767.187 336.86 768.133 339.067 770.48 340.56C770.847 340.789 771.267 340.92 771.7 340.94C777.273 341.18 781.233 338.97 783.58 334.31C784.347 332.79 784.313 331.097 783.48 329.23C781.41 324.59 773.06 325.26 769.31 326.82C766.47 328 764.48 328.997 763.34 329.81C763.225 329.893 763.088 329.943 762.947 329.953C762.805 329.964 762.663 329.935 762.537 329.869C762.41 329.804 762.304 329.705 762.231 329.583C762.157 329.462 762.119 329.322 762.12 329.18V321.71C762.12 321.164 762.277 320.63 762.573 320.171C762.869 319.711 763.292 319.347 763.79 319.12C765.07 318.533 766.163 317.75 767.07 316.77C767.225 316.6 767.337 316.394 767.395 316.172C767.454 315.949 767.457 315.715 767.405 315.49C767.353 315.266 767.247 315.058 767.096 314.883C766.945 314.709 766.754 314.574 766.54 314.49L763.42 313.28C763.152 313.175 762.917 313.003 762.74 312.78C762.573 312.527 762.367 312.013 762.12 311.24C761.41 309.05 758.85 308.45 756.89 309.15C756.772 309.193 756.669 309.268 756.592 309.367C756.515 309.466 756.468 309.585 756.457 309.71C756.445 309.835 756.469 309.96 756.527 310.072C756.584 310.184 756.672 310.277 756.78 310.34L758.58 311.37C758.863 311.537 759.077 311.804 759.18 312.12C759.773 313.953 760.03 315.84 759.95 317.78C759.944 317.955 759.894 318.125 759.805 318.275C759.716 318.426 759.59 318.551 759.44 318.64C756.46 320.433 753.183 320.703 749.61 319.45C749.583 319.439 749.555 319.435 749.526 319.437C749.497 319.439 749.469 319.448 749.444 319.462C749.418 319.476 749.396 319.496 749.378 319.52C749.36 319.543 749.347 319.571 749.34 319.6ZM489.21 323.29C489.343 321.863 489.837 320.817 490.69 320.15C491.042 319.883 491.466 319.723 491.91 319.69L510.95 318.45C510.98 318.448 511.009 318.454 511.036 318.466C511.063 318.479 511.086 318.498 511.104 318.522C511.122 318.545 511.134 318.573 511.138 318.603C511.143 318.632 511.14 318.662 511.13 318.69C510.863 319.343 510.463 319.92 509.93 320.42C504.643 325.393 497.28 331.667 487.84 339.24C487.691 339.359 487.584 339.522 487.533 339.705C487.481 339.888 487.489 340.083 487.554 340.262C487.619 340.44 487.738 340.594 487.896 340.702C488.053 340.809 488.24 340.864 488.43 340.86C496.503 340.613 502.36 340.403 506 340.23C507.573 340.157 509.833 340.297 512.78 340.65C513.162 340.696 513.525 340.842 513.833 341.074C514.14 341.306 514.381 341.615 514.53 341.97L515.35 343.91C515.398 344.029 515.486 344.127 515.598 344.188C515.711 344.249 515.841 344.268 515.967 344.244C516.092 344.219 516.205 344.151 516.286 344.052C516.367 343.952 516.411 343.828 516.41 343.7V335.09C516.411 334.97 516.372 334.854 516.299 334.759C516.227 334.663 516.125 334.595 516.009 334.564C515.894 334.533 515.771 334.542 515.661 334.588C515.551 334.634 515.459 334.716 515.4 334.82L513.93 337.36C513.788 337.606 513.589 337.813 513.35 337.963C513.111 338.113 512.839 338.202 512.56 338.22L495.98 339.3C495.89 339.306 495.799 339.288 495.719 339.246C495.638 339.204 495.571 339.141 495.524 339.063C495.478 338.986 495.453 338.896 495.454 338.806C495.455 338.715 495.482 338.627 495.53 338.55C496.11 337.597 496.893 336.7 497.88 335.86C502.2 332.187 507.033 327.887 512.38 322.96C512.446 322.9 512.513 322.847 512.58 322.8L515.7 320.74C515.992 320.545 516.228 320.277 516.384 319.963C516.541 319.648 516.612 319.299 516.59 318.95L516.28 314.24C516.276 314.138 516.238 314.041 516.173 313.962C516.107 313.884 516.018 313.83 515.918 313.808C515.819 313.787 515.715 313.799 515.623 313.842C515.531 313.886 515.456 313.959 515.41 314.05C513.963 316.697 512.833 317.817 512.02 317.41C511.28 317.043 508.947 317.01 505.02 317.31C502.34 317.517 498.113 317.46 492.34 317.14C490.44 317.033 489.407 316 489.24 314.04C489.235 313.968 489.215 313.897 489.183 313.832C489.15 313.767 489.104 313.709 489.048 313.662C488.992 313.615 488.928 313.579 488.858 313.556C488.788 313.533 488.714 313.524 488.64 313.53L488.34 313.54C488.258 313.545 488.182 313.582 488.126 313.643C488.07 313.705 488.04 313.786 488.04 313.87V323.43C488.04 323.509 488.072 323.586 488.128 323.642C488.184 323.698 488.26 323.73 488.34 323.73H488.73C488.851 323.73 488.967 323.685 489.056 323.604C489.145 323.522 489.2 323.41 489.21 323.29ZM776.32 316.71C778.03 316.78 781.91 314.11 782.83 317.61C782.861 317.727 782.869 317.848 782.851 317.965C782.834 318.082 782.793 318.193 782.73 318.29L781.47 320.21C781.437 320.264 781.42 320.326 781.423 320.39C781.425 320.453 781.446 320.514 781.484 320.564C781.521 320.614 781.572 320.651 781.63 320.67C781.688 320.689 781.751 320.689 781.81 320.67L787.23 319.1C787.616 318.988 787.945 318.731 788.146 318.382C788.347 318.034 788.406 317.621 788.31 317.23C787.877 315.477 786.817 314.42 785.13 314.06C781.75 313.34 778.753 314.04 776.14 316.16C776.091 316.199 776.056 316.253 776.038 316.313C776.021 316.373 776.022 316.437 776.041 316.497C776.061 316.556 776.098 316.609 776.147 316.647C776.197 316.685 776.257 316.707 776.32 316.71ZM742.26 380.45C745.14 380.65 750.81 376.9 753.19 375.19C753.317 375.1 753.466 375.047 753.621 375.037C753.776 375.026 753.931 375.058 754.069 375.129C754.207 375.2 754.323 375.308 754.404 375.44C754.486 375.572 754.529 375.725 754.53 375.88V401.55C754.53 401.879 754.398 402.194 754.164 402.427C753.929 402.659 753.611 402.79 753.28 402.79H743.9C743.785 402.789 743.674 402.832 743.587 402.909C743.5 402.986 743.445 403.094 743.43 403.21C743.27 404.503 743.82 405.823 745.08 407.17C745.18 407.273 745.305 407.346 745.442 407.383C745.58 407.42 745.724 407.419 745.86 407.38L767.27 401.18C767.293 401.175 767.314 401.163 767.33 401.146C767.346 401.128 767.356 401.106 767.358 401.082C767.361 401.059 767.355 401.035 767.343 401.015C767.331 400.995 767.312 400.979 767.29 400.97L765.99 400.38C765.871 400.354 765.749 400.35 765.63 400.37L759.14 401.62C758.934 401.66 758.722 401.654 758.518 401.602C758.315 401.55 758.126 401.453 757.964 401.319C757.802 401.186 757.672 401.017 757.584 400.827C757.495 400.637 757.449 400.43 757.45 400.22V391.39C757.45 391.269 757.478 391.149 757.532 391.04C757.586 390.932 757.665 390.837 757.762 390.764C757.859 390.691 757.972 390.642 758.091 390.621C758.211 390.599 758.333 390.606 758.45 390.64C759.403 390.907 760.503 390.993 761.75 390.9C762.088 390.874 762.426 390.948 762.723 391.113C763.02 391.279 763.262 391.528 763.42 391.83C767.733 400.217 774.73 405.233 784.41 406.88C784.872 406.957 785.348 406.849 785.74 406.58L791.22 402.82C791.267 402.79 791.303 402.745 791.321 402.692C791.339 402.639 791.338 402.582 791.317 402.529C791.297 402.477 791.259 402.434 791.211 402.406C791.162 402.379 791.105 402.37 791.05 402.38C784.623 403.233 778.143 402.193 771.61 399.26C771.517 399.216 771.439 399.145 771.385 399.057C771.332 398.97 771.305 398.868 771.308 398.765C771.311 398.662 771.344 398.563 771.403 398.478C771.462 398.394 771.545 398.328 771.64 398.29C775.393 396.863 779.163 395.98 782.95 395.64C783.027 395.635 783.101 395.612 783.168 395.573C783.234 395.535 783.291 395.481 783.335 395.417C783.378 395.352 783.406 395.279 783.418 395.201C783.429 395.124 783.423 395.045 783.4 394.97C782.973 393.53 781.98 392.33 780.42 391.37C780.294 391.292 780.146 391.259 779.999 391.275C779.853 391.291 779.715 391.356 779.61 391.46C777.463 393.56 774.843 395.26 771.75 396.56C771.59 396.627 771.223 396.893 770.65 397.36C770.535 397.451 770.394 397.504 770.248 397.513C770.101 397.522 769.955 397.486 769.83 397.41C767.363 395.877 765.813 393.98 765.18 391.72C765.145 391.597 765.139 391.468 765.164 391.343C765.189 391.218 765.243 391.101 765.322 391.001C765.402 390.902 765.503 390.822 765.62 390.77C765.736 390.717 765.863 390.693 765.99 390.7L771.07 390.93C771.604 390.956 772.111 391.18 772.49 391.56L773.15 392.22C773.404 392.475 773.729 392.647 774.082 392.714C774.435 392.78 774.801 392.739 775.13 392.593C775.459 392.448 775.736 392.207 775.926 391.901C776.115 391.595 776.207 391.239 776.19 390.88L775.78 381.04C775.773 380.769 775.821 380.501 775.92 380.25C776.187 379.597 776.473 379.103 776.78 378.77C777.157 378.36 777.351 377.81 777.319 377.237C777.287 376.664 777.033 376.112 776.61 375.7C775.77 374.88 774.83 374.61 773.79 374.89C771.443 375.523 769.543 375.867 768.09 375.92C767.898 375.927 767.708 375.883 767.539 375.792C767.37 375.701 767.228 375.566 767.128 375.402C767.028 375.238 766.974 375.051 766.971 374.859C766.967 374.667 767.016 374.477 767.11 374.31C767.403 373.783 767.96 373.197 768.78 372.55C768.835 372.508 768.879 372.453 768.91 372.392C768.941 372.33 768.958 372.262 768.959 372.192C768.96 372.123 768.945 372.055 768.916 371.992C768.887 371.929 768.843 371.874 768.79 371.83C767.397 370.71 765.91 370.07 764.33 369.91C764.248 369.903 764.166 369.913 764.088 369.938C764.011 369.964 763.939 370.004 763.879 370.058C763.819 370.112 763.771 370.177 763.738 370.25C763.706 370.322 763.689 370.401 763.69 370.48V374.65C763.69 374.953 763.575 375.244 763.369 375.464C763.162 375.683 762.88 375.815 762.58 375.83C760.607 375.93 758.457 375.573 756.13 374.76C756.026 374.725 755.932 374.664 755.858 374.582C755.785 374.501 755.733 374.401 755.708 374.294C755.683 374.186 755.686 374.073 755.716 373.965C755.746 373.858 755.802 373.76 755.88 373.68L765.31 364.25C765.443 364.118 765.604 364.017 765.78 363.954C765.957 363.891 766.145 363.867 766.331 363.884C766.517 363.901 766.696 363.959 766.857 364.053C767.017 364.148 767.155 364.276 767.26 364.43C771.327 370.37 776.847 374.937 783.82 378.13C784.104 378.259 784.423 378.284 784.72 378.2L789.94 376.69C790.12 376.637 790.278 376.526 790.387 376.373C790.497 376.22 790.552 376.035 790.544 375.847C790.536 375.66 790.465 375.48 790.343 375.337C790.221 375.195 790.054 375.097 789.87 375.06C783.13 373.7 777.177 371.103 772.01 367.27C769.87 365.683 768.663 364.357 768.39 363.29C767.843 361.197 766.357 359.773 763.93 359.02C763.782 358.973 763.623 358.975 763.476 359.026C763.329 359.076 763.2 359.172 763.11 359.3C762.39 360.31 762.03 361.77 761.01 363.24C756.003 370.473 749.723 376.063 742.17 380.01C742.122 380.031 742.083 380.068 742.059 380.115C742.035 380.161 742.028 380.215 742.038 380.266C742.049 380.317 742.076 380.364 742.117 380.397C742.157 380.43 742.208 380.449 742.26 380.45ZM488.05 368.28C488.063 370.733 488.097 372.413 488.15 373.32C488.156 373.442 488.207 373.557 488.292 373.644C488.378 373.731 488.492 373.784 488.614 373.793C488.736 373.801 488.856 373.765 488.953 373.691C489.05 373.617 489.116 373.51 489.14 373.39C489.393 372.11 489.93 371.133 490.75 370.46C491.131 370.143 491.612 369.97 492.11 369.97H512.46C512.768 369.97 513.071 370.046 513.343 370.19C513.616 370.335 513.848 370.544 514.02 370.8L515.65 373.23C515.698 373.302 515.768 373.356 515.848 373.386C515.929 373.416 516.018 373.42 516.101 373.396C516.184 373.373 516.258 373.324 516.311 373.257C516.365 373.189 516.396 373.106 516.4 373.02C516.42 372.8 516.423 371.177 516.41 368.15C516.397 365.123 516.377 363.503 516.35 363.29C516.346 363.204 516.315 363.121 516.261 363.053C516.208 362.986 516.134 362.937 516.051 362.914C515.968 362.89 515.879 362.894 515.798 362.924C515.718 362.954 515.648 363.008 515.6 363.08L514 365.53C513.829 365.787 513.597 365.999 513.325 366.145C513.053 366.292 512.749 366.369 512.44 366.37L492.09 366.55C491.594 366.553 491.113 366.383 490.73 366.07C489.903 365.41 489.357 364.44 489.09 363.16C489.066 363.04 488.999 362.933 488.901 362.859C488.803 362.785 488.681 362.75 488.559 362.759C488.437 362.769 488.323 362.824 488.238 362.912C488.153 363.001 488.104 363.117 488.1 363.24C488.053 364.14 488.037 365.82 488.05 368.28ZM672.05 437.48C671.283 437.753 670.75 437.99 670.45 438.19C658.1 446.48 645.08 454.75 629.14 452.26C611.81 449.54 613.97 427.64 615.94 415.21C616.473 411.85 618.017 403.873 620.57 391.28C621.99 384.28 621.31 377 614.25 373.66C611.743 372.467 609.073 371.873 606.24 371.88C606.082 371.879 605.926 371.918 605.788 371.995C605.65 372.072 605.535 372.184 605.453 372.319C605.371 372.454 605.326 372.609 605.322 372.766C605.318 372.924 605.355 373.081 605.43 373.22C605.463 373.293 606.53 375.583 608.63 380.09C609.29 381.503 609.67 384.31 609.77 388.51C609.897 393.87 609.643 398.95 609.01 403.75C606.58 422.31 601.71 458.26 628.82 462.31C637.13 463.55 646.72 460.5 653.57 456.31C661.097 451.717 667.437 445.67 672.59 438.17C672.645 438.089 672.672 437.993 672.669 437.896C672.666 437.799 672.632 437.705 672.572 437.628C672.512 437.551 672.429 437.495 672.335 437.469C672.241 437.442 672.141 437.446 672.05 437.48ZM647.34 384.49C647.787 385.11 648.317 385.617 648.93 386.01C653.157 388.683 656.663 391.637 659.45 394.87C664.26 400.45 670.41 391.79 664.08 387.31C659.453 384.03 654.007 382.787 647.74 383.58C647.641 383.593 647.546 383.631 647.466 383.691C647.386 383.751 647.323 383.83 647.283 383.922C647.242 384.013 647.227 384.114 647.237 384.213C647.247 384.313 647.282 384.408 647.34 384.49ZM515.46 393.75L514.43 395.54C514.204 395.934 513.88 396.262 513.489 396.494C513.098 396.725 512.654 396.851 512.2 396.86C506.62 396.973 499.803 396.957 491.75 396.81C488.31 396.743 485.297 396.293 482.71 395.46C482.32 395.335 481.981 395.089 481.74 394.758C481.499 394.428 481.369 394.029 481.37 393.62V390.18C481.37 390.006 481.324 389.835 481.236 389.684C481.148 389.533 481.022 389.408 480.87 389.32L480 388.82C479.894 388.759 479.774 388.726 479.651 388.724C479.529 388.721 479.407 388.75 479.299 388.807C479.19 388.863 479.098 388.947 479.03 389.048C478.962 389.15 478.921 389.268 478.91 389.39C478.16 398.22 486.69 400.38 493.77 400.6C498.203 400.733 504.423 400.73 512.43 400.59C512.758 400.584 513.083 400.659 513.375 400.809C513.666 400.959 513.916 401.18 514.1 401.45L515.53 403.53C515.586 403.613 515.667 403.677 515.762 403.71C515.857 403.744 515.96 403.747 516.056 403.718C516.152 403.688 516.236 403.629 516.297 403.549C516.357 403.468 516.389 403.37 516.39 403.27V394C516.389 393.891 516.352 393.785 516.285 393.699C516.218 393.613 516.125 393.55 516.02 393.522C515.914 393.494 515.803 393.501 515.702 393.542C515.6 393.583 515.516 393.656 515.46 393.75ZM632.74 389.78C633.193 390.4 633.73 390.907 634.35 391.3C638.617 393.953 642.16 396.893 644.98 400.12C649.85 405.69 655.97 396.95 649.58 392.49C644.907 389.23 639.427 388.023 633.14 388.87C633.041 388.883 632.946 388.921 632.866 388.981C632.786 389.041 632.723 389.12 632.683 389.212C632.642 389.303 632.626 389.404 632.637 389.503C632.647 389.603 632.682 389.698 632.74 389.78ZM781.53 434.27C780.87 433.843 780.203 433.237 779.53 432.45C779.312 432.196 779.024 432.014 778.701 431.926C778.378 431.839 778.037 431.851 777.72 431.961C777.404 432.071 777.127 432.274 776.925 432.543C776.724 432.811 776.607 433.135 776.59 433.47L776.58 433.75C776.575 433.845 776.534 433.934 776.465 433.999C776.396 434.064 776.305 434.1 776.21 434.1H768.29C768.08 434.1 767.879 434.016 767.731 433.866C767.583 433.716 767.5 433.512 767.5 433.3V430.63C767.5 430.52 767.522 430.41 767.564 430.308C767.606 430.207 767.668 430.114 767.746 430.036C767.824 429.958 767.917 429.896 768.018 429.854C768.12 429.812 768.23 429.79 768.34 429.79H786.59C786.685 429.789 786.779 429.766 786.864 429.723C786.949 429.68 787.022 429.619 787.079 429.543C787.135 429.467 787.173 429.379 787.189 429.287C787.204 429.194 787.198 429.099 787.17 429.01C786.477 426.73 784.863 425.263 782.33 424.61C782.117 424.555 781.892 424.568 781.687 424.647C781.483 424.726 781.309 424.867 781.19 425.05L779.72 427.3C779.456 427.702 779.097 428.033 778.674 428.261C778.252 428.49 777.78 428.61 777.3 428.61H768.32C768.178 428.61 768.04 428.566 767.924 428.483C767.808 428.401 767.719 428.285 767.67 428.15C767.11 426.59 767.597 425.173 769.13 423.9C769.262 423.792 769.358 423.646 769.406 423.482C769.453 423.318 769.449 423.144 769.395 422.982C769.341 422.82 769.238 422.679 769.102 422.577C768.965 422.475 768.8 422.416 768.63 422.41L764.19 422.22C764.155 422.217 764.12 422.222 764.087 422.234C764.054 422.246 764.024 422.266 764 422.292C763.975 422.318 763.956 422.349 763.944 422.383C763.932 422.417 763.927 422.454 763.93 422.49L764.26 427.53C764.268 427.658 764.25 427.785 764.207 427.906C764.164 428.026 764.097 428.137 764.01 428.23C763.923 428.324 763.818 428.399 763.701 428.45C763.584 428.502 763.458 428.529 763.33 428.53C756.95 428.63 750.637 428.193 744.39 427.22C744.324 427.209 744.256 427.215 744.193 427.237C744.13 427.26 744.074 427.298 744.029 427.349C743.984 427.4 743.953 427.461 743.937 427.528C743.922 427.594 743.923 427.664 743.94 427.73L744.39 429.28C744.451 429.488 744.577 429.67 744.75 429.8C744.923 429.93 745.134 430 745.35 430H763.51C763.638 430 763.765 430.026 763.883 430.077C764.001 430.127 764.107 430.201 764.196 430.295C764.285 430.388 764.354 430.499 764.399 430.62C764.445 430.741 764.465 430.871 764.46 431L764.36 433.15C764.349 433.415 764.236 433.666 764.044 433.849C763.851 434.032 763.595 434.133 763.33 434.13C760.43 434.097 757.817 433.937 755.49 433.65C755.143 433.61 754.86 433.417 754.64 433.07C753.92 431.93 752.83 431.93 751.48 432.17C751.411 432.181 751.347 432.209 751.292 432.252C751.238 432.295 751.195 432.351 751.168 432.415C751.141 432.479 751.131 432.549 751.138 432.618C751.145 432.687 751.17 432.753 751.21 432.81C751.437 433.143 751.563 433.813 751.59 434.82C751.657 437.287 751.56 439.777 751.3 442.29C751.29 442.386 751.301 442.484 751.33 442.576C751.359 442.669 751.408 442.754 751.471 442.827C751.535 442.9 751.613 442.959 751.7 443.001C751.788 443.043 751.883 443.066 751.98 443.07C753.033 443.11 753.873 442.727 754.5 441.92C754.659 441.718 754.862 441.554 755.094 441.441C755.326 441.329 755.581 441.27 755.84 441.27H763.09C763.296 441.27 763.499 441.311 763.688 441.392C763.877 441.473 764.048 441.591 764.19 441.74C764.332 441.888 764.443 442.064 764.515 442.257C764.587 442.449 764.619 442.655 764.61 442.86L764.56 443.9C764.55 444.136 764.493 444.368 764.393 444.583C764.293 444.797 764.151 444.99 763.977 445.15C763.802 445.31 763.598 445.433 763.375 445.514C763.153 445.595 762.916 445.631 762.68 445.62L749.82 445.05C749.713 445.044 749.606 445.061 749.505 445.098C749.405 445.135 749.313 445.193 749.235 445.267C749.158 445.341 749.096 445.43 749.054 445.528C749.011 445.627 748.99 445.733 748.99 445.84V446.14C748.99 446.389 749.089 446.628 749.265 446.805C749.442 446.981 749.681 447.08 749.93 447.08H763.2C763.385 447.08 763.568 447.117 763.738 447.19C763.909 447.262 764.062 447.369 764.191 447.502C764.319 447.636 764.418 447.794 764.483 447.967C764.549 448.14 764.578 448.325 764.57 448.51L764.51 449.87C764.501 450.07 764.453 450.266 764.367 450.447C764.282 450.628 764.162 450.79 764.013 450.925C763.864 451.06 763.69 451.164 763.501 451.232C763.312 451.299 763.111 451.329 762.91 451.32L743.31 450.45C743.243 450.447 743.176 450.46 743.116 450.488C743.055 450.517 743.002 450.559 742.961 450.612C742.92 450.665 742.892 450.726 742.879 450.792C742.867 450.858 742.871 450.926 742.89 450.99L743.19 452.02C743.236 452.179 743.333 452.318 743.466 452.418C743.6 452.517 743.762 452.57 743.93 452.57H763.47C763.748 452.57 764.015 452.681 764.212 452.878C764.409 453.074 764.52 453.341 764.52 453.62V455.64C764.52 455.807 764.486 455.972 764.421 456.126C764.356 456.28 764.26 456.419 764.139 456.535C764.019 456.651 763.876 456.741 763.72 456.8C763.564 456.86 763.397 456.887 763.23 456.88L749.43 456.26C749.332 456.255 749.234 456.272 749.143 456.308C749.052 456.344 748.969 456.4 748.901 456.47C748.832 456.541 748.778 456.626 748.744 456.719C748.709 456.811 748.694 456.911 748.7 457.01L748.73 457.45C748.745 457.697 748.854 457.928 749.034 458.097C749.215 458.266 749.453 458.36 749.7 458.36H762.71C763.023 458.36 763.333 458.431 763.615 458.569C763.896 458.706 764.143 458.906 764.337 459.154C764.531 459.401 764.665 459.69 764.732 459.997C764.798 460.305 764.794 460.624 764.72 460.93L764.26 462.81C764.094 463.49 763.697 464.09 763.137 464.51C762.577 464.929 761.889 465.142 761.19 465.11L754.58 464.81C754.503 464.805 754.427 464.828 754.366 464.875C754.305 464.921 754.262 464.988 754.246 465.064C754.231 465.139 754.242 465.217 754.28 465.285C754.317 465.352 754.378 465.404 754.45 465.43L756.61 466.25C756.788 466.316 756.952 466.421 757.09 466.56C760.017 469.553 762.97 469.797 765.95 467.29C767.86 465.69 767.49 462.07 767.63 458.81C767.638 458.643 767.709 458.485 767.828 458.37C767.947 458.254 768.105 458.19 768.27 458.19H776.27C776.463 458.189 776.652 458.252 776.807 458.37C776.962 458.487 777.076 458.652 777.13 458.84L777.32 459.51C777.435 459.898 777.686 460.232 778.027 460.451C778.368 460.67 778.776 460.759 779.178 460.702C779.579 460.645 779.946 460.446 780.213 460.141C780.479 459.836 780.627 459.445 780.63 459.04V453.52C780.63 453.199 780.756 452.891 780.981 452.664C781.206 452.437 781.512 452.31 781.83 452.31H789.26C789.336 452.309 789.412 452.29 789.48 452.255C789.548 452.22 789.606 452.169 789.65 452.108C789.694 452.046 789.722 451.975 789.733 451.901C789.743 451.826 789.735 451.751 789.71 451.68C789.13 450.007 787.857 448.567 785.89 447.36C785.758 447.281 785.604 447.244 785.449 447.255C785.294 447.265 785.144 447.323 785.02 447.42C783.973 448.253 783.193 449.317 782.68 450.61C782.625 450.749 782.54 450.874 782.431 450.977C782.322 451.08 782.193 451.158 782.051 451.205C781.909 451.253 781.759 451.269 781.61 451.252C781.461 451.236 781.318 451.187 781.19 451.11L780.81 450.85C780.694 450.774 780.594 450.676 780.516 450.562C780.438 450.447 780.384 450.318 780.356 450.182C780.328 450.047 780.327 449.907 780.354 449.771C780.38 449.635 780.433 449.505 780.51 449.39L782.43 446.44C782.459 446.395 782.479 446.344 782.488 446.292C782.497 446.239 782.496 446.185 782.484 446.132C782.472 446.08 782.449 446.031 782.417 445.987C782.386 445.944 782.346 445.908 782.3 445.88L779.54 444.29C779.359 444.185 779.225 444.014 779.167 443.812C779.109 443.611 779.132 443.395 779.23 443.21C780.09 441.63 780.353 439.713 780.02 437.46C779.992 437.283 780.005 437.102 780.059 436.932C780.113 436.762 780.206 436.607 780.33 436.48L781.63 435.09C781.685 435.033 781.727 434.965 781.752 434.89C781.778 434.814 781.786 434.735 781.776 434.656C781.767 434.577 781.74 434.502 781.697 434.435C781.654 434.368 781.597 434.312 781.53 434.27ZM488.03 428.77C488.037 431.65 488.077 433.293 488.15 433.7C488.162 433.806 488.211 433.904 488.288 433.978C488.365 434.052 488.465 434.097 488.571 434.105C488.677 434.113 488.783 434.084 488.871 434.023C488.958 433.962 489.021 433.873 489.05 433.77C489.47 432.503 489.93 431.667 490.43 431.26C490.751 430.999 491.138 430.83 491.55 430.77C492.617 430.61 496.173 430.52 502.22 430.5C508.267 430.48 511.827 430.543 512.9 430.69C513.312 430.75 513.699 430.919 514.02 431.18C514.52 431.58 514.987 432.413 515.42 433.68C515.452 433.777 515.517 433.861 515.602 433.918C515.688 433.974 515.79 434.001 515.892 433.993C515.995 433.985 516.091 433.943 516.167 433.873C516.243 433.804 516.293 433.711 516.31 433.61C516.383 433.197 516.413 431.55 516.4 428.67C516.393 425.783 516.353 424.137 516.28 423.73C516.268 423.624 516.219 423.526 516.142 423.452C516.065 423.378 515.965 423.333 515.859 423.325C515.752 423.317 515.647 423.345 515.559 423.407C515.472 423.468 515.409 423.557 515.38 423.66C514.96 424.927 514.5 425.763 514 426.17C513.682 426.433 513.299 426.606 512.89 426.67C511.817 426.823 508.257 426.91 502.21 426.93C496.163 426.95 492.603 426.887 491.53 426.74C491.119 426.683 490.732 426.517 490.41 426.26C489.91 425.853 489.447 425.02 489.02 423.76C488.991 423.657 488.928 423.568 488.841 423.507C488.753 423.445 488.647 423.417 488.541 423.425C488.435 423.433 488.335 423.478 488.258 423.552C488.181 423.626 488.132 423.724 488.12 423.83C488.047 424.237 488.017 425.883 488.03 428.77ZM488.11 459.18V470.82C488.11 470.879 488.13 470.936 488.165 470.982C488.201 471.029 488.251 471.063 488.307 471.079C488.364 471.094 488.424 471.091 488.478 471.07C488.533 471.049 488.579 471.01 488.61 470.96L490.72 467.31C490.821 467.134 490.966 466.987 491.142 466.885C491.317 466.783 491.517 466.73 491.72 466.73H500.98C501.476 466.73 501.959 466.872 502.37 467.14L512.72 473.9C513.07 474.131 513.372 474.426 513.61 474.77L515.55 477.6C515.607 477.686 515.691 477.752 515.788 477.787C515.886 477.821 515.992 477.824 516.091 477.794C516.19 477.763 516.276 477.702 516.337 477.618C516.398 477.534 516.431 477.433 516.43 477.33V469.73C516.426 469.619 516.384 469.512 516.31 469.429C516.237 469.345 516.136 469.29 516.027 469.272C515.917 469.255 515.804 469.276 515.708 469.332C515.612 469.388 515.538 469.476 515.5 469.58C515.087 470.867 514.36 471.587 513.32 471.74C513.034 471.779 512.742 471.723 512.49 471.58L505.13 467.33C504.937 467.22 504.776 467.063 504.661 466.874C504.545 466.685 504.48 466.469 504.47 466.247C504.46 466.025 504.506 465.803 504.604 465.603C504.702 465.402 504.848 465.229 505.03 465.1C507.203 463.567 509.633 461.943 512.32 460.23C513.18 459.683 513.81 459.623 514.21 460.05C514.723 460.603 515.12 461.31 515.4 462.17C515.439 462.279 515.515 462.371 515.615 462.43C515.715 462.49 515.832 462.512 515.947 462.495C516.061 462.477 516.166 462.42 516.243 462.333C516.321 462.247 516.365 462.136 516.37 462.02V452.72C516.366 452.596 516.32 452.477 516.24 452.383C516.159 452.288 516.05 452.223 515.928 452.199C515.806 452.175 515.68 452.192 515.57 452.249C515.46 452.305 515.371 452.397 515.32 452.51C513.75 456.22 510.07 457.7 505.94 460.38C503.153 462.2 501.043 463.157 499.61 463.25C497.277 463.41 494.9 463.393 492.48 463.2C491.153 463.093 489.803 461.727 488.43 459.1C488.412 459.066 488.384 459.04 488.349 459.025C488.314 459.009 488.275 459.006 488.239 459.015C488.202 459.024 488.169 459.045 488.146 459.075C488.123 459.105 488.11 459.142 488.11 459.18ZM742.81 529.65C747.75 527.3 750.56 523.77 754.19 519.07C754.287 518.944 754.414 518.844 754.559 518.779C754.704 518.714 754.864 518.687 755.022 518.698C755.181 518.71 755.334 518.761 755.468 518.847C755.602 518.933 755.713 519.051 755.79 519.19C760.66 527.87 772.54 529.88 782.06 528.78C784.48 528.5 786.047 528.053 786.76 527.44C788.013 526.38 789.163 525.16 790.21 523.78C790.249 523.732 790.272 523.672 790.274 523.61C790.277 523.548 790.26 523.487 790.225 523.435C790.19 523.384 790.14 523.345 790.082 523.324C790.023 523.303 789.959 523.302 789.9 523.32C782.96 525.27 774.92 525.83 768.61 524.51C764.157 523.577 760.253 521.13 756.9 517.17C756.625 516.848 756.454 516.45 756.408 516.028C756.361 515.606 756.442 515.178 756.64 514.8C759.18 509.967 761.007 505.073 762.12 500.12C762.212 499.731 762.382 499.363 762.62 499.04L763.96 497.26C764.146 497.009 764.232 496.699 764.2 496.39C764.06 495.01 763.147 494.167 761.46 493.86C761.142 493.802 760.815 493.851 760.53 494C758.77 494.947 756.673 495.21 754.24 494.79C754.083 494.763 753.942 494.679 753.844 494.555C753.746 494.431 753.698 494.276 753.71 494.12C753.757 493.327 753.993 492.253 754.42 490.9C754.98 489.12 756.57 488.09 757.14 486.32C757.167 486.231 757.177 486.138 757.167 486.046C757.158 485.954 757.13 485.864 757.085 485.783C757.04 485.702 756.979 485.63 756.906 485.573C756.833 485.516 756.749 485.474 756.66 485.45L752.96 484.46C752.863 484.433 752.761 484.428 752.662 484.444C752.563 484.46 752.468 484.498 752.385 484.554C752.301 484.61 752.231 484.683 752.178 484.768C752.126 484.854 752.092 484.95 752.08 485.05C750.953 494.683 748.027 503.683 743.3 512.05C743.264 512.108 743.254 512.178 743.271 512.246C743.287 512.313 743.33 512.372 743.39 512.41L743.72 512.63C743.782 512.67 743.851 512.698 743.924 512.71C743.997 512.723 744.071 512.721 744.142 512.704C744.213 512.687 744.28 512.656 744.338 512.612C744.396 512.568 744.444 512.513 744.48 512.45L749.49 503.77C749.584 503.614 749.727 503.494 749.897 503.427C750.066 503.361 750.253 503.352 750.428 503.402C750.603 503.452 750.757 503.558 750.866 503.704C750.974 503.85 751.032 504.028 751.03 504.21C750.95 506.59 751.633 509.053 753.08 511.6C753.323 512.027 753.457 512.508 753.47 513C753.503 514.6 753.313 515.817 752.9 516.65C751.44 519.61 748.41 524.08 745.17 526.75C743.49 528.137 742.577 528.97 742.43 529.25C742.401 529.304 742.389 529.366 742.397 529.426C742.405 529.487 742.432 529.544 742.475 529.588C742.517 529.632 742.572 529.662 742.632 529.674C742.692 529.685 742.755 529.676 742.81 529.65ZM787.01 506.25C786.957 506.297 786.497 508.173 785.63 511.88C784.67 516.01 779.67 516.31 779.63 511.37C779.583 506.67 779.597 501.413 779.67 495.6C779.69 493.32 780.11 492.37 781.1 490.42C781.164 490.294 781.203 490.156 781.213 490.014C781.223 489.873 781.205 489.731 781.159 489.596C781.114 489.462 781.042 489.338 780.947 489.232C780.853 489.127 780.738 489.041 780.61 488.98C779.77 488.58 779.063 488.08 778.49 487.48C778.436 487.424 778.371 487.379 778.299 487.348C778.227 487.317 778.15 487.3 778.072 487.299C777.994 487.298 777.916 487.313 777.844 487.342C777.771 487.372 777.706 487.415 777.65 487.47C775.27 489.81 770.97 489.2 768.25 487.23C768.113 487.133 767.951 487.079 767.784 487.074C767.616 487.069 767.451 487.114 767.309 487.203C767.167 487.291 767.054 487.42 766.985 487.573C766.916 487.725 766.893 487.895 766.92 488.06C767.9 494.007 767.91 500.027 766.95 506.12C766.2 510.83 764.14 514.82 760.48 517.72C760.427 517.764 760.385 517.819 760.358 517.882C760.331 517.946 760.319 518.014 760.324 518.083C760.329 518.151 760.35 518.218 760.386 518.276C760.422 518.335 760.471 518.384 760.53 518.42C760.65 518.487 760.78 518.487 760.92 518.42C771.25 513.5 770.32 501.56 770.5 492.08C770.504 491.821 770.559 491.566 770.664 491.329C770.768 491.093 770.919 490.879 771.107 490.702C771.296 490.525 771.518 490.387 771.761 490.298C772.003 490.208 772.262 490.168 772.52 490.18L774.73 490.28C775.234 490.301 775.71 490.517 776.057 490.883C776.404 491.249 776.596 491.736 776.59 492.24C776.517 503.34 776.537 510.013 776.65 512.26C776.717 513.593 777.037 514.82 777.61 515.94C777.753 516.226 777.984 516.46 778.27 516.61C781.123 518.157 784.43 518.227 788.19 516.82C788.339 516.763 788.476 516.678 788.591 516.568C788.707 516.459 788.801 516.328 788.866 516.183C788.931 516.038 788.966 515.882 788.971 515.723C788.975 515.565 788.947 515.407 788.89 515.26C787.95 512.86 787.513 509.943 787.58 506.51C787.582 506.443 787.564 506.377 787.529 506.32C787.493 506.264 787.442 506.219 787.381 506.191C787.32 506.163 787.253 506.154 787.187 506.164C787.121 506.175 787.059 506.205 787.01 506.25ZM488.64 517.83C490 515.883 491.243 514.687 492.37 514.24C501.13 510.76 510.09 507.7 517.27 505.37C517.375 505.335 517.47 505.274 517.545 505.192C517.621 505.111 517.674 505.012 517.701 504.904C517.728 504.796 517.727 504.684 517.699 504.576C517.671 504.469 517.616 504.37 517.54 504.29C516.447 503.143 515.303 502.433 514.11 502.16C512.263 501.74 511.133 501.297 510.72 500.83C510.2 500.25 506.84 499.89 505.78 499.35C505.607 499.263 501.883 497.953 494.61 495.42C491.53 494.35 490.22 493.43 488.81 490.66C488.768 490.569 488.696 490.496 488.606 490.453C488.517 490.409 488.414 490.399 488.318 490.422C488.221 490.446 488.135 490.502 488.075 490.582C488.015 490.662 487.985 490.76 487.99 490.86V499.07C487.99 499.22 488.045 499.364 488.146 499.475C488.247 499.586 488.386 499.655 488.535 499.668C488.684 499.682 488.833 499.64 488.952 499.549C489.071 499.459 489.153 499.327 489.18 499.18C489.307 498.46 489.617 497.657 490.11 496.77C490.189 496.621 490.318 496.504 490.474 496.436C490.63 496.369 490.805 496.356 490.97 496.4L498.07 498.31C498.417 498.403 498.724 498.607 498.943 498.891C499.162 499.175 499.28 499.522 499.28 499.88V506.84C499.279 507.247 499.147 507.642 498.904 507.967C498.66 508.291 498.319 508.527 497.93 508.64L491.04 510.63C490.855 510.684 490.657 510.668 490.484 510.585C490.31 510.502 490.174 510.358 490.1 510.18L489.39 508.51C489.327 508.347 489.208 508.211 489.055 508.127C488.902 508.043 488.724 508.016 488.552 508.051C488.381 508.086 488.228 508.18 488.119 508.317C488.011 508.454 487.954 508.625 487.96 508.8V517.62C487.958 517.7 487.983 517.779 488.03 517.844C488.077 517.91 488.144 517.958 488.221 517.982C488.298 518.005 488.38 518.003 488.456 517.976C488.531 517.949 488.596 517.897 488.64 517.83ZM607.39 550.36C603.523 553.287 599.517 555.447 595.37 556.84C591.24 558.24 587.42 557.47 582.78 556.47C582.678 556.449 582.572 556.451 582.47 556.477C582.369 556.502 582.275 556.551 582.195 556.618C582.115 556.685 582.051 556.77 582.009 556.866C581.966 556.961 581.946 557.065 581.95 557.17C581.99 558.31 582.337 559.333 582.99 560.24C591.31 571.71 603.85 565.33 611.57 557.5C611.657 557.41 611.765 557.342 611.883 557.3C612.001 557.258 612.127 557.243 612.252 557.258C612.376 557.272 612.496 557.315 612.601 557.383C612.707 557.451 612.795 557.542 612.86 557.65C618.05 566.37 623.72 576.17 627.11 586.46C628.84 591.74 628.83 598.13 629.67 603.28C630.24 606.75 633.69 610.01 637.48 607.49C645.42 602.23 637.55 587.12 634.11 581.13C628.897 572.057 623.307 563.113 617.34 554.3C617.251 554.171 617.208 554.016 617.217 553.859C617.226 553.701 617.287 553.551 617.39 553.43C618.117 552.597 619.033 551.753 620.14 550.9C630.56 542.83 651.07 528.65 664.09 538.4C669.66 542.58 669.26 549.16 664.4 553.81C657.97 559.97 644.54 558.38 637.16 555.05C633.88 553.57 630.35 550.22 627.82 547.97C627.513 547.697 627.207 547.57 626.9 547.59C626.81 547.595 626.723 547.622 626.646 547.668C626.569 547.714 626.505 547.778 626.459 547.854C626.412 547.93 626.385 548.016 626.38 548.104C626.375 548.192 626.392 548.28 626.43 548.36C633.46 563.47 649.56 572.09 665.39 564.33C671.12 561.51 675.36 557.46 676.39 551.09C678.67 537.02 663.03 530.48 651.77 531.54C646.137 532.067 641.727 532.923 638.54 534.11C629.88 537.323 621.697 541.477 613.99 546.57C613.703 546.758 613.355 546.83 613.018 546.771C612.682 546.711 612.381 546.525 612.18 546.25C609.56 542.68 601.4 532.02 608.66 529.44C614.37 527.41 621.53 530.54 627.48 532.74C629.58 533.513 631.743 533.773 633.97 533.52C638.89 532.97 641.6 529.24 639.61 524.44C637.66 519.73 632.75 516.62 627.74 516.2C627.642 516.19 627.542 516.207 627.452 516.247C627.362 516.287 627.284 516.35 627.225 516.43C627.167 516.51 627.13 516.603 627.118 516.701C627.107 516.799 627.121 516.899 627.16 516.99L629.16 521.73C629.206 521.829 629.237 521.934 629.25 522.04C629.517 524.18 627.847 525.397 624.24 525.69C620.227 526.017 615.94 526.153 611.38 526.1C605.04 526.02 599.84 526.94 597.9 533.04C596.36 537.86 599.95 541.06 603.24 544.04C604.007 544.733 605.433 546.567 607.52 549.54C607.608 549.667 607.644 549.823 607.62 549.976C607.595 550.129 607.513 550.266 607.39 550.36Z" fill="#003169"/>
<path d="M603.57 84.98C603.608 84.9413 603.659 84.9187 603.713 84.9169C603.767 84.915 603.82 84.934 603.86 84.97L617.59 97.93C617.657 97.9941 617.709 98.0719 617.743 98.1579C617.776 98.2439 617.791 98.3361 617.785 98.4277C617.779 98.5194 617.754 98.6083 617.709 98.6882C617.665 98.7681 617.604 98.837 617.53 98.89C610.677 103.923 603.873 109.663 597.12 116.11C590.787 122.157 584.007 128.047 576.78 133.78C571.61 137.89 567.32 143.58 562.3 148.32C551.407 158.627 542.633 166.877 535.98 173.07C529.38 179.217 524.277 184.22 520.67 188.08C509.34 200.21 498.34 211.88 484.52 225.69C479.47 230.73 474.91 235.92 470.17 240.76C468.03 242.953 466.14 244.993 464.5 246.88C456.2 256.467 439.873 274.427 415.52 300.76C409.807 306.94 400.353 317.467 387.16 332.34C379.94 340.473 373.663 347.087 368.33 352.18C357.743 362.287 351.08 368.507 348.34 370.84C331.72 384.99 321.21 394.84 299.93 414.42C299.839 414.503 299.766 414.604 299.715 414.716C299.664 414.828 299.636 414.95 299.632 415.074C299.628 415.197 299.649 415.321 299.694 415.437C299.738 415.553 299.805 415.659 299.89 415.75C312.15 428.757 321.837 438.99 328.95 446.45C337.72 455.65 343.26 460.85 351.9 469C361.21 477.79 371.06 488.31 378.84 495.97C409.853 526.483 440.73 557.023 471.47 587.59C481.66 597.73 494.69 611.33 506 622.24C527.573 643.04 548.093 662.493 567.56 680.6C571.007 683.807 576.837 688.963 585.05 696.07C598.48 707.69 610.39 720.35 623.65 733.58C623.973 733.902 624.158 734.338 624.163 734.796C624.169 735.254 623.995 735.697 623.68 736.03L611.82 748.6C611.738 748.687 611.638 748.757 611.528 748.804C611.418 748.852 611.3 748.876 611.18 748.876C611.06 748.876 610.941 748.852 610.831 748.804C610.721 748.757 610.622 748.687 610.54 748.6C585.313 721.487 557.623 692.767 527.47 662.44C519.19 654.113 511.617 646.717 504.75 640.25C474.08 611.38 445.65 581.6 415.51 552.14C400.11 537.093 376.027 513.31 343.26 480.79C336.5 474.083 331.023 468.7 326.83 464.64C310.47 448.81 293.19 430.32 279.6 415.81C279.491 415.693 279.407 415.556 279.352 415.405C279.297 415.255 279.274 415.096 279.282 414.936C279.29 414.776 279.331 414.62 279.401 414.476C279.471 414.333 279.569 414.205 279.69 414.1C281.857 412.24 283.757 410.66 285.39 409.36C289.99 405.68 294.39 400.82 297.93 397.44C301.503 394.02 303.87 391.717 305.03 390.53C323.66 371.41 343.88 351.42 363.46 330.97C380.033 313.657 405.36 287.103 439.44 251.31C453.25 236.8 465.56 225.08 479.27 211.62C484.563 206.427 489.117 201.757 492.93 197.61C501.47 188.32 508.45 181.32 518.14 173.05C520.307 171.203 521.9 169.68 522.92 168.48C525.1 165.93 526.78 163.74 528.82 161.96C540.413 151.853 548.01 144.817 551.61 140.85C570.597 119.93 587.917 101.307 603.57 84.98Z" fill="white"/>
<path d="M613.14 269.04C613.194 269.002 613.259 268.982 613.325 268.983C613.391 268.984 613.455 269.007 613.508 269.047C613.56 269.087 613.599 269.143 613.617 269.207C613.635 269.27 613.633 269.338 613.61 269.4C611.697 274.613 609.767 280.417 607.82 286.81C605.374 294.863 604.794 302.997 606.08 311.21C606.154 311.677 606.02 312.473 605.68 313.6C604.81 316.49 602.14 317.29 599.55 315.66C597.41 314.3 595.68 311.58 594.84 308.95C591.27 297.64 591.2 288.15 593.97 276.11C595.69 268.63 598.48 259.55 598.9 250.49C599.12 245.757 598.054 241.293 595.7 237.1C595.608 236.934 595.561 236.747 595.564 236.557C595.567 236.367 595.62 236.182 595.717 236.02C595.815 235.858 595.954 235.725 596.12 235.636C596.285 235.546 596.472 235.503 596.66 235.51C600.13 235.61 603.09 237.41 604.98 240.34C607.94 244.92 608.464 249.99 606.55 255.55C602.35 267.783 600.167 274.187 600 274.76C598.507 279.993 598.134 285.293 598.88 290.66C598.908 290.858 598.999 291.041 599.14 291.183C599.28 291.325 599.463 291.418 599.66 291.449C599.857 291.479 600.059 291.445 600.236 291.351C600.412 291.258 600.554 291.11 600.64 290.93C603.754 284.437 607.14 278.063 610.8 271.81C611.54 270.543 612.32 269.62 613.14 269.04Z" fill="white"/>
<path d="M626.89 248.3C626.769 248.073 626.724 247.813 626.763 247.559C626.801 247.304 626.921 247.069 627.105 246.888C627.289 246.706 627.526 246.588 627.783 246.551C628.04 246.513 628.301 246.559 628.53 246.68C636.33 250.9 645.66 250.77 654.34 247.81C657.37 246.78 660.71 247.03 662.76 249.04C664.74 250.993 664.647 252.993 662.48 255.04C659.29 258.06 651.41 258.87 647.76 259.05C641.933 259.337 636.92 258.37 632.72 256.15C631.182 255.336 629.928 254.077 629.12 252.54L626.89 248.3Z" fill="white"/>
<path d="M624.92 294.58C625.04 294.437 625.191 294.323 625.361 294.246C625.531 294.17 625.716 294.132 625.903 294.137C626.089 294.142 626.272 294.189 626.438 294.274C626.604 294.36 626.748 294.481 626.86 294.63C633.06 302.73 649.82 302.13 658.63 299.64C662.41 298.58 666.28 298.61 668.97 300.82C673.59 304.61 668.14 309.18 664.3 310.21C650.95 313.8 628.17 312.84 624.94 295.35C624.86 294.917 624.854 294.66 624.92 294.58Z" fill="white"/>
<path d="M749.34 319.6C749.347 319.571 749.36 319.543 749.378 319.52C749.396 319.496 749.418 319.476 749.444 319.462C749.469 319.448 749.498 319.439 749.526 319.437C749.555 319.435 749.583 319.44 749.61 319.45C753.183 320.703 756.46 320.433 759.44 318.64C759.59 318.551 759.716 318.426 759.805 318.275C759.894 318.125 759.944 317.955 759.95 317.78C760.03 315.84 759.773 313.953 759.18 312.12C759.077 311.804 758.863 311.537 758.58 311.37L756.78 310.34C756.672 310.277 756.584 310.184 756.527 310.072C756.47 309.961 756.445 309.835 756.457 309.71C756.468 309.585 756.515 309.466 756.592 309.367C756.669 309.268 756.772 309.193 756.89 309.15C758.85 308.45 761.41 309.05 762.12 311.24C762.367 312.013 762.573 312.527 762.74 312.78C762.917 313.003 763.152 313.175 763.42 313.28L766.54 314.49C766.754 314.574 766.945 314.709 767.096 314.883C767.247 315.058 767.353 315.266 767.405 315.491C767.457 315.715 767.454 315.949 767.395 316.172C767.337 316.395 767.225 316.6 767.07 316.77C766.163 317.75 765.07 318.533 763.79 319.12C763.292 319.347 762.869 319.711 762.573 320.171C762.277 320.63 762.12 321.164 762.12 321.71V329.18C762.119 329.322 762.157 329.462 762.231 329.584C762.305 329.705 762.41 329.804 762.537 329.869C762.663 329.935 762.805 329.964 762.947 329.953C763.088 329.943 763.225 329.893 763.34 329.81C764.48 328.997 766.47 328 769.31 326.82C773.06 325.26 781.41 324.59 783.48 329.23C784.313 331.097 784.347 332.79 783.58 334.31C781.233 338.97 777.273 341.18 771.7 340.94C771.267 340.92 770.847 340.789 770.48 340.56C768.133 339.067 767.187 336.86 767.64 333.94C767.95 331.99 767.86 331.47 769.18 330.65C769.228 330.62 769.283 330.605 769.34 330.607C769.396 330.609 769.451 330.628 769.496 330.661C769.541 330.695 769.576 330.741 769.594 330.795C769.613 330.848 769.615 330.906 769.6 330.96C767.08 340.59 778.45 339.05 780.84 332.86C781.72 330.56 780.51 327.93 777.86 327.34C771.96 326.04 768.17 328.67 762.96 332.22C762.817 332.32 762.699 332.45 762.614 332.6C762.529 332.751 762.48 332.919 762.47 333.09C762.31 335.68 763.17 339.12 761.47 342.5C761.397 342.645 761.27 342.755 761.117 342.807C760.964 342.859 760.796 342.85 760.65 342.78C758.737 341.853 757.377 340.773 756.57 339.54C756.403 339.278 756.152 339.08 755.857 338.978C755.563 338.876 755.244 338.877 754.95 338.98L750.17 340.63C749.96 340.702 749.737 340.723 749.52 340.69L748.47 340.55C748.283 340.525 748.104 340.456 747.948 340.35C747.792 340.243 747.663 340.101 747.571 339.935C747.479 339.77 747.426 339.584 747.417 339.394C747.409 339.204 747.444 339.015 747.52 338.84C748.087 337.56 748.903 336.833 749.97 336.66C753.52 336.09 757.13 333.55 759.8 331.67C759.911 331.593 760.002 331.491 760.065 331.372C760.127 331.254 760.16 331.123 760.16 330.99V321.97C760.159 321.863 760.131 321.758 760.079 321.665C760.026 321.572 759.951 321.494 759.86 321.438C759.769 321.382 759.665 321.35 759.559 321.345C759.452 321.34 759.346 321.363 759.25 321.41C756.4 322.8 752.75 323.71 750.14 321.83C749.373 321.277 749.107 320.533 749.34 319.6ZM763.232 314.002C763.016 313.975 762.789 314.109 762.6 314.374C762.412 314.639 762.277 315.015 762.226 315.417C762.176 315.82 762.213 316.217 762.329 316.521C762.446 316.825 762.632 317.011 762.848 317.038C763.064 317.065 763.291 316.931 763.48 316.666C763.668 316.401 763.803 316.025 763.854 315.623C763.904 315.22 763.867 314.823 763.751 314.519C763.634 314.216 763.448 314.029 763.232 314.002ZM756.99 338.5L758.8 339.14C758.853 339.159 758.91 339.168 758.966 339.165C759.022 339.162 759.078 339.148 759.129 339.124C759.18 339.1 759.226 339.066 759.264 339.024C759.302 338.982 759.331 338.933 759.35 338.88L759.44 338.62C759.606 338.152 759.739 337.677 759.83 337.223C759.922 336.769 759.971 336.345 759.975 335.974C759.979 335.603 759.937 335.294 759.852 335.063C759.767 334.832 759.641 334.685 759.48 334.63L759.29 334.57C758.967 334.458 758.526 334.724 758.063 335.309C757.6 335.894 757.153 336.75 756.82 337.69L756.73 337.95C756.711 338.003 756.702 338.06 756.705 338.116C756.708 338.173 756.722 338.228 756.746 338.279C756.77 338.33 756.804 338.376 756.846 338.414C756.888 338.452 756.937 338.481 756.99 338.5Z" fill="white"/>
<path d="M489.21 323.29C489.2 323.41 489.145 323.522 489.056 323.604C488.967 323.685 488.851 323.73 488.73 323.73H488.34C488.261 323.73 488.184 323.698 488.128 323.642C488.072 323.586 488.04 323.51 488.04 323.43V313.87C488.04 313.786 488.071 313.705 488.126 313.643C488.182 313.582 488.259 313.545 488.34 313.54L488.64 313.53C488.714 313.525 488.788 313.533 488.858 313.556C488.928 313.579 488.993 313.615 489.048 313.662C489.104 313.71 489.15 313.767 489.183 313.832C489.216 313.897 489.235 313.968 489.24 314.04C489.407 316 490.44 317.033 492.34 317.14C498.113 317.46 502.34 317.517 505.02 317.31C508.947 317.01 511.28 317.043 512.02 317.41C512.833 317.817 513.963 316.697 515.41 314.05C515.456 313.959 515.531 313.886 515.623 313.842C515.715 313.799 515.819 313.787 515.919 313.808C516.018 313.83 516.108 313.884 516.173 313.962C516.239 314.041 516.276 314.138 516.28 314.24L516.59 318.95C516.612 319.299 516.541 319.649 516.385 319.963C516.229 320.277 515.993 320.545 515.7 320.74L512.58 322.8C512.514 322.847 512.447 322.9 512.38 322.96C507.033 327.887 502.2 332.187 497.88 335.86C496.893 336.7 496.11 337.597 495.53 338.55C495.482 338.627 495.456 338.715 495.455 338.806C495.454 338.897 495.478 338.986 495.524 339.063C495.571 339.141 495.638 339.204 495.719 339.246C495.799 339.288 495.89 339.307 495.98 339.3L512.56 338.22C512.84 338.202 513.111 338.114 513.35 337.964C513.589 337.814 513.788 337.606 513.93 337.36L515.4 334.82C515.459 334.716 515.551 334.634 515.661 334.588C515.771 334.542 515.894 334.533 516.01 334.564C516.125 334.595 516.227 334.664 516.3 334.759C516.372 334.854 516.411 334.97 516.41 335.09V343.7C516.411 343.828 516.367 343.952 516.286 344.052C516.206 344.151 516.093 344.219 515.967 344.244C515.841 344.269 515.711 344.249 515.599 344.188C515.486 344.127 515.398 344.029 515.35 343.91L514.53 341.97C514.381 341.615 514.14 341.306 513.833 341.074C513.526 340.842 513.162 340.696 512.78 340.65C509.833 340.297 507.573 340.157 506 340.23C502.36 340.403 496.503 340.613 488.43 340.86C488.24 340.864 488.053 340.809 487.896 340.702C487.739 340.594 487.619 340.441 487.554 340.262C487.489 340.083 487.481 339.888 487.533 339.705C487.584 339.522 487.692 339.359 487.84 339.24C497.28 331.667 504.643 325.393 509.93 320.42C510.463 319.92 510.863 319.343 511.13 318.69C511.14 318.662 511.143 318.632 511.138 318.603C511.134 318.573 511.122 318.546 511.105 318.522C511.087 318.498 511.063 318.479 511.036 318.466C511.009 318.454 510.98 318.448 510.95 318.45L491.91 319.69C491.466 319.723 491.042 319.883 490.69 320.15C489.837 320.817 489.343 321.863 489.21 323.29Z" fill="white"/>
<path d="M763.854 315.623C763.96 314.784 763.682 314.059 763.232 314.002C762.783 313.945 762.333 314.579 762.227 315.417C762.121 316.256 762.399 316.981 762.849 317.038C763.298 317.095 763.748 316.461 763.854 315.623Z" fill="#003169"/>
<path d="M776.14 316.16C778.753 314.04 781.75 313.34 785.13 314.06C786.816 314.42 787.876 315.477 788.31 317.23C788.406 317.621 788.347 318.034 788.146 318.382C787.944 318.731 787.616 318.988 787.23 319.1L781.81 320.67C781.751 320.689 781.688 320.689 781.63 320.67C781.571 320.651 781.52 320.614 781.483 320.564C781.446 320.514 781.425 320.453 781.423 320.39C781.42 320.326 781.437 320.264 781.47 320.21L782.73 318.29C782.793 318.193 782.834 318.082 782.851 317.965C782.868 317.848 782.861 317.727 782.83 317.61C781.91 314.11 778.03 316.78 776.32 316.71C776.257 316.707 776.197 316.685 776.147 316.647C776.097 316.609 776.06 316.556 776.041 316.497C776.021 316.437 776.02 316.373 776.038 316.313C776.056 316.253 776.091 316.199 776.14 316.16Z" fill="white"/>
<path d="M756.99 338.5C756.937 338.481 756.888 338.452 756.846 338.414C756.804 338.376 756.771 338.33 756.746 338.279C756.722 338.228 756.708 338.172 756.706 338.116C756.703 338.06 756.711 338.003 756.73 337.95L756.82 337.69C757.154 336.75 757.601 335.894 758.064 335.309C758.527 334.724 758.968 334.458 759.29 334.57L759.48 334.63C759.641 334.685 759.767 334.832 759.852 335.063C759.937 335.294 759.979 335.603 759.976 335.974C759.972 336.345 759.923 336.769 759.831 337.223C759.739 337.677 759.606 338.152 759.44 338.62L759.35 338.88C759.331 338.933 759.302 338.982 759.264 339.024C759.226 339.066 759.18 339.1 759.129 339.124C759.078 339.148 759.023 339.162 758.966 339.165C758.91 339.167 758.853 339.159 758.8 339.14L756.99 338.5Z" fill="#003169"/>
<path d="M742.17 380.01C749.724 376.063 756.004 370.473 761.01 363.24C762.03 361.77 762.39 360.31 763.11 359.3C763.201 359.172 763.329 359.076 763.477 359.026C763.624 358.975 763.783 358.973 763.93 359.02C766.357 359.773 767.844 361.197 768.39 363.29C768.664 364.357 769.87 365.683 772.01 367.27C777.177 371.103 783.13 373.7 789.87 375.06C790.055 375.097 790.221 375.195 790.343 375.337C790.466 375.48 790.536 375.66 790.544 375.848C790.553 376.035 790.497 376.22 790.388 376.373C790.278 376.526 790.121 376.637 789.94 376.69L784.72 378.2C784.423 378.284 784.104 378.259 783.82 378.13C776.847 374.937 771.327 370.37 767.26 364.43C767.156 364.276 767.018 364.148 766.857 364.053C766.697 363.959 766.517 363.901 766.331 363.884C766.145 363.867 765.957 363.891 765.781 363.954C765.605 364.017 765.444 364.118 765.31 364.25L755.88 373.68C755.803 373.76 755.746 373.858 755.716 373.966C755.686 374.073 755.683 374.186 755.708 374.294C755.733 374.401 755.785 374.501 755.859 374.582C755.933 374.664 756.026 374.725 756.13 374.76C758.457 375.573 760.607 375.93 762.58 375.83C762.88 375.815 763.163 375.684 763.369 375.464C763.576 375.244 763.691 374.953 763.69 374.65V370.48C763.69 370.401 763.706 370.322 763.739 370.25C763.772 370.177 763.82 370.112 763.88 370.058C763.94 370.004 764.011 369.964 764.089 369.938C764.166 369.913 764.249 369.903 764.33 369.91C765.91 370.07 767.397 370.71 768.79 371.83C768.844 371.874 768.887 371.929 768.916 371.992C768.945 372.055 768.96 372.123 768.959 372.192C768.958 372.262 768.942 372.33 768.911 372.392C768.88 372.454 768.835 372.508 768.78 372.55C767.96 373.197 767.404 373.783 767.11 374.31C767.016 374.477 766.968 374.667 766.971 374.859C766.974 375.051 767.029 375.238 767.129 375.402C767.228 375.566 767.37 375.701 767.539 375.792C767.708 375.883 767.899 375.927 768.09 375.92C769.544 375.867 771.444 375.523 773.79 374.89C774.83 374.61 775.77 374.88 776.61 375.7C777.033 376.113 777.288 376.664 777.319 377.237C777.351 377.81 777.158 378.36 776.78 378.77C776.474 379.103 776.187 379.597 775.92 380.25C775.822 380.501 775.774 380.769 775.78 381.04L776.19 390.88C776.208 391.239 776.115 391.595 775.926 391.901C775.737 392.207 775.46 392.448 775.13 392.594C774.801 392.739 774.436 392.781 774.082 392.714C773.729 392.647 773.404 392.475 773.15 392.22L772.49 391.56C772.111 391.18 771.605 390.956 771.07 390.93L765.99 390.7C765.863 390.693 765.736 390.717 765.62 390.77C765.504 390.822 765.402 390.902 765.323 391.001C765.244 391.101 765.189 391.218 765.165 391.343C765.14 391.468 765.145 391.598 765.18 391.72C765.814 393.98 767.364 395.877 769.83 397.41C769.956 397.486 770.102 397.522 770.248 397.513C770.395 397.504 770.535 397.451 770.65 397.36C771.224 396.893 771.59 396.627 771.75 396.56C774.844 395.26 777.464 393.56 779.61 391.46C779.716 391.357 779.853 391.291 780 391.275C780.147 391.259 780.295 391.292 780.42 391.37C781.98 392.33 782.974 393.53 783.4 394.97C783.423 395.045 783.429 395.124 783.418 395.201C783.407 395.279 783.379 395.352 783.335 395.417C783.292 395.481 783.235 395.535 783.168 395.573C783.102 395.612 783.027 395.635 782.95 395.64C779.164 395.98 775.394 396.863 771.64 398.29C771.545 398.328 771.463 398.394 771.404 398.478C771.345 398.563 771.312 398.662 771.309 398.765C771.306 398.868 771.332 398.97 771.386 399.057C771.44 399.145 771.518 399.216 771.61 399.26C778.144 402.193 784.624 403.233 791.05 402.38C791.105 402.37 791.162 402.379 791.211 402.407C791.26 402.434 791.298 402.477 791.318 402.53C791.338 402.582 791.339 402.639 791.322 402.692C791.304 402.745 791.268 402.791 791.22 402.82L785.74 406.58C785.349 406.849 784.872 406.957 784.41 406.88C774.73 405.233 767.734 400.217 763.42 391.83C763.263 391.528 763.021 391.279 762.724 391.113C762.427 390.948 762.088 390.874 761.75 390.9C760.504 390.993 759.404 390.907 758.45 390.64C758.334 390.606 758.211 390.599 758.092 390.621C757.972 390.642 757.86 390.692 757.762 390.764C757.665 390.837 757.587 390.932 757.532 391.04C757.478 391.149 757.45 391.269 757.45 391.39V400.22C757.45 400.43 757.495 400.637 757.584 400.827C757.673 401.018 757.803 401.186 757.965 401.319C758.126 401.453 758.315 401.55 758.519 401.602C758.722 401.654 758.934 401.66 759.14 401.62L765.63 400.37C765.749 400.35 765.871 400.354 765.99 400.38L767.29 400.97C767.312 400.979 767.331 400.995 767.343 401.015C767.356 401.035 767.361 401.059 767.359 401.082C767.357 401.106 767.347 401.128 767.331 401.146C767.315 401.164 767.294 401.175 767.27 401.18L745.86 407.38C745.725 407.419 745.58 407.42 745.443 407.383C745.305 407.346 745.18 407.273 745.08 407.17C743.82 405.823 743.27 404.503 743.43 403.21C743.445 403.094 743.501 402.987 743.588 402.909C743.674 402.832 743.786 402.789 743.9 402.79H753.28C753.612 402.79 753.93 402.659 754.164 402.427C754.399 402.194 754.53 401.879 754.53 401.55V375.88C754.53 375.725 754.486 375.572 754.405 375.44C754.324 375.308 754.208 375.2 754.07 375.129C753.931 375.058 753.776 375.026 753.621 375.037C753.466 375.047 753.317 375.1 753.19 375.19C750.81 376.9 745.14 380.65 742.26 380.45C742.208 380.449 742.158 380.43 742.117 380.397C742.077 380.364 742.049 380.317 742.039 380.266C742.028 380.215 742.036 380.162 742.06 380.115C742.084 380.068 742.123 380.031 742.17 380.01ZM772.815 378.334C772.813 378.055 772.7 377.789 772.501 377.594C772.302 377.399 772.034 377.29 771.756 377.293L758.616 377.407C758.478 377.409 758.342 377.437 758.215 377.491C758.088 377.545 757.973 377.623 757.877 377.721C757.78 377.82 757.704 377.936 757.652 378.064C757.6 378.192 757.574 378.329 757.576 378.467L757.606 381.946C757.608 382.225 757.721 382.491 757.92 382.686C758.119 382.881 758.387 382.99 758.665 382.987L771.805 382.873C771.942 382.871 772.079 382.843 772.206 382.789C772.333 382.735 772.448 382.657 772.544 382.559C772.641 382.46 772.717 382.344 772.769 382.216C772.821 382.088 772.847 381.951 772.845 381.813L772.815 378.334ZM772.898 385.521C772.9 385.223 772.783 384.938 772.574 384.727C772.365 384.516 772.081 384.396 771.784 384.395L758.544 384.325C758.397 384.325 758.251 384.353 758.115 384.408C757.979 384.464 757.855 384.546 757.751 384.649C757.646 384.753 757.563 384.876 757.506 385.011C757.449 385.147 757.419 385.292 757.418 385.44L757.403 388.419C757.401 388.717 757.518 389.002 757.727 389.213C757.936 389.424 758.22 389.544 758.517 389.545L771.757 389.615C771.904 389.615 772.05 389.587 772.186 389.532C772.322 389.476 772.446 389.394 772.55 389.291C772.655 389.187 772.738 389.064 772.795 388.929C772.852 388.793 772.882 388.648 772.883 388.5L772.898 385.521Z" fill="white"/>
<path d="M516.41 368.15C516.424 371.177 516.42 372.8 516.4 373.02C516.396 373.106 516.365 373.189 516.312 373.257C516.258 373.324 516.184 373.373 516.101 373.396C516.018 373.419 515.93 373.416 515.849 373.386C515.768 373.356 515.698 373.302 515.65 373.23L514.02 370.8C513.848 370.544 513.616 370.335 513.344 370.19C513.072 370.045 512.769 369.97 512.46 369.97H492.11C491.613 369.97 491.132 370.143 490.75 370.46C489.93 371.133 489.394 372.11 489.14 373.39C489.117 373.51 489.051 373.617 488.954 373.691C488.857 373.765 488.736 373.801 488.614 373.793C488.493 373.784 488.378 373.731 488.293 373.644C488.207 373.557 488.157 373.442 488.15 373.32C488.097 372.413 488.064 370.733 488.05 368.28C488.037 365.82 488.054 364.14 488.1 363.24C488.105 363.117 488.154 363.001 488.239 362.912C488.323 362.824 488.438 362.769 488.56 362.759C488.682 362.75 488.803 362.785 488.901 362.859C488.999 362.933 489.066 363.04 489.09 363.16C489.357 364.44 489.904 365.41 490.73 366.07C491.113 366.383 491.594 366.553 492.09 366.55L512.44 366.37C512.749 366.369 513.053 366.292 513.325 366.145C513.598 365.999 513.829 365.787 514 365.53L515.6 363.08C515.648 363.008 515.718 362.954 515.799 362.924C515.88 362.894 515.968 362.89 516.051 362.914C516.134 362.937 516.208 362.986 516.262 363.053C516.315 363.121 516.346 363.204 516.35 363.29C516.377 363.503 516.397 365.123 516.41 368.15Z" fill="white"/>
<path d="M672.05 437.48C672.142 437.446 672.242 437.442 672.335 437.469C672.429 437.495 672.512 437.551 672.572 437.628C672.632 437.705 672.666 437.799 672.67 437.896C672.673 437.993 672.645 438.089 672.59 438.17C667.437 445.67 661.097 451.717 653.57 456.31C646.72 460.5 637.13 463.55 628.82 462.31C601.71 458.26 606.58 422.31 609.01 403.75C609.644 398.95 609.897 393.87 609.77 388.51C609.67 384.31 609.29 381.503 608.63 380.09C606.53 375.583 605.464 373.293 605.43 373.22C605.356 373.081 605.318 372.924 605.323 372.766C605.327 372.609 605.372 372.454 605.453 372.319C605.535 372.184 605.651 372.072 605.789 371.995C605.927 371.918 606.082 371.879 606.24 371.88C609.074 371.873 611.744 372.467 614.25 373.66C621.31 377 621.99 384.28 620.57 391.28C618.017 403.873 616.474 411.85 615.94 415.21C613.97 427.64 611.81 449.54 629.14 452.26C645.08 454.75 658.1 446.48 670.45 438.19C670.75 437.99 671.284 437.753 672.05 437.48Z" fill="white"/>
<path d="M771.756 377.293L758.616 377.407C758.036 377.413 757.571 377.887 757.576 378.467L757.606 381.946C757.611 382.526 758.085 382.992 758.665 382.987L771.805 382.873C772.384 382.868 772.85 382.393 772.845 381.813L772.815 378.334C772.81 377.754 772.336 377.288 771.756 377.293Z" fill="#003169"/>
<path d="M647.34 384.49C647.282 384.408 647.246 384.313 647.236 384.214C647.226 384.114 647.242 384.014 647.282 383.922C647.323 383.83 647.386 383.751 647.466 383.691C647.546 383.631 647.64 383.593 647.74 383.58C654.006 382.787 659.453 384.03 664.08 387.31C670.41 391.79 664.26 400.45 659.45 394.87C656.663 391.637 653.156 388.683 648.93 386.01C648.316 385.617 647.786 385.11 647.34 384.49Z" fill="white"/>
<path d="M771.784 384.395L758.544 384.325C757.925 384.322 757.421 384.821 757.418 385.44L757.402 388.42C757.399 389.038 757.898 389.542 758.516 389.545L771.756 389.615C772.375 389.618 772.879 389.119 772.882 388.501L772.898 385.521C772.901 384.902 772.402 384.398 771.784 384.395Z" fill="#003169"/>
<path d="M515.46 393.75C515.516 393.656 515.601 393.583 515.702 393.542C515.803 393.501 515.915 393.494 516.02 393.522C516.126 393.551 516.219 393.613 516.286 393.699C516.353 393.785 516.389 393.891 516.39 394V403.27C516.39 403.371 516.357 403.468 516.297 403.549C516.237 403.629 516.153 403.689 516.056 403.718C515.96 403.747 515.857 403.744 515.763 403.71C515.668 403.677 515.587 403.613 515.53 403.53L514.1 401.45C513.916 401.18 513.667 400.959 513.375 400.809C513.084 400.659 512.759 400.584 512.43 400.59C504.424 400.73 498.204 400.733 493.77 400.6C486.69 400.38 478.16 398.22 478.91 389.39C478.921 389.268 478.962 389.15 479.03 389.049C479.098 388.947 479.191 388.863 479.299 388.807C479.408 388.75 479.529 388.721 479.652 388.724C479.774 388.726 479.894 388.759 480 388.82L480.87 389.32C481.022 389.408 481.149 389.533 481.236 389.684C481.324 389.835 481.37 390.006 481.37 390.18V393.62C481.37 394.029 481.499 394.428 481.74 394.759C481.981 395.089 482.321 395.335 482.71 395.46C485.297 396.293 488.31 396.743 491.75 396.81C499.804 396.957 506.62 396.973 512.2 396.86C512.655 396.851 513.098 396.725 513.489 396.494C513.88 396.262 514.204 395.934 514.43 395.54L515.46 393.75Z" fill="white"/>
<path d="M632.74 389.78C632.682 389.698 632.647 389.603 632.637 389.503C632.627 389.404 632.643 389.303 632.683 389.212C632.723 389.12 632.786 389.041 632.867 388.981C632.947 388.921 633.041 388.883 633.14 388.87C639.427 388.023 644.907 389.23 649.58 392.49C655.97 396.95 649.85 405.69 644.98 400.12C642.16 396.893 638.617 393.953 634.35 391.3C633.73 390.907 633.193 390.4 632.74 389.78Z" fill="white"/>
<path d="M781.63 435.09L780.33 436.48C780.205 436.607 780.113 436.762 780.059 436.932C780.005 437.102 779.992 437.283 780.02 437.46C780.353 439.713 780.09 441.63 779.23 443.21C779.132 443.395 779.109 443.611 779.167 443.812C779.225 444.014 779.358 444.185 779.54 444.29L782.3 445.88C782.346 445.908 782.386 445.944 782.417 445.988C782.449 446.031 782.471 446.08 782.483 446.132C782.496 446.185 782.497 446.239 782.488 446.292C782.479 446.344 782.459 446.395 782.43 446.44L780.51 449.39C780.433 449.505 780.38 449.635 780.353 449.771C780.327 449.907 780.328 450.047 780.356 450.182C780.384 450.318 780.438 450.447 780.516 450.562C780.594 450.676 780.694 450.774 780.81 450.85L781.19 451.11C781.318 451.187 781.461 451.236 781.61 451.252C781.758 451.269 781.909 451.253 782.051 451.205C782.192 451.158 782.322 451.08 782.431 450.977C782.539 450.874 782.624 450.749 782.68 450.61C783.193 449.317 783.973 448.253 785.02 447.42C785.144 447.323 785.294 447.265 785.449 447.255C785.604 447.244 785.758 447.281 785.89 447.36C787.856 448.567 789.13 450.007 789.71 451.68C789.735 451.751 789.743 451.826 789.733 451.901C789.722 451.975 789.694 452.046 789.65 452.108C789.606 452.169 789.547 452.22 789.479 452.255C789.412 452.29 789.336 452.309 789.26 452.31H781.83C781.511 452.31 781.206 452.437 780.981 452.664C780.756 452.891 780.63 453.199 780.63 453.52V459.04C780.627 459.445 780.479 459.836 780.212 460.141C779.946 460.446 779.578 460.645 779.177 460.702C778.776 460.759 778.368 460.67 778.027 460.451C777.686 460.232 777.435 459.898 777.32 459.51L777.13 458.84C777.075 458.652 776.962 458.487 776.807 458.37C776.652 458.252 776.463 458.189 776.27 458.19H768.27C768.105 458.19 767.947 458.254 767.827 458.37C767.708 458.485 767.637 458.643 767.63 458.81C767.49 462.07 767.86 465.69 765.95 467.29C762.97 469.797 760.016 469.553 757.09 466.56C756.951 466.422 756.788 466.316 756.61 466.25L754.45 465.43C754.377 465.404 754.317 465.352 754.28 465.285C754.242 465.217 754.23 465.139 754.246 465.064C754.262 464.988 754.304 464.921 754.366 464.875C754.427 464.828 754.503 464.805 754.58 464.81L761.19 465.11C761.889 465.142 762.577 464.929 763.137 464.51C763.697 464.09 764.094 463.49 764.26 462.81L764.72 460.93C764.794 460.624 764.798 460.305 764.732 459.997C764.665 459.69 764.53 459.401 764.337 459.154C764.143 458.906 763.896 458.706 763.614 458.569C763.332 458.431 763.023 458.36 762.71 458.36H749.7C749.452 458.36 749.214 458.267 749.034 458.097C748.854 457.928 748.745 457.697 748.73 457.45L748.7 457.01C748.694 456.911 748.709 456.811 748.744 456.719C748.778 456.626 748.832 456.541 748.9 456.47C748.969 456.4 749.052 456.344 749.143 456.308C749.234 456.272 749.332 456.256 749.43 456.26L763.23 456.88C763.397 456.887 763.563 456.86 763.72 456.8C763.876 456.741 764.019 456.651 764.139 456.535C764.26 456.419 764.355 456.28 764.421 456.126C764.486 455.973 764.52 455.807 764.52 455.64V453.62C764.52 453.341 764.409 453.074 764.212 452.878C764.015 452.681 763.748 452.57 763.47 452.57H743.93C743.762 452.57 743.599 452.517 743.466 452.418C743.332 452.319 743.235 452.179 743.19 452.02L742.89 450.99C742.871 450.926 742.867 450.858 742.879 450.792C742.892 450.726 742.919 450.665 742.961 450.612C743.002 450.559 743.055 450.517 743.115 450.488C743.176 450.46 743.243 450.447 743.31 450.45L762.91 451.32C763.111 451.329 763.312 451.299 763.501 451.232C763.69 451.164 763.864 451.06 764.013 450.925C764.161 450.79 764.282 450.628 764.367 450.447C764.452 450.266 764.501 450.07 764.51 449.87L764.57 448.51C764.578 448.325 764.548 448.14 764.483 447.967C764.418 447.794 764.318 447.636 764.19 447.502C764.062 447.369 763.908 447.262 763.738 447.19C763.568 447.117 763.385 447.08 763.2 447.08H749.93C749.68 447.08 749.441 446.981 749.265 446.805C749.089 446.628 748.99 446.389 748.99 446.14V445.84C748.99 445.733 749.011 445.627 749.053 445.528C749.096 445.43 749.157 445.341 749.235 445.267C749.313 445.193 749.405 445.135 749.505 445.098C749.606 445.061 749.713 445.045 749.82 445.05L762.68 445.62C762.916 445.631 763.152 445.595 763.375 445.514C763.597 445.433 763.802 445.31 763.976 445.15C764.151 444.99 764.292 444.797 764.392 444.583C764.493 444.369 764.549 444.136 764.56 443.9L764.61 442.86C764.619 442.655 764.587 442.449 764.515 442.257C764.443 442.064 764.332 441.888 764.19 441.74C764.048 441.591 763.877 441.473 763.688 441.392C763.499 441.311 763.295 441.27 763.09 441.27H755.84C755.581 441.27 755.326 441.329 755.094 441.441C754.862 441.554 754.659 441.718 754.5 441.92C753.873 442.727 753.033 443.11 751.98 443.07C751.883 443.066 751.788 443.043 751.7 443.001C751.613 442.959 751.535 442.9 751.471 442.827C751.407 442.754 751.359 442.669 751.33 442.576C751.3 442.484 751.29 442.386 751.3 442.29C751.56 439.777 751.656 437.287 751.59 434.82C751.563 433.813 751.436 433.143 751.21 432.81C751.17 432.753 751.145 432.687 751.138 432.618C751.13 432.549 751.141 432.479 751.168 432.415C751.195 432.351 751.237 432.295 751.292 432.252C751.347 432.209 751.411 432.181 751.48 432.17C752.83 431.93 753.92 431.93 754.64 433.07C754.86 433.417 755.143 433.61 755.49 433.65C757.816 433.937 760.43 434.097 763.33 434.13C763.595 434.133 763.851 434.032 764.044 433.849C764.236 433.666 764.349 433.415 764.36 433.15L764.46 431C764.465 430.871 764.444 430.741 764.399 430.62C764.354 430.499 764.285 430.388 764.196 430.295C764.107 430.202 764.001 430.127 763.883 430.077C763.765 430.026 763.638 430 763.51 430H745.35C745.133 430 744.923 429.93 744.75 429.8C744.577 429.67 744.45 429.488 744.39 429.28L743.94 427.73C743.922 427.664 743.921 427.594 743.937 427.528C743.953 427.461 743.984 427.4 744.029 427.349C744.074 427.298 744.13 427.26 744.193 427.237C744.256 427.215 744.324 427.209 744.39 427.22C750.636 428.193 756.95 428.63 763.33 428.53C763.458 428.529 763.584 428.502 763.701 428.45C763.818 428.399 763.923 428.324 764.01 428.23C764.097 428.137 764.164 428.026 764.207 427.906C764.25 427.785 764.268 427.658 764.26 427.53L763.93 422.49C763.927 422.454 763.931 422.417 763.944 422.383C763.956 422.349 763.975 422.318 763.999 422.292C764.024 422.266 764.054 422.246 764.087 422.234C764.12 422.222 764.155 422.217 764.19 422.22L768.63 422.41C768.8 422.416 768.965 422.475 769.101 422.577C769.238 422.679 769.34 422.82 769.395 422.982C769.449 423.144 769.453 423.318 769.405 423.482C769.358 423.646 769.262 423.792 769.13 423.9C767.596 425.173 767.11 426.59 767.67 428.15C767.719 428.285 767.807 428.401 767.924 428.483C768.04 428.566 768.178 428.61 768.32 428.61H777.3C777.779 428.61 778.252 428.49 778.674 428.261C779.097 428.033 779.456 427.702 779.72 427.3L781.19 425.05C781.308 424.867 781.482 424.726 781.687 424.647C781.891 424.568 782.116 424.555 782.33 424.61C784.863 425.263 786.476 426.73 787.17 429.01C787.198 429.099 787.204 429.194 787.188 429.287C787.172 429.379 787.135 429.467 787.078 429.543C787.022 429.619 786.949 429.68 786.864 429.723C786.779 429.766 786.685 429.789 786.59 429.79H768.34C768.229 429.79 768.12 429.812 768.018 429.854C767.916 429.896 767.824 429.958 767.746 430.036C767.668 430.114 767.606 430.207 767.564 430.309C767.521 430.41 767.5 430.52 767.5 430.63V433.3C767.5 433.512 767.583 433.716 767.731 433.866C767.879 434.016 768.08 434.1 768.29 434.1H776.21C776.304 434.1 776.396 434.064 776.464 433.999C776.533 433.934 776.575 433.845 776.58 433.75L776.59 433.47C776.607 433.135 776.723 432.812 776.925 432.543C777.126 432.274 777.403 432.071 777.72 431.961C778.036 431.851 778.378 431.839 778.701 431.926C779.023 432.014 779.312 432.196 779.53 432.45C780.203 433.237 780.87 433.843 781.53 434.27C781.597 434.312 781.654 434.368 781.697 434.435C781.739 434.502 781.767 434.577 781.776 434.656C781.786 434.735 781.778 434.815 781.752 434.89C781.727 434.965 781.685 435.033 781.63 435.09ZM776.962 436.191C776.964 435.971 776.878 435.76 776.724 435.603C776.569 435.446 776.359 435.356 776.139 435.354L768.299 435.286C768.079 435.284 767.867 435.37 767.71 435.524C767.553 435.678 767.464 435.888 767.462 436.109L767.438 438.908C767.436 439.129 767.521 439.34 767.676 439.497C767.83 439.654 768.04 439.744 768.26 439.746L776.1 439.814C776.32 439.816 776.532 439.73 776.689 439.576C776.846 439.422 776.935 439.211 776.937 438.991L776.962 436.191ZM764.491 436.639C764.492 436.473 764.459 436.309 764.396 436.156C764.333 436.003 764.241 435.864 764.124 435.747C764.007 435.63 763.868 435.537 763.715 435.473C763.563 435.41 763.399 435.377 763.233 435.377L755.713 435.363C755.548 435.363 755.384 435.395 755.231 435.458C755.078 435.522 754.939 435.614 754.822 435.731C754.705 435.848 754.612 435.986 754.548 436.139C754.484 436.292 754.452 436.456 754.451 436.621L754.448 438.481C754.448 438.647 754.48 438.811 754.543 438.964C754.606 439.117 754.699 439.256 754.816 439.373C754.932 439.49 755.071 439.583 755.224 439.647C755.377 439.71 755.54 439.743 755.706 439.743L763.226 439.757C763.391 439.757 763.555 439.725 763.708 439.662C763.861 439.598 764 439.506 764.117 439.389C764.235 439.272 764.328 439.134 764.391 438.981C764.455 438.828 764.488 438.664 764.488 438.499L764.491 436.639ZM777.969 443.071C777.968 442.58 777.773 442.11 777.425 441.763C777.077 441.417 776.607 441.223 776.116 441.224L769.096 441.236C768.853 441.236 768.613 441.285 768.388 441.378C768.164 441.472 767.96 441.608 767.789 441.78C767.617 441.952 767.481 442.157 767.389 442.381C767.296 442.606 767.249 442.846 767.249 443.089L767.25 443.669C767.251 444.16 767.447 444.63 767.794 444.977C768.142 445.323 768.613 445.517 769.103 445.516L776.123 445.504C776.366 445.503 776.607 445.455 776.831 445.362C777.055 445.268 777.259 445.132 777.431 444.96C777.602 444.788 777.738 444.583 777.831 444.359C777.923 444.134 777.971 443.893 777.97 443.651L777.969 443.071ZM777.546 448.435C777.547 448.248 777.512 448.063 777.442 447.891C777.373 447.718 777.269 447.56 777.139 447.427C777.008 447.294 776.852 447.188 776.681 447.115C776.509 447.042 776.325 447.004 776.138 447.002L768.698 446.938C768.512 446.936 768.327 446.971 768.154 447.041C767.981 447.111 767.824 447.214 767.691 447.345C767.558 447.475 767.452 447.631 767.379 447.803C767.306 447.974 767.268 448.159 767.266 448.345L767.254 449.765C767.252 449.952 767.287 450.137 767.357 450.309C767.427 450.482 767.53 450.64 767.661 450.773C767.792 450.906 767.947 451.012 768.119 451.085C768.29 451.157 768.475 451.196 768.661 451.197L776.101 451.262C776.287 451.264 776.472 451.229 776.645 451.159C776.818 451.089 776.976 450.986 777.109 450.855C777.242 450.724 777.348 450.569 777.42 450.397C777.493 450.226 777.532 450.041 777.533 449.855L777.546 448.435ZM777.416 453.552C777.415 453.405 777.386 453.26 777.329 453.124C777.272 452.988 777.19 452.865 777.085 452.762C776.981 452.658 776.857 452.576 776.721 452.52C776.585 452.464 776.439 452.436 776.292 452.436L768.492 452.464C768.195 452.465 767.911 452.584 767.701 452.794C767.492 453.005 767.375 453.29 767.376 453.587L767.383 455.687C767.384 455.835 767.413 455.98 767.47 456.116C767.527 456.251 767.61 456.375 767.714 456.478C767.819 456.582 767.942 456.664 768.078 456.72C768.214 456.776 768.36 456.804 768.507 456.804L776.307 456.776C776.604 456.775 776.889 456.656 777.098 456.446C777.307 456.235 777.424 455.95 777.423 455.652L777.416 453.552Z" fill="white"/>
<path d="M502.21 426.93C508.257 426.91 511.817 426.823 512.89 426.67C513.3 426.606 513.683 426.433 514 426.17C514.5 425.763 514.96 424.927 515.38 423.66C515.409 423.557 515.472 423.468 515.56 423.407C515.647 423.346 515.753 423.317 515.859 423.325C515.965 423.333 516.066 423.378 516.142 423.452C516.219 423.526 516.268 423.624 516.28 423.73C516.354 424.137 516.394 425.783 516.4 428.67C516.414 431.55 516.384 433.197 516.31 433.61C516.294 433.711 516.243 433.804 516.168 433.873C516.092 433.943 515.995 433.985 515.893 433.993C515.79 434.001 515.688 433.974 515.603 433.918C515.517 433.861 515.453 433.777 515.42 433.68C514.987 432.413 514.52 431.58 514.02 431.18C513.699 430.919 513.312 430.75 512.9 430.69C511.827 430.543 508.267 430.48 502.22 430.5C496.174 430.52 492.617 430.61 491.55 430.77C491.139 430.83 490.752 430.999 490.43 431.26C489.93 431.667 489.47 432.503 489.05 433.77C489.022 433.873 488.958 433.962 488.871 434.023C488.784 434.085 488.678 434.113 488.572 434.105C488.465 434.097 488.365 434.052 488.288 433.978C488.212 433.904 488.163 433.806 488.15 433.7C488.077 433.293 488.037 431.65 488.03 428.77C488.017 425.883 488.047 424.237 488.12 423.83C488.133 423.724 488.182 423.626 488.258 423.552C488.335 423.478 488.435 423.433 488.542 423.425C488.648 423.417 488.754 423.446 488.841 423.507C488.928 423.568 488.992 423.657 489.02 423.76C489.447 425.02 489.91 425.853 490.41 426.26C490.733 426.517 491.12 426.683 491.53 426.74C492.604 426.887 496.164 426.95 502.21 426.93Z" fill="white"/>
<path d="M776.139 435.354L768.3 435.286C767.841 435.282 767.466 435.65 767.462 436.109L767.438 438.908C767.434 439.367 767.802 439.742 768.261 439.746L776.1 439.814C776.559 439.818 776.934 439.45 776.938 438.991L776.962 436.191C776.966 435.733 776.598 435.358 776.139 435.354Z" fill="#003169"/>
<path d="M763.234 435.377L755.714 435.364C755.018 435.362 754.453 435.925 754.452 436.621L754.449 438.481C754.447 439.177 755.011 439.742 755.706 439.744L763.226 439.757C763.922 439.758 764.487 439.195 764.489 438.499L764.492 436.639C764.493 435.943 763.93 435.378 763.234 435.377Z" fill="#003169"/>
<path d="M776.116 441.224L769.096 441.236C768.074 441.238 767.248 442.068 767.249 443.089L767.25 443.669C767.252 444.691 768.082 445.518 769.104 445.516L776.124 445.504C777.145 445.502 777.972 444.672 777.97 443.651L777.969 443.071C777.968 442.049 777.138 441.222 776.116 441.224Z" fill="#003169"/>
<path d="M776.139 447.003L768.699 446.938C767.915 446.931 767.274 447.561 767.267 448.345L767.255 449.765C767.248 450.549 767.878 451.191 768.662 451.198L776.102 451.262C776.886 451.269 777.527 450.639 777.534 449.855L777.547 448.435C777.553 447.651 776.923 447.009 776.139 447.003Z" fill="#003169"/>
<path d="M488.11 459.18C488.11 459.142 488.123 459.105 488.146 459.075C488.17 459.046 488.202 459.024 488.239 459.015C488.276 459.006 488.315 459.009 488.349 459.025C488.384 459.04 488.413 459.067 488.43 459.1C489.804 461.727 491.154 463.093 492.48 463.2C494.9 463.393 497.277 463.41 499.61 463.25C501.044 463.157 503.154 462.2 505.94 460.38C510.07 457.7 513.75 456.22 515.32 452.51C515.372 452.397 515.46 452.305 515.57 452.249C515.681 452.192 515.807 452.175 515.929 452.199C516.05 452.223 516.16 452.288 516.24 452.383C516.32 452.477 516.366 452.596 516.37 452.72V462.02C516.366 462.136 516.321 462.247 516.244 462.333C516.167 462.42 516.062 462.477 515.947 462.495C515.832 462.512 515.715 462.49 515.616 462.43C515.516 462.371 515.44 462.279 515.4 462.17C515.12 461.31 514.724 460.603 514.21 460.05C513.81 459.623 513.18 459.683 512.32 460.23C509.634 461.943 507.204 463.567 505.03 465.1C504.849 465.229 504.702 465.402 504.604 465.603C504.506 465.803 504.46 466.025 504.47 466.247C504.48 466.469 504.546 466.685 504.661 466.874C504.777 467.063 504.938 467.22 505.13 467.33L512.49 471.58C512.743 471.723 513.034 471.779 513.32 471.74C514.36 471.587 515.087 470.867 515.5 469.58C515.539 469.476 515.612 469.388 515.709 469.332C515.805 469.276 515.917 469.255 516.027 469.272C516.137 469.29 516.237 469.345 516.311 469.429C516.384 469.512 516.427 469.619 516.43 469.73V477.33C516.431 477.434 516.399 477.535 516.338 477.618C516.277 477.702 516.19 477.763 516.091 477.794C515.992 477.824 515.886 477.822 515.789 477.787C515.691 477.752 515.608 477.686 515.55 477.6L513.61 474.77C513.373 474.427 513.07 474.131 512.72 473.9L502.37 467.14C501.959 466.872 501.476 466.73 500.98 466.73H491.72C491.517 466.73 491.318 466.783 491.142 466.885C490.967 466.987 490.821 467.134 490.72 467.31L488.61 470.96C488.58 471.01 488.533 471.049 488.479 471.07C488.424 471.091 488.364 471.094 488.308 471.079C488.251 471.063 488.201 471.029 488.166 470.982C488.13 470.936 488.111 470.879 488.11 470.82V459.18Z" fill="white"/>
<path d="M776.292 452.436L768.492 452.464C767.874 452.466 767.374 452.969 767.376 453.588L767.383 455.688C767.385 456.306 767.889 456.806 768.507 456.804L776.307 456.776C776.926 456.774 777.425 456.271 777.423 455.652L777.416 453.552C777.414 452.934 776.911 452.434 776.292 452.436Z" fill="#003169"/>
<path d="M742.43 529.25C742.576 528.97 743.49 528.137 745.17 526.75C748.41 524.08 751.44 519.61 752.9 516.65C753.313 515.817 753.503 514.6 753.47 513C753.457 512.508 753.323 512.027 753.08 511.6C751.633 509.053 750.95 506.59 751.03 504.21C751.032 504.028 750.974 503.85 750.865 503.704C750.757 503.558 750.603 503.452 750.428 503.402C750.253 503.352 750.066 503.361 749.896 503.427C749.727 503.494 749.584 503.614 749.49 503.77L744.48 512.45C744.444 512.513 744.396 512.568 744.338 512.612C744.28 512.656 744.213 512.687 744.142 512.704C744.071 512.721 743.996 512.723 743.924 512.71C743.851 512.698 743.782 512.67 743.72 512.63L743.39 512.41C743.33 512.372 743.287 512.313 743.27 512.246C743.254 512.178 743.264 512.108 743.3 512.05C748.026 503.683 750.953 494.683 752.08 485.05C752.092 484.95 752.125 484.854 752.178 484.769C752.231 484.683 752.301 484.61 752.385 484.554C752.468 484.498 752.563 484.46 752.662 484.444C752.761 484.428 752.863 484.433 752.96 484.46L756.66 485.45C756.749 485.474 756.833 485.516 756.906 485.573C756.979 485.63 757.04 485.702 757.085 485.783C757.129 485.864 757.157 485.954 757.167 486.046C757.176 486.138 757.167 486.231 757.14 486.32C756.57 488.09 754.98 489.12 754.42 490.9C753.993 492.253 753.756 493.327 753.71 494.12C753.698 494.276 753.746 494.432 753.844 494.555C753.942 494.679 754.083 494.763 754.24 494.79C756.673 495.21 758.77 494.947 760.53 494C760.815 493.851 761.142 493.802 761.46 493.86C763.146 494.167 764.06 495.01 764.2 496.39C764.232 496.699 764.146 497.009 763.96 497.26L762.62 499.04C762.382 499.363 762.212 499.731 762.12 500.12C761.006 505.073 759.18 509.967 756.64 514.8C756.442 515.178 756.361 515.606 756.407 516.028C756.454 516.451 756.625 516.848 756.9 517.17C760.253 521.13 764.156 523.577 768.61 524.51C774.92 525.83 782.96 525.27 789.9 523.32C789.959 523.302 790.023 523.303 790.081 523.324C790.14 523.345 790.19 523.384 790.225 523.435C790.26 523.487 790.277 523.548 790.274 523.61C790.271 523.672 790.249 523.732 790.21 523.78C789.163 525.16 788.013 526.38 786.76 527.44C786.046 528.053 784.48 528.5 782.06 528.78C772.54 529.88 760.66 527.87 755.79 519.19C755.712 519.051 755.602 518.933 755.468 518.847C755.334 518.761 755.181 518.71 755.022 518.698C754.863 518.687 754.704 518.714 754.559 518.779C754.414 518.844 754.287 518.944 754.19 519.07C750.56 523.77 747.75 527.3 742.81 529.65C742.754 529.676 742.692 529.685 742.632 529.674C742.572 529.662 742.516 529.633 742.474 529.588C742.432 529.544 742.405 529.487 742.397 529.426C742.389 529.366 742.4 529.304 742.43 529.25ZM755.27 511.84C756.99 507.527 758.316 502.6 759.25 497.06C759.265 496.973 759.262 496.884 759.24 496.799C759.218 496.713 759.178 496.633 759.122 496.564C759.066 496.495 758.996 496.439 758.916 496.398C758.837 496.358 758.749 496.335 758.66 496.33L753.9 496.11C753.702 496.104 753.508 496.154 753.338 496.253C753.168 496.352 753.03 496.496 752.94 496.67C751.926 498.617 751.436 500.173 751.47 501.34C751.583 505.06 752.55 508.577 754.37 511.89C754.415 511.973 754.483 512.041 754.565 512.086C754.648 512.132 754.741 512.153 754.835 512.148C754.929 512.143 755.02 512.111 755.097 512.057C755.174 512.002 755.234 511.927 755.27 511.84Z" fill="white"/>
<path d="M787.58 506.51C787.514 509.943 787.95 512.86 788.89 515.26C788.948 515.407 788.975 515.565 788.971 515.723C788.967 515.882 788.931 516.038 788.866 516.183C788.801 516.328 788.708 516.459 788.592 516.568C788.476 516.678 788.339 516.763 788.19 516.82C784.43 518.227 781.124 518.157 778.27 516.61C777.985 516.461 777.754 516.226 777.61 515.94C777.037 514.82 776.717 513.593 776.65 512.26C776.537 510.013 776.517 503.34 776.59 492.24C776.596 491.736 776.405 491.249 776.058 490.883C775.71 490.517 775.234 490.301 774.73 490.28L772.52 490.18C772.262 490.168 772.004 490.208 771.761 490.298C771.518 490.387 771.296 490.525 771.108 490.702C770.919 490.879 770.768 491.093 770.664 491.329C770.56 491.566 770.504 491.821 770.5 492.08C770.32 501.56 771.25 513.5 760.92 518.42C760.78 518.487 760.65 518.487 760.53 518.42C760.472 518.384 760.422 518.335 760.386 518.276C760.35 518.218 760.329 518.151 760.324 518.083C760.319 518.014 760.331 517.946 760.358 517.882C760.385 517.819 760.427 517.764 760.48 517.72C764.14 514.82 766.2 510.83 766.95 506.12C767.91 500.027 767.9 494.007 766.92 488.06C766.893 487.895 766.916 487.725 766.985 487.573C767.054 487.42 767.167 487.291 767.309 487.203C767.451 487.114 767.617 487.069 767.784 487.074C767.951 487.079 768.114 487.133 768.25 487.23C770.97 489.2 775.27 489.81 777.65 487.47C777.706 487.415 777.772 487.372 777.844 487.342C777.917 487.313 777.994 487.298 778.072 487.299C778.151 487.3 778.228 487.317 778.299 487.348C778.371 487.379 778.436 487.424 778.49 487.48C779.064 488.08 779.77 488.58 780.61 488.98C780.738 489.041 780.853 489.127 780.948 489.232C781.042 489.338 781.114 489.462 781.16 489.596C781.205 489.731 781.224 489.873 781.214 490.014C781.203 490.156 781.165 490.294 781.1 490.42C780.11 492.37 779.69 493.32 779.67 495.6C779.597 501.413 779.584 506.67 779.63 511.37C779.67 516.31 784.67 516.01 785.63 511.88C786.497 508.173 786.957 506.297 787.01 506.25C787.06 506.205 787.121 506.175 787.187 506.164C787.253 506.154 787.321 506.163 787.382 506.191C787.442 506.219 787.494 506.264 787.529 506.32C787.564 506.377 787.582 506.443 787.58 506.51Z" fill="white"/>
<path d="M488.64 517.83C488.596 517.897 488.532 517.949 488.456 517.976C488.38 518.003 488.298 518.005 488.221 517.982C488.144 517.958 488.077 517.91 488.03 517.845C487.983 517.779 487.959 517.7 487.96 517.62V508.8C487.955 508.625 488.011 508.454 488.12 508.317C488.228 508.18 488.382 508.086 488.553 508.051C488.724 508.017 488.902 508.043 489.056 508.127C489.209 508.211 489.327 508.347 489.39 508.51L490.1 510.18C490.174 510.358 490.311 510.502 490.484 510.585C490.658 510.668 490.856 510.684 491.04 510.63L497.93 508.64C498.319 508.527 498.661 508.291 498.904 507.967C499.148 507.642 499.28 507.247 499.28 506.84V499.88C499.281 499.523 499.163 499.175 498.944 498.891C498.725 498.607 498.418 498.403 498.07 498.31L490.97 496.4C490.805 496.357 490.63 496.369 490.474 496.436C490.318 496.504 490.19 496.621 490.11 496.77C489.617 497.657 489.307 498.46 489.18 499.18C489.153 499.327 489.072 499.459 488.952 499.549C488.833 499.64 488.684 499.682 488.535 499.668C488.386 499.655 488.247 499.586 488.147 499.475C488.046 499.364 487.99 499.22 487.99 499.07V490.86C487.986 490.76 488.016 490.662 488.076 490.582C488.135 490.503 488.221 490.446 488.318 490.422C488.415 490.399 488.517 490.41 488.607 490.453C488.697 490.496 488.769 490.569 488.81 490.66C490.22 493.43 491.53 494.35 494.61 495.42C501.884 497.953 505.607 499.263 505.78 499.35C506.84 499.89 510.2 500.25 510.72 500.83C511.134 501.297 512.264 501.74 514.11 502.16C515.304 502.433 516.447 503.143 517.54 504.29C517.617 504.371 517.671 504.469 517.7 504.576C517.728 504.684 517.728 504.796 517.702 504.904C517.675 505.012 517.621 505.111 517.546 505.192C517.47 505.274 517.376 505.335 517.27 505.37C510.09 507.7 501.13 510.76 492.37 514.24C491.244 514.687 490 515.883 488.64 517.83ZM510.78 501.85L507.54 501.71C507.311 501.697 507.087 501.621 506.89 501.49C505.457 500.543 503.82 500.003 501.98 499.87C501.873 499.862 501.765 499.876 501.663 499.911C501.562 499.947 501.469 500.003 501.39 500.076C501.311 500.149 501.248 500.238 501.205 500.337C501.162 500.436 501.14 500.542 501.14 500.65V506.63C501.141 506.715 501.162 506.799 501.201 506.875C501.24 506.951 501.296 507.017 501.365 507.068C501.434 507.118 501.514 507.152 501.598 507.166C501.682 507.18 501.769 507.175 501.85 507.15C505.99 505.923 509.094 504.587 511.16 503.14C511.282 503.055 511.373 502.933 511.422 502.793C511.471 502.653 511.475 502.501 511.433 502.359C511.391 502.217 511.305 502.091 511.188 502C511.071 501.908 510.929 501.856 510.78 501.85Z" fill="white"/>
<path d="M755.27 511.84C755.234 511.927 755.174 512.002 755.098 512.057C755.021 512.111 754.93 512.143 754.836 512.148C754.742 512.153 754.648 512.132 754.566 512.086C754.484 512.041 754.416 511.973 754.37 511.89C752.55 508.577 751.584 505.06 751.47 501.34C751.437 500.173 751.927 498.617 752.94 496.67C753.031 496.496 753.169 496.352 753.338 496.253C753.508 496.153 753.703 496.104 753.9 496.11L758.66 496.33C758.75 496.335 758.837 496.358 758.917 496.398C758.997 496.439 759.067 496.495 759.123 496.564C759.178 496.633 759.219 496.713 759.241 496.799C759.263 496.884 759.266 496.973 759.25 497.06C758.317 502.6 756.99 507.527 755.27 511.84Z" fill="#003169"/>
<path d="M510.78 501.85C510.928 501.856 511.071 501.908 511.188 502C511.305 502.091 511.39 502.216 511.432 502.359C511.474 502.501 511.47 502.653 511.421 502.793C511.373 502.933 511.281 503.055 511.16 503.14C509.093 504.587 505.99 505.923 501.85 507.15C501.768 507.175 501.682 507.18 501.597 507.166C501.513 507.152 501.434 507.118 501.365 507.067C501.296 507.017 501.24 506.951 501.2 506.875C501.161 506.799 501.141 506.715 501.14 506.63V500.65C501.139 500.542 501.161 500.436 501.204 500.337C501.247 500.238 501.31 500.149 501.389 500.076C501.468 500.003 501.561 499.947 501.663 499.911C501.764 499.876 501.872 499.862 501.98 499.87C503.82 500.003 505.456 500.543 506.89 501.49C507.086 501.621 507.31 501.697 507.54 501.71L510.78 501.85Z" fill="#003169"/>
<path d="M607.52 549.54C605.433 546.567 604.006 544.733 603.24 544.04C599.95 541.06 596.36 537.86 597.9 533.04C599.84 526.94 605.04 526.02 611.38 526.1C615.94 526.153 620.226 526.017 624.24 525.69C627.846 525.397 629.516 524.18 629.25 522.04C629.236 521.934 629.206 521.829 629.16 521.73L627.16 516.99C627.121 516.899 627.107 516.799 627.118 516.701C627.13 516.603 627.166 516.51 627.225 516.43C627.283 516.35 627.362 516.287 627.452 516.247C627.542 516.207 627.641 516.19 627.74 516.2C632.75 516.62 637.66 519.73 639.61 524.44C641.6 529.24 638.89 532.97 633.97 533.52C631.743 533.773 629.58 533.513 627.48 532.74C621.53 530.54 614.37 527.41 608.66 529.44C601.4 532.02 609.56 542.68 612.18 546.25C612.381 546.525 612.681 546.711 613.018 546.771C613.355 546.83 613.703 546.758 613.99 546.57C621.696 541.477 629.88 537.323 638.54 534.11C641.726 532.923 646.136 532.067 651.77 531.54C663.03 530.48 678.67 537.02 676.39 551.09C675.36 557.46 671.12 561.51 665.39 564.33C649.56 572.09 633.46 563.47 626.43 548.36C626.392 548.28 626.375 548.192 626.38 548.104C626.385 548.016 626.412 547.93 626.458 547.854C626.505 547.778 626.569 547.714 626.646 547.668C626.723 547.622 626.81 547.595 626.9 547.59C627.206 547.57 627.513 547.697 627.82 547.97C630.35 550.22 633.88 553.57 637.16 555.05C644.54 558.38 657.97 559.97 664.4 553.81C669.26 549.16 669.66 542.58 664.09 538.4C651.07 528.65 630.56 542.83 620.14 550.9C619.033 551.753 618.116 552.597 617.39 553.43C617.287 553.551 617.226 553.701 617.217 553.859C617.208 554.016 617.251 554.171 617.34 554.3C623.306 563.113 628.896 572.057 634.11 581.13C637.55 587.12 645.42 602.23 637.48 607.49C633.69 610.01 630.24 606.75 629.67 603.28C628.83 598.13 628.84 591.74 627.11 586.46C623.72 576.17 618.05 566.37 612.86 557.65C612.795 557.542 612.707 557.451 612.601 557.383C612.496 557.315 612.376 557.272 612.252 557.258C612.127 557.243 612.001 557.258 611.882 557.3C611.764 557.342 611.657 557.41 611.57 557.5C603.85 565.33 591.31 571.71 582.99 560.24C582.336 559.333 581.99 558.31 581.95 557.17C581.946 557.065 581.966 556.961 582.008 556.866C582.051 556.77 582.114 556.685 582.194 556.618C582.274 556.551 582.369 556.502 582.47 556.477C582.571 556.451 582.677 556.449 582.78 556.47C587.42 557.47 591.24 558.24 595.37 556.84C599.516 555.447 603.523 553.287 607.39 550.36C607.513 550.266 607.595 550.129 607.619 549.976C607.644 549.823 607.608 549.667 607.52 549.54Z" fill="white"/>
</svg>
