<svg width="1250" height="830" viewBox="0 0 1250 830" fill="none" xmlns="http://www.w3.org/2000/svg">
<g clip-path="url(#clip0_11_698)">
<path d="M201.55 394.96C201.556 394.491 201.686 394.033 201.927 393.631C202.167 393.229 202.51 392.897 202.92 392.67L405.56 280.8C406.136 280.483 406.791 280.338 407.448 280.38C408.105 280.423 408.737 280.652 409.27 281.04C438.023 302.073 455.973 330.023 463.12 364.89C465.47 376.36 465.3 388.5 465.06 399.53C464.833 410.05 462.753 421.403 458.82 433.59C455.373 444.283 450.93 453.917 445.49 462.49C427.196 491.337 401.786 510.727 369.26 520.66C365.58 521.787 362.22 522.573 359.18 523.02C354.67 523.68 350.45 524.78 345.57 525.05C337.87 525.463 330 525.483 321.96 525.11C315.98 524.84 310.9 523.41 304.83 522.57C303.243 522.35 300.996 521.807 298.09 520.94C272.19 513.24 250.736 499.447 233.73 479.56C225.48 469.9 217.52 458.19 212.4 446.08C205.38 429.44 201.28 412.28 201.55 394.96ZM230.4 414.62C229.98 415.447 229.916 416.107 230.21 416.6C233.77 422.63 235.56 426.98 239.15 434.43C242.663 441.737 246.12 448.743 249.52 455.45C254.753 465.757 262.473 475.3 272.68 484.08C275.84 486.8 280.97 489.68 284.19 492.04C286.49 493.727 289.633 495.307 293.62 496.78C300.713 499.413 304.853 500.89 306.04 501.21C317.64 504.297 328.353 505.503 338.18 504.83C348.906 504.09 359.94 501.31 371.28 496.49C388.45 489.19 403.54 474.81 413.01 459.1C418.05 450.733 421.67 441.89 423.87 432.57C428.31 413.783 426.683 394.917 418.99 375.97C418.566 374.927 417.785 374.07 416.785 373.553C415.786 373.036 414.635 372.893 413.54 373.15L413.37 373.2C412.877 373.323 412.414 373.543 412.008 373.849C411.602 374.154 411.262 374.538 411.007 374.977C410.753 375.416 410.589 375.902 410.526 376.406C410.463 376.91 410.501 377.421 410.64 377.91L416.48 398.56C416.53 398.739 416.542 398.926 416.515 399.11C416.488 399.293 416.421 399.469 416.321 399.624C416.22 399.779 416.088 399.911 415.933 400.011C415.777 400.11 415.602 400.175 415.42 400.2C396.666 402.987 380.6 411.133 367.22 424.64C366.796 425.068 366.255 425.361 365.665 425.484C365.075 425.606 364.461 425.553 363.9 425.33C360.026 423.797 356.406 422.747 353.04 422.18C339.113 419.82 325.386 420.793 311.86 425.1C301.9 428.27 294.58 433.02 286.11 439.48C285.96 439.593 285.787 439.672 285.603 439.711C285.419 439.749 285.228 439.746 285.046 439.702C284.863 439.658 284.692 439.574 284.546 439.456C284.4 439.338 284.281 439.189 284.2 439.02L264.58 398.2C264.461 397.954 264.444 397.672 264.532 397.414C264.62 397.156 264.806 396.942 265.05 396.82L418.35 320.62C418.706 320.443 418.992 320.152 419.163 319.793C419.334 319.434 419.378 319.028 419.29 318.64C418.51 315.247 416.87 311.927 414.37 308.68C414.185 308.441 413.95 308.246 413.683 308.106C413.416 307.966 413.121 307.886 412.82 307.87C410.953 307.79 408.886 308.373 406.62 309.62C349.18 341.067 308.443 363.413 284.41 376.66C284.323 376.707 282.166 377.9 277.94 380.24C256.113 392.32 236.743 402.92 219.83 412.04C219.116 412.424 218.578 413.068 218.328 413.838C218.078 414.608 218.136 415.443 218.49 416.17L218.58 416.38C218.755 416.763 219.006 417.108 219.317 417.393C219.628 417.678 219.993 417.899 220.39 418.041C220.788 418.184 221.21 418.245 221.633 418.223C222.055 418.2 222.469 418.094 222.85 417.91L230.15 414.36C230.186 414.343 230.226 414.337 230.266 414.344C230.305 414.352 230.341 414.371 230.369 414.4C230.396 414.429 230.414 414.465 230.42 414.505C230.425 414.544 230.418 414.585 230.4 414.62ZM271.21 405.58C271.996 407.387 272.44 408.353 272.54 408.48C272.717 408.724 272.971 408.901 273.261 408.983C273.552 409.065 273.861 409.046 274.14 408.93L428.69 344.73C429.169 344.529 429.563 344.169 429.806 343.711C430.048 343.254 430.124 342.726 430.02 342.22C429.653 340.427 429.066 338.607 428.26 336.76C427.446 334.913 426.506 333.25 425.44 331.77C425.139 331.348 424.7 331.045 424.198 330.911C423.696 330.778 423.163 330.824 422.69 331.04L270.74 401.16C270.465 401.285 270.24 401.499 270.102 401.768C269.964 402.036 269.921 402.344 269.98 402.64C270.006 402.8 270.416 403.78 271.21 405.58ZM231.09 424.82L229.49 421.5C229.317 421.145 229.011 420.872 228.637 420.743C228.264 420.614 227.855 420.638 227.5 420.81L225.58 421.74C224.482 422.271 223.564 423.056 223.026 423.923C222.488 424.789 222.374 425.666 222.71 426.36L223.07 427.12C223.408 427.813 224.167 428.267 225.182 428.381C226.196 428.496 227.382 428.261 228.48 427.73L230.4 426.81C230.755 426.637 231.027 426.331 231.157 425.958C231.286 425.585 231.262 425.175 231.09 424.82Z" fill="#DD000A"/>
<path d="M230.15 414.36L222.85 417.91C222.469 418.094 222.056 418.2 221.633 418.223C221.211 418.245 220.789 418.184 220.391 418.041C219.993 417.899 219.628 417.678 219.317 417.393C219.006 417.108 218.756 416.763 218.58 416.38L218.49 416.17C218.137 415.443 218.079 414.608 218.329 413.838C218.578 413.068 219.116 412.424 219.83 412.04C236.744 402.92 256.114 392.32 277.94 380.24C282.167 377.9 284.324 376.707 284.41 376.66C308.444 363.413 349.18 341.067 406.62 309.62C408.887 308.373 410.954 307.79 412.82 307.87C413.122 307.886 413.416 307.966 413.684 308.106C413.951 308.246 414.185 308.442 414.37 308.68C416.87 311.927 418.51 315.247 419.29 318.64C419.379 319.028 419.334 319.434 419.164 319.793C418.993 320.152 418.707 320.444 418.35 320.62L265.05 396.82C264.807 396.943 264.621 397.156 264.533 397.414C264.445 397.672 264.462 397.954 264.58 398.2L284.2 439.02C284.282 439.189 284.4 439.338 284.547 439.456C284.693 439.574 284.864 439.658 285.046 439.702C285.229 439.746 285.419 439.749 285.603 439.711C285.787 439.672 285.96 439.593 286.11 439.48C294.58 433.02 301.9 428.27 311.86 425.1C325.387 420.793 339.114 419.82 353.04 422.18C356.407 422.747 360.027 423.797 363.9 425.33C364.461 425.553 365.075 425.606 365.666 425.484C366.256 425.361 366.796 425.068 367.22 424.64C380.6 411.133 396.667 402.987 415.42 400.2C415.603 400.175 415.778 400.11 415.933 400.011C416.089 399.911 416.221 399.779 416.321 399.624C416.422 399.469 416.488 399.293 416.515 399.11C416.543 398.926 416.531 398.739 416.48 398.56L410.64 377.91C410.502 377.421 410.463 376.91 410.526 376.406C410.589 375.902 410.753 375.416 411.008 374.977C411.263 374.538 411.603 374.154 412.009 373.849C412.414 373.543 412.877 373.323 413.37 373.2L413.54 373.15C414.636 372.893 415.787 373.036 416.786 373.553C417.785 374.071 418.567 374.928 418.99 375.97C426.684 394.917 428.31 413.783 423.87 432.57C421.67 441.89 418.05 450.733 413.01 459.1C403.54 474.81 388.45 489.19 371.28 496.49C359.94 501.31 348.907 504.09 338.18 504.83C328.354 505.503 317.64 504.297 306.04 501.21C304.854 500.89 300.714 499.413 293.62 496.78C289.634 495.307 286.49 493.727 284.19 492.04C280.97 489.68 275.84 486.8 272.68 484.08C262.474 475.3 254.754 465.757 249.52 455.45C246.12 448.743 242.664 441.737 239.15 434.43C235.56 426.98 233.77 422.63 230.21 416.6C229.917 416.107 229.98 415.447 230.4 414.62C230.419 414.585 230.426 414.544 230.42 414.505C230.415 414.465 230.397 414.429 230.369 414.4C230.341 414.371 230.305 414.352 230.266 414.345C230.227 414.337 230.186 414.343 230.15 414.36ZM332.57 488.59C331.85 488.103 331.23 487.777 330.71 487.61C320.87 484.437 312.467 480.413 305.5 475.54C296.314 469.107 288.514 461.397 282.1 452.41C279.34 448.543 275.88 442.293 271.72 433.66C265.547 420.82 262.447 414.37 262.42 414.31C260.8 410.497 258.984 406.823 256.97 403.29C256.44 402.35 256.62 401.69 257.32 400.86C257.347 400.837 257.363 400.805 257.366 400.771C257.369 400.736 257.358 400.702 257.335 400.675C257.313 400.648 257.281 400.632 257.246 400.629C257.211 400.626 257.177 400.637 257.15 400.66L250.9 404.11C250.831 404.149 250.771 404.203 250.727 404.268C250.682 404.334 250.653 404.409 250.642 404.487C250.631 404.566 250.639 404.646 250.665 404.721C250.691 404.796 250.734 404.864 250.79 404.92C251.577 405.687 252.05 406.24 252.21 406.58C259.397 421.56 265.237 433.54 269.73 442.52C276.944 456.94 287.397 468.57 301.09 477.41C310.25 483.32 321.6 486.79 332.44 488.9C332.48 488.91 332.521 488.905 332.558 488.887C332.594 488.869 332.623 488.838 332.639 488.801C332.654 488.763 332.656 488.722 332.643 488.683C332.631 488.644 332.605 488.611 332.57 488.59ZM243.91 407.15L237.21 410.84C237.125 410.885 237.057 410.958 237.018 411.047C236.979 411.135 236.971 411.234 236.995 411.328C237.019 411.422 237.075 411.504 237.152 411.563C237.229 411.621 237.323 411.652 237.42 411.65H237.72C237.873 411.65 238.022 411.693 238.152 411.775C238.281 411.856 238.384 411.972 238.45 412.11C242.924 421.583 248.9 433.947 256.38 449.2C261.24 459.127 268.357 468.167 277.73 476.32C285.224 482.84 293.987 487.81 304.02 491.23C309.007 492.937 313.24 494.22 316.72 495.08C317.167 495.187 317.817 495.427 318.67 495.8C318.687 495.807 318.705 495.81 318.722 495.811C318.74 495.811 318.757 495.807 318.773 495.801C318.789 495.794 318.804 495.785 318.815 495.772C318.827 495.76 318.835 495.746 318.84 495.73L318.85 495.72C318.857 495.704 318.859 495.686 318.859 495.669C318.858 495.651 318.854 495.634 318.847 495.618C318.839 495.602 318.828 495.588 318.815 495.576C318.802 495.565 318.787 495.556 318.77 495.55C309.477 491.95 300.494 487.317 291.82 481.65C276.97 471.94 266.02 456.86 258.53 440.72C255.53 434.26 250.58 423.82 243.68 409.4C243.434 408.88 243.564 408.183 244.07 407.31C244.081 407.288 244.084 407.262 244.08 407.238C244.076 407.214 244.064 407.191 244.047 407.173C244.029 407.156 244.007 407.144 243.982 407.14C243.958 407.136 243.933 407.139 243.91 407.15ZM415.82 409.06C392.054 412.687 374.46 424.91 363.04 445.73C356.894 456.95 354.134 468.873 354.76 481.5C354.777 481.82 354.901 482.124 355.112 482.364C355.322 482.603 355.607 482.764 355.92 482.82L359.36 483.43C359.521 483.458 359.687 483.45 359.845 483.407C360.002 483.363 360.148 483.285 360.272 483.177C360.396 483.07 360.494 482.936 360.559 482.786C360.625 482.636 360.656 482.474 360.65 482.31C360.11 465.19 364.834 450.603 374.82 438.55C385.514 425.65 399.09 417.977 415.55 415.53C416.014 415.463 416.438 415.231 416.745 414.876C417.052 414.522 417.22 414.069 417.22 413.6V410.26C417.221 410.086 417.184 409.913 417.111 409.754C417.038 409.596 416.932 409.455 416.799 409.341C416.666 409.227 416.509 409.143 416.34 409.094C416.172 409.046 415.994 409.034 415.82 409.06ZM416.05 426.14C416.093 425.895 416.075 425.644 415.999 425.408C415.922 425.171 415.788 424.957 415.61 424.785C415.431 424.612 415.213 424.486 414.974 424.417C414.735 424.348 414.483 424.339 414.24 424.39C401.327 427.09 390.58 433.62 382 443.98C377.634 449.253 374.617 454.327 372.95 459.2C370.657 465.94 369.55 473.217 369.63 481.03C369.632 481.171 369.661 481.311 369.717 481.441C369.773 481.571 369.855 481.689 369.957 481.787C370.059 481.886 370.18 481.963 370.313 482.015C370.446 482.067 370.588 482.093 370.73 482.09L373.95 482C374.334 481.99 374.7 481.834 374.971 481.564C375.243 481.294 375.4 480.931 375.41 480.55C375.524 476.783 375.754 473.693 376.1 471.28C379.09 450.87 393.14 436.11 412.93 430.94C413.641 430.754 414.284 430.369 414.782 429.831C415.28 429.292 415.612 428.622 415.74 427.9L416.05 426.14ZM357.96 432.19C352.07 431.42 345.78 429.43 339.92 429.51C332.34 429.617 325.594 430.33 319.68 431.65C309.92 433.83 300.08 440.2 291.86 446.6C291.602 446.802 291.39 447.056 291.238 447.346C291.086 447.636 290.997 447.955 290.977 448.281C290.957 448.607 291.007 448.934 291.123 449.239C291.239 449.544 291.419 449.82 291.65 450.05L292.43 450.83C292.862 451.263 293.439 451.521 294.049 451.556C294.659 451.591 295.261 451.4 295.74 451.02C299.44 448.093 301.827 446.297 302.9 445.63C316.434 437.183 331.064 433.967 346.79 435.98C347.65 436.093 350.407 436.76 355.06 437.98C355.585 438.118 356.142 438.08 356.644 437.87C357.146 437.661 357.567 437.292 357.84 436.82L359.14 434.58C359.273 434.352 359.347 434.094 359.355 433.831C359.364 433.567 359.308 433.305 359.191 433.069C359.074 432.832 358.901 432.628 358.686 432.475C358.471 432.321 358.222 432.224 357.96 432.19ZM392.08 454.78C388.774 459.287 386.32 465.283 384.72 472.77C384.427 474.15 384.404 475.55 384.65 476.97C384.67 477.082 384.719 477.188 384.792 477.275C384.865 477.363 384.96 477.43 385.067 477.471C385.174 477.511 385.289 477.523 385.402 477.505C385.515 477.488 385.621 477.441 385.71 477.37C391.124 473.043 396.184 467.667 400.89 461.24C405.604 454.813 409.214 448.37 411.72 441.91C411.761 441.803 411.773 441.688 411.756 441.575C411.739 441.463 411.693 441.356 411.622 441.267C411.552 441.177 411.459 441.107 411.354 441.064C411.248 441.021 411.133 441.006 411.02 441.02C409.587 441.213 408.257 441.657 407.03 442.35C400.37 446.123 395.387 450.267 392.08 454.78ZM324.35 445.99C322.85 446.363 321.027 446.98 318.88 447.84C312.334 450.453 306.394 453.89 301.06 458.15C300.897 458.281 300.762 458.443 300.663 458.627C300.564 458.812 300.503 459.014 300.484 459.222C300.465 459.431 300.489 459.641 300.554 459.84C300.618 460.039 300.723 460.222 300.86 460.38L302.26 462C302.645 462.443 303.186 462.721 303.77 462.777C304.355 462.833 304.938 462.662 305.4 462.3C311.6 457.46 318.67 453.59 325.79 451.85C332.9 450.11 340.96 450.28 348.7 451.71C349.277 451.816 349.872 451.696 350.363 451.376C350.854 451.056 351.204 450.56 351.34 449.99L351.84 447.91C351.889 447.707 351.895 447.496 351.86 447.29C351.825 447.084 351.749 446.888 351.636 446.712C351.523 446.537 351.375 446.386 351.203 446.269C351.03 446.151 350.835 446.07 350.63 446.03C343.93 444.71 337.077 444.4 330.07 445.1C327.764 445.327 325.857 445.623 324.35 445.99ZM345.6 466.17C345.717 466.199 345.839 466.204 345.958 466.184C346.077 466.165 346.191 466.12 346.292 466.055C346.394 465.989 346.48 465.903 346.547 465.803C346.614 465.702 346.659 465.589 346.68 465.47L347.39 461.49C347.412 461.37 347.409 461.248 347.383 461.129C347.357 461.011 347.308 460.898 347.238 460.799C347.168 460.699 347.08 460.615 346.977 460.55C346.874 460.485 346.76 460.441 346.64 460.42C341.334 459.533 337.62 459.147 335.5 459.26C328.434 459.64 321.847 461.71 315.74 465.47C314.5 466.237 313.567 467.013 312.94 467.8C312.694 468.111 312.568 468.501 312.587 468.896C312.605 469.292 312.766 469.666 313.04 469.95C315.8 472.82 318.06 470.76 321.65 468.9C329.217 464.993 337.2 464.083 345.6 466.17ZM345.41 480.91L346.12 475.98C346.133 475.895 346.129 475.809 346.108 475.726C346.087 475.643 346.05 475.564 345.999 475.496C345.948 475.427 345.884 475.369 345.81 475.325C345.737 475.281 345.655 475.252 345.57 475.24H345.51C343.205 474.908 340.912 474.656 338.761 474.498C336.61 474.34 334.644 474.28 332.974 474.321C331.304 474.362 329.964 474.503 329.03 474.736C328.096 474.969 327.586 475.29 327.53 475.68L327.49 475.95C327.434 476.34 327.832 476.792 328.662 477.279C329.493 477.767 330.739 478.281 332.33 478.792C333.92 479.302 335.825 479.8 337.934 480.256C340.042 480.712 342.315 481.118 344.62 481.45L344.67 481.46C344.755 481.473 344.841 481.469 344.925 481.448C345.008 481.427 345.086 481.39 345.155 481.339C345.223 481.288 345.281 481.224 345.325 481.15C345.369 481.076 345.398 480.995 345.41 480.91Z" fill="white"/>
<path d="M428.26 336.76C429.066 338.607 429.653 340.427 430.02 342.22C430.124 342.726 430.048 343.254 429.806 343.711C429.563 344.169 429.169 344.529 428.69 344.73L274.14 408.93C273.861 409.046 273.552 409.065 273.261 408.983C272.971 408.901 272.717 408.724 272.54 408.48C272.44 408.353 271.996 407.387 271.21 405.58C270.416 403.78 270.006 402.8 269.98 402.64C269.921 402.344 269.964 402.036 270.102 401.768C270.24 401.499 270.465 401.285 270.74 401.16L422.69 331.04C423.163 330.824 423.696 330.778 424.198 330.911C424.7 331.045 425.139 331.348 425.44 331.77C426.506 333.25 427.446 334.913 428.26 336.76Z" fill="white"/>
<path d="M597.91 346.84C598.119 346.84 598.32 346.923 598.469 347.071C598.617 347.22 598.7 347.42 598.7 347.63V460.03C598.7 460.058 598.694 460.085 598.684 460.11C598.673 460.136 598.658 460.159 598.638 460.178C598.619 460.198 598.596 460.213 598.57 460.224C598.545 460.234 598.517 460.24 598.49 460.24L571.23 460.36C570.719 460.36 570.214 460.253 569.745 460.047C569.277 459.84 568.856 459.538 568.51 459.16C568.03 458.627 567.297 457.473 566.31 455.7C543.35 414.373 529.27 389.06 524.07 379.76C523.823 379.32 523.527 378.963 523.18 378.69C523.139 378.656 523.089 378.635 523.037 378.629C522.984 378.623 522.931 378.633 522.882 378.657C522.834 378.681 522.793 378.719 522.765 378.765C522.736 378.812 522.72 378.865 522.72 378.92V460.01C522.72 460.074 522.695 460.135 522.65 460.18C522.605 460.225 522.544 460.25 522.48 460.25H499.95C499.799 460.25 499.654 460.19 499.547 460.083C499.44 459.976 499.38 459.831 499.38 459.68V347.51C499.38 347.332 499.45 347.162 499.576 347.036C499.702 346.911 499.872 346.84 500.05 346.84C511.11 346.8 519.917 346.803 526.47 346.85C528.41 346.863 529.727 347.037 530.42 347.37C530.713 347.513 530.954 347.748 531.11 348.04L574.9 430.23C574.923 430.272 574.957 430.308 574.998 430.334C575.039 430.359 575.086 430.374 575.134 430.376C575.183 430.378 575.231 430.367 575.274 430.345C575.317 430.323 575.353 430.29 575.38 430.25C575.527 430.037 575.6 429.787 575.6 429.5C575.613 410.48 575.593 383.093 575.54 347.34C575.54 347.207 575.592 347.08 575.683 346.986C575.775 346.893 575.9 346.84 576.03 346.84H597.91Z" fill="#DD000A"/>
<path d="M638.771 346.84L616.131 346.88C615.711 346.881 615.372 347.221 615.372 347.641L615.568 459.541C615.568 459.961 615.909 460.3 616.329 460.3L638.969 460.26C639.389 460.259 639.728 459.919 639.728 459.499L639.532 347.599C639.532 347.179 639.191 346.84 638.771 346.84Z" fill="#DD000A"/>
<path d="M723.86 346.84C724.069 346.84 724.27 346.923 724.419 347.071C724.567 347.22 724.65 347.421 724.65 347.63C724.67 370.757 724.673 393.203 724.66 414.97C724.65 431.15 720.89 449.21 704.39 456.15C699.843 458.063 694.547 459.257 688.5 459.73C681.493 460.27 667.813 460.43 647.46 460.21C647.305 460.207 647.158 460.144 647.049 460.034C646.941 459.923 646.88 459.775 646.88 459.62V440.8C646.88 440.695 646.9 440.592 646.94 440.495C646.98 440.399 647.038 440.311 647.112 440.238C647.185 440.164 647.273 440.106 647.368 440.067C647.464 440.028 647.567 440.009 647.67 440.01C658.263 440.09 668.08 440.047 677.12 439.88C687.42 439.7 697.17 438.44 699.38 426.64C700.133 422.607 700.527 418.143 700.56 413.25C700.687 390.163 700.673 368.307 700.52 347.68C700.519 347.57 700.539 347.461 700.58 347.359C700.621 347.258 700.682 347.165 700.759 347.087C700.837 347.009 700.929 346.947 701.03 346.904C701.131 346.862 701.24 346.84 701.35 346.84H723.86Z" fill="#DD000A"/>
<path d="M764.01 346.82H741.13C740.765 346.82 740.47 347.116 740.47 347.48V459.6C740.47 459.965 740.765 460.26 741.13 460.26H764.01C764.374 460.26 764.67 459.965 764.67 459.6V347.48C764.67 347.116 764.374 346.82 764.01 346.82Z" fill="#DD000A"/>
<path d="M878.95 346.86C879.061 346.861 879.169 346.891 879.265 346.947C879.36 347.003 879.439 347.083 879.495 347.18C879.55 347.277 879.58 347.386 879.581 347.499C879.582 347.611 879.554 347.722 879.5 347.82C878.787 349.08 877.927 350.45 876.92 351.93C864.887 369.65 853.034 386.88 841.36 403.62C839.747 405.933 838.267 408.457 836.92 411.19C836.254 412.543 835.94 415.573 835.98 420.28C836.067 429.86 836.12 442.943 836.14 459.53C836.142 459.623 836.125 459.715 836.09 459.801C836.055 459.887 836.004 459.965 835.939 460.031C835.874 460.098 835.796 460.15 835.711 460.186C835.625 460.222 835.533 460.24 835.44 460.24L812.64 460.28C812.527 460.281 812.415 460.257 812.312 460.212C812.208 460.166 812.116 460.099 812.04 460.015C811.965 459.931 811.908 459.832 811.873 459.724C811.839 459.616 811.828 459.502 811.84 459.39C811.854 459.297 811.867 443.933 811.88 413.3C811.88 411.453 811.167 409.443 809.74 407.27C789.707 376.803 776.69 357.07 770.69 348.07C770.609 347.95 770.561 347.81 770.553 347.665C770.545 347.52 770.576 347.375 770.644 347.246C770.712 347.118 770.814 347.01 770.938 346.935C771.063 346.86 771.205 346.82 771.35 346.82C783.384 346.713 791.39 346.71 795.37 346.81C797.357 346.857 798.907 347.84 800.02 349.76C807.814 363.213 815.69 376.75 823.65 390.37C823.683 390.425 823.728 390.472 823.782 390.507C823.836 390.542 823.897 390.564 823.961 390.572C824.024 390.58 824.089 390.573 824.15 390.552C824.21 390.531 824.265 390.496 824.31 390.45C824.984 389.75 825.524 389.073 825.93 388.42C830.557 380.92 838.75 367.63 850.51 348.55C851.204 347.43 852.307 346.86 853.82 346.84C863.42 346.7 871.797 346.707 878.95 346.86Z" fill="#DD000A"/>
<path d="M935.52 346.8C939.906 346.8 944.23 346.817 948.49 346.85C948.728 346.853 948.96 346.926 949.157 347.059C949.354 347.192 949.508 347.38 949.6 347.6L995.96 459.2C996.004 459.304 996.022 459.417 996.012 459.529C996.003 459.642 995.966 459.75 995.905 459.845C995.843 459.939 995.76 460.018 995.661 460.073C995.563 460.128 995.453 460.158 995.34 460.16C987.613 460.34 979.743 460.4 971.73 460.34C967.28 460.31 967.42 458.4 965.7 454.55C964.333 451.503 961.746 445.35 957.94 436.09C957.386 434.75 956.323 434.08 954.75 434.08C953.703 434.08 947.296 434.083 935.53 434.09C923.763 434.09 917.356 434.09 916.31 434.09C914.743 434.09 913.683 434.76 913.13 436.1C909.323 445.36 906.736 451.513 905.37 454.56C903.65 458.41 903.79 460.32 899.34 460.35C891.326 460.41 883.456 460.35 875.73 460.17C875.617 460.168 875.507 460.138 875.408 460.083C875.31 460.028 875.226 459.949 875.165 459.855C875.104 459.76 875.067 459.652 875.057 459.539C875.048 459.427 875.066 459.314 875.11 459.21L921.44 347.6C921.534 347.381 921.69 347.194 921.889 347.062C922.088 346.931 922.321 346.86 922.56 346.86C926.813 346.82 931.133 346.8 935.52 346.8ZM919.9 412.73C919.85 412.849 919.831 412.979 919.844 413.108C919.857 413.236 919.901 413.36 919.974 413.467C920.046 413.574 920.144 413.661 920.258 413.721C920.373 413.781 920.501 413.812 920.63 413.81H950.65C950.779 413.812 950.907 413.781 951.021 413.721C951.136 413.661 951.234 413.574 951.306 413.467C951.378 413.36 951.423 413.236 951.436 413.108C951.449 412.979 951.43 412.849 951.38 412.73L936.36 376.01C936.301 375.868 936.201 375.746 936.072 375.661C935.944 375.576 935.794 375.53 935.64 375.53C935.486 375.53 935.335 375.576 935.207 375.661C935.079 375.746 934.979 375.868 934.92 376.01L919.9 412.73Z" fill="#DD000A"/>
<path d="M332.57 488.59C332.605 488.611 332.631 488.644 332.644 488.683C332.656 488.722 332.654 488.763 332.639 488.801C332.623 488.838 332.594 488.869 332.558 488.887C332.522 488.905 332.48 488.91 332.44 488.9C321.6 486.79 310.25 483.32 301.09 477.41C287.397 468.57 276.944 456.94 269.73 442.52C265.237 433.54 259.397 421.56 252.21 406.58C252.05 406.24 251.577 405.687 250.79 404.92C250.734 404.864 250.691 404.796 250.665 404.721C250.639 404.646 250.632 404.566 250.642 404.487C250.653 404.409 250.682 404.334 250.727 404.268C250.772 404.203 250.831 404.148 250.9 404.11L257.15 400.66C257.177 400.637 257.211 400.626 257.246 400.629C257.281 400.632 257.313 400.648 257.335 400.675C257.358 400.702 257.369 400.736 257.366 400.771C257.363 400.805 257.347 400.837 257.32 400.86C256.62 401.69 256.44 402.35 256.97 403.29C258.984 406.823 260.8 410.497 262.42 414.31C262.447 414.37 265.547 420.82 271.72 433.66C275.88 442.293 279.34 448.543 282.1 452.41C288.514 461.397 296.314 469.107 305.5 475.54C312.467 480.413 320.87 484.437 330.71 487.61C331.23 487.777 331.85 488.103 332.57 488.59Z" fill="#DD000A"/>
<path d="M244.07 407.31C243.564 408.183 243.434 408.88 243.68 409.4C250.58 423.82 255.53 434.26 258.53 440.72C266.02 456.86 276.97 471.94 291.82 481.65C300.494 487.317 309.477 491.95 318.77 495.55C318.787 495.556 318.802 495.565 318.815 495.576C318.829 495.588 318.839 495.602 318.847 495.618C318.854 495.634 318.858 495.651 318.859 495.669C318.86 495.686 318.857 495.704 318.85 495.72L318.84 495.73C318.835 495.746 318.827 495.76 318.815 495.772C318.804 495.785 318.79 495.794 318.774 495.801C318.758 495.807 318.74 495.811 318.722 495.811C318.705 495.81 318.687 495.807 318.67 495.8C317.817 495.427 317.167 495.187 316.72 495.08C313.24 494.22 309.007 492.937 304.02 491.23C293.987 487.81 285.224 482.84 277.73 476.32C268.357 468.167 261.24 459.127 256.38 449.2C248.9 433.947 242.924 421.583 238.45 412.11C238.384 411.972 238.281 411.856 238.152 411.775C238.023 411.693 237.873 411.65 237.72 411.65H237.42C237.324 411.652 237.229 411.621 237.152 411.563C237.075 411.504 237.019 411.422 236.995 411.328C236.971 411.234 236.979 411.135 237.018 411.047C237.057 410.958 237.125 410.885 237.21 410.84L243.91 407.15C243.933 407.139 243.958 407.136 243.982 407.14C244.007 407.144 244.029 407.156 244.047 407.173C244.064 407.191 244.076 407.214 244.08 407.238C244.085 407.262 244.081 407.288 244.07 407.31Z" fill="#DD000A"/>
<path d="M415.82 409.06C415.994 409.034 416.171 409.046 416.34 409.094C416.509 409.143 416.665 409.227 416.798 409.341C416.931 409.455 417.038 409.596 417.11 409.754C417.183 409.913 417.221 410.086 417.22 410.26V413.6C417.22 414.069 417.051 414.522 416.744 414.876C416.438 415.231 416.014 415.463 415.55 415.53C399.09 417.977 385.513 425.65 374.82 438.55C364.833 450.603 360.11 465.19 360.65 482.31C360.655 482.474 360.624 482.636 360.559 482.786C360.493 482.936 360.395 483.07 360.272 483.177C360.148 483.285 360.002 483.363 359.844 483.407C359.687 483.45 359.521 483.458 359.36 483.43L355.92 482.82C355.607 482.764 355.322 482.603 355.112 482.364C354.901 482.124 354.777 481.82 354.76 481.5C354.133 468.873 356.893 456.95 363.04 445.73C374.46 424.91 392.053 412.687 415.82 409.06Z" fill="#DD000A"/>
<path d="M231.09 424.82C231.262 425.175 231.286 425.585 231.157 425.958C231.027 426.331 230.755 426.637 230.4 426.81L228.48 427.73C227.383 428.261 226.197 428.496 225.182 428.381C224.168 428.267 223.408 427.813 223.07 427.12L222.71 426.36C222.374 425.666 222.488 424.789 223.026 423.923C223.564 423.057 224.483 422.271 225.58 421.74L227.5 420.81C227.855 420.638 228.265 420.614 228.638 420.743C229.011 420.872 229.317 421.145 229.49 421.5L231.09 424.82Z" fill="white"/>
<path d="M416.05 426.14L415.74 427.9C415.612 428.622 415.28 429.292 414.782 429.831C414.283 430.369 413.641 430.754 412.93 430.94C393.14 436.11 379.09 450.87 376.1 471.28C375.753 473.693 375.523 476.783 375.41 480.55C375.4 480.931 375.243 481.294 374.971 481.564C374.699 481.834 374.334 481.99 373.95 482L370.73 482.09C370.587 482.093 370.446 482.067 370.313 482.015C370.18 481.963 370.059 481.886 369.957 481.787C369.855 481.689 369.773 481.571 369.717 481.441C369.661 481.311 369.631 481.171 369.63 481.03C369.55 473.217 370.657 465.94 372.95 459.2C374.617 454.327 377.633 449.253 382 443.98C390.58 433.62 401.327 427.09 414.24 424.39C414.483 424.339 414.735 424.348 414.974 424.417C415.213 424.486 415.431 424.612 415.609 424.785C415.788 424.957 415.922 425.171 415.998 425.407C416.075 425.644 416.093 425.895 416.05 426.14Z" fill="#DD000A"/>
<path d="M357.96 432.19C358.222 432.224 358.471 432.321 358.686 432.475C358.901 432.628 359.074 432.832 359.191 433.069C359.308 433.305 359.365 433.567 359.356 433.831C359.347 434.094 359.273 434.352 359.14 434.58L357.84 436.82C357.567 437.292 357.147 437.661 356.644 437.87C356.142 438.08 355.586 438.118 355.06 437.98C350.407 436.76 347.65 436.093 346.79 435.98C331.064 433.967 316.434 437.183 302.9 445.63C301.827 446.297 299.44 448.093 295.74 451.02C295.262 451.4 294.66 451.591 294.049 451.556C293.439 451.521 292.863 451.263 292.43 450.83L291.65 450.05C291.419 449.82 291.239 449.544 291.123 449.239C291.007 448.934 290.957 448.607 290.977 448.281C290.997 447.955 291.086 447.636 291.238 447.346C291.391 447.056 291.603 446.802 291.86 446.6C300.08 440.2 309.92 433.83 319.68 431.65C325.594 430.33 332.34 429.617 339.92 429.51C345.78 429.43 352.07 431.42 357.96 432.19Z" fill="#DD000A"/>
<path d="M400.89 461.24C396.184 467.667 391.124 473.043 385.71 477.37C385.621 477.441 385.515 477.487 385.402 477.505C385.289 477.523 385.174 477.511 385.067 477.471C384.96 477.43 384.866 477.363 384.793 477.275C384.72 477.187 384.671 477.082 384.65 476.97C384.404 475.55 384.427 474.15 384.72 472.77C386.32 465.283 388.774 459.287 392.08 454.78C395.387 450.267 400.37 446.123 407.03 442.35C408.257 441.657 409.587 441.213 411.02 441.02C411.134 441.006 411.249 441.021 411.354 441.064C411.46 441.107 411.552 441.177 411.623 441.267C411.693 441.356 411.739 441.463 411.756 441.575C411.773 441.688 411.761 441.803 411.72 441.91C409.214 448.37 405.604 454.813 400.89 461.24Z" fill="#DD000A"/>
<path d="M325.79 451.85C318.67 453.59 311.6 457.46 305.4 462.3C304.938 462.662 304.354 462.833 303.77 462.777C303.186 462.721 302.645 462.443 302.26 462L300.86 460.38C300.722 460.222 300.618 460.039 300.553 459.84C300.489 459.641 300.465 459.431 300.484 459.222C300.502 459.014 300.563 458.812 300.662 458.627C300.761 458.443 300.896 458.281 301.06 458.15C306.393 453.89 312.333 450.453 318.88 447.84C321.026 446.98 322.85 446.363 324.35 445.99C325.856 445.623 327.763 445.327 330.07 445.1C337.076 444.4 343.93 444.71 350.63 446.03C350.835 446.07 351.029 446.151 351.202 446.268C351.375 446.386 351.522 446.537 351.635 446.712C351.748 446.888 351.825 447.084 351.86 447.29C351.895 447.496 351.888 447.707 351.84 447.91L351.34 449.99C351.203 450.56 350.854 451.056 350.363 451.376C349.871 451.696 349.276 451.816 348.7 451.71C340.96 450.28 332.9 450.11 325.79 451.85Z" fill="#DD000A"/>
<path d="M345.6 466.17C337.2 464.083 329.217 464.993 321.65 468.9C318.06 470.76 315.8 472.82 313.04 469.95C312.766 469.666 312.605 469.292 312.587 468.896C312.568 468.501 312.694 468.111 312.94 467.8C313.567 467.013 314.5 466.237 315.74 465.47C321.847 461.71 328.434 459.64 335.5 459.26C337.62 459.147 341.334 459.533 346.64 460.42C346.76 460.44 346.875 460.485 346.977 460.55C347.08 460.615 347.169 460.699 347.238 460.799C347.308 460.898 347.357 461.01 347.383 461.129C347.41 461.248 347.412 461.37 347.39 461.49L346.68 465.47C346.659 465.589 346.614 465.702 346.547 465.803C346.48 465.903 346.394 465.989 346.292 466.055C346.191 466.12 346.077 466.164 345.958 466.184C345.839 466.204 345.717 466.199 345.6 466.17Z" fill="#DD000A"/>
<path d="M345.41 480.91C345.397 480.995 345.369 481.076 345.325 481.15C345.281 481.224 345.223 481.288 345.154 481.339C345.085 481.39 345.007 481.427 344.924 481.448C344.841 481.469 344.754 481.473 344.67 481.46L344.62 481.45C342.314 481.118 340.042 480.712 337.933 480.256C335.824 479.8 333.92 479.302 332.329 478.791C330.738 478.281 329.492 477.767 328.662 477.279C327.831 476.792 327.433 476.34 327.49 475.95L327.53 475.68C327.586 475.29 328.096 474.969 329.03 474.736C329.964 474.503 331.304 474.362 332.973 474.321C334.643 474.28 336.61 474.34 338.761 474.498C340.911 474.656 343.205 474.908 345.51 475.24H345.57C345.654 475.252 345.736 475.281 345.81 475.325C345.883 475.369 345.947 475.427 345.999 475.496C346.05 475.564 346.087 475.643 346.107 475.726C346.128 475.809 346.132 475.895 346.12 475.98L345.41 480.91Z" fill="#DD000A"/>
<path d="M820.149 485.29C821.866 485.278 823.57 485.679 825.162 486.469C826.755 487.259 828.205 488.423 829.43 489.894C830.655 491.366 831.63 493.117 832.301 495.046C832.972 496.975 833.325 499.045 833.34 501.139C833.369 505.366 832.019 509.43 829.587 512.436C827.155 515.443 823.84 517.145 820.371 517.17C818.653 517.182 816.95 516.781 815.357 515.991C813.765 515.201 812.315 514.037 811.09 512.566C809.865 511.094 808.889 509.343 808.218 507.414C807.548 505.485 807.195 503.415 807.18 501.321C807.151 497.094 808.5 493.03 810.932 490.024C813.364 487.017 816.68 485.315 820.149 485.29ZM820.31 488.83C817.857 488.83 815.504 490.14 813.769 492.471C812.034 494.802 811.06 497.963 811.06 501.26C811.06 504.557 812.034 507.718 813.769 510.049C815.504 512.38 817.857 513.69 820.31 513.69C822.763 513.69 825.116 512.38 826.851 510.049C828.585 507.718 829.56 504.557 829.56 501.26C829.56 497.963 828.585 494.802 826.851 492.471C825.116 490.14 822.763 488.83 820.31 488.83Z" fill="#DD000A"/>
<path d="M714.12 491.1C710.79 489.17 703.68 486.92 701.83 492.2C701.176 494.08 701.976 495.683 704.23 497.01C705.043 497.497 707.84 498.943 712.62 501.35C716.053 503.09 717.61 505.617 717.29 508.93C716.82 513.74 713.28 516.28 708.71 516.81C704.69 517.277 701.056 516.27 697.81 513.79C697.62 513.646 697.461 513.465 697.342 513.26C697.222 513.054 697.144 512.826 697.113 512.59C697.081 512.355 697.096 512.115 697.158 511.885C697.219 511.655 697.325 511.439 697.47 511.25L697.64 511.02C697.774 510.843 697.944 510.697 698.14 510.592C698.335 510.486 698.551 510.423 698.773 510.407C698.995 510.391 699.218 510.422 699.428 510.498C699.638 510.575 699.829 510.695 699.99 510.85C703.17 513.92 712.98 515.88 713.44 508.9C713.573 506.887 712.503 505.347 710.23 504.28C706.41 502.5 703.84 501.257 702.52 500.55C696.08 497.11 696.55 488.44 703.61 486.18C707.65 484.893 711.47 485.647 715.07 488.44C715.364 488.668 715.577 488.985 715.676 489.342C715.775 489.699 715.756 490.077 715.62 490.42L715.56 490.6C715.507 490.734 715.427 490.856 715.323 490.956C715.219 491.056 715.094 491.132 714.958 491.179C714.821 491.227 714.675 491.244 714.531 491.231C714.386 491.217 714.246 491.172 714.12 491.1Z" fill="#DD000A"/>
<path d="M857.076 485.35C860.561 485.332 863.912 486.989 866.392 489.956C868.872 492.923 870.277 496.957 870.299 501.171C870.321 505.385 868.958 509.434 866.51 512.427C864.061 515.42 860.728 517.112 857.243 517.13C853.758 517.148 850.407 515.491 847.927 512.524C845.447 509.557 844.042 505.523 844.02 501.309C843.998 497.095 845.361 493.046 847.81 490.053C850.258 487.06 853.591 485.369 857.076 485.35ZM857.178 488.73C854.746 488.734 852.416 490.058 850.7 492.411C848.984 494.764 848.024 497.953 848.03 501.276C848.032 502.921 848.272 504.55 848.736 506.07C849.199 507.589 849.877 508.969 850.731 510.131C851.584 511.293 852.597 512.215 853.711 512.842C854.824 513.47 856.017 513.792 857.222 513.79C859.654 513.786 861.984 512.462 863.699 510.109C865.415 507.756 866.375 504.567 866.37 501.244C866.367 499.599 866.127 497.97 865.663 496.45C865.2 494.931 864.522 493.551 863.668 492.389C862.815 491.227 861.802 490.305 860.689 489.678C859.575 489.05 858.382 488.728 857.178 488.73Z" fill="#DD000A"/>
<path d="M991.39 490.42L991.33 490.6C991.278 490.734 991.197 490.856 991.093 490.956C990.989 491.056 990.864 491.132 990.728 491.179C990.591 491.227 990.445 491.244 990.301 491.231C990.156 491.217 990.016 491.172 989.89 491.1C986.56 489.17 979.45 486.91 977.6 492.19C976.94 494.07 977.736 495.673 979.99 497C980.803 497.487 983.6 498.937 988.38 501.35C991.813 503.09 993.366 505.617 993.04 508.93C992.57 513.74 989.03 516.28 984.46 516.81C980.44 517.27 976.806 516.26 973.56 513.78C973.37 513.636 973.211 513.456 973.092 513.25C972.972 513.044 972.894 512.816 972.863 512.581C972.831 512.345 972.846 512.105 972.908 511.875C972.969 511.645 973.075 511.429 973.22 511.24L973.39 511.01C973.524 510.833 973.694 510.687 973.89 510.582C974.085 510.476 974.301 510.413 974.523 510.397C974.745 510.381 974.968 510.412 975.178 510.488C975.388 510.565 975.579 510.685 975.74 510.84C978.92 513.91 988.73 515.88 989.19 508.9C989.33 506.887 988.263 505.347 985.99 504.28C982.17 502.493 979.6 501.247 978.28 500.54C971.84 497.1 972.32 488.43 979.38 486.17C983.42 484.89 987.24 485.647 990.84 488.44C991.134 488.668 991.347 488.985 991.446 489.342C991.545 489.699 991.526 490.077 991.39 490.42Z" fill="#DD000A"/>
<path d="M547.76 485.83C549.147 485.83 550 486.303 550.32 487.25C553.52 496.657 556.684 505.967 559.81 515.18C559.861 515.331 559.876 515.491 559.852 515.649C559.828 515.806 559.768 515.955 559.675 516.084C559.582 516.213 559.46 516.318 559.318 516.391C559.176 516.463 559.019 516.5 558.86 516.5H557.37C557.031 516.5 556.699 516.391 556.424 516.187C556.149 515.984 555.944 515.698 555.84 515.37L553.65 508.43C553.57 508.167 553.427 507.927 553.234 507.731C553.04 507.534 552.803 507.387 552.54 507.3C552.334 507.233 550.73 507.197 547.73 507.19C544.73 507.19 543.127 507.223 542.92 507.29C542.658 507.377 542.42 507.524 542.227 507.721C542.034 507.918 541.891 508.157 541.81 508.42L539.6 515.35C539.496 515.678 539.292 515.964 539.017 516.167C538.742 516.371 538.41 516.48 538.07 516.48L536.58 516.47C536.422 516.469 536.267 516.43 536.126 516.357C535.986 516.284 535.865 516.179 535.773 516.05C535.682 515.921 535.622 515.773 535.599 515.616C535.576 515.46 535.59 515.3 535.64 515.15C538.787 505.943 541.97 496.64 545.19 487.24C545.51 486.3 546.367 485.83 547.76 485.83ZM543.06 503.57C543.043 503.623 543.039 503.679 543.047 503.734C543.056 503.789 543.077 503.842 543.109 503.887C543.141 503.933 543.183 503.97 543.232 503.997C543.28 504.023 543.335 504.038 543.39 504.04L551.59 504.32C551.647 504.322 551.704 504.311 551.756 504.287C551.808 504.263 551.853 504.227 551.888 504.182C551.923 504.137 551.947 504.085 551.958 504.029C551.969 503.973 551.966 503.915 551.95 503.86L548.3 490.1C548.282 490.025 548.239 489.957 548.179 489.908C548.119 489.859 548.044 489.83 547.967 489.827C547.889 489.824 547.812 489.846 547.748 489.889C547.684 489.933 547.636 489.997 547.61 490.07L543.06 503.57Z" fill="#DD000A"/>
<path d="M610.53 507.24C607.524 507.233 605.917 507.263 605.71 507.33C605.448 507.416 605.21 507.564 605.017 507.761C604.824 507.957 604.681 508.197 604.6 508.46L602.37 515.4C602.265 515.728 602.059 516.014 601.785 516.217C601.51 516.42 601.179 516.53 600.84 516.53L599.35 516.52C599.191 516.52 599.034 516.483 598.893 516.411C598.751 516.338 598.629 516.233 598.536 516.104C598.443 515.975 598.382 515.826 598.359 515.668C598.335 515.511 598.349 515.351 598.4 515.2C601.567 505.98 604.77 496.667 608.01 487.26C608.337 486.313 609.197 485.843 610.59 485.85C611.984 485.85 612.84 486.323 613.16 487.27C616.347 496.697 619.497 506.027 622.61 515.26C622.661 515.411 622.675 515.571 622.652 515.728C622.628 515.886 622.567 516.035 622.474 516.164C622.382 516.293 622.259 516.398 622.118 516.471C621.976 516.543 621.819 516.58 621.66 516.58H620.17C619.831 516.58 619.501 516.471 619.226 516.267C618.951 516.064 618.746 515.778 618.64 515.45L616.45 508.49C616.37 508.228 616.229 507.989 616.038 507.793C615.846 507.596 615.611 507.448 615.35 507.36C615.144 507.287 613.537 507.247 610.53 507.24ZM606 503.77C605.984 503.816 605.98 503.866 605.987 503.914C605.994 503.963 606.012 504.009 606.041 504.049C606.069 504.089 606.106 504.122 606.15 504.144C606.193 504.167 606.241 504.179 606.29 504.18L614.69 504.29C614.738 504.29 614.785 504.279 614.827 504.258C614.87 504.237 614.907 504.207 614.936 504.169C614.965 504.131 614.985 504.087 614.995 504.041C615.004 503.994 615.002 503.946 614.99 503.9L610.98 489.99C610.961 489.927 610.923 489.872 610.87 489.833C610.818 489.793 610.754 489.771 610.689 489.77C610.623 489.769 610.559 489.789 610.505 489.826C610.452 489.864 610.411 489.918 610.39 489.98L606 503.77Z" fill="#DD000A"/>
<path d="M636.44 491.52C636.419 491.474 636.383 491.438 636.338 491.417C636.293 491.395 636.241 491.391 636.193 491.404C636.145 491.417 636.103 491.447 636.075 491.489C636.047 491.53 636.034 491.58 636.04 491.63L636.67 515.47C636.673 515.585 636.652 515.699 636.61 515.805C636.568 515.912 636.505 516.009 636.425 516.091C636.345 516.173 636.249 516.238 636.144 516.283C636.038 516.327 635.925 516.35 635.81 516.35H633.71C633.511 516.35 633.32 516.271 633.18 516.13C633.039 515.99 632.96 515.799 632.96 515.6V487.35C632.959 487.039 633.071 486.738 633.275 486.502C633.479 486.267 633.762 486.113 634.07 486.07C635.217 485.903 636.18 485.98 636.96 486.3C637.304 486.443 637.589 486.696 637.77 487.02L650.43 509.96C650.475 510.038 650.545 510.1 650.628 510.135C650.711 510.171 650.804 510.178 650.891 510.156C650.977 510.135 651.054 510.085 651.108 510.015C651.162 509.945 651.191 509.859 651.19 509.77V487.11C651.19 486.749 651.333 486.403 651.588 486.148C651.843 485.893 652.189 485.75 652.55 485.75H653.13C653.541 485.75 653.935 485.913 654.226 486.204C654.517 486.495 654.68 486.889 654.68 487.3V515.79C654.681 515.929 654.634 516.063 654.547 516.172C654.459 516.282 654.337 516.358 654.2 516.39C652.8 516.69 651.537 516.477 650.41 515.75C650.2 515.619 650.028 515.436 649.91 515.22L636.44 491.52Z" fill="#DD000A"/>
<path d="M786.12 500.38C786.574 501.18 788.38 504.38 791.54 509.98C791.562 510.031 791.602 510.073 791.652 510.098C791.702 510.122 791.759 510.128 791.813 510.113C791.867 510.098 791.914 510.065 791.944 510.018C791.975 509.971 791.988 509.915 791.98 509.86V486.99C791.98 486.717 792.088 486.455 792.279 486.262C792.471 486.069 792.73 485.96 793 485.96H794.38C794.699 485.96 795.004 486.086 795.229 486.311C795.454 486.537 795.581 486.842 795.581 487.16V515.34C795.581 515.563 795.506 515.781 795.369 515.958C795.231 516.135 795.039 516.263 794.82 516.32C793.127 516.773 791.85 516.433 790.99 515.3C790.284 514.373 787.684 509.953 783.19 502.04C782.737 501.233 780.931 498.03 777.771 492.43C777.749 492.379 777.709 492.337 777.659 492.312C777.609 492.288 777.552 492.282 777.498 492.297C777.444 492.312 777.397 492.346 777.367 492.392C777.336 492.439 777.323 492.495 777.331 492.55V515.42C777.331 515.693 777.223 515.955 777.032 516.148C776.84 516.341 776.581 516.45 776.31 516.45H774.93C774.612 516.45 774.307 516.324 774.082 516.099C773.857 515.873 773.73 515.568 773.73 515.25V487.07C773.73 486.847 773.805 486.629 773.942 486.452C774.08 486.275 774.272 486.147 774.49 486.09C776.184 485.637 777.46 485.977 778.32 487.11C779.027 488.037 781.627 492.46 786.12 500.38Z" fill="#DD000A"/>
<path d="M521.52 487.21C521.501 486.974 521.574 486.739 521.725 486.555C521.876 486.37 522.092 486.25 522.33 486.22L524.38 485.94C524.528 485.92 524.679 485.932 524.822 485.976C524.966 486.02 525.098 486.094 525.211 486.193C525.323 486.292 525.414 486.415 525.476 486.552C525.538 486.69 525.57 486.839 525.57 486.99C525.523 493.69 525.497 500.52 525.49 507.48C525.49 510.77 524.78 514.62 521.55 515.99C517.203 517.817 513.323 517.147 509.91 513.98C509.666 513.752 509.506 513.449 509.457 513.12C509.408 512.791 509.473 512.456 509.64 512.17L510.55 510.6C510.604 510.506 510.682 510.427 510.776 510.372C510.869 510.316 510.976 510.286 511.084 510.284C511.193 510.282 511.301 510.308 511.396 510.36C511.492 510.412 511.572 510.488 511.63 510.58C513.33 513.34 517.97 514.8 520.61 512.13C520.832 511.908 520.988 511.631 521.06 511.33C521.46 509.743 521.657 508.71 521.65 508.23C521.63 495.097 521.587 488.09 521.52 487.21Z" fill="#DD000A"/>
<path d="M574.71 504.52C574.603 504.512 574.496 504.525 574.395 504.56C574.295 504.596 574.203 504.651 574.125 504.724C574.048 504.797 573.987 504.885 573.946 504.982C573.906 505.08 573.886 505.185 573.89 505.29L574.16 515.36C574.164 515.487 574.142 515.614 574.097 515.733C574.051 515.853 573.982 515.962 573.894 516.055C573.806 516.148 573.7 516.222 573.582 516.275C573.465 516.327 573.338 516.356 573.21 516.36L571.07 516.42C570.954 516.423 570.838 516.402 570.731 516.36C570.623 516.317 570.524 516.253 570.442 516.172C570.359 516.091 570.293 515.995 570.248 515.888C570.203 515.781 570.18 515.666 570.18 515.55V486.66C570.179 486.542 570.223 486.429 570.302 486.34C570.381 486.252 570.491 486.195 570.61 486.18C575.53 485.67 586.73 485.21 589.13 490.51C590.88 494.38 590.34 501.04 585.63 502.94C582.196 504.327 578.556 504.853 574.71 504.52ZM573.89 489.8L574.07 500.84C574.071 500.925 574.089 501.01 574.123 501.088C574.157 501.166 574.206 501.237 574.267 501.297C574.328 501.356 574.401 501.403 574.48 501.434C574.56 501.466 574.644 501.481 574.73 501.48L579.19 501.41C580.16 501.394 581.119 501.24 582.011 500.957C582.903 500.674 583.711 500.266 584.389 499.758C585.067 499.25 585.601 498.652 585.962 497.997C586.322 497.341 586.502 496.643 586.49 495.94L586.47 494.3C586.458 493.597 586.255 492.905 585.873 492.262C585.491 491.618 584.937 491.037 584.242 490.552C583.547 490.066 582.726 489.685 581.825 489.431C580.924 489.177 579.96 489.054 578.99 489.07L574.53 489.14C574.444 489.141 574.36 489.159 574.282 489.193C574.203 489.227 574.132 489.276 574.073 489.337C574.014 489.399 573.967 489.471 573.935 489.55C573.904 489.63 573.888 489.715 573.89 489.8Z" fill="#DD000A"/>
<path d="M683.45 499.56V501.54C683.45 501.715 683.381 501.883 683.257 502.007C683.133 502.13 682.965 502.2 682.79 502.2H672.94C672.853 502.2 672.768 502.217 672.688 502.25C672.607 502.283 672.535 502.332 672.473 502.393C672.412 502.455 672.364 502.527 672.33 502.607C672.297 502.687 672.28 502.773 672.28 502.86V512.72C672.28 512.807 672.297 512.893 672.33 512.973C672.364 513.053 672.412 513.125 672.473 513.187C672.535 513.248 672.607 513.297 672.688 513.33C672.768 513.363 672.853 513.38 672.94 513.38H685.53C685.705 513.38 685.873 513.45 685.997 513.573C686.121 513.697 686.19 513.865 686.19 514.04V515.77C686.19 515.945 686.121 516.113 685.997 516.237C685.873 516.36 685.705 516.43 685.53 516.43H668.78C668.605 516.43 668.437 516.36 668.313 516.237C668.19 516.113 668.12 515.945 668.12 515.77V486.66C668.12 486.485 668.19 486.317 668.313 486.193C668.437 486.07 668.605 486 668.78 486H685.02C685.195 486 685.363 486.07 685.487 486.193C685.611 486.317 685.68 486.485 685.68 486.66V488.69C685.68 488.865 685.611 489.033 685.487 489.157C685.363 489.28 685.195 489.35 685.02 489.35H672.94C672.853 489.35 672.768 489.367 672.688 489.4C672.607 489.433 672.535 489.482 672.473 489.543C672.412 489.605 672.364 489.677 672.33 489.757C672.297 489.838 672.28 489.923 672.28 490.01V498.24C672.28 498.327 672.297 498.412 672.33 498.493C672.364 498.573 672.412 498.645 672.473 498.707C672.535 498.768 672.607 498.817 672.688 498.85C672.768 498.883 672.853 498.9 672.94 498.9H682.79C682.965 498.9 683.133 498.97 683.257 499.093C683.381 499.217 683.45 499.385 683.45 499.56Z" fill="#DD000A"/>
<path d="M733.32 498.97H743.62C743.779 498.97 743.932 499.033 744.044 499.146C744.157 499.258 744.22 499.411 744.22 499.57V501.58C744.22 501.739 744.157 501.892 744.044 502.004C743.932 502.117 743.779 502.18 743.62 502.18H733.29C733.131 502.18 732.978 502.243 732.866 502.356C732.753 502.468 732.69 502.621 732.69 502.78V512.78C732.69 512.939 732.753 513.092 732.866 513.204C732.978 513.317 733.131 513.38 733.29 513.38H746.09C746.169 513.38 746.247 513.396 746.32 513.426C746.392 513.456 746.459 513.5 746.514 513.556C746.57 513.612 746.614 513.678 746.644 513.75C746.674 513.823 746.69 513.901 746.69 513.98V515.8C746.69 515.879 746.674 515.957 746.644 516.03C746.614 516.102 746.57 516.169 746.514 516.224C746.459 516.28 746.392 516.324 746.32 516.354C746.247 516.385 746.169 516.4 746.09 516.4H729.52C729.361 516.4 729.208 516.337 729.096 516.224C728.983 516.112 728.92 515.959 728.92 515.8V486.65C728.92 486.491 728.983 486.338 729.096 486.226C729.208 486.113 729.361 486.05 729.52 486.05H745.61C745.769 486.05 745.922 486.113 746.034 486.226C746.147 486.338 746.21 486.491 746.21 486.65V488.7C746.21 488.859 746.147 489.012 746.034 489.124C745.922 489.237 745.769 489.3 745.61 489.3H733.32C733.161 489.3 733.008 489.363 732.896 489.476C732.783 489.588 732.72 489.741 732.72 489.9V498.37C732.72 498.529 732.783 498.682 732.896 498.794C733.008 498.907 733.161 498.97 733.32 498.97Z" fill="#DD000A"/>
<path d="M882.35 486.99C882.35 486.862 882.375 486.735 882.424 486.617C882.474 486.498 882.546 486.391 882.637 486.301C882.728 486.21 882.836 486.139 882.955 486.091C883.074 486.043 883.201 486.019 883.33 486.02L890.44 486.04C894.055 486.048 897.52 487.475 900.072 490.006C902.624 492.537 904.055 495.967 904.05 499.54V503.06C904.047 504.831 903.691 506.584 903.003 508.219C902.314 509.855 901.306 511.34 900.037 512.59C898.767 513.84 897.261 514.83 895.604 515.505C893.947 516.179 892.172 516.524 890.38 516.52L883.27 516.5C883.014 516.497 882.77 516.394 882.59 516.212C882.41 516.031 882.31 515.786 882.31 515.53L882.35 486.99ZM886.04 489.81L885.92 512.67C885.918 512.777 885.938 512.884 885.978 512.983C886.018 513.083 886.078 513.173 886.153 513.249C886.229 513.326 886.318 513.386 886.417 513.427C886.516 513.469 886.622 513.49 886.73 513.49L889.52 513.5C892.334 513.513 895.039 512.38 897.04 510.349C899.04 508.318 900.173 505.556 900.19 502.67L900.21 499.97C900.218 498.539 899.951 497.12 899.424 495.795C898.897 494.47 898.12 493.265 897.138 492.248C896.157 491.231 894.989 490.422 893.703 489.869C892.416 489.315 891.035 489.026 889.64 489.02L886.85 489.01C886.636 489.01 886.432 489.094 886.28 489.244C886.129 489.394 886.042 489.597 886.04 489.81Z" fill="#DD000A"/>
<path d="M917 486.09H919.57C919.74 486.09 919.903 486.158 920.023 486.278C920.143 486.398 920.21 486.56 920.21 486.73V512.75C920.21 512.92 920.278 513.083 920.398 513.203C920.518 513.323 920.681 513.39 920.85 513.39H932.96C933.13 513.39 933.293 513.457 933.413 513.578C933.533 513.698 933.6 513.86 933.6 514.03V515.72C933.6 515.89 933.533 516.053 933.413 516.173C933.293 516.293 933.13 516.36 932.96 516.36H917C916.831 516.36 916.668 516.293 916.548 516.173C916.428 516.053 916.36 515.89 916.36 515.72V486.73C916.36 486.56 916.428 486.398 916.548 486.278C916.668 486.158 916.831 486.09 917 486.09Z" fill="#DD000A"/>
<path d="M948.95 513.37H961.9C962.075 513.37 962.243 513.44 962.366 513.563C962.49 513.687 962.56 513.855 962.56 514.03V515.72C962.56 515.895 962.49 516.063 962.366 516.187C962.243 516.311 962.075 516.38 961.9 516.38H945.17C944.995 516.38 944.827 516.311 944.703 516.187C944.579 516.063 944.51 515.895 944.51 515.72V486.75C944.51 486.575 944.579 486.407 944.703 486.283C944.827 486.16 944.995 486.09 945.17 486.09H961.53C961.626 486.09 961.72 486.111 961.807 486.152C961.894 486.192 961.971 486.251 962.033 486.324C962.095 486.398 962.14 486.484 962.166 486.576C962.191 486.669 962.196 486.765 962.18 486.86L961.87 488.67C961.844 488.824 961.764 488.963 961.645 489.064C961.526 489.165 961.376 489.22 961.22 489.22H948.93C948.755 489.22 948.587 489.29 948.463 489.413C948.339 489.537 948.27 489.705 948.27 489.88V498.38C948.27 498.555 948.339 498.723 948.463 498.847C948.587 498.971 948.755 499.04 948.93 499.04H959.64C959.737 499.04 959.832 499.061 959.92 499.102C960.008 499.143 960.086 499.203 960.148 499.278C960.21 499.352 960.255 499.439 960.279 499.533C960.304 499.627 960.307 499.725 960.29 499.82L959.98 501.6C959.952 501.752 959.871 501.889 959.753 501.988C959.634 502.086 959.484 502.14 959.33 502.14H948.95C948.775 502.14 948.607 502.21 948.483 502.333C948.359 502.457 948.29 502.625 948.29 502.8V512.71C948.29 512.885 948.359 513.053 948.483 513.177C948.607 513.301 948.775 513.37 948.95 513.37Z" fill="#DD000A"/>
</g>
<defs>
<clipPath id="clip0_11_698">
<rect width="1250" height="830" fill="white"/>
</clipPath>
</defs>
</svg>
