<svg width="1250" height="830" viewBox="0 0 1250 830" fill="none" xmlns="http://www.w3.org/2000/svg">
<path d="M761.56 150.35C761.51 150.396 761.445 150.423 761.377 150.425C761.309 150.427 761.243 150.404 761.19 150.36C753.67 144.06 746.04 138.353 738.3 133.24C728.727 126.907 717.94 121.443 705.94 116.85C681.334 107.437 656.204 101.337 630.55 98.55C610.74 96.4 593.66 95.86 575.42 100.02C559.38 103.68 543.92 111.28 531.57 122.33C529.41 124.27 526.037 127.88 521.45 133.16C502.884 154.553 491.457 167.76 487.17 172.78C484.17 176.3 481.53 178.21 478.76 181.44C468.114 193.847 460.287 203.123 455.28 209.27C442.31 225.18 431.1 243.33 425.41 263.08C422.324 273.8 421.26 284.953 422.22 296.54C422.8 303.547 425.284 313.72 429.67 327.06C435.637 345.213 441.744 361.86 447.99 377C465.68 419.87 489.32 461.43 525.59 490.91C551.99 512.357 582.71 523.97 617.75 525.75C627.924 526.27 637.044 526.357 645.11 526.01C656.78 525.51 669.35 524.96 683.63 523.61C690.39 522.97 696.547 521.947 702.1 520.54C716.86 516.81 727.23 504.53 737.26 493.75C739.58 491.25 742.86 488.21 747.1 484.63C761.407 472.517 776.22 459.6 791.54 445.88C796.26 441.653 800.3 437.64 803.66 433.84C804.587 432.8 808.6 428.757 815.7 421.71C826.954 410.543 836.354 398.023 843.9 384.15C852.6 368.15 857.56 348.9 855.44 330.77C854.26 320.697 851.78 310.183 848 299.23C838.48 271.65 827.99 244.8 814.45 219.24C814.356 219.055 814.329 218.843 814.375 218.642C814.421 218.441 814.536 218.263 814.7 218.14L844.35 196.12C844.471 196.031 844.61 195.969 844.758 195.939C844.905 195.909 845.057 195.911 845.203 195.945C845.35 195.979 845.487 196.045 845.605 196.137C845.724 196.23 845.821 196.347 845.89 196.48C847.237 199.107 849.047 202.743 851.32 207.39C863.474 232.217 871.104 258.59 874.21 286.51C876.124 303.67 876.17 320.263 874.35 336.29C871.364 362.703 864.92 386.713 855.02 408.32C841.01 438.91 821.29 467.3 795.61 489.35C775.34 506.76 752.62 521.7 728.42 531.89C718.967 535.87 708.487 539.317 696.98 542.23C691.62 543.583 686.897 544.563 682.81 545.17C676.02 546.18 670.2 547.49 663.7 548.09C646.694 549.65 629.69 549.647 612.69 548.08C608.624 547.7 605.177 547.23 602.35 546.67C596.43 545.48 588.92 544.71 582.52 542.95C581.24 542.59 578.084 541.757 573.05 540.45C550.584 534.61 528.634 524.88 507.2 511.26C447.7 473.45 407.23 407.65 399.68 337.72C397.494 317.447 397.927 297.22 400.98 277.04C403.98 257.2 409.304 238.233 416.95 220.14C419.897 213.173 423.3 205.883 427.16 198.27C443.85 165.34 469.93 137.04 500.11 116.38C526.51 98.3 557.52 84.54 589.4 78.44C596.274 77.1267 600.564 76.3467 602.27 76.1C639.91 70.56 676.647 73.7 712.48 85.52C714.047 86.0334 718.587 87.6967 726.1 90.5101C731.16 92.3967 735.594 94.3167 739.4 96.27C750.92 102.197 762.287 108.78 773.5 116.02C778.374 119.16 782.817 122.533 786.83 126.14C786.862 126.169 786.888 126.204 786.906 126.243C786.924 126.282 786.933 126.324 786.934 126.366C786.935 126.408 786.927 126.45 786.911 126.489C786.895 126.527 786.871 126.562 786.84 126.59L761.56 150.35Z" fill="#D72120"/>
<path d="M681.44 295.97C681.403 295.995 681.377 296.034 681.366 296.078C681.355 296.122 681.36 296.168 681.38 296.208C681.4 296.247 681.434 296.276 681.475 296.29C681.516 296.303 681.56 296.3 681.6 296.28C699.887 289.533 718.773 286.84 738.26 288.2C746.97 288.8 756.89 290.4 765.08 292.83C779.693 297.157 793.53 303.86 806.59 312.94C806.623 312.963 806.661 312.978 806.701 312.983C806.74 312.989 806.78 312.985 806.818 312.973C806.855 312.96 806.888 312.938 806.915 312.91C806.941 312.882 806.96 312.847 806.97 312.81C810.11 301.337 811.927 290.023 812.42 278.87C812.42 278.861 812.422 278.852 812.425 278.844C812.429 278.836 812.434 278.829 812.441 278.824C812.448 278.818 812.455 278.814 812.464 278.811C812.472 278.809 812.481 278.808 812.49 278.81C812.57 278.83 812.61 278.893 812.61 279C812.983 289.26 812.423 299.173 810.93 308.74C810.63 310.673 809.827 314.67 808.52 320.73C807.547 325.237 806.527 329.18 805.46 332.56C790.867 378.66 762.547 413.637 720.5 437.49C708.293 444.417 695.003 449.807 680.63 453.66C666.57 457.433 652.383 459.46 638.07 459.74C593.937 460.593 554.633 447.013 520.16 419C497.987 400.987 480.993 378.293 469.18 350.92C456.94 322.55 452.8 290.8 456.31 259.98C456.325 259.85 456.387 259.73 456.485 259.643C456.583 259.557 456.709 259.509 456.84 259.51H657.64C657.701 259.509 657.76 259.526 657.811 259.559C657.862 259.593 657.901 259.641 657.924 259.698C657.947 259.754 657.952 259.816 657.939 259.875C657.926 259.935 657.894 259.989 657.85 260.03C647.757 269.537 641.963 275.017 640.47 276.47C639.53 277.39 638.593 278.003 637.66 278.31C637.514 278.363 637.363 278.397 637.21 278.41L482.98 292.1C482.928 292.104 482.878 292.118 482.831 292.142C482.785 292.166 482.745 292.199 482.712 292.239C482.679 292.279 482.655 292.326 482.641 292.376C482.627 292.426 482.623 292.478 482.63 292.53C484.417 305.75 487.863 318.497 492.97 330.77C492.99 330.818 493.021 330.861 493.06 330.895C493.099 330.929 493.145 330.954 493.195 330.968C493.246 330.981 493.298 330.983 493.349 330.973C493.4 330.963 493.449 330.941 493.49 330.91C522.763 308.39 555.87 299.233 592.81 303.44C598.723 304.113 606.74 305.85 616.86 308.65C617.053 308.702 617.257 308.704 617.451 308.657C617.645 308.61 617.823 308.515 617.97 308.38L806.15 131.54C806.21 131.484 806.281 131.441 806.359 131.414C806.436 131.388 806.519 131.379 806.601 131.387C806.682 131.396 806.761 131.422 806.832 131.464C806.902 131.506 806.963 131.562 807.01 131.63L817.63 147.18C817.768 147.382 817.827 147.626 817.798 147.868C817.769 148.109 817.652 148.33 817.47 148.49L629.31 313.08C629.285 313.102 629.267 313.13 629.256 313.161C629.244 313.192 629.241 313.226 629.246 313.258C629.251 313.291 629.264 313.322 629.284 313.349C629.304 313.375 629.33 313.396 629.36 313.41L635.22 316.35C635.301 316.389 635.392 316.404 635.482 316.393C635.572 316.383 635.658 316.347 635.73 316.29L845.54 149.95C845.644 149.866 845.773 149.818 845.908 149.812C846.043 149.807 846.177 149.845 846.29 149.92L862.28 160.93C862.341 160.974 862.392 161.033 862.427 161.1C862.462 161.167 862.481 161.241 862.482 161.317C862.483 161.392 862.466 161.466 862.433 161.532C862.399 161.599 862.35 161.656 862.29 161.7L681.44 295.97ZM669.57 310.21C648.78 321.32 631.44 338.44 619.88 358.81C607.753 380.17 602.407 403.24 603.84 428.02C603.851 428.229 603.93 428.428 604.066 428.587C604.201 428.746 604.386 428.856 604.59 428.9L618.57 431.91C618.672 431.933 618.778 431.931 618.879 431.905C618.98 431.878 619.073 431.829 619.151 431.759C619.229 431.69 619.29 431.603 619.328 431.506C619.366 431.409 619.38 431.304 619.37 431.2C614.87 387.15 637.68 344.57 676.77 323.68C715.86 302.8 763.93 307.5 798.05 335.72C798.13 335.785 798.225 335.831 798.327 335.853C798.428 335.875 798.533 335.872 798.633 335.846C798.734 335.82 798.826 335.77 798.904 335.701C798.982 335.633 799.042 335.546 799.08 335.45L804.35 322.16C804.429 321.965 804.442 321.75 804.386 321.547C804.33 321.344 804.208 321.166 804.04 321.04C784.233 306.08 762.08 297.707 737.58 295.92C714.23 294.21 690.36 299.1 669.57 310.21ZM635.46 326.04C635.503 325.993 635.535 325.936 635.553 325.875C635.57 325.813 635.573 325.748 635.562 325.684C635.55 325.621 635.524 325.56 635.486 325.507C635.447 325.455 635.397 325.411 635.34 325.38C610.907 312.193 584.963 307.59 557.51 311.57C534.777 314.857 514.55 323.777 496.83 338.33C496.611 338.509 496.463 338.759 496.412 339.036C496.36 339.312 496.409 339.598 496.55 339.84L503.38 351.66C503.413 351.717 503.458 351.766 503.512 351.804C503.565 351.842 503.627 351.867 503.692 351.879C503.757 351.89 503.823 351.887 503.887 351.87C503.95 351.853 504.01 351.822 504.06 351.78C513.907 343.54 524.88 337.07 536.98 332.37C541.63 330.57 546.16 329.59 550.16 328.45C553.353 327.543 556.717 326.86 560.25 326.4C582.943 323.433 604.47 326.937 624.83 336.91C624.955 336.971 625.096 336.99 625.233 336.965C625.37 336.94 625.495 336.872 625.59 336.77L635.46 326.04ZM680.45 330.32C668.677 336.62 658.49 345.077 649.89 355.69C631.843 377.977 624.31 403.62 627.29 432.62C627.309 432.803 627.393 432.974 627.527 433.1C627.661 433.227 627.836 433.301 628.02 433.31L642.24 434.08C642.328 434.086 642.416 434.071 642.498 434.038C642.58 434.004 642.653 433.953 642.713 433.886C642.772 433.82 642.816 433.741 642.842 433.655C642.867 433.569 642.873 433.479 642.86 433.39C637.28 397.39 655.32 360.97 687.61 343.7C719.89 326.42 760.2 331.61 787.06 356.23C787.127 356.289 787.205 356.332 787.29 356.357C787.375 356.382 787.465 356.388 787.552 356.375C787.639 356.362 787.721 356.329 787.794 356.28C787.866 356.231 787.926 356.166 787.97 356.09L795.22 343.83C795.315 343.672 795.35 343.485 795.319 343.303C795.287 343.122 795.192 342.957 795.05 342.84C772.577 324.273 747.063 316.317 718.51 318.97C704.903 320.237 692.217 324.02 680.45 330.32ZM508.01 359.68L516.14 370.62C516.212 370.716 516.302 370.797 516.407 370.856C516.511 370.915 516.626 370.952 516.744 370.964C516.863 370.977 516.983 370.964 517.096 370.927C517.208 370.89 517.312 370.83 517.4 370.75C533.027 356.623 551.38 349.12 572.46 348.24C586.3 347.667 599.403 350.25 611.77 355.99C611.898 356.051 612.046 356.062 612.184 356.019C612.322 355.977 612.442 355.885 612.52 355.76L620.12 343.67C620.153 343.619 620.175 343.562 620.184 343.502C620.194 343.442 620.19 343.38 620.174 343.322C620.158 343.263 620.13 343.209 620.091 343.162C620.052 343.115 620.004 343.077 619.95 343.05C612.97 339.663 605.54 337.117 597.66 335.41C565.71 328.49 532.67 336.85 508.13 358.5C507.966 358.644 507.862 358.845 507.84 359.064C507.818 359.282 507.878 359.502 508.01 359.68ZM691.18 350.57C673.66 359.96 659.98 376.23 653.63 395.1C649.403 407.673 648.483 420.587 650.87 433.84C650.902 434.022 651.001 434.186 651.149 434.299C651.297 434.412 651.483 434.466 651.67 434.45L665.56 433.22C665.646 433.213 665.73 433.188 665.805 433.147C665.881 433.106 665.947 433.049 665.999 432.981C666.051 432.913 666.088 432.835 666.107 432.752C666.126 432.669 666.127 432.583 666.11 432.5C663.203 417.807 665.173 403.997 672.02 391.07C678.387 379.063 687.18 370.057 698.4 364.05C709.62 358.037 721.99 355.707 735.51 357.06C750.063 358.52 762.653 364.53 773.28 375.09C773.34 375.15 773.412 375.196 773.491 375.225C773.57 375.255 773.655 375.267 773.74 375.261C773.825 375.256 773.908 375.232 773.984 375.192C774.06 375.152 774.126 375.097 774.18 375.03L782.9 364.15C783.019 364.003 783.079 363.818 783.067 363.631C783.056 363.443 782.975 363.268 782.84 363.14C773.127 353.813 761.863 347.427 749.05 343.98C729.83 338.81 708.7 341.18 691.18 350.57ZM522.06 377.92L531.29 387.74C531.476 387.94 531.734 388.058 532.008 388.07C532.281 388.081 532.548 387.984 532.75 387.8C544.883 376.707 559.303 371.077 576.01 370.91C584.323 370.83 593.17 372.79 602.55 376.79C602.616 376.818 602.686 376.832 602.757 376.833C602.829 376.833 602.899 376.82 602.965 376.793C603.031 376.766 603.091 376.726 603.142 376.676C603.192 376.626 603.233 376.566 603.26 376.5L608.66 363.49C608.72 363.341 608.718 363.175 608.657 363.027C608.595 362.88 608.478 362.762 608.33 362.7C583.063 352.267 558.707 353.69 535.26 366.97C530.42 369.71 526.027 373.037 522.08 376.95C521.951 377.079 521.876 377.253 521.873 377.434C521.869 377.615 521.936 377.789 522.06 377.92ZM702.13 370.83C680.04 382.7 668.9 407.29 673.85 431.56C673.886 431.723 673.985 431.865 674.126 431.955C674.266 432.045 674.437 432.076 674.6 432.04L688.16 429.19C688.247 429.172 688.329 429.137 688.403 429.087C688.476 429.037 688.539 428.973 688.587 428.899C688.636 428.824 688.669 428.741 688.685 428.654C688.701 428.566 688.699 428.477 688.68 428.39C685.04 410.75 693.54 392.58 709.27 384.13C725 375.68 744.84 378.62 757.54 391.39C757.602 391.455 757.676 391.506 757.758 391.542C757.84 391.578 757.928 391.597 758.018 391.598C758.107 391.598 758.196 391.581 758.279 391.548C758.362 391.514 758.437 391.463 758.5 391.4L768.36 381.67C768.42 381.612 768.469 381.543 768.502 381.466C768.535 381.389 768.553 381.306 768.554 381.222C768.555 381.138 768.539 381.055 768.508 380.977C768.476 380.9 768.429 380.829 768.37 380.77C750.86 363.25 724.21 358.97 702.13 370.83ZM597.42 399.81L600.56 385.19C600.58 385.101 600.57 385.008 600.532 384.925C600.494 384.842 600.43 384.773 600.35 384.73C593.183 381.01 585.557 379.07 577.47 378.91C562.583 378.617 549.503 383.4 538.23 393.26C538.18 393.303 538.14 393.357 538.113 393.417C538.086 393.478 538.073 393.544 538.075 393.611C538.077 393.678 538.094 393.744 538.124 393.804C538.154 393.864 538.197 393.918 538.25 393.96L549.5 402.94C549.67 403.076 549.882 403.151 550.1 403.151C550.318 403.151 550.53 403.076 550.7 402.94C563.96 392.39 582.2 391.2 596.72 400.11C596.784 400.148 596.856 400.171 596.93 400.176C597.004 400.181 597.078 400.168 597.146 400.139C597.215 400.109 597.275 400.064 597.323 400.007C597.37 399.95 597.404 399.882 597.42 399.81ZM712.97 391.04C699.93 398.03 693.77 411.78 696.05 426.2C696.062 426.279 696.091 426.354 696.135 426.42C696.179 426.486 696.237 426.542 696.305 426.584C696.374 426.626 696.451 426.653 696.531 426.662C696.611 426.672 696.693 426.664 696.77 426.64C706.483 423.5 715.973 419.533 725.24 414.74C725.353 414.68 725.467 414.62 725.58 414.56C725.693 414.5 725.807 414.44 725.92 414.38C735.04 409.313 743.593 403.603 751.58 397.25C751.643 397.2 751.694 397.137 751.731 397.065C751.768 396.994 751.789 396.915 751.793 396.836C751.796 396.756 751.783 396.677 751.753 396.603C751.723 396.53 751.678 396.464 751.62 396.41C740.87 386.53 726.01 384.05 712.97 391.04ZM597.51 426.11C596.91 421.03 595.93 415.03 596.45 409.73C596.466 409.553 596.435 409.374 596.362 409.211C596.288 409.049 596.174 408.907 596.03 408.8C588.697 403.433 580.59 401.197 571.71 402.09C566.19 402.65 562.1 404.56 557.49 406.99C557.403 407.037 557.33 407.106 557.277 407.189C557.224 407.273 557.194 407.368 557.189 407.466C557.184 407.563 557.204 407.66 557.248 407.747C557.292 407.834 557.358 407.907 557.44 407.96C569.887 416.02 583.037 422.24 596.89 426.62C596.966 426.644 597.047 426.648 597.125 426.633C597.203 426.617 597.276 426.583 597.338 426.532C597.399 426.482 597.447 426.417 597.477 426.343C597.507 426.269 597.518 426.189 597.51 426.11Z" fill="#D72120"/>
<path d="M456.28 248.93L458.31 234.09C458.313 234.065 458.324 234.042 458.343 234.026C458.361 234.009 458.385 234 458.41 234L664.09 245.1C664.104 245.101 664.116 245.105 664.128 245.111C664.14 245.118 664.15 245.126 664.158 245.136C664.167 245.146 664.173 245.158 664.177 245.171C664.18 245.184 664.182 245.197 664.18 245.21V245.39C664.178 245.415 664.166 245.438 664.148 245.454C664.129 245.471 664.105 245.48 664.08 245.48L456.38 249.05C456.365 249.05 456.35 249.047 456.337 249.041C456.323 249.035 456.311 249.026 456.301 249.014C456.292 249.003 456.285 248.989 456.281 248.974C456.278 248.96 456.277 248.945 456.28 248.93Z" fill="#D72120"/>
<path d="M812.68 259.81V262.82C812.681 262.897 812.652 262.972 812.6 263.029C812.548 263.087 812.477 263.123 812.4 263.13L729.99 270.44C729.925 270.443 729.861 270.425 729.806 270.39C729.752 270.354 729.71 270.302 729.686 270.241C729.663 270.18 729.66 270.113 729.677 270.05C729.693 269.987 729.73 269.931 729.78 269.89L743.68 259.56C743.732 259.522 743.795 259.501 743.86 259.5H812.37C812.452 259.5 812.531 259.533 812.589 259.591C812.648 259.649 812.68 259.728 812.68 259.81Z" fill="#D72120"/>
<path d="M676.771 323.68C637.681 344.57 614.871 387.15 619.371 431.2C619.381 431.304 619.367 431.409 619.329 431.506C619.291 431.603 619.23 431.69 619.152 431.759C619.074 431.829 618.98 431.878 618.879 431.905C618.778 431.931 618.672 431.933 618.571 431.91L604.591 428.9C604.386 428.856 604.202 428.746 604.066 428.587C603.931 428.428 603.851 428.229 603.841 428.02C602.407 403.24 607.754 380.17 619.881 358.81C631.441 338.44 648.781 321.32 669.571 310.21C690.361 299.1 714.231 294.21 737.581 295.92C762.081 297.707 784.234 306.08 804.04 321.04C804.209 321.166 804.331 321.344 804.387 321.547C804.443 321.75 804.43 321.965 804.35 322.16L799.081 335.45C799.042 335.546 798.982 335.633 798.905 335.701C798.827 335.77 798.734 335.82 798.634 335.846C798.534 335.872 798.429 335.875 798.327 335.853C798.226 335.831 798.131 335.785 798.051 335.72C763.931 307.5 715.861 302.8 676.771 323.68Z" fill="white"/>
<path d="M635.46 326.04L625.59 336.77C625.495 336.872 625.369 336.94 625.233 336.965C625.096 336.99 624.955 336.971 624.83 336.91C604.47 326.937 582.943 323.433 560.25 326.4C556.716 326.86 553.353 327.543 550.16 328.45C546.16 329.59 541.63 330.57 536.98 332.37C524.88 337.07 513.906 343.54 504.06 351.78C504.009 351.822 503.95 351.853 503.887 351.87C503.823 351.887 503.756 351.89 503.692 351.879C503.627 351.867 503.565 351.842 503.511 351.804C503.457 351.766 503.412 351.717 503.38 351.66L496.55 339.84C496.409 339.598 496.36 339.313 496.411 339.036C496.463 338.759 496.611 338.509 496.83 338.33C514.55 323.777 534.776 314.857 557.51 311.57C584.963 307.59 610.906 312.193 635.34 325.38C635.397 325.411 635.447 325.455 635.486 325.508C635.524 325.56 635.55 325.621 635.562 325.684C635.573 325.748 635.57 325.813 635.552 325.875C635.535 325.937 635.503 325.993 635.46 326.04Z" fill="white"/>
<path d="M687.61 343.7C655.32 360.97 637.28 397.39 642.86 433.39C642.873 433.479 642.867 433.569 642.842 433.655C642.816 433.741 642.772 433.82 642.713 433.886C642.653 433.953 642.58 434.004 642.498 434.038C642.416 434.071 642.328 434.086 642.24 434.08L628.02 433.31C627.836 433.301 627.661 433.227 627.527 433.1C627.393 432.974 627.309 432.803 627.29 432.62C624.31 403.62 631.843 377.977 649.89 355.69C658.49 345.077 668.676 336.62 680.45 330.32C692.216 324.02 704.903 320.237 718.51 318.97C747.063 316.317 772.576 324.273 795.05 342.84C795.192 342.957 795.287 343.122 795.318 343.303C795.35 343.485 795.315 343.672 795.22 343.83L787.97 356.09C787.926 356.166 787.866 356.231 787.794 356.28C787.721 356.329 787.639 356.362 787.552 356.375C787.465 356.388 787.375 356.382 787.29 356.357C787.205 356.332 787.126 356.289 787.06 356.23C760.2 331.61 719.89 326.42 687.61 343.7Z" fill="white"/>
<path d="M508.01 359.68C507.878 359.502 507.817 359.283 507.839 359.064C507.862 358.845 507.965 358.644 508.13 358.5C532.67 336.85 565.71 328.49 597.66 335.41C605.54 337.117 612.97 339.663 619.95 343.05C620.004 343.077 620.052 343.115 620.091 343.162C620.13 343.209 620.158 343.263 620.174 343.322C620.19 343.38 620.193 343.442 620.184 343.502C620.175 343.562 620.153 343.619 620.12 343.67L612.52 355.76C612.441 355.885 612.322 355.977 612.184 356.019C612.045 356.062 611.898 356.051 611.77 355.99C599.403 350.25 586.3 347.667 572.46 348.24C551.38 349.12 533.026 356.623 517.4 370.75C517.312 370.83 517.208 370.89 517.095 370.927C516.982 370.964 516.863 370.977 516.744 370.965C516.625 370.952 516.51 370.915 516.406 370.856C516.302 370.797 516.211 370.716 516.14 370.62L508.01 359.68Z" fill="white"/>
<path d="M698.4 364.05C687.18 370.057 678.387 379.063 672.02 391.07C665.173 403.997 663.203 417.807 666.11 432.5C666.127 432.583 666.126 432.669 666.107 432.752C666.088 432.835 666.051 432.913 665.999 432.981C665.947 433.049 665.881 433.106 665.806 433.147C665.73 433.188 665.646 433.213 665.56 433.22L651.67 434.45C651.483 434.466 651.298 434.412 651.15 434.299C651.001 434.186 650.902 434.022 650.87 433.84C648.483 420.587 649.403 407.673 653.63 395.1C659.98 376.23 673.66 359.96 691.18 350.57C708.7 341.18 729.83 338.81 749.05 343.98C761.863 347.427 773.127 353.813 782.84 363.14C782.975 363.268 783.057 363.443 783.068 363.631C783.079 363.818 783.019 364.003 782.9 364.15L774.18 375.03C774.127 375.097 774.06 375.152 773.984 375.192C773.908 375.232 773.825 375.256 773.74 375.261C773.655 375.267 773.57 375.255 773.491 375.225C773.412 375.196 773.34 375.15 773.28 375.09C762.653 364.53 750.063 358.52 735.51 357.06C721.99 355.707 709.62 358.037 698.4 364.05Z" fill="white"/>
<path d="M522.081 376.95C526.027 373.037 530.421 369.71 535.261 366.97C558.707 353.69 583.064 352.267 608.331 362.7C608.478 362.762 608.596 362.88 608.657 363.027C608.719 363.175 608.72 363.341 608.66 363.49L603.261 376.5C603.233 376.566 603.193 376.626 603.143 376.676C603.092 376.726 603.032 376.766 602.966 376.793C602.9 376.82 602.829 376.833 602.758 376.833C602.687 376.832 602.616 376.818 602.55 376.79C593.17 372.79 584.324 370.83 576.011 370.91C559.304 371.077 544.884 376.707 532.751 387.8C532.548 387.984 532.281 388.081 532.008 388.07C531.735 388.058 531.477 387.94 531.29 387.74L522.061 377.92C521.937 377.789 521.869 377.615 521.873 377.434C521.877 377.253 521.951 377.079 522.081 376.95Z" fill="white"/>
<path d="M709.27 384.13C693.54 392.58 685.04 410.75 688.68 428.39C688.699 428.477 688.701 428.566 688.685 428.654C688.669 428.741 688.636 428.824 688.587 428.899C688.539 428.973 688.476 429.037 688.403 429.087C688.33 429.137 688.247 429.172 688.16 429.19L674.6 432.04C674.437 432.076 674.266 432.045 674.126 431.955C673.985 431.865 673.886 431.723 673.85 431.56C668.9 407.29 680.04 382.7 702.13 370.83C724.21 358.97 750.86 363.25 768.37 380.77C768.429 380.829 768.476 380.9 768.508 380.977C768.539 381.055 768.555 381.138 768.554 381.222C768.553 381.306 768.536 381.389 768.502 381.466C768.469 381.543 768.421 381.612 768.36 381.67L758.5 391.4C758.437 391.463 758.362 391.514 758.279 391.548C758.196 391.581 758.107 391.599 758.018 391.598C757.928 391.597 757.84 391.578 757.758 391.542C757.676 391.506 757.602 391.455 757.54 391.39C744.84 378.62 725 375.68 709.27 384.13Z" fill="white"/>
<path d="M597.42 399.81C597.404 399.882 597.37 399.95 597.323 400.007C597.275 400.064 597.215 400.109 597.147 400.139C597.078 400.168 597.004 400.181 596.93 400.176C596.856 400.171 596.784 400.148 596.72 400.11C582.2 391.2 563.96 392.39 550.7 402.94C550.53 403.076 550.318 403.151 550.1 403.151C549.882 403.151 549.67 403.076 549.5 402.94L538.25 393.96C538.197 393.918 538.154 393.864 538.124 393.804C538.094 393.744 538.077 393.678 538.075 393.611C538.073 393.544 538.086 393.478 538.113 393.417C538.14 393.357 538.18 393.303 538.23 393.26C549.503 383.4 562.583 378.617 577.47 378.91C585.557 379.07 593.183 381.01 600.35 384.73C600.43 384.773 600.494 384.842 600.532 384.925C600.57 385.008 600.58 385.101 600.56 385.19L597.42 399.81Z" fill="white"/>
<path d="M725.58 414.56C725.467 414.62 725.353 414.68 725.24 414.74C715.973 419.533 706.483 423.5 696.77 426.64C696.693 426.664 696.611 426.672 696.531 426.662C696.451 426.653 696.374 426.626 696.305 426.584C696.237 426.542 696.179 426.486 696.135 426.42C696.09 426.354 696.062 426.279 696.05 426.2C693.77 411.78 699.93 398.03 712.97 391.04C726.01 384.05 740.87 386.53 751.62 396.41C751.678 396.464 751.723 396.53 751.753 396.603C751.783 396.677 751.796 396.756 751.792 396.836C751.789 396.915 751.768 396.994 751.731 397.065C751.694 397.137 751.643 397.2 751.58 397.25C743.593 403.603 735.04 409.313 725.92 414.38C725.807 414.44 725.693 414.5 725.58 414.56Z" fill="white"/>
<path d="M596.89 426.62C583.037 422.24 569.887 416.02 557.44 407.96C557.359 407.907 557.293 407.834 557.249 407.747C557.205 407.66 557.184 407.563 557.189 407.466C557.194 407.368 557.225 407.273 557.277 407.189C557.33 407.106 557.404 407.037 557.49 406.99C562.1 404.56 566.19 402.65 571.71 402.09C580.59 401.197 588.697 403.433 596.03 408.8C596.174 408.907 596.289 409.049 596.362 409.211C596.436 409.374 596.466 409.553 596.45 409.73C595.93 415.03 596.91 421.03 597.51 426.11C597.519 426.189 597.508 426.269 597.478 426.343C597.448 426.417 597.4 426.482 597.338 426.532C597.277 426.583 597.203 426.618 597.125 426.633C597.047 426.648 596.966 426.644 596.89 426.62Z" fill="white"/>
<path d="M651.12 655.67C649.566 653.963 648.533 652.667 648.02 651.78C643.933 644.713 644.176 638.173 648.75 632.16C648.8 632.096 648.837 632.021 648.857 631.942C648.878 631.862 648.881 631.779 648.868 631.698C648.855 631.616 648.825 631.538 648.781 631.468C648.737 631.398 648.678 631.337 648.61 631.29C648.47 631.197 648.22 631.097 647.86 630.99C644.3 629.98 640.66 624.28 647.08 623.51C651.553 622.977 656.086 621.677 660.68 619.61C660.902 619.511 661.088 619.345 661.211 619.133C661.335 618.922 661.39 618.676 661.37 618.43L661.36 618.35C661.35 618.254 661.319 618.162 661.267 618.081C661.215 618 661.145 617.933 661.062 617.884C660.979 617.835 660.886 617.807 660.79 617.801C660.694 617.795 660.598 617.812 660.51 617.85C657.816 619.05 656.193 619.72 655.64 619.86C649.566 621.373 645.57 619.363 643.65 613.83C642.57 610.71 647.05 605.14 649.39 603.12C649.472 603.048 649.532 602.954 649.562 602.849C649.591 602.744 649.59 602.632 649.557 602.528C649.524 602.424 649.461 602.332 649.376 602.263C649.292 602.194 649.189 602.151 649.08 602.14C647.513 601.967 646.14 601.523 644.96 600.81C641.93 598.99 643.44 595.64 645.89 594.06C646.683 593.547 647.993 593.323 649.82 593.39C654.18 593.543 657.863 595.117 660.87 598.11C660.937 598.176 661.022 598.222 661.115 598.242C661.207 598.262 661.303 598.255 661.391 598.222C661.479 598.19 661.555 598.132 661.61 598.057C661.664 597.982 661.696 597.893 661.7 597.8L661.75 596.83C661.776 596.294 661.613 595.769 661.29 595.35C660.136 593.87 659.826 592.76 660.36 592.02C662.946 588.4 666.206 587.703 670.14 589.93C674.186 592.223 676.223 595.433 676.25 599.56C676.252 599.639 676.272 599.717 676.308 599.788C676.344 599.858 676.395 599.919 676.458 599.967C676.521 600.014 676.593 600.046 676.67 600.06C676.746 600.075 676.825 600.071 676.9 600.05C681.8 598.62 688.95 597.93 692.94 601.49C693.024 601.565 693.133 601.609 693.246 601.612C693.359 601.615 693.47 601.578 693.559 601.507C693.648 601.437 693.708 601.337 693.73 601.226C693.753 601.115 693.735 600.999 693.68 600.9C692.2 598.2 689.9 595.48 693.63 593.67C696.84 592.11 698.9 593.75 701.36 595.87C701.548 596.035 701.792 596.123 702.043 596.116C702.293 596.109 702.532 596.006 702.71 595.83C706.97 591.59 711.16 588.31 717.62 590.38C722.66 592 726.33 594.01 728.5 598.86C728.993 599.953 729.28 602.09 729.36 605.27C729.84 624.997 730.12 636.083 730.2 638.53C730.33 642.55 728.3 648.19 723.76 649.08C723.648 649.102 723.546 649.159 723.469 649.243C723.392 649.327 723.343 649.433 723.329 649.546C723.316 649.66 723.339 649.774 723.395 649.874C723.45 649.973 723.536 650.052 723.64 650.1C727.32 651.75 732.08 654.13 731.27 658.98C730.87 661.33 726.7 662.84 724.79 663.3C719.723 664.527 716.573 665.297 715.34 665.61C715.263 665.628 715.193 665.668 715.137 665.725C715.082 665.781 715.044 665.852 715.027 665.93C715.01 666.007 715.016 666.087 715.043 666.162C715.07 666.236 715.117 666.301 715.18 666.35C718.493 668.917 721.686 671.133 724.76 673C731.83 677.3 738.62 682.44 731.22 690.15C730.989 690.394 730.714 690.591 730.41 690.73C723.7 693.79 721.46 691.25 715.7 686.48C713.406 684.58 710.98 682.537 708.42 680.35C708.301 680.248 708.151 680.19 707.995 680.184C707.839 680.179 707.685 680.227 707.56 680.32C705.273 682.007 703.6 683.253 702.54 684.06C695.813 689.167 688.143 692.107 679.53 692.88C671.79 693.57 662.66 691.5 662.52 681.93C662.518 681.86 662.5 681.792 662.466 681.731C662.433 681.671 662.385 681.619 662.327 681.58C662.269 681.542 662.203 681.518 662.133 681.511C662.064 681.504 661.994 681.514 661.93 681.54C661.903 681.547 659.993 682.407 656.2 684.12C651.473 686.253 647.793 685.343 645.16 681.39C643.053 678.217 643.113 675.083 645.34 671.99C645.56 671.679 645.88 671.447 646.25 671.33C649.53 670.29 652.61 669.65 654.91 666.82C654.946 666.774 654.971 666.718 654.979 666.66C654.988 666.602 654.981 666.542 654.96 666.488C654.939 666.434 654.903 666.387 654.857 666.352C654.812 666.317 654.757 666.296 654.7 666.29C650.8 665.82 647.28 665.02 644.82 661.72C644.635 661.476 644.499 661.201 644.42 660.91C643.966 659.323 644.36 657.98 645.6 656.88C645.729 656.77 645.879 656.687 646.04 656.637C646.202 656.587 646.372 656.571 646.54 656.59C648.346 656.79 649.816 656.697 650.95 656.31C651.011 656.288 651.067 656.252 651.111 656.204C651.156 656.156 651.188 656.098 651.204 656.035C651.221 655.972 651.222 655.906 651.208 655.842C651.193 655.778 651.163 655.719 651.12 655.67ZM714.25 632.67L715.18 597.63C715.188 597.367 715.143 597.105 715.046 596.86C714.95 596.615 714.805 596.392 714.619 596.205C714.434 596.018 714.213 595.87 713.969 595.771C713.725 595.672 713.463 595.624 713.2 595.63C707.82 595.73 708.26 603.01 708.23 607.25C708.223 607.837 708.216 614.843 708.21 628.27C708.21 628.399 708.242 628.527 708.303 628.642C708.364 628.757 708.452 628.856 708.56 628.93L714.1 632.74C714.115 632.749 714.132 632.755 714.15 632.756C714.167 632.757 714.185 632.754 714.2 632.747C714.215 632.74 714.228 632.729 714.237 632.715C714.246 632.702 714.25 632.686 714.25 632.67ZM660.19 606.82L651.66 610.34C651.464 610.421 651.291 610.551 651.16 610.718C651.028 610.885 650.942 611.083 650.909 611.292C650.876 611.502 650.897 611.717 650.971 611.916C651.044 612.115 651.168 612.292 651.33 612.43L651.4 612.49C651.728 612.697 652.107 612.813 652.496 612.827C652.886 612.842 653.274 612.753 653.62 612.57L661.07 608.65C661.233 608.566 661.358 608.423 661.419 608.25C661.481 608.078 661.474 607.888 661.4 607.72L661.19 607.23C661.113 607.044 660.965 606.896 660.777 606.819C660.59 606.742 660.379 606.743 660.19 606.82ZM693.34 610.71C693.341 610.665 693.334 610.621 693.317 610.58C693.301 610.538 693.277 610.501 693.246 610.47C693.215 610.438 693.177 610.414 693.137 610.399C693.096 610.384 693.053 610.377 693.01 610.38C690.09 610.507 687.54 610.447 685.36 610.2C682.58 609.88 678.99 611.36 676.74 612.99C676.5 613.157 676.393 613.417 676.42 613.77C676.424 613.834 676.442 613.896 676.473 613.952C676.503 614.008 676.546 614.057 676.597 614.095C676.648 614.133 676.707 614.16 676.77 614.173C676.833 614.186 676.898 614.185 676.96 614.17C682.66 612.82 687.28 612.14 692.99 614.68C693.017 614.692 693.047 614.697 693.076 614.695C693.106 614.693 693.134 614.685 693.159 614.67C693.184 614.655 693.204 614.634 693.218 614.61C693.232 614.586 693.24 614.558 693.24 614.53L693.34 610.71ZM676.96 625.41C682.55 625.22 686.09 624.15 692.05 627.38C692.161 627.442 692.287 627.474 692.414 627.474C692.542 627.473 692.667 627.439 692.778 627.376C692.888 627.312 692.981 627.221 693.046 627.112C693.111 627.002 693.147 626.877 693.15 626.75L693.16 626.35C693.168 625.996 693.05 625.65 692.826 625.375C692.603 625.1 692.288 624.914 691.94 624.85C690.76 624.63 689.563 624.117 688.35 623.31C687.827 622.963 687.218 622.766 686.59 622.74C683.15 622.58 679.883 623.24 676.79 624.72C676.711 624.753 676.647 624.814 676.609 624.89C676.571 624.967 676.561 625.054 676.581 625.137C676.602 625.22 676.651 625.293 676.721 625.343C676.79 625.393 676.875 625.417 676.96 625.41ZM660.46 630.89L655.56 634.23C655.363 634.36 655.219 634.556 655.154 634.782C655.089 635.009 655.107 635.251 655.205 635.466C655.302 635.68 655.473 635.853 655.687 635.953C655.9 636.053 656.143 636.073 656.37 636.01C657.81 635.643 659.423 634.86 661.21 633.66C661.434 633.509 661.605 633.29 661.698 633.035C661.791 632.781 661.802 632.502 661.73 632.24L661.46 631.25C661.43 631.151 661.378 631.06 661.307 630.985C661.236 630.91 661.148 630.852 661.051 630.817C660.953 630.782 660.849 630.771 660.747 630.783C660.644 630.796 660.546 630.832 660.46 630.89ZM685.691 632.486C685.537 632.283 685.272 632.169 684.912 632.148C684.551 632.127 684.103 632.2 683.592 632.364C683.082 632.528 682.519 632.778 681.935 633.102C681.352 633.425 680.759 633.815 680.192 634.249C679.624 634.683 679.092 635.152 678.627 635.631C678.162 636.109 677.773 636.587 677.481 637.037C677.189 637.486 677 637.9 676.926 638.253C676.852 638.606 676.893 638.892 677.048 639.094C677.203 639.296 677.468 639.411 677.828 639.432C678.188 639.453 678.636 639.38 679.147 639.216C679.658 639.052 680.221 638.802 680.805 638.478C681.388 638.155 681.981 637.765 682.548 637.331C683.116 636.897 683.647 636.428 684.112 635.949C684.577 635.471 684.967 634.993 685.259 634.543C685.551 634.093 685.739 633.68 685.813 633.327C685.888 632.974 685.846 632.688 685.691 632.486ZM696.29 637C696.237 637.074 696.2 637.157 696.179 637.244C696.159 637.332 696.156 637.423 696.171 637.512C696.186 637.6 696.218 637.684 696.266 637.76C696.314 637.835 696.376 637.9 696.45 637.95C697.763 638.863 698.88 639.987 699.8 641.32C699.906 641.472 700.049 641.593 700.216 641.672C700.383 641.751 700.567 641.785 700.75 641.77L707.3 641.19C707.403 641.18 707.503 641.15 707.594 641.1C707.685 641.051 707.766 640.983 707.83 640.902C707.895 640.821 707.942 640.727 707.969 640.627C707.997 640.527 708.004 640.423 707.99 640.32C707.77 638.793 707.19 637.607 706.25 636.76C706.103 636.631 705.92 636.551 705.727 636.529C705.534 636.508 705.339 636.546 705.17 636.64C702.33 638.22 699.663 638.263 697.17 636.77C697.033 636.688 696.87 636.661 696.714 636.695C696.558 636.728 696.421 636.819 696.33 636.95L696.29 637ZM656.9 645.46C659.066 647.727 659.836 650.07 659.21 652.49C659.186 652.585 659.183 652.685 659.202 652.781C659.221 652.878 659.262 652.968 659.32 653.046C659.379 653.124 659.455 653.188 659.541 653.232C659.628 653.276 659.723 653.299 659.82 653.3C660.726 653.32 661.776 652.923 662.97 652.11C663.09 652.029 663.176 651.905 663.209 651.763C663.242 651.62 663.221 651.469 663.15 651.34C662.303 649.84 662.043 647.763 662.37 645.11C662.383 644.991 662.371 644.871 662.332 644.757C662.294 644.644 662.231 644.54 662.148 644.454C662.064 644.368 661.963 644.302 661.851 644.259C661.739 644.217 661.619 644.2 661.5 644.21L657.22 644.59C657.124 644.598 657.033 644.633 656.957 644.691C656.881 644.75 656.822 644.829 656.789 644.919C656.756 645.01 656.748 645.109 656.768 645.205C656.787 645.3 656.833 645.389 656.9 645.46ZM677.84 649.43L682.9 648.08C682.925 648.074 682.95 648.063 682.971 648.048C682.992 648.033 683.011 648.013 683.025 647.991C683.038 647.969 683.048 647.944 683.052 647.918C683.057 647.892 683.056 647.866 683.05 647.84L682.95 647.47C682.882 647.216 682.765 646.978 682.606 646.77C682.447 646.561 682.25 646.386 682.024 646.254C681.798 646.122 681.549 646.036 681.291 646.001C681.033 645.966 680.771 645.983 680.52 646.05L678.9 646.48C678.393 646.615 677.96 646.948 677.698 647.405C677.435 647.863 677.364 648.408 677.5 648.92L677.6 649.29C677.614 649.34 677.647 649.382 677.692 649.408C677.736 649.435 677.789 649.442 677.84 649.43ZM707.06 654.29C703.86 655.077 701.66 655.763 700.46 656.35C700.42 656.371 700.385 656.402 700.36 656.44C700.334 656.478 700.318 656.521 700.313 656.567C700.308 656.612 700.315 656.658 700.331 656.7C700.348 656.743 700.375 656.78 700.41 656.81C703.45 659.15 704.23 658.62 708.05 657.68C711.256 656.893 713.46 656.21 714.66 655.63C714.702 655.609 714.738 655.578 714.765 655.539C714.792 655.5 714.809 655.456 714.814 655.409C714.819 655.362 714.812 655.314 714.794 655.271C714.776 655.227 714.747 655.189 714.71 655.16C711.67 652.82 710.89 653.35 707.06 654.29ZM687.7 662.96L686.68 661.17C686.642 661.107 686.581 661.061 686.51 661.042C686.439 661.023 686.364 661.033 686.3 661.07L686.15 661.15C684.454 662.121 682.896 663.171 681.818 664.069C680.74 664.967 680.23 665.64 680.4 665.94L680.41 665.96C680.493 666.11 680.741 666.163 681.139 666.116C681.538 666.07 682.08 665.925 682.734 665.69C683.388 665.455 684.141 665.135 684.95 664.747C685.759 664.359 686.609 663.912 687.45 663.43L687.6 663.34C687.663 663.302 687.709 663.242 687.728 663.17C687.746 663.099 687.736 663.024 687.7 662.96ZM698.01 672.86C692.56 674.18 686.76 675.5 681.05 674.21C680.886 674.171 680.713 674.194 680.565 674.276C680.417 674.357 680.305 674.49 680.25 674.65C679.763 676.05 679.596 677.883 679.75 680.15C679.765 680.377 679.834 680.597 679.952 680.791C680.069 680.986 680.232 681.149 680.426 681.268C680.62 681.387 680.84 681.457 681.067 681.473C681.294 681.489 681.521 681.45 681.73 681.36L692.74 676.66C692.833 676.627 692.92 676.583 693 676.53L698.32 673.21C698.335 673.201 698.346 673.187 698.353 673.171C698.36 673.155 698.363 673.137 698.36 673.12L698.35 673.05C698.329 672.98 698.282 672.922 698.218 672.886C698.155 672.851 698.08 672.841 698.01 672.86Z" fill="#280000"/>
<path d="M754.38 632.05C752.907 631.583 751.547 630.98 750.3 630.24C747.58 628.62 749.23 624.54 751.82 623.9C755.94 622.887 760.004 620.78 764.01 617.58C764.131 617.484 764.218 617.35 764.256 617.2C764.294 617.05 764.283 616.892 764.223 616.749C764.163 616.607 764.058 616.487 763.924 616.41C763.79 616.332 763.634 616.301 763.48 616.32C758.57 616.94 753.96 616.99 750.41 613.23C750.179 612.985 750.05 612.663 750.05 612.33C750.03 608.37 753.03 609.05 755.32 607.95C758.3 606.517 761.107 604.697 763.74 602.49C763.866 602.387 763.966 602.257 764.036 602.11C764.105 601.963 764.141 601.802 764.14 601.64V597.6C764.14 597.431 764.091 597.266 763.999 597.125C763.906 596.985 763.775 596.875 763.62 596.81C760.46 595.423 759.74 593.353 761.46 590.6C762.64 588.71 764.79 588.86 766.91 588.87C771.037 588.877 774.207 590.697 776.42 594.33C776.533 594.512 776.704 594.651 776.906 594.723C777.107 594.796 777.327 594.798 777.53 594.73C782.59 592.99 787.167 593.6 791.26 596.56C791.538 596.758 791.779 597.009 791.97 597.3C793.63 599.84 793.89 604.97 789.7 605.3C784.85 605.67 781.3 605.57 778.67 608.51C778.545 608.646 778.469 608.821 778.456 609.006C778.442 609.191 778.491 609.374 778.596 609.528C778.7 609.681 778.853 609.794 779.03 609.849C779.207 609.904 779.398 609.897 779.57 609.83C781.09 609.25 783.477 609.047 786.73 609.22C786.912 609.23 787.093 609.199 787.261 609.129C787.428 609.06 787.579 608.955 787.7 608.82L788.65 607.79C788.893 607.527 789.192 607.328 789.52 607.21C794.154 605.57 798.687 602.697 803.12 598.59C803.293 598.431 803.485 598.296 803.69 598.19C805.617 597.27 807.414 596.103 809.08 594.69C809.266 594.531 809.475 594.393 809.7 594.28C815.08 591.687 818.377 590.25 819.59 589.97C826.69 588.357 833.084 590.073 838.77 595.12C841.144 597.227 841.51 599.823 839.87 602.91C836.9 608.52 830.8 604.32 827.27 603.9C822.94 603.38 817.45 607.78 814.19 610.59C814.082 610.68 814.014 610.81 813.999 610.951C813.984 611.093 814.024 611.235 814.11 611.35C814.924 612.397 815.734 612.897 816.54 612.85C825.22 612.35 831.63 615.573 835.77 622.52C838.71 627.46 839.44 632.98 839.43 639.39C839.404 649.43 839.8 658.71 840.62 667.23C840.714 668.17 840.494 670.773 839.96 675.04C839.942 675.213 839.958 675.388 840.01 675.553C840.062 675.718 840.147 675.87 840.26 676C840.354 676.107 841.007 676.737 842.22 677.89C845.04 680.57 844.6 685.92 841.46 688.27C840.307 689.137 838.424 689.743 835.81 690.09C827.23 691.243 817.787 691.587 807.48 691.12C797.25 690.65 787.8 686.36 779.79 680.23C779.732 680.185 779.664 680.152 779.592 680.135C779.519 680.118 779.444 680.117 779.37 680.131C779.297 680.145 779.227 680.174 779.165 680.217C779.103 680.26 779.05 680.316 779.01 680.38C775.2 686.7 769.83 696.29 760.62 693.13C757.12 691.93 755.73 688.19 755.38 683.99C755.234 682.29 754.9 680.357 754.38 678.19C754.331 677.982 754.233 677.789 754.096 677.625C753.959 677.462 753.786 677.333 753.59 677.25C752.284 676.677 750.917 675.823 749.49 674.69C745.89 671.85 747.72 666.41 750.73 663.93C753.69 661.49 755.99 658.263 757.63 654.25C757.691 654.096 757.702 653.927 757.66 653.767C757.619 653.607 757.528 653.465 757.4 653.36C756.2 652.38 755.477 651.253 755.23 649.98C755.197 649.809 755.119 649.65 755.005 649.519C754.891 649.387 754.745 649.288 754.58 649.23C750.57 647.88 747.51 645.53 748.67 640.87C749.524 637.47 751.454 634.697 754.46 632.55C754.504 632.52 754.539 632.478 754.559 632.429C754.58 632.381 754.587 632.327 754.579 632.275C754.57 632.222 754.547 632.173 754.512 632.133C754.477 632.094 754.431 632.065 754.38 632.05ZM785.22 625.1C785.462 625.146 785.712 625.101 785.921 624.976C786.13 624.85 786.283 624.652 786.35 624.42C788.03 618.66 793.29 621.45 796.03 624.22C796.331 624.523 796.727 624.712 797.151 624.754C797.575 624.796 797.999 624.688 798.35 624.45L802.57 621.56C802.691 621.477 802.794 621.37 802.871 621.245C802.947 621.12 802.997 620.98 803.016 620.835C803.034 620.689 803.022 620.542 802.98 620.401C802.938 620.261 802.866 620.131 802.77 620.02L800.35 617.26C800.238 617.132 800.098 617.031 799.94 616.965C799.782 616.899 799.612 616.87 799.44 616.88C797.154 617 794.94 616.683 792.8 615.93C792.631 615.871 792.447 615.872 792.28 615.932C792.112 615.992 791.971 616.108 791.88 616.26C791.067 617.62 789.634 618.917 787.58 620.15C787.19 620.381 786.76 620.544 786.31 620.63C782.784 621.33 780.274 622.253 778.78 623.4C778.583 623.538 778.444 623.746 778.393 623.982C778.341 624.218 778.381 624.465 778.503 624.673C778.626 624.881 778.822 625.036 779.053 625.105C779.284 625.175 779.533 625.155 779.75 625.05C780.844 624.577 782.667 624.593 785.22 625.1ZM825.74 663.75C825.32 651.223 825.204 638.303 825.39 624.99C825.404 623.97 824.984 622.943 824.13 621.91C824.017 621.772 823.875 621.66 823.715 621.583C823.554 621.505 823.379 621.463 823.2 621.46C821.054 621.387 819.57 622.497 818.75 624.79C818.691 624.958 818.672 625.137 818.692 625.312C818.713 625.487 818.774 625.654 818.87 625.8C821.257 629.447 822.477 632.53 822.53 635.05C822.624 639.643 822.76 649.18 822.94 663.66C822.943 663.868 823.026 664.066 823.172 664.212C823.318 664.358 823.515 664.44 823.72 664.44H825.07C825.16 664.44 825.249 664.422 825.331 664.387C825.414 664.352 825.489 664.301 825.551 664.237C825.614 664.172 825.663 664.096 825.695 664.012C825.728 663.929 825.743 663.84 825.74 663.75ZM813.24 634.18L812.94 630.86C812.934 630.794 812.913 630.731 812.88 630.675C812.847 630.618 812.802 630.569 812.749 630.532C812.695 630.495 812.634 630.47 812.571 630.459C812.507 630.449 812.442 630.452 812.38 630.47L809.96 631.15C809.869 631.174 809.787 631.223 809.722 631.292C809.658 631.361 809.614 631.446 809.595 631.539C809.577 631.632 809.584 631.73 809.617 631.82C809.65 631.91 809.706 631.989 809.78 632.05L812.77 634.43C812.815 634.465 812.868 634.487 812.925 634.492C812.981 634.497 813.038 634.486 813.088 634.459C813.137 634.433 813.179 634.392 813.206 634.343C813.233 634.293 813.245 634.236 813.24 634.18ZM791.2 643.74C791.3 639.06 792.19 635.8 790.06 632.96C790.004 632.887 789.933 632.827 789.851 632.785C789.769 632.743 789.679 632.72 789.587 632.717C789.496 632.714 789.404 632.732 789.32 632.769C789.236 632.806 789.161 632.861 789.1 632.93C787.314 634.977 784.977 636.333 782.09 637C782.018 637.014 781.953 637.052 781.904 637.108C781.856 637.164 781.828 637.234 781.825 637.308C781.821 637.382 781.843 637.454 781.885 637.515C781.928 637.575 781.99 637.619 782.06 637.64C785.467 638.8 788.274 640.907 790.48 643.96C790.53 644.026 790.598 644.075 790.676 644.101C790.755 644.126 790.839 644.127 790.918 644.103C790.996 644.079 791.066 644.031 791.116 643.966C791.167 643.901 791.196 643.822 791.2 643.74ZM799.04 651.07C799.1 656.93 799.474 662.687 800.16 668.34C800.172 668.444 800.219 668.541 800.293 668.614C800.368 668.687 800.466 668.731 800.57 668.74C801.39 668.813 801.774 668.39 801.72 667.47C801.407 661.97 801.224 656.493 801.17 651.04C801.117 645.593 801.19 640.117 801.39 634.61C801.417 633.69 801.024 633.273 800.21 633.36C800.105 633.369 800.006 633.415 799.931 633.49C799.855 633.565 799.809 633.664 799.8 633.77C799.234 639.443 798.98 645.21 799.04 651.07ZM763.58 633.99C760.587 635.837 757.917 638.053 755.57 640.64C755.499 640.717 755.452 640.813 755.436 640.917C755.419 641.021 755.434 641.127 755.478 641.222C755.521 641.317 755.593 641.398 755.682 641.452C755.772 641.507 755.875 641.534 755.98 641.53C758.8 641.44 761.79 638.28 763.94 637.13C764.092 637.05 764.216 636.927 764.298 636.776C764.379 636.625 764.415 636.452 764.4 636.28L764.22 634.31C764.214 634.238 764.19 634.17 764.149 634.11C764.109 634.051 764.054 634.003 763.99 633.971C763.926 633.939 763.854 633.924 763.783 633.927C763.711 633.93 763.641 633.952 763.58 633.99ZM807.6 641.35C807.547 642.25 807.524 642.76 807.53 642.88C807.535 642.938 807.556 642.993 807.589 643.041C807.623 643.088 807.668 643.126 807.721 643.151C807.774 643.175 807.832 643.185 807.89 643.18C807.948 643.174 808.003 643.154 808.05 643.12C808.89 642.527 809.327 641.97 809.36 641.45C809.387 640.93 809.02 640.327 808.26 639.64C808.217 639.599 808.164 639.571 808.106 639.559C808.048 639.546 807.988 639.549 807.932 639.567C807.876 639.585 807.826 639.619 807.787 639.663C807.748 639.708 807.721 639.762 807.71 639.82C807.69 639.933 807.654 640.443 807.6 641.35ZM763.95 648.56L765.15 649.76C765.173 649.782 765.199 649.8 765.228 649.812C765.257 649.824 765.289 649.83 765.32 649.83C765.352 649.83 765.383 649.824 765.412 649.812C765.442 649.8 765.468 649.782 765.49 649.76L765.6 649.65C766.352 648.904 767.002 648.118 767.409 647.463C767.815 646.809 767.945 646.34 767.77 646.16L767.57 645.96C767.484 645.869 767.325 645.853 767.101 645.911C766.878 645.97 766.595 646.102 766.269 646.301C765.943 646.5 765.58 646.761 765.201 647.07C764.822 647.379 764.434 647.729 764.06 648.1L763.95 648.22C763.928 648.242 763.91 648.269 763.898 648.298C763.886 648.327 763.88 648.358 763.88 648.39C763.88 648.422 763.886 648.453 763.898 648.482C763.91 648.511 763.928 648.538 763.95 648.56ZM776.76 657.37C779.007 654.403 780.74 651.443 781.96 648.49C782.32 647.623 782.37 646.96 782.11 646.5C781.981 646.271 781.792 646.085 781.56 645.958C781.328 645.831 781.06 645.767 780.779 645.772C780.498 645.777 780.214 645.85 779.951 645.986C779.687 646.122 779.454 646.315 779.27 646.55C777.724 648.503 776.187 650.84 774.66 653.56C774.511 653.828 774.433 654.131 774.435 654.438C774.436 654.744 774.518 655.045 774.67 655.31L775.82 657.31C775.868 657.391 775.935 657.459 776.015 657.508C776.095 657.558 776.186 657.587 776.279 657.593C776.372 657.599 776.465 657.581 776.549 657.542C776.633 657.504 776.705 657.444 776.76 657.37ZM813.65 652.03L813.38 648.52C813.375 648.482 813.356 648.447 813.326 648.423C813.296 648.399 813.259 648.387 813.22 648.39H813.16C812.918 648.409 812.682 648.476 812.465 648.587C812.248 648.698 812.055 648.851 811.897 649.038C811.74 649.225 811.62 649.441 811.545 649.675C811.47 649.908 811.441 650.155 811.46 650.4L811.47 650.48C811.509 650.974 811.74 651.433 812.114 651.756C812.487 652.078 812.971 652.238 813.46 652.2H813.52C813.54 652.197 813.559 652.191 813.576 652.181C813.594 652.171 813.609 652.158 813.621 652.142C813.633 652.126 813.642 652.108 813.647 652.089C813.652 652.07 813.653 652.05 813.65 652.03ZM807.79 655.73L808.16 659.87C808.166 659.927 808.189 659.981 808.227 660.025C808.264 660.068 808.314 660.099 808.37 660.114C808.425 660.128 808.484 660.124 808.538 660.104C808.592 660.084 808.638 660.047 808.67 660L810.53 657.29C810.559 657.249 810.579 657.203 810.589 657.154C810.599 657.105 810.599 657.054 810.589 657.004C810.579 656.955 810.559 656.908 810.53 656.866C810.501 656.824 810.463 656.788 810.42 656.76L808.29 655.43C808.238 655.398 808.177 655.381 808.116 655.38C808.054 655.38 807.994 655.396 807.942 655.427C807.89 655.458 807.848 655.503 807.822 655.557C807.795 655.61 807.784 655.67 807.79 655.73ZM793.05 673.86C791.517 669.973 790.68 665.793 790.54 661.32C790.539 661.264 790.519 661.211 790.484 661.167C790.45 661.123 790.402 661.092 790.348 661.077C790.295 661.063 790.238 661.066 790.186 661.086C790.134 661.106 790.09 661.143 790.06 661.19L785.67 668.17C785.602 668.282 785.572 668.413 785.587 668.544C785.601 668.674 785.659 668.796 785.75 668.89C787.42 670.6 790.67 673.95 792.64 674.36C792.705 674.372 792.772 674.366 792.834 674.343C792.896 674.32 792.951 674.281 792.992 674.23C793.034 674.179 793.062 674.118 793.072 674.053C793.082 673.988 793.075 673.921 793.05 673.86ZM812.32 666.1C813.047 666.153 813.577 666.11 813.91 665.97C814.07 665.901 814.212 665.796 814.325 665.662C814.438 665.529 814.52 665.37 814.565 665.198C814.61 665.026 814.617 664.845 814.585 664.667C814.553 664.489 814.483 664.319 814.38 664.17C814.047 663.69 813.277 664.13 812.07 665.49C812.026 665.542 811.997 665.605 811.986 665.672C811.975 665.739 811.983 665.808 812.009 665.871C812.034 665.935 812.077 665.989 812.132 666.03C812.187 666.07 812.252 666.094 812.32 666.1ZM767.62 664.92C765.34 668.187 763.31 671.537 761.53 674.97C761.366 675.289 761.275 675.641 761.265 675.999C761.255 676.357 761.326 676.709 761.473 677.029C761.62 677.348 761.839 677.625 762.111 677.837C762.383 678.049 762.702 678.191 763.04 678.25C764 678.423 764.954 677.873 765.9 676.6C767.527 674.413 769.06 672.19 770.5 669.93C770.693 669.625 770.798 669.273 770.806 668.912C770.813 668.551 770.721 668.194 770.54 667.88L768.87 664.98C768.809 664.871 768.721 664.78 768.614 664.714C768.508 664.649 768.387 664.611 768.262 664.605C768.137 664.599 768.013 664.625 767.901 664.68C767.788 664.735 767.692 664.818 767.62 664.92ZM807.36 678.25C813.747 679.183 820.434 678.947 827.42 677.54C827.5 677.523 827.572 677.482 827.627 677.422C827.683 677.363 827.719 677.288 827.731 677.208C827.743 677.128 827.73 677.046 827.694 676.973C827.658 676.9 827.601 676.84 827.53 676.8C822.15 673.97 814.76 676.01 807.33 677.7C807.267 677.715 807.21 677.752 807.171 677.805C807.132 677.857 807.113 677.922 807.116 677.987C807.12 678.053 807.146 678.115 807.191 678.163C807.235 678.211 807.295 678.242 807.36 678.25Z" fill="#280000"/>
<path d="M870.47 611.87C870.484 612.03 870.607 612.02 870.84 611.84C871.134 611.627 871.194 611.433 871.02 611.26C871.7 610.953 872.087 610.56 872.18 610.08C872.199 609.973 872.189 609.864 872.152 609.762C872.116 609.66 872.053 609.57 871.97 609.5L865.91 604.49C865.791 604.397 865.686 604.286 865.6 604.16C863.16 600.667 863.244 597.043 865.85 593.29C866.036 593.025 866.262 592.789 866.52 592.59C869.25 590.53 871.37 588.92 875.48 589.86C881.654 591.267 884.98 595.063 885.46 601.25C885.466 601.337 885.49 601.422 885.53 601.5C885.57 601.578 885.625 601.647 885.692 601.703C885.76 601.759 885.838 601.801 885.921 601.826C886.005 601.852 886.093 601.86 886.18 601.85C894.087 601.017 899.864 604.33 903.51 611.79C903.52 611.814 903.538 611.835 903.561 611.848C903.584 611.861 903.611 611.867 903.637 611.863C903.663 611.86 903.687 611.848 903.706 611.829C903.725 611.811 903.737 611.786 903.74 611.76L903.8 611.38C903.802 611.369 903.807 611.36 903.815 611.353C903.824 611.347 903.835 611.344 903.845 611.345C903.856 611.346 903.865 611.352 903.872 611.36C903.879 611.369 903.882 611.379 903.88 611.39L903.92 613.39C903.92 613.432 903.932 613.473 903.955 613.508C903.978 613.543 904.011 613.571 904.049 613.587C904.088 613.603 904.131 613.607 904.172 613.599C904.213 613.59 904.251 613.57 904.28 613.54L910.43 607.8C910.717 608.173 910.93 608.023 911.07 607.35L915.5 603.89C915.556 603.847 915.597 603.788 915.62 603.721C915.642 603.654 915.645 603.582 915.627 603.514C915.608 603.446 915.571 603.384 915.518 603.337C915.465 603.29 915.4 603.26 915.33 603.25L908.07 602.1C907.767 602.054 907.477 601.945 907.22 601.78C904.98 600.347 903.957 598.077 904.15 594.97C904.404 590.943 906.444 588.903 910.27 588.85C920.084 588.723 928.39 592.037 935.19 598.79C939.83 603.39 942.04 612.49 933.16 614.19C924.414 615.863 916.674 619.47 909.94 625.01C909.721 625.192 909.542 625.418 909.415 625.673C909.289 625.929 909.218 626.208 909.206 626.493C909.195 626.778 909.244 627.062 909.349 627.327C909.455 627.592 909.616 627.831 909.82 628.03L909.87 628.08C910.329 628.53 910.944 628.785 911.587 628.795C912.231 628.804 912.855 628.566 913.33 628.13C915.344 626.29 917.977 624.09 921.23 621.53C929.23 615.25 941.65 615.64 948.51 623.77C949.8 625.29 950.52 628.19 950.04 630.26C949.03 634.54 944.89 634.84 941.16 633.92C939.154 633.42 937.207 633.85 935.32 635.21C935.282 635.236 935.251 635.271 935.23 635.311C935.208 635.352 935.196 635.397 935.195 635.442C935.194 635.488 935.204 635.534 935.224 635.575C935.244 635.616 935.274 635.652 935.31 635.68C940.47 639.71 942.19 644.06 942.27 651.16C942.384 660.587 942.714 670.28 943.26 680.24C943.5 684.58 943.137 687.517 942.17 689.05C940.477 691.723 938.004 693.233 934.75 693.58C929.94 694.09 926.7 691.45 923.98 687.22C921.28 683.027 918.297 679.5 915.03 676.64C914.987 676.602 914.934 676.576 914.877 676.567C914.82 676.558 914.762 676.566 914.709 676.589C914.657 676.612 914.612 676.65 914.58 676.698C914.548 676.746 914.531 676.802 914.53 676.86C914.45 679.287 914.417 682.18 914.43 685.54C914.45 691.52 909.29 694.66 903.96 692.07C899.94 690.12 898.67 684.08 899.16 680.36C900.354 671.367 901 662.557 901.1 653.93C901.1 653.878 901.085 653.827 901.057 653.783C901.029 653.739 900.99 653.704 900.943 653.681C900.896 653.658 900.844 653.649 900.793 653.654C900.741 653.659 900.692 653.678 900.65 653.71C896.67 656.73 893.89 654.07 889.71 654.25C889.539 654.257 889.372 654.297 889.22 654.37L879.59 659.39C879.496 659.439 879.415 659.513 879.358 659.604C879.3 659.695 879.266 659.801 879.26 659.91C878.97 665.89 878.2 673.76 877.25 680.61C876.23 688.01 872.42 692.79 864.41 690.65C859.61 689.36 858.25 683.38 858.97 679.1C858.99 678.981 859.027 678.866 859.08 678.76L860.54 676.09C860.952 675.333 861.271 674.527 861.49 673.69C864.83 660.65 864.93 646.34 864.88 633.02C864.877 632.46 864.712 631.912 864.405 631.442C864.099 630.972 863.663 630.6 863.15 630.37C859.04 628.55 855.58 626.25 856.35 621.18C856.98 617.07 861.46 620.06 863.55 618.02C865.764 615.853 868.07 613.803 870.47 611.87ZM875.89 629.48C877.61 632.747 878.51 636.747 878.59 641.48C878.591 641.576 878.612 641.672 878.652 641.76C878.692 641.847 878.751 641.926 878.824 641.989C878.897 642.052 878.982 642.099 879.075 642.127C879.167 642.155 879.264 642.163 879.36 642.15C880.627 641.983 881.83 641.343 882.97 640.23C883.155 640.052 883.298 639.837 883.39 639.6C885.857 633.193 888.787 626.977 892.18 620.95C892.9 619.677 893.257 618.357 893.25 616.99C893.25 616.675 893.187 616.363 893.064 616.074C892.941 615.784 892.761 615.523 892.534 615.306C892.308 615.088 892.04 614.92 891.747 614.811C891.454 614.702 891.142 614.654 890.83 614.67C889.13 614.757 887.887 615.603 887.1 617.21C884.68 622.143 881.02 625.973 876.12 628.7C876.054 628.735 875.996 628.783 875.949 628.842C875.901 628.9 875.866 628.967 875.845 629.04C875.823 629.112 875.816 629.188 875.824 629.264C875.832 629.339 875.854 629.413 875.89 629.48ZM902.13 644.28L902.35 636.11C902.354 636.03 902.331 635.95 902.285 635.884C902.238 635.819 902.171 635.77 902.094 635.747C902.016 635.724 901.934 635.728 901.859 635.757C901.784 635.787 901.721 635.84 901.68 635.91L897.91 641.9C897.869 641.964 897.845 642.038 897.84 642.115C897.835 642.191 897.85 642.268 897.883 642.337C897.916 642.406 897.966 642.465 898.029 642.51C898.091 642.554 898.164 642.582 898.24 642.59C899.514 642.723 900.62 643.353 901.56 644.48C901.602 644.532 901.658 644.569 901.722 644.588C901.786 644.606 901.854 644.604 901.916 644.582C901.979 644.56 902.033 644.519 902.071 644.465C902.11 644.411 902.13 644.346 902.13 644.28ZM914.44 665.19C914.439 665.252 914.457 665.312 914.491 665.364C914.525 665.416 914.573 665.456 914.63 665.48L925.22 669.88C925.267 669.9 925.318 669.907 925.368 669.903C925.418 669.898 925.467 669.882 925.509 669.854C925.552 669.826 925.587 669.789 925.611 669.744C925.636 669.7 925.649 669.651 925.65 669.6L926.32 644.96C926.321 644.887 926.296 644.816 926.25 644.76L923.84 641.72C923.809 641.679 923.768 641.647 923.72 641.626C923.673 641.605 923.622 641.596 923.57 641.6L914.72 642.39C914.643 642.397 914.572 642.433 914.52 642.491C914.468 642.548 914.44 642.623 914.44 642.7V665.19Z" fill="#280000"/>
<path d="M580.74 656.8C580.78 657 580.94 657.18 581.22 657.34L593.47 674.42C593.576 674.573 593.67 674.737 593.75 674.91C595.45 678.69 595.12 682.21 592.76 685.47C586.94 693.52 578.77 689.79 574.46 682.81C574.366 682.67 570.75 676.183 563.61 663.35C562.036 660.51 560.503 658.12 559.01 656.18C558.895 656.03 558.734 655.921 558.552 655.871C558.369 655.82 558.176 655.831 558 655.9C553.04 657.907 547.976 658.19 542.81 656.75C539.53 655.83 536.933 653.447 535.02 649.6C534.849 649.259 534.767 648.881 534.78 648.5C534.853 646.327 535.856 644.83 537.79 644.01C538.134 643.867 538.515 643.832 538.88 643.91L541.43 644.46C541.605 644.498 541.786 644.498 541.96 644.46C542.135 644.422 542.298 644.347 542.44 644.24L547.66 640.36C547.708 640.325 547.749 640.279 547.778 640.227C547.807 640.175 547.825 640.117 547.83 640.058C547.835 639.999 547.826 639.94 547.806 639.885C547.785 639.83 547.752 639.78 547.71 639.74C545.35 637.427 542.773 634.473 539.98 630.88C538.226 628.627 537.14 626.747 536.72 625.24C534.37 616.91 540.15 610.57 548 608.95C551.266 608.277 554.516 608.023 557.75 608.19C563.796 608.503 569.046 608.967 573.5 609.58C573.68 609.605 573.863 609.582 574.031 609.513C574.2 609.443 574.347 609.331 574.457 609.187C574.568 609.043 574.639 608.872 574.662 608.691C574.685 608.511 574.66 608.328 574.59 608.16C574.19 607.213 573.54 606.603 572.64 606.33C570.1 605.557 567.883 604.643 565.99 603.59C563.03 601.93 561.96 599.557 562.78 596.47C562.859 596.178 562.981 595.902 563.14 595.65C567.86 588.24 579.73 594.45 584.34 598.69C585.96 600.17 587.276 602.423 588.29 605.45C588.335 605.581 588.425 605.692 588.544 605.763C588.663 605.835 588.803 605.862 588.94 605.84C594.74 604.92 598.483 604.593 600.17 604.86C601.356 605.053 602.713 605.14 604.24 605.12C604.253 605.119 604.265 605.123 604.276 605.13C604.286 605.138 604.293 605.149 604.297 605.162C604.3 605.176 604.299 605.19 604.294 605.204C604.289 605.218 604.281 605.231 604.27 605.24C604.256 605.247 604.233 605.263 604.2 605.29C604.193 605.297 604.19 605.305 604.19 605.315C604.19 605.324 604.193 605.334 604.199 605.343C604.205 605.352 604.214 605.361 604.225 605.367C604.235 605.374 604.248 605.378 604.26 605.38C605.793 605.533 607.3 605.943 608.78 606.61C621.34 612.27 628.99 625.06 626.15 638.92C624.32 647.9 615.98 657.07 606.38 657.66C601.36 657.967 597.356 657.833 594.37 657.26C588.75 656.19 582.28 651.37 578.44 649.03C578.254 648.917 578.089 648.779 577.95 648.62C576.516 646.973 576.433 645.35 577.7 643.75C578.34 642.943 579.173 642.667 580.2 642.92C589.06 645.12 599.02 643.92 605.04 637.06C608.686 632.9 609.95 628.127 608.83 622.74C608.13 619.407 606.273 616.967 603.26 615.42C602.946 615.257 602.592 615.187 602.24 615.22C600.586 615.36 599.31 615.853 598.41 616.7C595.61 619.347 593.06 622.257 590.76 625.43C585.27 632.98 579.25 640.23 572.99 646.78C572.846 646.928 572.764 647.124 572.758 647.329C572.753 647.535 572.825 647.735 572.96 647.89L580.74 656.8ZM568.17 621.06C564.67 619.72 547.77 613.43 548.69 620.98C548.81 621.973 549.256 622.88 550.03 623.7C552.25 626.06 554.816 628.233 557.73 630.22C557.992 630.399 558.309 630.483 558.627 630.457C558.945 630.432 559.246 630.299 559.48 630.08L568.31 621.79C568.364 621.739 568.404 621.676 568.427 621.605C568.45 621.534 568.454 621.459 568.44 621.386C568.426 621.314 568.394 621.246 568.347 621.188C568.3 621.131 568.239 621.087 568.17 621.06Z" fill="#280000"/>
<path d="M493.28 614.85C493.387 614.49 493.363 614.173 493.21 613.9C493.192 613.873 493.167 613.85 493.138 613.836C493.109 613.821 493.076 613.815 493.044 613.818C493.012 613.821 492.983 613.834 492.959 613.853C492.935 613.873 492.918 613.9 492.91 613.93L492.84 614.22C491.867 610.86 490.717 607.797 489.39 605.03C488.06 602.26 483.89 604.16 483.88 601.04C483.873 598.413 485.24 597.12 487.98 597.16C489.767 597.18 491.363 597.393 492.77 597.8C493.268 597.945 493.797 597.941 494.291 597.788C494.785 597.635 495.223 597.34 495.55 596.94C497.497 594.567 499.783 593.397 502.41 593.43C504.817 593.463 507.207 594.473 509.58 596.46C512.1 598.573 514.173 601.393 515.8 604.92C516.24 605.887 516.29 607.143 515.95 608.69C515.25 611.883 513.43 613.22 510.49 612.7C509.43 612.513 508.51 611.947 507.73 611C505.983 608.873 504.53 606.153 503.37 602.84C503.182 602.299 502.824 601.833 502.351 601.511C501.877 601.188 501.312 601.027 500.74 601.05L500.66 601.06C500.427 601.07 500.199 601.133 499.994 601.244C499.79 601.356 499.613 601.512 499.478 601.702C499.343 601.892 499.253 602.111 499.215 602.341C499.177 602.571 499.193 602.807 499.26 603.03C500.58 607.4 504.92 611.55 500.76 616.47C500.544 616.731 500.26 616.926 499.94 617.03C497.02 617.977 494.8 617.25 493.28 614.85Z" fill="#280000"/>
<path d="M455.03 618.05C457.323 618.223 459.486 617.897 461.52 617.07C462.28 616.623 462.756 616.13 462.95 615.59C463.125 615.092 463.101 614.543 462.883 614.051C462.664 613.559 462.267 613.159 461.77 612.93C458.583 611.457 455.53 610.453 452.61 609.92C445.53 608.63 440.36 607.22 442.69 598.96C444.34 593.12 454.21 595.36 458.61 597.16C466.58 600.43 485.52 608.76 484.35 618.25C484.116 620.11 483.706 621.59 483.12 622.69C482.72 623.437 481.38 624.437 479.1 625.69C478.153 626.217 477.183 626.557 476.19 626.71C468.883 627.857 462.25 628.547 456.29 628.78C455.356 628.82 454.696 629.123 454.31 629.69C454.171 629.891 454.079 630.12 454.037 630.364C453.995 630.608 454.006 630.862 454.067 631.111C454.129 631.359 454.24 631.598 454.395 631.813C454.55 632.027 454.745 632.213 454.97 632.36C455.743 632.873 456.77 633.133 458.05 633.14C458.235 633.147 458.414 633.18 458.58 633.24L465.93 636.06C466.141 636.139 466.334 636.255 466.5 636.4L468.5 638.13C468.738 638.337 468.895 638.617 468.94 638.92C469.48 642.333 469.03 644.98 467.59 646.86C460.59 656 457.086 660.577 457.08 660.59C454.55 664.49 452.59 669.73 457.03 673.19C461.23 676.463 466.053 677.763 471.5 677.09C482.226 675.757 490.036 670.63 494.93 661.71C498.903 654.47 500.623 646.627 500.09 638.18C499.836 634.093 499.573 630.18 499.3 626.44C499.263 625.933 499.408 625.429 499.711 625.018C500.013 624.608 500.452 624.318 500.95 624.2C502.36 623.87 503.31 624.12 504.21 625.35C508.05 630.563 510.786 635.703 512.42 640.77C515.93 651.68 515.8 667.79 508.04 676.59C500.91 684.68 491.3 687.01 480.7 688.63C471.606 690.017 462.623 689.307 453.75 686.5C444.23 683.49 437.33 677.48 436.2 667.14C435.33 659.26 440.01 650.52 445.16 644.87C446.226 643.697 447.206 642.383 448.1 640.93C448.18 640.798 448.227 640.648 448.234 640.494C448.242 640.339 448.211 640.185 448.143 640.045C448.076 639.905 447.974 639.784 447.848 639.692C447.721 639.6 447.574 639.541 447.42 639.52C443.97 639.07 440.15 638.13 437.85 635.8C432.78 630.66 437.27 623.08 443.28 621.02C447.16 619.693 451.076 618.703 455.03 618.05Z" fill="#280000"/>
<path d="M345.13 617.24C345.138 617.329 345.17 617.415 345.223 617.487C345.276 617.559 345.348 617.615 345.43 617.648C345.513 617.681 345.602 617.691 345.689 617.675C345.775 617.66 345.855 617.62 345.92 617.56C353.953 610.307 362.977 605.137 372.99 602.05C381.75 599.35 395.99 599.64 403.28 605.96C407.17 609.33 410.26 613.68 410.67 618.76C411.94 634.47 399.29 635.82 387.61 637.73C382.96 638.5 379.48 639.82 375.48 640.82C367.85 642.73 356.85 649.29 361.47 658.74C363.94 663.79 368.52 664.48 373.76 664.42C381.467 664.333 389.26 663.123 397.14 660.79C397.642 660.645 398.172 660.601 398.7 660.66C402.487 661.08 405.3 662.897 407.14 666.11C409.28 669.84 408.53 674.92 405.08 677.94C403 679.767 400.48 681.103 397.52 681.95C386.613 685.063 376.25 684.55 366.43 680.41C353.543 674.983 347.933 665.34 349.6 651.48C350.473 644.2 354.123 638.293 360.55 633.76C368.297 628.293 376.92 623.52 386.42 619.44C388.75 618.44 389.24 615.75 387.01 614.19C386.792 614.038 386.544 613.933 386.28 613.88C380.927 612.773 375.453 613.243 369.86 615.29C363.367 617.657 357.547 620.753 352.4 624.58C343.56 631.15 338.63 643.59 339.43 654.54C339.903 660.953 341.227 667.747 343.4 674.92C345.36 681.42 340.39 686.7 333.77 686.11C318.33 684.72 322.18 648.96 323.54 639.5C323.813 637.64 324.877 632.09 326.73 622.85C327.68 618.12 329.32 613.6 330.03 609.39C330.109 608.917 330.023 608.432 329.786 608.015C329.549 607.598 329.176 607.275 328.73 607.1C327.423 606.58 326.21 606.013 325.09 605.4C322.71 604.1 322.33 600.87 323.87 598.8C325.38 596.79 327.56 596.13 330.16 596.47C341.41 597.94 344.49 607.4 345.13 617.24Z" fill="#280000"/>
<path d="M549.07 735.1C555.33 735.85 559.25 738.88 560.77 745.07C563.4 755.78 558.3 768.72 545.21 767.14C532.11 765.57 530.23 751.79 535.33 742.01C538.27 736.35 542.8 734.34 549.07 735.1ZM553.711 747.174C553.715 746.378 553.562 745.589 553.262 744.853C552.961 744.116 552.518 743.445 551.958 742.88C551.399 742.314 550.733 741.864 549.999 741.556C549.266 741.247 548.478 741.086 547.683 741.082L546.843 741.078C545.236 741.069 543.691 741.7 542.548 742.83C541.406 743.961 540.76 745.499 540.751 747.106L540.709 755.046C540.705 755.842 540.858 756.631 541.159 757.368C541.459 758.104 541.902 758.775 542.462 759.34C543.022 759.906 543.687 760.356 544.421 760.664C545.155 760.973 545.942 761.134 546.738 761.138L547.578 761.142C549.185 761.151 550.73 760.52 551.872 759.39C553.014 758.259 553.661 756.721 553.669 755.114L553.711 747.174Z" fill="#D72120"/>
<path d="M687.09 751.74L681.96 765.74C681.91 765.88 681.829 766.007 681.723 766.111C681.618 766.215 681.49 766.293 681.35 766.34C679.996 766.8 678.536 766.933 676.97 766.74C676.492 766.677 676.043 766.475 675.679 766.159C675.314 765.842 675.05 765.425 674.92 764.96L667.38 738.04C667.315 737.806 667.303 737.562 667.344 737.323C667.384 737.084 667.476 736.858 667.614 736.659C667.751 736.461 667.931 736.295 668.139 736.174C668.347 736.053 668.58 735.98 668.82 735.96L674.03 735.5C674.249 735.48 674.471 735.507 674.679 735.58C674.887 735.653 675.077 735.771 675.237 735.924C675.396 736.078 675.521 736.264 675.602 736.47C675.684 736.677 675.72 736.898 675.71 737.12C675.603 739.013 675.69 740.733 675.97 742.28C676.25 743.82 677.276 748.4 679.05 756.02C679.068 756.1 679.112 756.173 679.175 756.226C679.237 756.28 679.315 756.313 679.398 756.319C679.48 756.326 679.562 756.307 679.633 756.263C679.703 756.22 679.758 756.156 679.79 756.08C681.223 752.593 682.42 748.963 683.38 745.19C683.78 743.61 683.553 741.603 682.7 739.17C682.592 738.862 682.556 738.534 682.594 738.211C682.632 737.887 682.744 737.576 682.92 737.302C683.097 737.028 683.333 736.798 683.612 736.63C683.891 736.461 684.205 736.359 684.53 736.33L687.09 736.11C687.638 736.06 688.186 736.205 688.639 736.519C689.093 736.833 689.422 737.297 689.57 737.83L694.72 756.21C694.734 756.263 694.765 756.309 694.809 756.341C694.852 756.374 694.906 756.391 694.961 756.39C695.016 756.389 695.071 756.369 695.115 756.335C695.16 756.301 695.193 756.254 695.21 756.2C697.236 748.593 698.43 742.527 698.79 738C698.845 737.308 699.159 736.663 699.668 736.192C700.178 735.722 700.846 735.46 701.54 735.46H704.94C705.264 735.461 705.584 735.537 705.873 735.682C706.163 735.828 706.415 736.039 706.608 736.298C706.801 736.558 706.931 736.858 706.987 737.176C707.043 737.494 707.023 737.821 706.93 738.13L698.94 765.03C698.838 765.374 698.656 765.688 698.409 765.947C698.162 766.206 697.857 766.403 697.52 766.52C696.026 767.027 694.233 766.907 692.14 766.16C691.973 766.102 691.824 766.004 691.704 765.875C691.583 765.746 691.496 765.59 691.45 765.42L687.63 751.76C687.616 751.7 687.582 751.646 687.535 751.607C687.488 751.568 687.429 751.546 687.367 751.544C687.306 751.541 687.245 751.559 687.195 751.595C687.145 751.63 687.108 751.681 687.09 751.74Z" fill="#D72120"/>
<path d="M571.54 747.1C571.535 747.217 571.567 747.332 571.632 747.43C571.696 747.528 571.789 747.603 571.899 747.645C572.008 747.686 572.127 747.693 572.24 747.664C572.354 747.634 572.455 747.57 572.53 747.48L580.48 737.52C580.859 737.048 581.376 736.707 581.959 736.543C582.541 736.38 583.161 736.403 583.73 736.61L585.26 737.18C585.598 737.302 585.901 737.506 586.141 737.774C586.381 738.042 586.552 738.365 586.637 738.714C586.722 739.064 586.719 739.429 586.629 739.777C586.539 740.125 586.364 740.446 586.12 740.71L577.6 749.98C577.432 750.162 577.335 750.398 577.326 750.646C577.316 750.893 577.396 751.136 577.55 751.33L587.56 763.95C587.716 764.147 587.819 764.381 587.859 764.629C587.899 764.877 587.875 765.132 587.789 765.369C587.703 765.606 587.558 765.818 587.367 765.984C587.177 766.151 586.947 766.266 586.7 766.32L584.11 766.86C583.337 767.022 582.533 766.952 581.8 766.659C581.067 766.365 580.437 765.861 579.99 765.21L572.47 754.2C572.41 754.106 572.32 754.034 572.215 753.995C572.11 753.957 571.996 753.953 571.889 753.986C571.782 754.019 571.689 754.087 571.624 754.177C571.559 754.268 571.526 754.378 571.53 754.49V763.52C571.53 763.966 571.44 764.408 571.264 764.818C571.088 765.228 570.83 765.598 570.506 765.905C570.182 766.212 569.799 766.45 569.38 766.604C568.961 766.758 568.515 766.824 568.07 766.8L567.66 766.78C566.889 766.736 566.163 766.4 565.633 765.84C565.103 765.281 564.808 764.54 564.81 763.77V737.69C564.809 737.5 564.848 737.313 564.922 737.139C564.997 736.965 565.107 736.808 565.245 736.678C565.382 736.547 565.545 736.447 565.723 736.382C565.901 736.317 566.09 736.289 566.28 736.3L569.76 736.49C570.067 736.505 570.368 736.581 570.647 736.714C570.925 736.846 571.174 737.033 571.38 737.262C571.586 737.492 571.746 737.76 571.848 738.051C571.951 738.342 571.996 738.651 571.98 738.96L571.54 747.1Z" fill="#D72120"/>
<path d="M590.96 762.44L594.75 762.1C594.959 762.08 595.152 761.984 595.293 761.83C595.433 761.677 595.511 761.477 595.51 761.27V742.47C595.511 742.296 595.451 742.127 595.339 741.992C595.228 741.857 595.073 741.765 594.9 741.73C593.207 741.39 591.87 740.203 590.89 738.17C590.808 737.999 590.769 737.81 590.778 737.62C590.788 737.43 590.844 737.246 590.943 737.084C591.042 736.923 591.179 736.789 591.343 736.696C591.507 736.602 591.692 736.552 591.88 736.55L604.29 736.34C604.727 736.332 605.152 736.482 605.488 736.763C605.824 737.044 606.048 737.437 606.12 737.87C606.527 740.323 605.54 741.527 603.16 741.48C602.913 741.475 602.673 741.567 602.493 741.738C602.313 741.908 602.208 742.142 602.2 742.39L601.7 761.27C601.698 761.344 601.71 761.419 601.736 761.488C601.762 761.558 601.802 761.621 601.854 761.675C601.905 761.729 601.966 761.773 602.034 761.803C602.102 761.833 602.176 761.849 602.25 761.85L605.12 761.93C605.368 761.937 605.609 762.021 605.81 762.17C606.837 762.923 607.204 764 606.91 765.4C606.829 765.781 606.625 766.125 606.328 766.379C606.032 766.632 605.66 766.78 605.27 766.8C601.484 766.98 597.81 767.067 594.25 767.06C591.844 767.053 590.55 765.743 590.37 763.13C590.363 763.046 590.373 762.961 590.399 762.881C590.425 762.801 590.467 762.726 590.522 762.662C590.577 762.598 590.644 762.545 590.719 762.507C590.794 762.469 590.876 762.446 590.96 762.44Z" fill="#D72120"/>
<path d="M651.15 759.33C649.183 759.33 647.927 759.33 647.38 759.33C647.195 759.331 647.016 759.388 646.865 759.494C646.715 759.599 646.602 759.748 646.54 759.92L644.87 764.47C644.637 765.107 644.227 765.665 643.689 766.077C643.15 766.49 642.506 766.741 641.83 766.8L639.49 767.01C639.232 767.032 638.973 766.989 638.736 766.885C638.5 766.78 638.293 766.618 638.135 766.413C637.978 766.208 637.875 765.966 637.835 765.71C637.796 765.455 637.822 765.193 637.91 764.95L647.78 738.23C647.845 738.052 647.933 737.887 648.04 737.74C648.7 736.827 649.75 736.373 651.19 736.38C652.63 736.38 653.677 736.837 654.33 737.75C654.437 737.897 654.525 738.062 654.59 738.24L664.38 764.99C664.466 765.233 664.49 765.493 664.45 765.747C664.409 766.001 664.306 766.242 664.148 766.445C663.991 766.649 663.785 766.811 663.55 766.915C663.314 767.018 663.056 767.061 662.8 767.04L660.46 766.83C659.783 766.77 659.137 766.517 658.599 766.103C658.06 765.688 657.651 765.129 657.42 764.49L655.77 759.93C655.708 759.758 655.595 759.609 655.444 759.504C655.294 759.398 655.114 759.341 654.93 759.34C654.383 759.34 653.123 759.337 651.15 759.33ZM651.03 754.52C652.23 754.527 652.97 754.503 653.25 754.45C653.332 754.435 653.409 754.403 653.478 754.356C653.546 754.31 653.604 754.249 653.648 754.178C653.691 754.107 653.719 754.028 653.73 753.946C653.741 753.863 653.734 753.78 653.71 753.7L651.33 746.16C651.324 746.14 651.309 746.12 651.288 746.102C651.267 746.085 651.24 746.07 651.21 746.06C651.183 746.047 651.157 746.04 651.13 746.04C651.017 746.04 650.95 746.043 650.93 746.05C650.895 746.061 650.865 746.076 650.842 746.096C650.819 746.115 650.804 746.137 650.8 746.16L648.35 753.68C648.326 753.759 648.319 753.842 648.329 753.924C648.339 754.005 648.366 754.084 648.409 754.155C648.451 754.225 648.508 754.286 648.575 754.334C648.643 754.381 648.719 754.414 648.8 754.43C649.08 754.483 649.823 754.513 651.03 754.52Z" fill="#D72120"/>
<path d="M736.03 764.72C736.119 764.952 736.151 765.203 736.123 765.45C736.094 765.697 736.006 765.933 735.867 766.138C735.727 766.343 735.539 766.511 735.32 766.626C735.101 766.741 734.857 766.801 734.61 766.8H731.63C730.966 766.8 730.32 766.582 729.791 766.179C729.262 765.777 728.879 765.211 728.7 764.57L727.38 759.86C727.336 759.705 727.244 759.568 727.115 759.471C726.987 759.374 726.831 759.321 726.67 759.32H718.77C718.586 759.32 718.407 759.376 718.256 759.482C718.106 759.587 717.992 759.737 717.93 759.91L716.09 764.91C715.882 765.482 715.503 765.975 715.004 766.324C714.505 766.673 713.91 766.86 713.3 766.86H710.51C710.323 766.861 710.139 766.816 709.973 766.729C709.807 766.643 709.665 766.517 709.558 766.363C709.451 766.209 709.382 766.031 709.358 765.844C709.334 765.657 709.355 765.467 709.42 765.29L719.43 737.98C719.547 737.657 719.769 737.385 720.06 737.21C723.7 735.01 725.77 736.67 727.08 740.57C728.973 746.19 731.957 754.24 736.03 764.72ZM722.42 754.29C723.607 754.343 724.337 754.353 724.61 754.32C724.691 754.309 724.768 754.28 724.837 754.237C724.907 754.193 724.966 754.135 725.011 754.067C725.056 753.999 725.087 753.923 725.1 753.842C725.114 753.762 725.11 753.679 725.09 753.6L723.07 746.08C723.066 746.059 723.055 746.038 723.035 746.019C723.016 745.999 722.99 745.983 722.96 745.97C722.933 745.957 722.867 745.95 722.76 745.95C722.733 745.95 722.707 745.953 722.68 745.96C722.649 745.968 722.62 745.981 722.598 745.996C722.575 746.012 722.559 746.03 722.55 746.05L719.82 753.35C719.792 753.427 719.781 753.508 719.787 753.59C719.793 753.671 719.817 753.75 719.855 753.822C719.894 753.893 719.947 753.956 720.012 754.006C720.076 754.055 720.151 754.091 720.23 754.11C720.503 754.17 721.233 754.23 722.42 754.29Z" fill="#D72120"/>
<path d="M616.84 748.24L617.11 763.7C617.123 764.544 616.801 765.36 616.214 765.967C615.628 766.574 614.824 766.924 613.98 766.94L613.48 766.95C613.119 766.955 612.76 766.889 612.424 766.756C612.089 766.623 611.782 766.425 611.523 766.173C611.264 765.921 611.057 765.621 610.914 765.289C610.771 764.958 610.695 764.601 610.69 764.24L610.23 737.56C610.227 737.432 610.25 737.304 610.297 737.185C610.344 737.066 610.414 736.957 610.503 736.865C610.592 736.773 610.699 736.699 610.817 736.649C610.935 736.598 611.061 736.571 611.19 736.57L615.25 736.5C615.493 736.494 615.734 736.551 615.948 736.667C616.162 736.783 616.342 736.953 616.47 737.16L627.65 755.34C627.699 755.417 627.772 755.477 627.858 755.51C627.944 755.543 628.038 755.547 628.126 755.522C628.213 755.497 628.29 755.444 628.343 755.372C628.396 755.299 628.423 755.21 628.42 755.12L628.14 738.61C628.134 738.328 628.185 738.047 628.289 737.784C628.392 737.521 628.547 737.281 628.744 737.078C628.941 736.875 629.176 736.712 629.436 736.599C629.696 736.486 629.976 736.425 630.26 736.42L632.37 736.38C632.718 736.374 633.063 736.439 633.386 736.571C633.708 736.703 634.001 736.898 634.245 737.146C634.49 737.393 634.682 737.688 634.81 738.012C634.938 738.336 634.999 738.682 634.99 739.03L634.29 765.1C634.282 765.464 634.162 765.818 633.948 766.113C633.733 766.407 633.434 766.63 633.09 766.75C629.96 767.85 628.3 766.3 626.47 763.39C623.07 757.97 619.923 752.903 617.03 748.19C617.02 748.169 617.003 748.152 616.982 748.142C616.96 748.133 616.937 748.13 616.914 748.136C616.892 748.142 616.872 748.156 616.858 748.175C616.845 748.194 616.838 748.217 616.84 748.24Z" fill="#D72120"/>
</svg>
