<svg width="1250" height="830" viewBox="0 0 1250 830" fill="none" xmlns="http://www.w3.org/2000/svg">
<path d="M584.31 159.57C582.5 164.37 585.71 168.54 588.22 172.71C591.56 178.24 589.41 184.26 584.01 187.6C583.829 187.712 583.617 187.767 583.404 187.758C583.191 187.748 582.986 187.674 582.816 187.546C582.647 187.418 582.521 187.241 582.456 187.04C582.39 186.839 582.388 186.623 582.45 186.42C583.163 183.993 583.633 182.26 583.86 181.22C584.95 176.08 578.4 171.49 578.81 166.31C579.043 163.39 580.447 160.84 583.02 158.66C583.156 158.542 583.327 158.472 583.507 158.463C583.686 158.454 583.864 158.506 584.012 158.61C584.16 158.715 584.269 158.865 584.323 159.039C584.377 159.213 584.372 159.4 584.31 159.57Z" fill="#EE0115"/>
<path d="M536.77 231.23C536.437 230.743 536.3 229.98 536.36 228.94C536.371 228.749 536.451 228.569 536.583 228.433C536.715 228.297 536.892 228.214 537.08 228.2C537.613 228.16 538.03 227.88 538.33 227.36C538.49 227.084 538.752 226.883 539.06 226.8L562.44 220.49C562.984 220.342 563.486 220.066 563.903 219.685C564.321 219.304 564.642 218.83 564.84 218.3L565.08 217.66C565.155 217.461 565.171 217.244 565.129 217.036C565.086 216.827 564.985 216.635 564.837 216.482C564.69 216.328 564.502 216.219 564.296 216.168C564.089 216.116 563.872 216.124 563.67 216.19L538.36 224.49C537.843 224.659 537.28 224.619 536.792 224.378C536.304 224.137 535.93 223.714 535.75 223.2L535.73 223.15C535.552 222.585 535.592 221.975 535.842 221.438C536.092 220.901 536.534 220.477 537.08 220.25C543.17 217.72 550.21 215.54 556.05 213.29C578.83 204.51 600.84 196.57 622.82 187.95C644.107 179.603 665.32 171.267 686.46 162.94C688.807 162.013 691.013 162.103 693.08 163.21C699.46 166.63 696.22 174.14 690.83 176.3C683.82 179.11 675.29 180.84 668.02 183.23C647.94 189.81 629.02 195.607 611.26 200.62C610.741 200.769 610.271 201.053 609.898 201.441C609.526 201.829 609.264 202.309 609.14 202.83L608.16 206.95C608.124 207.101 608.128 207.259 608.171 207.408C608.213 207.557 608.293 207.693 608.403 207.802C608.513 207.911 608.648 207.989 608.797 208.029C608.945 208.069 609.101 208.069 609.25 208.03C638.79 200.53 666 193.25 690.88 186.19C696.63 184.56 701.25 183.95 703.7 189.79C705.22 193.43 703.17 197.64 699.47 198.72C697.503 199.293 692.183 200.39 683.51 202.01C677.363 203.163 672.043 204.237 667.55 205.23C645.203 210.183 625.233 214.107 607.64 217C607.286 217.059 606.964 217.238 606.727 217.506C606.491 217.773 606.354 218.114 606.34 218.47L605.27 245.84C605.268 245.878 605.258 245.915 605.24 245.949C605.222 245.983 605.197 246.012 605.166 246.035C605.136 246.058 605.101 246.074 605.063 246.082C605.026 246.089 604.987 246.089 604.95 246.08L599.79 244.85C599.698 244.83 599.616 244.78 599.556 244.707C599.496 244.634 599.462 244.544 599.46 244.45C599.133 231.343 600.247 217.78 602.8 203.76C602.851 203.483 602.841 203.199 602.771 202.927C602.701 202.654 602.572 202.4 602.395 202.183C602.217 201.965 601.994 201.788 601.741 201.665C601.488 201.542 601.211 201.476 600.93 201.47L600.78 201.46C600.139 201.446 599.511 201.643 598.992 202.021C598.474 202.398 598.094 202.936 597.91 203.55C596.71 207.57 595.967 211.213 595.68 214.48C594.787 224.74 594.247 234.793 594.06 244.64C594.052 244.932 593.932 245.209 593.725 245.413C593.517 245.616 593.239 245.73 592.95 245.73H588.46C588.213 245.73 587.977 245.632 587.802 245.458C587.628 245.283 587.53 245.047 587.53 244.8C587.557 232.64 588.523 220.48 590.43 208.32C590.477 208.024 590.45 207.721 590.35 207.439C590.25 207.157 590.081 206.904 589.858 206.704C589.635 206.504 589.366 206.363 589.074 206.294C588.783 206.226 588.479 206.231 588.19 206.31L587.37 206.53C586.819 206.677 586.319 206.973 585.926 207.386C585.532 207.799 585.261 208.313 585.14 208.87C581.893 223.87 580.61 238.657 581.29 253.23C581.403 255.663 582.137 261.317 583.49 270.19C583.554 270.614 583.46 271.047 583.226 271.407C582.992 271.766 582.634 272.027 582.22 272.14L579.23 272.94C579.04 272.993 578.84 273.006 578.644 272.978C578.448 272.951 578.26 272.882 578.091 272.778C577.922 272.674 577.777 272.536 577.663 272.373C577.549 272.21 577.47 272.025 577.43 271.83C573.42 252.01 574.59 232.48 577.97 212.37C578.019 212.08 578.005 211.784 577.929 211.5C577.853 211.216 577.717 210.952 577.53 210.725C577.344 210.499 577.11 210.315 576.846 210.186C576.582 210.058 576.294 209.987 576 209.98L575.92 209.97C575.254 209.953 574.6 210.153 574.057 210.541C573.514 210.928 573.112 211.483 572.91 212.12C571.33 217.12 570.247 223.417 569.66 231.01C568.533 245.517 568.933 258.363 570.86 269.55C570.894 269.751 570.875 269.957 570.803 270.148C570.732 270.339 570.612 270.508 570.455 270.638C570.298 270.768 570.109 270.854 569.908 270.887C569.707 270.921 569.501 270.901 569.31 270.83L566.02 269.6C565.518 269.413 565.077 269.093 564.742 268.674C564.407 268.255 564.192 267.752 564.12 267.22C563.067 259.353 562.583 253.443 562.67 249.49C562.803 243.683 563.073 236.393 563.48 227.62C563.483 227.558 563.471 227.496 563.447 227.439C563.422 227.382 563.384 227.331 563.337 227.291C563.29 227.25 563.234 227.221 563.174 227.205C563.114 227.19 563.051 227.188 562.99 227.2C555.517 228.8 547.947 230.273 540.28 231.62C538.773 231.88 537.77 231.65 537.27 230.93C537.264 230.919 537.254 230.911 537.241 230.908C537.228 230.904 537.214 230.905 537.2 230.91C537.14 230.957 537.093 231.047 537.06 231.18C537.053 231.21 537.037 231.238 537.014 231.26C536.991 231.281 536.962 231.295 536.932 231.301C536.901 231.306 536.869 231.302 536.84 231.29C536.811 231.277 536.787 231.256 536.77 231.23Z" fill="#EE0115"/>
<path d="M563.84 170.07C562.06 175 565.39 179.21 568 183.44C571.49 189.04 569.37 195.22 563.9 198.7C563.717 198.818 563.503 198.877 563.286 198.871C563.069 198.864 562.859 198.791 562.684 198.662C562.509 198.532 562.378 198.353 562.307 198.147C562.237 197.941 562.231 197.719 562.29 197.51C562.983 195.023 563.44 193.247 563.66 192.18C564.71 186.92 557.96 182.32 558.31 177.02C558.51 174.04 559.91 171.42 562.51 169.16C562.648 169.037 562.824 168.963 563.009 168.951C563.194 168.939 563.378 168.99 563.531 169.094C563.684 169.199 563.798 169.352 563.854 169.529C563.91 169.706 563.905 169.896 563.84 170.07Z" fill="#EE0115"/>
<path d="M551.63 266.79C551.564 266.79 551.5 266.764 551.453 266.717C551.406 266.67 551.38 266.606 551.38 266.54L550.79 238.76C550.78 238.308 550.819 237.859 550.905 237.439C550.99 237.02 551.12 236.637 551.287 236.314C551.454 235.991 551.655 235.733 551.879 235.556C552.103 235.378 552.344 235.285 552.59 235.28L555.19 235.23C555.686 235.22 556.168 235.573 556.532 236.211C556.896 236.848 557.111 237.718 557.13 238.63L557.71 266.41C557.711 266.443 557.706 266.476 557.695 266.507C557.683 266.537 557.666 266.566 557.644 266.59C557.622 266.614 557.595 266.633 557.565 266.647C557.535 266.661 557.503 266.669 557.47 266.67L551.63 266.79Z" fill="#EE0115"/>
<path d="M615.86 249.32C615.865 249.467 615.842 249.613 615.79 249.75C615.739 249.888 615.66 250.013 615.56 250.12C615.46 250.227 615.339 250.313 615.205 250.373C615.071 250.433 614.927 250.466 614.78 250.47L614.26 250.48C613.406 250.505 612.576 250.171 611.952 249.551C611.328 248.93 610.96 248.074 610.93 247.17L610.77 242.27C610.756 241.82 610.826 241.372 610.976 240.952C611.125 240.531 611.352 240.147 611.643 239.82C611.934 239.493 612.283 239.23 612.67 239.046C613.057 238.863 613.475 238.762 613.9 238.75L614.41 238.73C614.557 238.725 614.703 238.748 614.84 238.8C614.978 238.851 615.103 238.93 615.21 239.03C615.317 239.131 615.403 239.251 615.463 239.385C615.523 239.519 615.556 239.663 615.56 239.81L615.86 249.32Z" fill="#EE0115"/>
<path d="M656.43 381.53C654.22 382.97 651.26 383.24 648.33 383.59C624.43 386.397 599.917 387.53 574.79 386.99C566.163 386.803 557.837 386.377 549.81 385.71C537.36 384.68 527.72 384.27 518.46 382.5C518.01 382.41 517.611 382.157 517.34 381.79C516.767 381.017 516.21 380.547 515.67 380.38C515.601 380.361 515.54 380.322 515.494 380.268C515.448 380.214 515.418 380.147 515.41 380.077C515.401 380.006 515.414 379.934 515.446 379.871C515.478 379.808 515.528 379.755 515.59 379.72C516.583 379.127 517.297 378.787 517.73 378.7C528.337 376.62 538.887 375.363 549.38 374.93C549.445 374.927 549.508 374.909 549.565 374.877C549.622 374.846 549.671 374.801 549.708 374.748C549.746 374.694 549.771 374.632 549.782 374.566C549.792 374.501 549.788 374.434 549.77 374.37C548.54 370.3 546.27 366.86 541.89 364.73C540.49 364.043 538.073 362.673 534.64 360.62C510.58 346.24 496.6 323.93 491.43 296.81C490.95 294.283 490.753 292.12 490.84 290.32C490.874 289.608 491.09 288.917 491.466 288.315C491.843 287.712 492.368 287.218 492.99 286.88C496.737 284.84 501.05 283.377 505.93 282.49C507.403 282.223 508.88 281.183 510.36 279.37C516.98 271.22 522.4 265.28 532.4 262.08C532.588 262.019 532.788 262.001 532.984 262.029C533.18 262.056 533.367 262.128 533.531 262.239C533.695 262.35 533.832 262.497 533.93 262.669C534.029 262.84 534.087 263.032 534.1 263.23L534.33 266.5C534.363 266.977 534.248 267.453 534.001 267.863C533.754 268.272 533.387 268.596 532.95 268.79C521.757 273.737 514.25 281.7 510.43 292.68C510.344 292.926 510.188 293.141 509.98 293.3C509.772 293.458 509.522 293.552 509.26 293.57L500.23 294.19C500.089 294.199 499.955 294.253 499.848 294.345C499.74 294.436 499.666 294.561 499.635 294.698C499.605 294.836 499.62 294.98 499.679 295.108C499.737 295.237 499.836 295.343 499.96 295.41C501.12 296.057 502.417 296.557 503.85 296.91C518.61 300.55 533.51 301.78 548.98 303.31C558.033 304.203 566.89 304.703 575.55 304.81C600.03 305.123 624.34 303.653 648.48 300.4C656.267 299.347 663.663 297.803 670.67 295.77C670.811 295.728 670.934 295.64 671.02 295.519C671.105 295.399 671.148 295.254 671.141 295.106C671.134 294.959 671.078 294.818 670.982 294.707C670.886 294.595 670.755 294.519 670.61 294.49C667.203 293.823 663.71 293.997 660.13 295.01C660.005 295.046 659.874 295.055 659.745 295.036C659.617 295.018 659.493 294.973 659.383 294.905C659.273 294.836 659.178 294.745 659.105 294.637C659.032 294.53 658.983 294.408 658.96 294.28C657.867 288.393 655.777 282.91 652.69 277.83C646.84 268.23 634.75 260.76 623.28 262.39C619.08 262.983 616.543 263.25 615.67 263.19C615.082 263.15 614.502 263.001 613.96 262.75C611.847 261.763 609.52 260.8 606.98 259.86C601.63 257.88 593.12 255.72 587.44 257.27C587.261 257.319 587.074 257.328 586.891 257.296C586.709 257.264 586.535 257.192 586.384 257.085C586.233 256.978 586.107 256.838 586.017 256.676C585.926 256.515 585.873 256.335 585.86 256.15L585.54 251.42C585.529 251.267 585.578 251.115 585.677 250.997C585.776 250.88 585.917 250.805 586.07 250.79C594.017 249.99 601.287 250.893 607.88 253.5C610.05 254.35 612.85 256.06 615.18 256.96C615.562 257.105 615.975 257.163 616.39 257.13C619.29 256.88 623.26 255.94 625.55 255.9C641.35 255.66 653.33 264.96 660.3 278.63C662.76 283.44 666.7 283.64 671.07 284.3C671.726 284.399 672.357 284.602 672.94 284.9C677.14 287.08 681.49 288.68 680.94 293.25C679.247 307.477 674.093 321.23 665.48 334.51C657.54 346.757 647.12 356.397 634.22 363.43C629.753 365.863 627.507 367.087 627.48 367.1C627.015 367.432 626.595 367.825 626.23 368.27C624.83 369.997 623.687 372.043 622.8 374.41C622.771 374.491 622.76 374.578 622.769 374.664C622.778 374.75 622.806 374.833 622.851 374.907C622.896 374.981 622.957 375.044 623.03 375.091C623.102 375.138 623.184 375.169 623.27 375.18L655.86 379.08C656.132 379.114 656.387 379.23 656.591 379.414C656.795 379.597 656.938 379.839 657 380.106C657.062 380.373 657.041 380.653 656.939 380.908C656.837 381.162 656.659 381.38 656.43 381.53ZM559.51 314.74L559.44 314.49C559.318 313.996 559.044 313.554 558.655 313.226C558.267 312.899 557.785 312.704 557.28 312.67C549.133 312.11 540.21 311.4 530.51 310.54C521.05 309.69 511.91 307.06 502.22 304.59C502.014 304.538 501.798 304.536 501.591 304.584C501.383 304.632 501.191 304.728 501.029 304.866C500.868 305.003 500.742 305.176 500.662 305.372C500.582 305.568 500.55 305.78 500.57 305.99L500.6 306.33C500.647 306.852 500.864 307.345 501.218 307.731C501.572 308.118 502.044 308.378 502.56 308.47C507.753 309.39 512.3 310.28 516.2 311.14C530.02 314.19 543.99 315.49 558.09 316.44C558.305 316.454 558.521 316.418 558.72 316.333C558.918 316.248 559.094 316.117 559.232 315.951C559.371 315.786 559.468 315.589 559.516 315.379C559.565 315.168 559.562 314.949 559.51 314.74Z" fill="#EE0115"/>
<path d="M540.64 267.19C540.476 267.191 540.313 267.16 540.161 267.099C540.009 267.037 539.87 266.946 539.753 266.831C539.636 266.716 539.543 266.579 539.479 266.428C539.415 266.276 539.381 266.114 539.38 265.95L539.28 254.4C539.275 253.966 539.339 253.536 539.467 253.134C539.596 252.731 539.786 252.365 540.027 252.056C540.269 251.746 540.557 251.5 540.875 251.331C541.193 251.162 541.534 251.073 541.88 251.07H542.66C543.357 251.064 544.028 251.404 544.527 252.017C545.026 252.63 545.311 253.466 545.32 254.34L545.42 265.89C545.421 266.054 545.39 266.217 545.329 266.369C545.267 266.521 545.176 266.66 545.061 266.777C544.946 266.894 544.809 266.987 544.658 267.051C544.506 267.115 544.344 267.149 544.18 267.15L540.64 267.19Z" fill="#EE0115"/>
<path d="M588.08 264.96C588.048 264.795 588.078 264.624 588.165 264.48C588.252 264.336 588.389 264.229 588.55 264.18C594.003 262.54 599.623 262.497 605.41 264.05C616.383 267.01 625.917 273.147 634.01 282.46C637.403 286.36 639.563 291.04 640.49 296.5C640.516 296.655 640.508 296.814 640.467 296.966C640.425 297.118 640.35 297.259 640.248 297.379C640.146 297.499 640.019 297.595 639.876 297.661C639.733 297.727 639.578 297.761 639.42 297.76H636.32C635.827 297.76 635.345 297.609 634.939 297.326C634.533 297.044 634.223 296.644 634.05 296.18C631.237 288.553 626.61 282.36 620.17 277.6C619.383 277.02 616.723 275.58 612.19 273.28C605.08 269.68 597.1 269.01 589.59 269.85C589.455 269.863 589.319 269.826 589.21 269.747C589.101 269.667 589.026 269.551 589 269.42L588.08 264.96Z" fill="#EE0115"/>
<path d="M628.04 268.22C631.173 268.413 634.353 269.413 637.58 271.22C646.54 276.24 651.04 284.45 653.74 294.27C653.795 294.467 653.809 294.674 653.78 294.876C653.752 295.079 653.682 295.274 653.575 295.448C653.468 295.623 653.326 295.773 653.158 295.891C652.991 296.008 652.801 296.089 652.6 296.13L649.36 296.81C648.912 296.901 648.447 296.826 648.051 296.599C647.655 296.373 647.356 296.011 647.21 295.58C644.66 288.09 643 283.19 636.78 278.24C633.427 275.567 630.32 272.623 627.46 269.41C627.368 269.303 627.309 269.172 627.291 269.032C627.272 268.892 627.296 268.75 627.357 268.624C627.419 268.497 627.517 268.391 627.638 268.319C627.76 268.248 627.899 268.213 628.04 268.22Z" fill="#EE0115"/>
<path d="M299.57 324.83C299.53 324.851 299.483 324.857 299.439 324.848C299.394 324.839 299.354 324.815 299.325 324.78C299.295 324.745 299.279 324.701 299.278 324.656C299.277 324.61 299.292 324.566 299.32 324.53L312.87 306.25C312.909 306.197 312.932 306.133 312.936 306.068C312.94 306.002 312.924 305.936 312.891 305.879C312.858 305.821 312.81 305.775 312.751 305.745C312.692 305.715 312.626 305.703 312.56 305.71C307.88 306.2 304.29 309.09 299.91 304.84C299.663 304.6 299.537 304.277 299.53 303.87C299.524 303.413 299.665 302.968 299.933 302.603C300.2 302.238 300.579 301.973 301.01 301.85C306.623 300.243 311.377 298.98 315.27 298.06C315.73 297.947 316.16 297.713 316.56 297.36C316.643 297.286 316.701 297.189 316.727 297.081C316.754 296.974 316.747 296.861 316.708 296.757C316.669 296.653 316.6 296.563 316.509 296.5C316.419 296.436 316.311 296.401 316.2 296.4C313.36 296.36 310.37 296.12 308.34 293.81C308.252 293.71 308.19 293.59 308.159 293.461C308.128 293.332 308.128 293.197 308.161 293.068C308.193 292.939 308.256 292.82 308.345 292.721C308.434 292.622 308.545 292.546 308.67 292.5L316.51 289.52C316.559 289.504 316.601 289.47 316.626 289.424C316.652 289.378 316.661 289.323 316.65 289.27L316.58 289C316.542 288.849 316.449 288.717 316.32 288.631C316.191 288.544 316.034 288.508 315.88 288.53C313.28 288.923 311.09 288.95 309.31 288.61C307.14 288.19 305.98 286.47 306.9 284.77C306.954 284.672 307.026 284.586 307.112 284.517C307.198 284.448 307.296 284.398 307.4 284.37L315.12 282.29C315.282 282.244 315.429 282.156 315.546 282.035C315.664 281.914 315.748 281.764 315.79 281.6C316.463 278.953 316.29 276.65 315.27 274.69C315.121 274.412 315.075 274.09 315.14 273.78C315.44 272.2 317.62 271.29 319.18 272.05C320.327 272.61 321.08 272.943 321.44 273.05C324.07 273.85 324.15 276.5 323.5 278.77C323.477 278.855 323.474 278.944 323.494 279.03C323.513 279.116 323.553 279.197 323.61 279.264C323.667 279.331 323.74 279.383 323.822 279.415C323.904 279.448 323.992 279.46 324.08 279.45C326.86 279.11 329.227 279.637 331.18 281.03C331.48 281.242 331.715 281.532 331.86 281.87C332.005 282.207 332.054 282.578 332.001 282.941C331.948 283.305 331.796 283.646 331.561 283.928C331.326 284.21 331.018 284.422 330.67 284.54C328.53 285.267 326.473 285.827 324.5 286.22C323.993 286.313 323.507 286.55 323.04 286.93C322.953 286.998 322.889 287.09 322.856 287.195C322.823 287.3 322.821 287.413 322.853 287.518C322.884 287.624 322.946 287.718 323.031 287.787C323.116 287.857 323.22 287.9 323.33 287.91C325.85 288.14 329.94 288.36 330.08 291.18C330.22 293.99 324.68 294.07 323.04 294.39C322.94 294.408 322.845 294.446 322.76 294.501C322.675 294.556 322.602 294.628 322.546 294.712C322.489 294.795 322.449 294.89 322.429 294.989C322.409 295.088 322.41 295.191 322.43 295.29L322.49 295.58C322.517 295.708 322.589 295.821 322.692 295.898C322.795 295.976 322.923 296.012 323.05 296C327.03 295.7 329.94 295.23 332.53 296.7C332.808 296.858 333.042 297.084 333.209 297.357C333.377 297.63 333.472 297.941 333.486 298.261C333.5 298.581 333.432 298.899 333.289 299.186C333.147 299.473 332.934 299.718 332.67 299.9L331.63 300.58C331.406 300.732 331.154 300.834 330.89 300.88L321.48 302.59C321.321 302.619 321.176 302.7 321.069 302.819C320.962 302.939 320.899 303.091 320.89 303.25L320.71 306.24C320.706 306.328 320.724 306.417 320.764 306.496C320.803 306.575 320.862 306.643 320.936 306.693C321.009 306.744 321.093 306.774 321.182 306.782C321.27 306.79 321.359 306.776 321.44 306.74L326.39 304.52C326.578 304.435 326.782 304.392 326.989 304.394C327.196 304.396 327.401 304.442 327.59 304.53C330.95 306.14 334.61 307.87 331.56 312.15C329.047 315.683 327.493 318.01 326.9 319.13C326.86 319.205 326.835 319.287 326.827 319.371C326.819 319.455 326.828 319.54 326.853 319.621C326.878 319.702 326.919 319.777 326.974 319.842C327.028 319.907 327.095 319.961 327.17 320C333.57 323.267 340.077 325.85 346.69 327.75C353.02 329.56 360.5 330.02 365.48 330.81C369.02 331.37 372.537 332.343 376.03 333.73C376.167 333.784 376.284 333.879 376.365 334.001C376.446 334.124 376.488 334.268 376.485 334.415C376.481 334.562 376.433 334.705 376.347 334.824C376.26 334.943 376.139 335.032 376 335.08C366.87 338.32 357.24 342.81 350.25 339.82C340.917 335.813 331.723 330.883 322.67 325.03C322.532 324.94 322.366 324.903 322.203 324.925C322.04 324.947 321.89 325.027 321.78 325.15C317.04 330.56 311.47 335.6 303.89 336.88C301.823 337.233 299.75 337.893 297.67 338.86C297.623 338.882 297.573 338.894 297.522 338.897C297.47 338.899 297.419 338.891 297.37 338.873C297.322 338.856 297.278 338.828 297.24 338.794C297.202 338.759 297.171 338.717 297.15 338.67L297.04 338.43C297.027 338.399 297.024 338.364 297.034 338.331C297.043 338.298 297.063 338.27 297.09 338.25C304.17 333.59 310.41 328.09 315.81 321.75C315.878 321.67 315.929 321.578 315.96 321.478C315.991 321.379 316.001 321.274 315.989 321.171C315.978 321.067 315.946 320.968 315.894 320.878C315.843 320.789 315.773 320.711 315.69 320.65L312.64 318.39C312.439 318.239 312.192 318.162 311.941 318.171C311.69 318.18 311.45 318.275 311.26 318.44C309.32 320.14 307.02 321.433 304.36 322.32C302.45 322.95 301.08 324.11 299.57 324.83ZM315.71 314.06L319.31 315.91C319.449 315.98 319.607 316.007 319.762 315.985C319.917 315.964 320.063 315.896 320.18 315.79C321.24 314.803 321.89 313.74 322.13 312.6C322.153 312.494 322.144 312.383 322.105 312.282C322.066 312.181 321.998 312.093 321.91 312.03C321.822 311.966 321.718 311.93 321.61 311.924C321.501 311.919 321.394 311.945 321.3 312C320.34 312.567 318.53 312.973 315.87 313.22C315.774 313.227 315.684 313.265 315.613 313.328C315.542 313.392 315.493 313.478 315.475 313.573C315.457 313.667 315.47 313.766 315.513 313.854C315.555 313.942 315.624 314.014 315.71 314.06Z" fill="black"/>
<path d="M519.36 296.06L516.98 295.92C516.742 295.905 516.511 295.833 516.307 295.711C516.102 295.588 515.929 295.419 515.803 295.216C515.677 295.014 515.601 294.785 515.581 294.547C515.562 294.309 515.599 294.07 515.69 293.85C518.57 286.943 522.927 281.74 528.76 278.24C538.58 272.33 551.89 269.79 562.33 273.98C565.457 275.233 568.6 276.833 571.76 278.78C573.38 279.77 574.53 280.22 576.46 279.51C579.82 278.29 581.3 277.55 584.43 276.87C594.563 274.683 604.14 275.907 613.16 280.54C616.787 282.4 619.61 284.52 621.63 286.9C623.82 289.48 628.38 295.38 628.14 298.34C628.127 298.505 628.073 298.664 627.982 298.808C627.892 298.952 627.766 299.077 627.613 299.176C627.46 299.274 627.283 299.344 627.093 299.381C626.903 299.418 626.705 299.421 626.51 299.39C622.49 298.78 619.35 293.91 617.64 292.1C605.43 279.13 590.04 280.04 574.23 286.08C573.917 286.199 573.582 286.247 573.248 286.221C572.915 286.195 572.591 286.096 572.3 285.93C571.627 285.543 569.84 284.567 566.94 283C559.013 278.713 550.713 277.573 542.04 279.58C533.07 281.65 526.49 287.13 521.77 294.8C521.52 295.208 521.163 295.541 520.739 295.763C520.315 295.985 519.838 296.087 519.36 296.06Z" fill="#EE0115"/>
<path d="M378.64 318.97C378.576 319 378.504 319.01 378.434 318.997C378.365 318.985 378.301 318.95 378.253 318.9C378.204 318.849 378.174 318.785 378.166 318.717C378.159 318.648 378.174 318.579 378.21 318.52C380.36 314.74 383.87 309.77 386.04 305.34C388.473 300.387 390.717 294.45 392.77 287.53C393.797 284.057 394.247 281.537 394.12 279.97C394.106 279.802 394.149 279.634 394.241 279.493C394.334 279.351 394.471 279.245 394.63 279.19C395.783 278.797 396.493 278.343 396.76 277.83C396.781 277.791 396.809 277.757 396.843 277.729C396.877 277.702 396.917 277.681 396.96 277.669C397.003 277.657 397.048 277.654 397.092 277.659C397.137 277.664 397.18 277.678 397.22 277.7L401.4 280.11C402.077 280.499 402.609 281.098 402.919 281.817C403.229 282.535 403.299 283.336 403.12 284.1L401.85 289.44C401.833 289.506 401.834 289.575 401.853 289.64C401.873 289.706 401.91 289.764 401.961 289.81C402.011 289.855 402.073 289.886 402.14 289.898C402.207 289.911 402.276 289.904 402.34 289.88C405.147 288.827 407.417 287.367 409.15 285.5C409.371 285.26 409.639 285.068 409.937 284.934C410.235 284.801 410.557 284.729 410.884 284.724C411.211 284.718 411.536 284.779 411.84 284.902C412.143 285.025 412.419 285.208 412.65 285.44L416.56 289.34C416.793 289.579 416.934 289.894 416.96 290.23C417.14 292.54 415.47 294.18 414.8 296.39C413.5 300.637 411.923 304.97 410.07 309.39C409.976 309.618 409.973 309.873 410.06 310.103C410.147 310.333 410.319 310.522 410.54 310.63C418.38 314.43 428.03 321.95 438.88 324.46C444.84 325.83 452.01 327.1 457.07 330.43C457.141 330.475 457.197 330.541 457.231 330.618C457.265 330.695 457.276 330.78 457.262 330.863C457.249 330.946 457.211 331.023 457.153 331.085C457.096 331.147 457.022 331.19 456.94 331.21C455.36 331.62 453.82 332.08 452.59 332.95C447.12 336.81 439.16 338.55 433.11 334.88C424.13 329.447 415.577 323.58 407.45 317.28C407.312 317.174 407.152 317.097 406.983 317.055C406.813 317.013 406.637 317.007 406.465 317.038C406.293 317.068 406.129 317.133 405.983 317.23C405.838 317.327 405.714 317.453 405.62 317.6C403.2 321.407 400.283 324.747 396.87 327.62C393.37 330.55 390.16 330.98 384.88 331.73C384.734 331.75 384.589 331.794 384.45 331.86L381.04 333.39C380.928 333.434 380.804 333.436 380.691 333.396C380.577 333.356 380.482 333.277 380.422 333.172C380.363 333.068 380.343 332.945 380.367 332.827C380.39 332.709 380.455 332.604 380.55 332.53C388.063 327.137 394.24 320.35 399.08 312.17C399.123 312.097 399.151 312.016 399.163 311.932C399.175 311.849 399.171 311.764 399.151 311.683C399.13 311.602 399.094 311.527 399.044 311.461C398.994 311.395 398.932 311.34 398.86 311.3L394.83 308.97C394.477 308.767 394.066 308.69 393.663 308.749C393.26 308.809 392.889 309.003 392.61 309.3C390.3 311.76 389.16 313.18 386.81 314.57C384.617 315.863 381.893 317.33 378.64 318.97ZM399.07 297.37C398.995 297.388 398.926 297.423 398.867 297.472C398.808 297.52 398.761 297.581 398.73 297.65L396.61 302.38C396.565 302.481 396.541 302.589 396.54 302.698C396.538 302.808 396.558 302.916 396.599 303.017C396.641 303.117 396.702 303.207 396.78 303.282C396.857 303.357 396.949 303.414 397.05 303.45L401.34 305.06C401.621 305.163 401.932 305.151 402.204 305.025C402.476 304.899 402.687 304.671 402.79 304.39L405.89 296.12C405.913 296.057 405.919 295.989 405.905 295.924C405.892 295.858 405.861 295.798 405.815 295.749C405.77 295.7 405.711 295.665 405.647 295.648C405.582 295.63 405.514 295.631 405.45 295.65L399.07 297.37Z" fill="black"/>
<path d="M350.4 286.92C350.282 286.927 350.168 286.969 350.075 287.042C349.981 287.115 349.913 287.215 349.878 287.329C349.843 287.442 349.844 287.563 349.88 287.676C349.916 287.789 349.986 287.888 350.08 287.96C351.633 289.167 352.41 290.123 352.41 290.83C352.41 290.988 352.378 291.145 352.316 291.291C352.255 291.437 352.164 291.569 352.05 291.68C351.21 292.5 350.54 293.513 350.04 294.72C350.018 294.773 350.01 294.83 350.017 294.886C350.024 294.943 350.045 294.997 350.079 295.044C350.113 295.091 350.158 295.129 350.211 295.154C350.263 295.18 350.322 295.192 350.38 295.19L362.91 294.32C363.297 294.294 363.683 294.407 364 294.64L368.7 298.12C369.135 298.442 369.456 298.894 369.617 299.411C369.777 299.927 369.767 300.48 369.59 300.99L368.24 304.94C368.193 305.08 368.15 305.223 368.11 305.37L364.28 321.51C364.142 322.081 363.864 322.614 363.47 323.06C361.23 325.55 357.77 322.01 354.8 322.32C349.953 322.833 345.953 322.863 342.8 322.41C342.587 322.377 342.368 322.4 342.167 322.477C341.965 322.554 341.787 322.683 341.65 322.85C340.643 324.097 339.473 323.943 338.14 322.39C335.11 318.85 334.57 312.61 333.6 309.85C333.461 309.447 333.397 309.023 333.41 308.6C333.483 306.447 333.053 304.42 332.12 302.52C332.025 302.325 332.005 302.103 332.064 301.896C332.123 301.688 332.257 301.512 332.44 301.4C334.613 300.073 336.977 300.367 339.53 302.28C339.973 302.613 340.339 303.036 340.605 303.523C340.87 304.009 341.029 304.547 341.07 305.1L341.88 316.82C341.897 317.069 341.993 317.305 342.155 317.496C342.317 317.687 342.536 317.821 342.78 317.88L343.89 318.14C343.99 318.166 344.095 318.162 344.193 318.13C344.291 318.098 344.378 318.038 344.443 317.958C344.508 317.878 344.549 317.782 344.561 317.679C344.573 317.576 344.555 317.473 344.51 317.38C342.69 313.6 343.08 307.56 342.99 302.82C342.984 302.638 342.912 302.464 342.789 302.332C342.666 302.199 342.499 302.117 342.32 302.1C340.513 301.947 339.007 301 337.8 299.26C337.73 299.16 337.685 299.044 337.669 298.922C337.654 298.801 337.668 298.678 337.71 298.563C337.752 298.448 337.821 298.345 337.912 298.263C338.003 298.18 338.112 298.121 338.23 298.09L341.98 297.08C342.449 296.953 342.875 296.702 343.213 296.353C343.551 296.005 343.789 295.572 343.9 295.1L345.25 289.4C345.278 289.284 345.276 289.162 345.246 289.047C345.216 288.931 345.157 288.825 345.077 288.737C344.996 288.649 344.894 288.583 344.782 288.543C344.669 288.503 344.548 288.492 344.43 288.51C340.23 289.15 336.45 290.66 334.08 285.69C334.011 285.546 334 285.381 334.048 285.229C334.096 285.076 334.201 284.948 334.34 284.87C335.58 284.17 336.67 283.677 337.61 283.39C344.543 281.23 351.563 279.7 358.67 278.8C358.915 278.767 359.165 278.774 359.41 278.82C362.283 279.36 364.193 280.757 365.14 283.01C365.201 283.154 365.225 283.31 365.209 283.464C365.193 283.618 365.138 283.765 365.05 283.89C364.223 285.07 363.46 285.7 362.76 285.78C358.287 286.287 354.167 286.667 350.4 286.92ZM360.54 300.46L357.81 300.09C357.776 300.084 357.742 300.086 357.709 300.094C357.676 300.102 357.645 300.117 357.617 300.137C357.59 300.158 357.568 300.184 357.551 300.214C357.534 300.243 357.524 300.276 357.52 300.31L357.51 300.41C357.21 302.626 356.953 304.826 356.752 306.883C356.551 308.94 356.411 310.815 356.339 312.4C356.268 313.984 356.266 315.248 356.335 316.118C356.404 316.988 356.541 317.447 356.74 317.47L356.96 317.5C357.361 317.535 357.984 315.802 358.692 312.679C359.401 309.557 360.137 305.3 360.74 300.84L360.75 300.74C360.759 300.675 360.741 300.609 360.702 300.557C360.663 300.505 360.605 300.47 360.54 300.46ZM351.354 301.603C351.282 301.453 351.174 301.321 351.034 301.217C350.894 301.113 350.726 301.037 350.538 300.996C350.351 300.954 350.149 300.946 349.943 300.973C349.736 300.999 349.531 301.06 349.337 301.152C349.144 301.243 348.966 301.364 348.815 301.506C348.663 301.648 348.541 301.809 348.454 301.981C348.368 302.152 348.319 302.33 348.311 302.504C348.303 302.678 348.335 302.846 348.406 302.997C348.478 303.147 348.586 303.279 348.726 303.383C348.866 303.487 349.034 303.563 349.222 303.604C349.409 303.646 349.611 303.654 349.817 303.627C350.023 303.601 350.229 303.54 350.423 303.448C350.616 303.357 350.794 303.236 350.945 303.094C351.097 302.952 351.219 302.791 351.306 302.619C351.392 302.448 351.441 302.27 351.449 302.096C351.457 301.921 351.425 301.754 351.354 301.603ZM351.323 308.271C351.309 308.138 351.257 308.01 351.17 307.894C351.083 307.778 350.962 307.677 350.814 307.597C350.666 307.516 350.494 307.458 350.308 307.425C350.121 307.392 349.925 307.385 349.729 307.405C349.533 307.425 349.341 307.47 349.165 307.539C348.989 307.608 348.832 307.7 348.703 307.808C348.574 307.916 348.475 308.039 348.412 308.169C348.349 308.3 348.324 308.436 348.337 308.569C348.351 308.702 348.402 308.83 348.49 308.946C348.577 309.062 348.698 309.163 348.846 309.243C348.994 309.323 349.166 309.382 349.352 309.415C349.539 309.448 349.735 309.455 349.931 309.435C350.127 309.415 350.319 309.37 350.495 309.301C350.671 309.232 350.828 309.14 350.957 309.032C351.086 308.924 351.185 308.801 351.248 308.671C351.31 308.54 351.336 308.404 351.323 308.271ZM349.874 313.418C349.522 313.371 349.157 313.534 348.858 313.873C348.559 314.211 348.352 314.697 348.282 315.223C348.212 315.749 348.284 316.271 348.484 316.676C348.683 317.081 348.993 317.335 349.345 317.382C349.698 317.429 350.063 317.266 350.362 316.927C350.661 316.589 350.868 316.103 350.938 315.577C351.008 315.051 350.936 314.529 350.736 314.124C350.537 313.719 350.227 313.465 349.874 313.418Z" fill="black"/>
<path d="M430.24 293.19C430.246 293.012 430.208 292.836 430.129 292.676C430.051 292.516 429.935 292.378 429.791 292.273C429.647 292.169 429.479 292.101 429.303 292.076C429.127 292.051 428.947 292.07 428.78 292.13L428.65 292.18C428.201 292.342 427.804 292.625 427.505 292.997C427.205 293.369 427.013 293.816 426.95 294.29C426.537 297.443 426.04 300.27 425.46 302.77C424.233 308.097 420.877 310.83 415.39 310.97C415.284 310.973 415.179 310.949 415.085 310.899C414.991 310.849 414.912 310.775 414.855 310.685C414.799 310.595 414.767 310.492 414.762 310.386C414.758 310.28 414.781 310.174 414.83 310.08L416.83 306.19C416.883 306.097 416.923 305.996 416.95 305.89C418.203 300.897 418.767 295.643 418.64 290.13C418.61 288.86 417.87 287.86 417.82 286.68C417.795 286.088 417.98 285.509 418.339 285.053C418.699 284.597 419.208 284.297 419.77 284.21C421.143 284.003 422.72 284.687 424.5 286.26C424.689 286.427 424.914 286.548 425.157 286.612C425.4 286.676 425.655 286.683 425.9 286.63C429.04 285.943 431.84 284.527 434.3 282.38C434.433 282.262 434.596 282.181 434.772 282.146C434.947 282.11 435.13 282.122 435.3 282.18C437.64 283.007 439.61 284.34 441.21 286.18C441.481 286.491 441.643 286.883 441.672 287.297C441.701 287.712 441.595 288.127 441.37 288.48C439.323 291.673 438.047 295.697 437.54 300.55C437.37 302.19 436.91 303.97 437.67 305.8C437.839 306.208 438.143 306.544 438.53 306.75C438.917 306.956 439.363 307.02 439.79 306.93L444.14 306.03C444.568 305.946 445.011 306.005 445.4 306.2C448.13 307.56 454.69 311.52 449.68 314.17C446.807 315.697 443.347 316.047 439.3 315.22C428.5 313.01 430.03 301.33 430.24 293.19Z" fill="black"/>
<path d="M566.94 289.99C566.093 291.797 564.767 292.907 562.96 293.32C562.529 293.418 562.075 293.394 561.65 293.25C552.61 290.17 545.82 289.45 537.99 295.05C534.76 297.36 532.36 297.71 528.46 297.14C528.374 297.128 528.292 297.097 528.218 297.05C528.145 297.003 528.083 296.941 528.035 296.868C527.988 296.796 527.957 296.713 527.944 296.627C527.931 296.541 527.936 296.454 527.96 296.37C528.42 294.81 528.847 293.833 529.24 293.44C538.613 284.04 549.697 281.727 562.49 286.5C563.397 286.84 564.807 287.72 566.72 289.14C566.85 289.234 566.943 289.37 566.983 289.525C567.023 289.681 567.008 289.845 566.94 289.99Z" fill="#EE0115"/>
<path d="M566.35 299.39C566.29 299.375 566.235 299.344 566.191 299.301C566.147 299.257 566.115 299.203 566.098 299.142C566.081 299.082 566.079 299.018 566.094 298.956C566.108 298.895 566.138 298.837 566.18 298.79C570.82 293.857 576.187 290.523 582.28 288.79C583.087 288.563 586.803 287.977 593.43 287.03C594.186 286.924 594.95 286.924 595.7 287.03C599.933 287.63 603.667 288.657 606.9 290.11C610.5 291.72 614.6 295.75 617.1 298.45C617.186 298.542 617.245 298.656 617.27 298.78C617.295 298.903 617.285 299.031 617.241 299.149C617.198 299.268 617.122 299.372 617.023 299.449C616.924 299.527 616.805 299.576 616.68 299.59C614.46 299.837 612.63 299.88 611.19 299.72C610.37 299.633 608.697 298.937 606.17 297.63C600.477 294.677 595 293.56 589.74 294.28C584.86 294.953 581.427 295.767 579.44 296.72C574.42 299.14 571.29 300.71 566.35 299.39Z" fill="#EE0115"/>
<path d="M827.62 306.6V336.85C827.62 337.001 827.56 337.146 827.453 337.253C827.346 337.36 827.201 337.42 827.05 337.42H821.49C821.335 337.42 821.185 337.362 821.072 337.256C820.959 337.15 820.89 337.005 820.88 336.85L817.62 289.64C817.613 289.523 817.63 289.407 817.671 289.297C817.711 289.188 817.774 289.088 817.855 289.005C817.937 288.922 818.034 288.857 818.142 288.815C818.249 288.773 818.365 288.754 818.48 288.76L826.92 289.27C827.167 289.285 827.405 289.364 827.612 289.497C827.818 289.63 827.987 289.813 828.1 290.03L838.92 310.51C838.977 310.619 839.064 310.709 839.169 310.772C839.274 310.835 839.395 310.868 839.518 310.867C839.641 310.866 839.761 310.831 839.865 310.766C839.97 310.702 840.054 310.61 840.11 310.5L850.6 290.08C850.766 289.755 851.018 289.481 851.329 289.291C851.639 289.1 851.996 289 852.36 289H860.31C860.429 289 860.546 289.024 860.655 289.071C860.764 289.117 860.862 289.186 860.944 289.272C861.025 289.358 861.088 289.46 861.129 289.572C861.169 289.683 861.187 289.802 861.18 289.92L858.38 336.8C858.37 336.971 858.295 337.131 858.17 337.248C858.046 337.365 857.881 337.43 857.71 337.43H851.73C851.563 337.43 851.403 337.364 851.285 337.245C851.166 337.127 851.1 336.967 851.1 336.8V306.59C851.099 306.511 851.073 306.435 851.025 306.373C850.977 306.31 850.909 306.266 850.833 306.245C850.757 306.225 850.677 306.23 850.604 306.26C850.531 306.289 850.47 306.342 850.43 306.41L843.81 317.87C843.689 318.081 843.521 318.26 843.317 318.394C843.114 318.527 842.882 318.612 842.64 318.64C840.22 318.92 836.2 319.6 834.67 317.02C832.21 312.893 830.057 309.363 828.21 306.43C828.173 306.372 828.118 306.327 828.053 306.302C827.989 306.278 827.918 306.275 827.851 306.294C827.785 306.313 827.727 306.353 827.685 306.409C827.643 306.464 827.62 306.531 827.62 306.6Z" fill="black"/>
<path d="M924.84 309.33V337.09C924.84 337.172 924.807 337.251 924.749 337.309C924.691 337.367 924.612 337.4 924.53 337.4H918.51C918.418 337.4 918.329 337.366 918.262 337.305C918.195 337.243 918.155 337.159 918.15 337.07L914.88 289.71C914.873 289.623 914.884 289.536 914.913 289.454C914.943 289.371 914.989 289.296 915.049 289.232C915.109 289.168 915.182 289.117 915.263 289.082C915.344 289.048 915.431 289.03 915.52 289.03H923.84C924.173 289.03 924.499 289.127 924.778 289.308C925.056 289.489 925.276 289.747 925.41 290.05L939.65 321.79C939.686 321.877 939.751 321.949 939.834 321.993C939.918 322.037 940.014 322.05 940.107 322.03C940.199 322.009 940.281 321.957 940.338 321.882C940.395 321.807 940.424 321.714 940.42 321.62V292.47C940.419 291.894 940.617 291.335 940.98 290.889C941.342 290.442 941.848 290.135 942.41 290.02L948.22 288.82C948.404 288.781 948.594 288.785 948.777 288.832C948.959 288.879 949.128 288.967 949.27 289.09C949.412 289.213 949.524 289.368 949.597 289.541C949.67 289.714 949.702 289.902 949.69 290.09L946.93 336.39C946.918 336.586 946.843 336.773 946.717 336.923C946.591 337.073 946.42 337.177 946.23 337.22C944.017 337.753 942.157 337.713 940.65 337.1C940.235 336.925 939.893 336.615 939.68 336.22L925.41 309.19C925.38 309.128 925.33 309.078 925.268 309.049C925.205 309.02 925.135 309.013 925.068 309.029C925.001 309.045 924.942 309.084 924.901 309.139C924.859 309.194 924.838 309.261 924.84 309.33Z" fill="black"/>
<path d="M725.87 337.05L722.63 290.09C722.62 289.959 722.638 289.827 722.681 289.703C722.724 289.579 722.793 289.466 722.882 289.369C722.971 289.273 723.079 289.195 723.199 289.142C723.319 289.089 723.449 289.061 723.58 289.06C731.627 288.967 738.077 288.987 742.93 289.12C749.05 289.28 755.77 290.93 756.04 298.26C756.25 304.14 755.74 310.45 750.2 313.52C749.957 313.656 749.763 313.866 749.646 314.119C749.529 314.373 749.495 314.656 749.55 314.93L754.04 336.61C754.059 336.71 754.056 336.813 754.032 336.912C754.007 337.011 753.961 337.103 753.897 337.181C753.833 337.26 753.752 337.323 753.661 337.366C753.57 337.409 753.471 337.431 753.37 337.43H747.71C747.433 337.429 747.165 337.333 746.95 337.159C746.736 336.984 746.587 336.741 746.53 336.47L742.43 316.66C742.352 316.278 742.145 315.935 741.844 315.689C741.543 315.443 741.167 315.309 740.78 315.31H732.84C732.738 315.31 732.636 315.33 732.541 315.369C732.447 315.409 732.361 315.466 732.288 315.538C732.216 315.611 732.159 315.697 732.119 315.791C732.08 315.886 732.06 315.988 732.06 316.09V337.02C732.06 337.121 732.019 337.217 731.946 337.289C731.873 337.36 731.773 337.4 731.67 337.4H726.25C726.154 337.4 726.062 337.364 725.991 337.299C725.921 337.235 725.878 337.145 725.87 337.05ZM731.97 293.76L732.11 310.66C732.111 310.769 732.134 310.877 732.177 310.977C732.22 311.077 732.282 311.168 732.36 311.244C732.438 311.32 732.53 311.38 732.632 311.421C732.733 311.461 732.841 311.481 732.95 311.48L739.28 311.42C740.362 311.411 741.432 311.215 742.429 310.843C743.426 310.471 744.33 309.931 745.089 309.253C745.849 308.575 746.449 307.773 746.856 306.892C747.263 306.012 747.468 305.069 747.46 304.12L747.42 300.02C747.401 298.104 746.516 296.275 744.96 294.935C743.404 293.594 741.303 292.852 739.12 292.87L732.79 292.92C732.681 292.921 732.573 292.944 732.473 292.987C732.373 293.03 732.282 293.092 732.206 293.17C732.13 293.248 732.07 293.34 732.029 293.442C731.989 293.543 731.969 293.651 731.97 293.76Z" fill="black"/>
<path d="M786.79 289.02C788.237 289.02 789.41 289.02 790.31 289.02C790.742 289.021 791.162 289.158 791.512 289.411C791.862 289.664 792.124 290.02 792.26 290.43L807.69 336.61C807.722 336.704 807.731 336.803 807.717 336.901C807.702 336.999 807.664 337.092 807.606 337.172C807.549 337.252 807.473 337.318 807.385 337.363C807.297 337.407 807.199 337.431 807.1 337.43H802.1C801.836 337.43 801.578 337.351 801.36 337.203C801.142 337.055 800.975 336.845 800.88 336.6L796.31 324.56C796.201 324.271 796.006 324.023 795.752 323.849C795.498 323.676 795.197 323.585 794.89 323.59C792.063 323.623 789.363 323.64 786.79 323.64C784.223 323.64 781.523 323.623 778.69 323.59C778.385 323.587 778.086 323.679 777.834 323.852C777.582 324.026 777.389 324.273 777.28 324.56L772.71 336.6C772.615 336.845 772.448 337.055 772.23 337.203C772.012 337.351 771.754 337.43 771.49 337.43H766.49C766.391 337.431 766.294 337.407 766.206 337.363C766.117 337.318 766.041 337.252 765.984 337.172C765.926 337.092 765.888 336.999 765.874 336.901C765.859 336.803 765.868 336.704 765.9 336.61L781.32 290.43C781.456 290.02 781.718 289.664 782.068 289.411C782.418 289.158 782.838 289.021 783.27 289.02C784.17 289.02 785.343 289.02 786.79 289.02ZM779.52 319.12C779.491 319.194 779.48 319.274 779.489 319.353C779.497 319.432 779.525 319.507 779.569 319.573C779.613 319.639 779.673 319.693 779.743 319.731C779.813 319.769 779.891 319.789 779.97 319.79L793.79 319.74C793.869 319.739 793.947 319.719 794.017 319.681C794.087 319.643 794.147 319.589 794.191 319.523C794.235 319.457 794.263 319.382 794.272 319.303C794.28 319.224 794.269 319.144 794.24 319.07L787.27 301.64C787.234 301.549 787.171 301.471 787.09 301.416C787.009 301.361 786.913 301.332 786.815 301.332C786.717 301.332 786.621 301.361 786.54 301.416C786.459 301.471 786.396 301.549 786.36 301.64L779.52 319.12Z" fill="black"/>
<path d="M904.09 311.86V314.3C904.09 314.467 904.024 314.627 903.906 314.745C903.787 314.864 903.627 314.93 903.46 314.93H881.17C881.003 314.93 880.843 314.996 880.725 315.114C880.607 315.233 880.54 315.393 880.54 315.56V333.15C880.54 333.317 880.607 333.477 880.725 333.595C880.843 333.714 881.003 333.78 881.17 333.78H902.03C902.197 333.78 902.357 333.846 902.476 333.965C902.594 334.083 902.66 334.243 902.66 334.41V336.86C902.66 337.027 902.594 337.187 902.476 337.305C902.357 337.424 902.197 337.49 902.03 337.49H874.97C874.81 337.49 874.655 337.429 874.538 337.32C874.421 337.21 874.35 337.06 874.34 336.9L871.09 289.75C871.085 289.665 871.097 289.579 871.125 289.499C871.154 289.418 871.198 289.345 871.256 289.282C871.314 289.219 871.385 289.169 871.463 289.134C871.541 289.1 871.625 289.081 871.71 289.08H905.26C905.35 289.079 905.439 289.098 905.521 289.134C905.603 289.171 905.677 289.225 905.736 289.292C905.796 289.359 905.841 289.438 905.867 289.524C905.894 289.61 905.902 289.701 905.89 289.79L905.59 292.28C905.571 292.433 905.496 292.573 905.38 292.675C905.263 292.776 905.114 292.831 904.96 292.83H881.16C880.993 292.83 880.833 292.896 880.715 293.015C880.597 293.133 880.53 293.293 880.53 293.46V310.6C880.53 310.767 880.597 310.927 880.715 311.045C880.833 311.164 880.993 311.23 881.16 311.23H903.46C903.627 311.23 903.787 311.296 903.906 311.415C904.024 311.533 904.09 311.693 904.09 311.86Z" fill="black"/>
<path d="M544.47 299.13C544.432 299.127 544.396 299.111 544.37 299.083C544.344 299.055 544.33 299.018 544.33 298.98V298.9C544.351 298.251 545.14 297.651 546.524 297.233C547.908 296.815 549.773 296.612 551.71 296.67L552.03 296.68C553.964 296.738 555.812 297.05 557.167 297.549C558.522 298.047 559.275 298.692 559.26 299.34V299.42C559.26 299.46 559.244 299.498 559.216 299.526C559.188 299.554 559.15 299.57 559.11 299.57L544.47 299.13Z" fill="#EE0115"/>
<path d="M861.67 615.4C847 607.84 833.41 598.51 823.38 586.16C818.89 580.64 814.86 576.92 810.77 571.47C807.74 567.45 806.2 563.14 803.17 559.59C796.47 551.723 789.647 542.223 782.7 531.09C782.393 530.603 781.95 530.06 781.37 529.46C781.139 529.223 780.827 529.082 780.496 529.067C780.165 529.052 779.841 529.164 779.59 529.38C775.217 533.173 769.957 536.67 763.81 539.87C763.396 540.086 762.933 540.191 762.464 540.174C761.996 540.156 761.54 540.017 761.14 539.77C757.89 537.74 752.02 533.54 749.5 529.27C745.86 523.1 744.33 519.81 741.48 515.43C737.42 509.203 737.743 502.733 742.45 496.02C745.997 490.967 750.33 486.85 755.45 483.67C755.93 483.371 756.295 482.918 756.486 482.385C756.676 481.851 756.681 481.268 756.5 480.73C755.94 479.09 755.34 477.26 753.67 475.46C750.25 471.77 752.47 468.71 751.69 464.52C750.97 460.64 751.92 456.37 753.98 453.39C754.096 453.227 754.142 453.024 754.108 452.826C754.074 452.627 753.964 452.449 753.8 452.33L751.1 450.33C751.037 450.281 750.988 450.215 750.959 450.14C750.93 450.065 750.923 449.984 750.937 449.906C750.952 449.828 750.988 449.756 751.042 449.698C751.095 449.641 751.164 449.6 751.24 449.58C752.173 449.333 753.17 449.407 754.23 449.8C754.316 449.833 754.409 449.845 754.501 449.836C754.592 449.827 754.681 449.796 754.759 449.747C754.836 449.697 754.902 449.63 754.949 449.551C754.996 449.471 755.024 449.382 755.03 449.29C755.56 441.59 767.93 436.35 774.3 434.84C779.547 433.593 785.067 432.603 790.86 431.87C797.98 430.96 801.82 437.32 802.8 443.28C803.273 446.113 803.807 448.587 804.4 450.7C805.03 452.97 804.88 455.76 805.77 458.05C805.902 458.383 806.159 458.65 806.487 458.794C806.815 458.939 807.186 458.948 807.52 458.82L826.81 451.5C827.031 451.415 827.21 451.247 827.31 451.033C827.411 450.819 827.425 450.574 827.35 450.35L821.06 431.51C820.941 431.159 820.735 430.844 820.46 430.596C820.185 430.347 819.851 430.173 819.49 430.09L816.11 429.32C816.027 429.3 815.949 429.264 815.881 429.213C815.813 429.162 815.756 429.098 815.714 429.025C815.671 428.952 815.645 428.871 815.636 428.788C815.626 428.704 815.635 428.62 815.66 428.54C815.9 427.78 816.39 426.92 816.57 425.71C817.17 421.597 819.053 418.007 822.22 414.94C822.591 414.582 822.908 414.174 823.16 413.73C824.033 412.203 825.057 410.97 826.23 410.03C826.439 409.861 826.684 409.74 826.945 409.676C827.206 409.612 827.478 409.607 827.741 409.66C828.004 409.714 828.252 409.825 828.466 409.986C828.68 410.147 828.856 410.353 828.98 410.59L829.35 411.29C829.431 411.445 829.562 411.57 829.721 411.644C829.88 411.718 830.059 411.738 830.23 411.7C833.677 410.94 837.663 409.847 842.19 408.42C845.343 407.427 848.373 406.893 851.28 406.82C851.928 406.807 852.572 406.908 853.18 407.12C856.793 408.393 860.22 409.44 863.46 410.26C865.66 410.81 870.18 412.55 871.47 413.76C872.577 414.793 873.38 416.153 873.88 417.84C876 424.993 877.47 431.93 878.29 438.65C878.3 438.724 878.324 438.796 878.363 438.86C878.401 438.924 878.451 438.979 878.512 439.023C878.572 439.066 878.64 439.096 878.712 439.111C878.784 439.126 878.858 439.126 878.93 439.11C882.217 438.45 884.807 437.88 886.7 437.4C890.6 436.41 897.09 437.18 901.77 438.64C909.077 440.913 914.03 442.693 916.63 443.98C921.53 446.41 926.7 452.7 931.58 456.73C934.213 458.897 936.103 460.537 937.25 461.65C946.02 470.1 953.07 483.09 952.16 495.45C951.367 506.163 947.633 515.013 940.96 522C934.367 528.907 928.263 533.89 922.65 536.95C913.73 541.82 905.84 539.65 896.76 537.58C890.19 536.07 885.15 536.59 876.23 537.13C874.17 537.257 870.073 537.253 863.94 537.12C863.78 537.115 863.626 537.06 863.499 536.963C863.372 536.866 863.278 536.733 863.23 536.58V536.55C863.219 536.419 863.256 536.289 863.333 536.182C863.41 536.076 863.522 536.001 863.65 535.97L866 535.37C866.044 535.359 866.083 535.333 866.11 535.297C866.138 535.261 866.152 535.216 866.151 535.171C866.15 535.126 866.133 535.082 866.104 535.047C866.075 535.013 866.035 534.989 865.99 534.98C864.63 534.7 863.593 534.903 862.88 535.59C862.802 535.662 862.708 535.71 862.61 535.73L857.01 536.89C856.942 536.903 856.872 536.897 856.807 536.872C856.743 536.847 856.687 536.805 856.645 536.75C856.603 536.694 856.578 536.629 856.572 536.56C856.566 536.491 856.579 536.422 856.61 536.36C857.86 533.8 859.49 532.06 861.95 529.08C862.036 528.979 862.085 528.852 862.088 528.719C862.091 528.586 862.049 528.457 861.969 528.351C861.888 528.246 861.774 528.172 861.645 528.14C861.516 528.109 861.38 528.123 861.26 528.18L858.25 529.55C858.173 529.584 858.086 529.586 858.007 529.556C857.929 529.526 857.865 529.467 857.83 529.39C857.816 529.353 857.815 529.314 857.826 529.279C857.837 529.244 857.86 529.216 857.89 529.2C862.463 526.633 865.517 524.55 867.05 522.95C874.25 515.397 880.5 507.18 885.8 498.3C889.4 492.25 893.41 484.4 893.23 477.28C893.222 476.988 893.109 476.708 892.911 476.491C892.713 476.275 892.443 476.136 892.15 476.1L884.85 475.23C884.3 475.166 883.745 475.27 883.257 475.529C882.769 475.788 882.373 476.19 882.12 476.68C880.54 479.78 880.1 483.94 878.92 490.63C878.78 491.417 878.093 492.953 876.86 495.24C875.37 498 872.44 500.35 870.82 502.86C869 505.69 864.77 507.78 862.99 510.94C862.867 511.163 862.685 511.347 862.464 511.472C862.243 511.597 861.993 511.659 861.74 511.65C860.22 511.603 858.003 511.837 855.09 512.35C852.99 512.72 851.74 511.81 850.63 510.18C845.68 502.86 842.48 494.19 839.09 487.1C839.009 486.934 838.89 486.789 838.743 486.677C838.596 486.564 838.426 486.488 838.245 486.454C838.064 486.42 837.877 486.429 837.701 486.48C837.525 486.532 837.364 486.624 837.23 486.75C836.643 487.297 836 487.733 835.3 488.06C834.067 488.633 830.54 490.147 824.72 492.6C824.518 492.685 824.355 492.84 824.261 493.038C824.167 493.235 824.149 493.46 824.21 493.67C825.717 498.777 827.683 503.61 830.11 508.17C835.19 517.717 840.163 527.29 845.03 536.89C846.997 540.763 849.043 544.187 851.17 547.16C854.757 552.173 857.573 556.32 859.62 559.6C861.127 562.013 862.75 565.183 864.49 569.11C865.81 572.077 867.853 575.65 870.62 579.83C870.712 579.967 870.749 580.134 870.725 580.3C870.701 580.465 870.618 580.618 870.49 580.73C868.857 582.137 868.64 583.747 869.84 585.56C869.894 585.641 869.928 585.734 869.938 585.832C869.948 585.929 869.935 586.027 869.898 586.118C869.862 586.208 869.804 586.289 869.729 586.352C869.654 586.415 869.566 586.459 869.47 586.48C868.79 586.627 868.4 586.377 868.3 585.73C868.291 585.682 868.268 585.637 868.234 585.601C868.2 585.566 868.156 585.541 868.108 585.53C868.06 585.52 868.01 585.524 867.964 585.541C867.918 585.559 867.878 585.59 867.85 585.63C867.2 586.63 866.86 588.15 868.15 588.73C868.443 588.857 868.653 589.063 868.78 589.35C868.9 589.623 868.917 589.91 868.83 590.21C868.523 591.237 868.633 592.083 869.16 592.75C870.52 594.5 870.53 595.33 871.26 597.56C871.279 597.606 871.28 597.656 871.265 597.703C871.25 597.75 871.219 597.79 871.177 597.816C871.135 597.843 871.086 597.853 871.037 597.847C870.988 597.84 870.943 597.816 870.91 597.78C870.27 597.107 869.343 596.55 868.13 596.11C868.029 596.072 867.919 596.067 867.814 596.094C867.71 596.12 867.616 596.178 867.545 596.26C867.475 596.341 867.43 596.442 867.419 596.55C867.407 596.657 867.429 596.765 867.48 596.86L871.84 605.12C871.851 605.143 871.857 605.169 871.857 605.195C871.856 605.221 871.85 605.246 871.839 605.269C871.827 605.292 871.81 605.313 871.79 605.328C871.769 605.344 871.745 605.355 871.72 605.36L865.87 606.57C865.703 606.608 865.557 606.711 865.463 606.856C865.37 607.002 865.337 607.179 865.37 607.35L866.46 612.64C866.489 612.771 866.482 612.907 866.44 613.034C866.397 613.161 866.321 613.274 866.22 613.362C866.118 613.449 865.995 613.507 865.863 613.529C865.731 613.552 865.595 613.538 865.47 613.49L858.92 611.05C858.858 611.03 858.791 611.031 858.73 611.053C858.668 611.074 858.615 611.115 858.579 611.169C858.543 611.224 858.525 611.288 858.529 611.353C858.533 611.418 858.558 611.48 858.6 611.53L861.9 615.1C861.934 615.132 861.955 615.176 861.959 615.223C861.963 615.27 861.949 615.316 861.92 615.354C861.892 615.391 861.85 615.417 861.804 615.425C861.758 615.434 861.71 615.425 861.67 615.4Z" fill="black"/>
<path d="M656.57 425.1C656.31 422.2 662.86 416.64 666.02 413.53C667.693 411.89 669.557 410.75 671.61 410.11C673.4 409.56 675.65 410.6 677.49 410.74C683.097 411.153 687.15 411.523 689.65 411.85C697.52 412.89 703.92 423.77 708.36 429.27C709.189 430.296 709.71 431.537 709.86 432.85C710.813 441.197 710.177 449.247 707.95 457C706.42 462.32 703.68 465.65 698.65 467.38C694.403 468.84 691.067 469.77 688.64 470.17C681.5 471.35 675.273 470.207 669.96 466.74C667.153 464.907 665.613 461.81 665.34 457.45C664.94 451.19 665.86 442.62 663.78 435.02C663.657 434.58 663.394 434.193 663.03 433.92L659.38 431.22C659.164 431.063 658.992 430.853 658.88 430.61L656.84 426.12C656.694 425.795 656.603 425.451 656.57 425.1Z" fill="#EE0115"/>
<path d="M346.99 546.35C347.177 546.403 347.28 546.497 347.3 546.63C347.633 548.703 347.87 551.22 348.01 554.18C348.05 554.973 347.637 556.277 346.77 558.09C346.385 558.894 346.096 559.743 345.91 560.62C344.85 565.607 344.32 568.103 344.32 568.11C344.67 570.11 341.97 572.69 343.12 576.02C343.302 576.552 343.234 577.158 342.928 577.724C342.623 578.291 342.101 578.78 341.46 579.1C336.6 581.54 332.21 579.85 326.62 577.94C320.99 576.03 319.47 575.38 314.11 573.89C311.023 573.037 308.62 571.603 306.9 569.59C303.527 565.63 300.237 560.207 297.03 553.32C296.639 552.485 296.373 551.592 296.24 550.67C293.64 533.38 292.08 523.97 292.29 510.25C292.317 508.503 292.587 506.46 293.1 504.12C294.413 498.107 295.807 490.98 297.28 482.74C298.133 477.987 298.777 474.78 299.21 473.12C300.37 468.6 300.83 464.79 302.17 460.4C305.17 450.59 306.31 444.58 309.72 435.59C311.12 431.903 312.313 427.407 313.3 422.1C313.81 419.36 315.6 416.63 315.64 414.1C315.642 413.936 315.705 413.779 315.816 413.66C315.928 413.542 316.079 413.47 316.24 413.46C318.94 413.273 320.503 413.087 320.93 412.9C324.143 411.473 327.79 411.617 331.87 413.33C337.103 415.523 341.667 417.147 345.56 418.2C347.67 418.77 349.22 419.79 350.44 421.73C352.467 424.95 354.44 427.86 356.36 430.46C356.544 430.703 356.664 430.985 356.71 431.28L357.61 437.04C357.669 437.433 357.624 437.833 357.48 438.2C355.64 442.827 353.453 447.403 350.92 451.93C350.44 452.79 349.857 454.867 349.17 458.16C347.79 464.77 346.69 471.54 344.04 477.5C342.933 479.993 342.397 481.677 342.43 482.55C342.55 485.983 342.39 489.13 341.95 491.99C341.945 492.033 341.953 492.076 341.973 492.113C341.993 492.151 342.024 492.182 342.063 492.202C342.101 492.221 342.144 492.229 342.186 492.223C342.229 492.217 342.268 492.199 342.3 492.17L355.87 478.6C355.918 478.553 355.979 478.521 356.045 478.507C356.111 478.493 356.18 478.498 356.242 478.521C356.304 478.544 356.358 478.585 356.397 478.638C356.436 478.691 356.457 478.754 356.46 478.82C356.507 479.747 356.28 480.573 355.78 481.3C350.507 488.987 346.703 496.34 344.37 503.36C343.76 505.18 343.41 508.02 342.59 510.01C339.56 517.36 337.32 526.34 339.59 534.19C339.729 534.68 339.952 535.14 340.25 535.55C341.517 537.31 342.413 539.173 342.94 541.14C343.111 541.773 343.415 542.359 343.83 542.86C344.17 543.273 344.847 543.947 345.86 544.88C346.153 545.153 346.26 545.597 346.18 546.21C346.147 546.43 346.167 546.603 346.24 546.73C346.447 547.11 346.647 547.233 346.84 547.1C346.862 547.085 346.879 547.065 346.889 547.042C346.9 547.019 346.904 546.994 346.9 546.97L346.87 546.45C346.87 546.434 346.873 546.418 346.879 546.403C346.886 546.388 346.895 546.375 346.907 546.366C346.919 546.356 346.933 546.349 346.947 546.347C346.962 546.344 346.976 546.345 346.99 546.35Z" fill="black"/>
<path d="M412.95 469.36C412.994 469.285 413.012 469.198 413 469.111C412.989 469.025 412.949 468.945 412.887 468.884C412.825 468.823 412.744 468.785 412.658 468.775C412.571 468.765 412.484 468.785 412.41 468.83C409.83 470.45 406.69 470.22 403.63 471.26C396.763 473.6 392.33 475.127 390.33 475.84C387.523 476.833 384.51 478.953 381.29 482.2C381.131 482.359 380.937 482.478 380.724 482.548C380.51 482.618 380.283 482.637 380.061 482.603C379.839 482.569 379.628 482.483 379.446 482.352C379.263 482.221 379.114 482.049 379.01 481.85L378.57 481.04C378.373 480.666 378.087 480.349 377.74 480.12C373.26 477.18 370.5 475.77 368.65 470.35C367.53 467.05 366.333 462.72 365.06 457.36C364.61 455.5 364.03 454.99 362.49 454.08C362.402 454.027 362.33 453.951 362.28 453.861C362.231 453.771 362.207 453.669 362.21 453.566C362.213 453.464 362.243 453.363 362.298 453.276C362.352 453.189 362.429 453.118 362.52 453.07L365.07 451.72C365.295 451.605 365.467 451.404 365.55 451.16L368.17 443.49C368.222 443.339 368.233 443.177 368.2 443.02L367.79 441.02C367.751 440.837 367.768 440.647 367.837 440.474C367.907 440.301 368.026 440.153 368.18 440.05C372.28 437.22 374.88 435.97 380.22 435.53C382.88 435.31 385.083 435 386.83 434.6C392.44 433.33 400.74 430.15 407.1 429.06C408.86 428.76 412.963 428.017 419.41 426.83C421.817 426.383 424.053 426.193 426.12 426.26C429.5 426.38 431.95 426.32 434.69 424.41C436.51 423.143 439.347 422.233 443.2 421.68C447.593 421.047 451.303 421.947 454.33 424.38C458.99 428.12 462.373 432.04 464.48 436.14C465.947 439.007 467.71 443.453 469.77 449.48C472.99 458.89 473.78 471.48 465.29 478.81C464.543 479.457 463.783 479.63 463.01 479.33C461.797 478.863 459.86 479.143 457.2 480.17C456.897 480.286 456.57 480.325 456.248 480.281C455.926 480.237 455.621 480.113 455.36 479.92L452.51 477.81C452.337 477.681 452.139 477.59 451.929 477.544C451.719 477.497 451.501 477.496 451.29 477.54L442.09 479.44C441.949 479.47 441.802 479.462 441.665 479.418C441.527 479.375 441.403 479.296 441.304 479.191C441.206 479.085 441.136 478.956 441.102 478.816C441.068 478.676 441.071 478.529 441.11 478.39C441.497 477.037 441.54 475.763 441.24 474.57C441.202 474.404 441.116 474.252 440.993 474.135C440.87 474.018 440.716 473.939 440.55 473.91C440.497 473.903 437.067 473.447 430.26 472.54C428.853 472.353 425.86 472.623 421.28 473.35C420.801 473.423 420.319 473.453 419.84 473.44L412.01 473.13C411.739 473.116 411.478 473.017 411.267 472.845C411.056 472.674 410.906 472.44 410.836 472.177C410.767 471.914 410.784 471.636 410.883 471.383C410.983 471.13 411.16 470.915 411.39 470.77C412.15 470.303 412.67 469.833 412.95 469.36Z" fill="black"/>
<path d="M671.35 517.62C671.379 517.565 671.42 517.518 671.471 517.483C671.521 517.447 671.579 517.423 671.64 517.413C671.701 517.404 671.764 517.408 671.823 517.427C671.882 517.445 671.935 517.477 671.98 517.52L672.17 517.72C672.196 517.747 672.212 517.781 672.218 517.818C672.223 517.856 672.217 517.895 672.2 517.93C670.667 520.963 669.82 522.94 669.66 523.86C669.067 527.147 669.42 530.697 670.72 534.51C671.65 537.23 674.03 540.16 675.06 542.67C675.96 544.85 675.95 548.01 675.51 550.45C673.537 561.437 667.4 569.657 657.1 575.11C644.47 581.81 631.04 586.89 617.25 587.54C606.07 588.06 593.61 587.78 582.63 584.04C566.603 578.58 551.407 570.997 537.04 561.29C530.01 556.54 527.21 551.52 522.59 543.17C519.8 538.15 517.49 533.02 516.92 527.17C516.253 520.27 516.357 513.71 517.23 507.49C518.263 500.097 519.63 492.743 521.33 485.43C522.75 479.33 523.07 472.06 523.84 467.5C523.96 466.787 523.377 466.177 522.09 465.67C521.944 465.613 521.821 465.509 521.742 465.373C521.662 465.237 521.63 465.077 521.65 464.92L522.81 455.88C522.843 455.621 522.907 455.366 523 455.12L526.85 444.82C526.902 444.676 526.988 444.548 527.1 444.45L530.38 441.66C530.485 441.571 530.571 441.46 530.632 441.336C530.692 441.212 530.727 441.076 530.732 440.938C530.738 440.8 530.715 440.662 530.665 440.533C530.614 440.405 530.538 440.288 530.44 440.19L528.17 437.93C527.963 437.719 527.847 437.436 527.847 437.142C527.847 436.848 527.963 436.567 528.17 436.36L528.98 435.55C529.072 435.456 529.184 435.382 529.307 435.335C529.43 435.287 529.562 435.266 529.695 435.274C529.827 435.281 529.957 435.317 530.075 435.379C530.193 435.44 530.297 435.526 530.38 435.63L531.34 436.83C531.419 436.929 531.53 436.997 531.655 437.022C531.779 437.046 531.909 437.024 532.019 436.961C532.129 436.898 532.213 436.798 532.255 436.679C532.298 436.559 532.296 436.428 532.25 436.31L531.55 434.44C531.414 434.083 531.394 433.692 531.495 433.324C531.596 432.955 531.811 432.628 532.11 432.39L535.77 429.47C535.861 429.405 535.931 429.311 535.97 429.2L536.49 427.81C536.6 427.519 536.809 427.275 537.08 427.12C542.91 423.71 554.42 424.23 560.98 425.03C562.827 425.257 565.153 426.143 567.96 427.69C575.74 431.97 580.94 435 585.33 442.74C587.17 446 587.94 450.95 589.15 455C589.564 456.411 589.615 457.907 589.3 459.35C588.64 462.343 587.573 465.593 586.1 469.1C584.653 472.547 582.323 475.697 579.11 478.55C575.71 481.58 572.9 486.03 571.66 490.75C569.42 499.303 568.78 507.953 569.74 516.7C570.04 519.41 572.61 524.24 574.15 526.8C578.96 534.79 597.88 534.37 605.24 534.27C611.32 534.18 616.95 534.05 620.76 529.51C620.98 529.257 625.17 524.027 633.33 513.82C643.683 500.86 654.06 489.577 664.46 479.97C665.747 478.777 667.17 477.927 668.73 477.42C668.938 477.352 669.162 477.346 669.374 477.403C669.585 477.46 669.776 477.577 669.922 477.74C670.068 477.903 670.164 478.106 670.197 478.322C670.231 478.539 670.2 478.76 670.11 478.96L663.8 492.98C663.433 493.805 663.292 494.709 663.39 495.6C663.61 497.58 663.7 499.71 663.66 501.99C663.55 507.82 664.85 513.49 667.26 518.5C667.335 518.654 667.442 518.791 667.573 518.901C667.704 519.011 667.856 519.093 668.02 519.14C669.493 519.56 670.603 519.053 671.35 517.62Z" fill="#EE0115"/>
<path d="M649 476.55C650.69 479.57 645.45 482.88 643.18 483.57C643.009 483.623 642.825 483.622 642.654 483.569C642.482 483.515 642.331 483.411 642.22 483.27C641.393 482.243 640.757 480.853 640.31 479.1C640.27 478.942 640.18 478.801 640.052 478.697C639.925 478.593 639.766 478.531 639.6 478.52C639.16 478.493 638.117 478.74 636.47 479.26C633.52 480.18 629.94 479.31 627.79 477.49C623.02 473.42 621.65 465.58 619.85 458.64C619.203 456.14 617.78 453.323 615.58 450.19C614.84 449.13 614.813 447.737 615.5 446.01C616.587 443.29 618.41 439.037 620.97 433.25C621.083 432.998 621.228 432.762 621.4 432.55C624.23 429.19 628.41 429.64 632.25 430.3C632.617 430.36 634.283 430.3 637.25 430.12C642.79 429.79 647.07 432.1 652.04 435.01C652.213 435.113 652.417 435.15 652.615 435.116C652.814 435.081 652.993 434.976 653.12 434.82C653.32 434.587 653.45 434.207 653.51 433.68C653.522 433.593 653.557 433.512 653.612 433.445C653.667 433.378 653.739 433.327 653.82 433.3C653.92 433.273 654.057 433.293 654.23 433.36C654.383 433.427 654.443 433.52 654.41 433.64C654.063 434.82 654.687 438.11 656.28 443.51C657.48 447.59 656.62 452.2 655.38 457.01C653.953 462.557 653.793 468.38 654.9 474.48C655.14 475.8 654.547 476.31 653.12 476.01C653.042 475.995 652.968 475.961 652.904 475.913C652.84 475.864 652.787 475.802 652.75 475.73L650.93 472.28C650.876 472.178 650.795 472.092 650.696 472.033C650.596 471.973 650.483 471.943 650.367 471.944C650.251 471.945 650.138 471.977 650.04 472.039C649.942 472.1 649.862 472.187 649.81 472.29C649.21 473.483 648.897 474.727 648.87 476.02C648.864 476.203 648.909 476.387 649 476.55ZM642.082 478.233C642.065 478.322 642.077 478.416 642.12 478.509C642.162 478.603 642.232 478.694 642.327 478.778C642.423 478.862 642.541 478.937 642.674 478.999C642.808 479.06 642.955 479.107 643.107 479.137C643.414 479.197 643.723 479.184 643.965 479.099C644.207 479.015 644.363 478.867 644.398 478.687C644.415 478.598 644.403 478.504 644.361 478.411C644.319 478.317 644.248 478.226 644.153 478.142C644.058 478.058 643.94 477.983 643.806 477.921C643.672 477.86 643.525 477.813 643.373 477.783C643.066 477.723 642.757 477.736 642.515 477.821C642.273 477.905 642.117 478.053 642.082 478.233Z" fill="#EE0115"/>
<path d="M451.37 569.73V569.02C451.371 568.939 451.354 568.858 451.321 568.783C451.288 568.709 451.24 568.642 451.18 568.587C451.119 568.532 451.048 568.491 450.971 568.466C450.893 568.44 450.811 568.432 450.73 568.44C448.257 568.7 446.663 568.933 445.95 569.14C439.92 570.9 434.96 572.45 429.75 573.03C425.12 573.55 421.7 574.59 417.05 575.11C409.003 576.003 403.983 576.373 401.99 576.22C398.71 575.967 394.363 575.423 388.95 574.59C384.157 573.843 378.327 571.91 371.46 568.79C366.267 566.437 361.497 562.177 357.15 556.01C353.177 550.383 351.337 544.387 351.63 538.02C351.75 535.527 352.48 532.62 353.82 529.3C355.06 526.24 356.26 523.087 357.42 519.84C357.539 519.503 357.6 519.147 357.6 518.79V515.85C357.599 515.444 357.722 515.047 357.953 514.711C358.183 514.376 358.51 514.117 358.89 513.97L360.88 513.22C361.065 513.151 361.233 513.043 361.373 512.903C361.513 512.763 361.621 512.595 361.69 512.41C363.423 507.89 366.837 505.003 371.93 503.75C372.045 503.72 372.168 503.736 372.272 503.796C372.377 503.855 372.455 503.954 372.49 504.07C373.177 506.37 373.61 507.89 373.79 508.63C375.063 513.943 374.443 518.54 371.93 522.42C371.803 522.617 371.756 522.855 371.799 523.084C371.842 523.313 371.971 523.516 372.16 523.65C375.48 526.04 379 526.81 383.38 527.05C386.91 527.24 389.27 527.92 392.82 528.92C393.538 529.119 394.276 529.233 395.02 529.26C396.9 529.32 397.98 529.34 398.26 529.32C409.84 528.427 416.71 527.863 418.87 527.63C423.56 527.12 427.01 526.34 431.43 524.05C436.183 521.603 440.94 519.647 445.7 518.18C447.273 517.693 448.533 517.587 449.48 517.86C452.89 518.85 456.63 525.17 460.21 528.67C465.883 534.203 468.757 540.997 468.83 549.05C468.87 554.03 467.14 558.233 463.64 561.66C460.31 564.91 456.47 568.52 452.09 570.22C452.01 570.251 451.924 570.262 451.839 570.252C451.754 570.242 451.673 570.212 451.602 570.163C451.531 570.115 451.473 570.051 451.433 569.975C451.392 569.9 451.371 569.816 451.37 569.73Z" fill="black"/>
<path d="M523.543 634.299C525.132 634.36 526.693 634.746 528.137 635.435C529.581 636.124 530.88 637.101 531.958 638.313C533.037 639.524 533.875 640.945 534.425 642.495C534.974 644.045 535.225 645.693 535.161 647.345C535.033 650.682 533.635 653.833 531.275 656.105C528.915 658.377 525.786 659.584 522.577 659.461C520.988 659.4 519.426 659.014 517.983 658.325C516.539 657.637 515.24 656.659 514.161 655.447C513.083 654.236 512.245 652.815 511.695 651.265C511.146 649.715 510.895 648.067 510.959 646.415C511.087 643.079 512.485 639.928 514.845 637.655C517.205 635.383 520.334 634.176 523.543 634.299ZM523.153 635.251C522.043 635.237 520.94 635.526 519.908 636.099C518.876 636.672 517.934 637.52 517.136 638.593C516.338 639.666 515.7 640.944 515.258 642.353C514.816 643.762 514.579 645.276 514.561 646.807C514.523 649.899 515.377 652.875 516.935 655.081C518.492 657.287 520.627 658.542 522.867 658.569C523.977 658.583 525.079 658.295 526.112 657.721C527.144 657.148 528.086 656.3 528.884 655.227C529.682 654.154 530.32 652.877 530.762 651.467C531.204 650.058 531.441 648.544 531.459 647.013C531.497 643.921 530.643 640.945 529.085 638.739C527.527 636.533 525.393 635.278 523.153 635.251Z" fill="black"/>
<path d="M552.24 634.63C552.266 634.63 552.292 634.635 552.317 634.645C552.341 634.655 552.363 634.67 552.381 634.689C552.4 634.707 552.415 634.729 552.425 634.753C552.435 634.778 552.44 634.804 552.44 634.83V635.17C552.44 635.188 552.435 635.205 552.426 635.219C552.417 635.233 552.405 635.244 552.39 635.25L550.95 635.79C550.756 635.863 550.589 635.994 550.471 636.166C550.354 636.337 550.29 636.541 550.29 636.75V645.06C550.29 645.124 550.303 645.188 550.329 645.247C550.355 645.306 550.393 645.359 550.441 645.403C550.489 645.447 550.545 645.481 550.607 645.503C550.669 645.525 550.734 645.534 550.8 645.53C551.893 645.45 552.61 645.2 552.95 644.78C554.77 642.567 556.75 640.18 558.89 637.62C559.015 637.472 559.103 637.296 559.146 637.107C559.188 636.917 559.184 636.72 559.134 636.532C559.084 636.344 558.99 636.17 558.858 636.025C558.727 635.88 558.563 635.769 558.38 635.7L557.41 635.34C557.318 635.31 557.24 635.248 557.191 635.165C557.141 635.082 557.123 634.984 557.14 634.889C557.157 634.794 557.208 634.708 557.284 634.648C557.359 634.587 557.453 634.556 557.55 634.56H564.51C564.583 634.56 564.653 634.585 564.709 634.632C564.765 634.678 564.802 634.743 564.815 634.814C564.828 634.886 564.816 634.959 564.78 635.022C564.745 635.086 564.688 635.134 564.62 635.16L561.65 636.29C561.526 636.336 561.419 636.412 561.34 636.51L555.19 643.72C554.877 644.09 554.702 644.557 554.695 645.04C554.687 645.524 554.848 645.994 555.15 646.37L563.05 656.31C563.325 656.657 563.688 656.92 564.1 657.07L565.43 657.57C565.498 657.594 565.557 657.639 565.599 657.698C565.641 657.757 565.663 657.828 565.663 657.9C565.663 657.972 565.641 658.043 565.599 658.102C565.557 658.161 565.498 658.206 565.43 658.23C562.777 659.237 560.697 658.767 559.19 656.82C556.87 653.82 554.273 650.667 551.4 647.36C551.315 647.259 551.201 647.187 551.073 647.153C550.946 647.119 550.811 647.126 550.687 647.172C550.563 647.218 550.457 647.301 550.382 647.41C550.307 647.519 550.268 647.648 550.27 647.78V656.09C550.271 656.329 550.344 656.562 550.479 656.758C550.615 656.954 550.807 657.105 551.03 657.19L552.08 657.58C552.152 657.609 552.213 657.66 552.255 657.726C552.296 657.792 552.316 657.869 552.31 657.946C552.304 658.023 552.274 658.095 552.224 658.151C552.173 658.208 552.105 658.246 552.03 658.26C549.643 658.787 547.387 658.783 545.26 658.25C545.205 658.236 545.155 658.208 545.116 658.167C545.076 658.126 545.049 658.075 545.038 658.02C545.026 657.964 545.031 657.907 545.051 657.854C545.071 657.801 545.105 657.754 545.15 657.72L546.31 656.8C546.416 656.712 546.502 656.603 546.561 656.48C546.619 656.358 546.65 656.224 546.65 656.09V636.91C546.65 636.646 546.57 636.388 546.42 636.171C546.269 635.955 546.057 635.79 545.81 635.7L544.57 635.24C544.501 635.212 544.444 635.161 544.407 635.095C544.371 635.029 544.358 634.954 544.371 634.881C544.384 634.808 544.422 634.743 544.479 634.697C544.535 634.652 544.607 634.628 544.68 634.63H552.24Z" fill="black"/>
<path d="M613.37 634.63H619.37C619.434 634.627 619.498 634.645 619.55 634.683C619.602 634.721 619.639 634.776 619.655 634.838C619.672 634.9 619.666 634.966 619.64 635.025C619.613 635.083 619.567 635.131 619.51 635.16C618.963 635.467 618.347 635.647 617.66 635.7C617.429 635.715 617.213 635.818 617.055 635.987C616.897 636.156 616.809 636.379 616.81 636.61V658.16C616.81 658.277 616.775 658.392 616.708 658.488C616.642 658.585 616.548 658.66 616.439 658.702C616.329 658.744 616.21 658.752 616.096 658.725C615.982 658.698 615.879 658.637 615.8 658.55L598.65 640.02C598.571 639.932 598.467 639.871 598.352 639.844C598.237 639.817 598.116 639.826 598.006 639.87C597.896 639.913 597.803 639.989 597.737 640.088C597.672 640.186 597.638 640.302 597.64 640.42V656.7C597.639 656.842 597.69 656.98 597.784 657.087C597.878 657.194 598.009 657.263 598.15 657.28L599.88 657.49C599.967 657.5 600.048 657.541 600.108 657.606C600.168 657.671 600.202 657.754 600.206 657.842C600.21 657.93 600.182 658.016 600.128 658.086C600.073 658.155 599.996 658.202 599.91 658.22C597.85 658.613 595.81 658.62 593.79 658.24C593.711 658.226 593.639 658.185 593.588 658.124C593.536 658.063 593.508 657.985 593.508 657.905C593.508 657.825 593.536 657.747 593.588 657.686C593.639 657.625 593.711 657.584 593.79 657.57L596.38 657.04C596.5 657.014 596.607 656.947 596.682 656.85C596.757 656.753 596.795 656.632 596.79 656.51C596.637 653.39 596.607 648.647 596.7 642.28C596.75 639.24 597.14 637.03 594 635.44C593.936 635.408 593.883 635.357 593.849 635.294C593.816 635.231 593.803 635.158 593.813 635.087C593.823 635.016 593.855 634.95 593.905 634.899C593.955 634.847 594.019 634.813 594.09 634.8C596.583 634.313 598.44 634.713 599.66 636C604.733 641.34 609.783 646.93 614.81 652.77C614.878 652.846 614.968 652.9 615.067 652.925C615.167 652.95 615.271 652.944 615.367 652.908C615.463 652.872 615.546 652.809 615.606 652.725C615.665 652.642 615.698 652.542 615.7 652.44V636.6C615.699 636.365 615.617 636.138 615.468 635.958C615.318 635.777 615.11 635.654 614.88 635.61C614.033 635.443 613.497 635.323 613.27 635.25C613.2 635.224 613.142 635.175 613.104 635.111C613.067 635.047 613.053 634.972 613.065 634.899C613.077 634.826 613.114 634.759 613.169 634.71C613.225 634.661 613.296 634.632 613.37 634.63Z" fill="black"/>
<path d="M685.09 635.83C683.81 635.897 682.767 635.667 681.96 635.14C681.909 635.109 681.87 635.062 681.849 635.006C681.828 634.95 681.826 634.889 681.843 634.832C681.86 634.775 681.895 634.725 681.944 634.691C681.992 634.656 682.05 634.638 682.11 634.64H687.37C687.459 634.641 687.546 634.669 687.619 634.722C687.691 634.774 687.746 634.848 687.774 634.932C687.803 635.017 687.804 635.109 687.778 635.194C687.753 635.28 687.701 635.355 687.63 635.41C686.3 636.42 685.48 637.46 685.04 639.29C684.567 641.263 683.64 644.427 682.26 648.78C681.947 649.76 681.5 650.713 680.92 651.64C680.874 651.72 680.84 651.804 680.82 651.89L679.36 658.46C679.327 658.597 679.251 658.721 679.143 658.812C679.035 658.904 678.901 658.959 678.761 658.969C678.621 658.979 678.482 658.944 678.365 658.868C678.248 658.793 678.158 658.681 678.11 658.55C676.63 654.717 675.083 650.143 673.47 644.83C673.37 644.49 673.053 644.07 672.52 643.57C672.461 643.511 672.416 643.439 672.39 643.36L670.42 636.46C670.374 636.299 670.287 636.154 670.168 636.038C670.048 635.922 669.901 635.84 669.74 635.8L667.87 635.35C667.79 635.333 667.721 635.287 667.674 635.221C667.627 635.156 667.607 635.074 667.617 634.993C667.627 634.912 667.666 634.837 667.727 634.781C667.789 634.725 667.868 634.693 667.95 634.69H676.34C676.428 634.69 676.512 634.721 676.579 634.778C676.646 634.834 676.691 634.913 676.705 634.999C676.719 635.086 676.703 635.174 676.658 635.25C676.613 635.325 676.543 635.382 676.46 635.41L674.66 636.01C674.472 636.074 674.317 636.21 674.229 636.388C674.14 636.566 674.127 636.772 674.19 636.96L679.09 651.64C679.131 651.759 679.208 651.863 679.31 651.937C679.412 652.011 679.534 652.053 679.66 652.056C679.786 652.06 679.91 652.024 680.015 651.955C680.121 651.886 680.203 651.787 680.25 651.67C682.27 646.637 683.67 641.75 684.45 637.01C684.463 636.925 684.493 636.844 684.537 636.772C684.582 636.699 684.641 636.638 684.71 636.59L685.23 636.22C685.269 636.195 685.298 636.158 685.313 636.114C685.328 636.07 685.327 636.023 685.311 635.979C685.295 635.934 685.265 635.896 685.225 635.869C685.185 635.842 685.138 635.828 685.09 635.83Z" fill="black"/>
<path d="M581.26 646.5C581.247 651.913 581.277 655.2 581.35 656.36C581.364 656.623 581.47 656.873 581.649 657.067C581.828 657.26 582.069 657.385 582.33 657.42C583.49 657.58 584.13 657.703 584.25 657.79C584.293 657.82 584.325 657.863 584.343 657.912C584.361 657.962 584.364 658.015 584.351 658.066C584.338 658.117 584.31 658.163 584.271 658.197C584.231 658.232 584.182 658.254 584.13 658.26C580.897 658.633 577.847 658.603 574.98 658.17C574.935 658.169 574.892 658.149 574.861 658.117C574.83 658.084 574.814 658.04 574.815 657.995C574.816 657.95 574.835 657.907 574.868 657.876C574.901 657.845 574.945 657.829 574.99 657.83C575.863 657.737 576.583 657.513 577.15 657.16C577.305 657.064 577.435 656.934 577.531 656.779C577.626 656.625 577.684 656.45 577.7 656.27C577.74 655.803 577.767 652.57 577.78 646.57C577.787 641.157 577.757 637.87 577.69 636.71C577.676 636.447 577.57 636.197 577.391 636.003C577.212 635.809 576.971 635.685 576.71 635.65C575.55 635.49 574.91 635.367 574.79 635.28C574.747 635.25 574.715 635.207 574.697 635.158C574.678 635.108 574.676 635.055 574.689 635.004C574.702 634.953 574.73 634.907 574.769 634.873C574.809 634.838 574.858 634.816 574.91 634.81C578.143 634.437 581.193 634.467 584.06 634.9C584.082 634.901 584.104 634.906 584.125 634.915C584.145 634.924 584.163 634.937 584.179 634.953C584.194 634.97 584.206 634.989 584.214 635.01C584.222 635.03 584.226 635.053 584.225 635.075C584.224 635.097 584.219 635.119 584.21 635.14C584.201 635.16 584.188 635.178 584.172 635.194C584.155 635.209 584.136 635.221 584.115 635.229C584.094 635.237 584.072 635.241 584.05 635.24C583.177 635.333 582.457 635.557 581.89 635.91C581.735 636.006 581.604 636.136 581.509 636.291C581.413 636.445 581.355 636.62 581.34 636.8C581.3 637.267 581.273 640.5 581.26 646.5Z" fill="black"/>
<path d="M641.45 658.24C641.369 658.225 641.295 658.182 641.243 658.118C641.191 658.054 641.162 657.974 641.164 657.891C641.165 657.808 641.195 657.729 641.249 657.666C641.304 657.604 641.378 657.563 641.46 657.55C642.167 657.403 642.757 657.19 643.23 656.91C643.371 656.826 643.478 656.696 643.533 656.542C643.588 656.389 643.587 656.222 643.53 656.07L637.36 639.84C637.331 639.764 637.28 639.698 637.213 639.651C637.146 639.604 637.067 639.579 636.985 639.579C636.903 639.579 636.824 639.604 636.756 639.651C636.689 639.698 636.638 639.764 636.61 639.84L633.72 647.57C633.671 647.704 633.657 647.848 633.679 647.989C633.701 648.13 633.758 648.262 633.846 648.374C633.933 648.485 634.047 648.572 634.178 648.626C634.308 648.679 634.45 648.698 634.59 648.68C636.31 648.48 637.787 648.51 639.02 648.77C639.096 648.79 639.163 648.834 639.21 648.897C639.258 648.959 639.283 649.036 639.282 649.114C639.281 649.192 639.253 649.268 639.204 649.329C639.155 649.39 639.086 649.433 639.01 649.45C637.463 649.737 635.843 649.613 634.15 649.08C633.92 649.008 633.671 649.025 633.456 649.13C633.24 649.234 633.073 649.417 632.99 649.64L630.57 656.1C630.503 656.279 630.511 656.477 630.591 656.651C630.672 656.826 630.819 656.962 631 657.03L632.92 657.74C632.965 657.759 633.004 657.791 633.03 657.833C633.056 657.874 633.069 657.923 633.067 657.972C633.065 658.021 633.047 658.068 633.018 658.107C632.988 658.146 632.947 658.175 632.9 658.19C631.2 658.663 629.457 658.723 627.67 658.37C627.598 658.357 627.53 658.326 627.473 658.28C627.416 658.234 627.372 658.174 627.345 658.105C627.318 658.037 627.309 657.963 627.319 657.891C627.328 657.818 627.356 657.749 627.4 657.69C627.587 657.43 627.957 657.183 628.51 656.95C628.756 656.846 628.978 656.693 629.162 656.501C629.346 656.308 629.488 656.08 629.58 655.83L637 635.98C637.09 635.738 637.242 635.523 637.439 635.355C637.636 635.188 637.873 635.075 638.127 635.026C638.381 634.976 638.644 634.993 638.889 635.075C639.135 635.156 639.356 635.299 639.53 635.49C639.59 635.55 640.07 637.72 640.32 638.43C640.547 639.083 642.927 645.077 647.46 656.41C647.523 656.568 647.618 656.71 647.741 656.829C647.863 656.948 648.009 657.04 648.17 657.1L649.62 657.65C649.687 657.677 649.745 657.725 649.784 657.787C649.823 657.848 649.842 657.92 649.837 657.992C649.833 658.064 649.805 658.132 649.759 658.185C649.713 658.239 649.65 658.276 649.58 658.29C646.8 658.897 644.09 658.88 641.45 658.24Z" fill="black"/>
<path d="M671.74 643.5L671.98 643.64C672.006 643.657 672.026 643.683 672.037 643.714C672.047 643.744 672.049 643.778 672.04 643.81L667.23 657.85C667.17 658.022 667.059 658.171 666.912 658.278C666.764 658.385 666.588 658.444 666.406 658.447C666.224 658.451 666.045 658.398 665.894 658.296C665.743 658.195 665.626 658.05 665.56 657.88L657.46 636.55C657.355 636.276 657.178 636.04 656.95 635.87L656.09 635.27C656.043 635.237 656.008 635.189 655.99 635.135C655.972 635.08 655.972 635.021 655.99 634.966C656.008 634.912 656.043 634.864 656.089 634.83C656.136 634.797 656.193 634.779 656.25 634.78H663.74C663.78 634.779 663.82 634.793 663.851 634.819C663.882 634.844 663.903 634.88 663.91 634.92C663.917 634.959 663.91 635 663.89 635.035C663.87 635.07 663.838 635.096 663.8 635.11C662.047 635.683 661.313 636.34 661.6 637.08C663.533 642.227 665.467 647.337 667.4 652.41C667.43 652.486 667.482 652.552 667.549 652.597C667.617 652.643 667.697 652.667 667.779 652.666C667.86 652.665 667.94 652.639 668.006 652.591C668.072 652.544 668.123 652.477 668.15 652.4L671.44 643.6C671.45 643.572 671.466 643.547 671.487 643.526C671.509 643.506 671.534 643.49 671.563 643.481C671.592 643.471 671.623 643.468 671.653 643.471C671.684 643.475 671.713 643.484 671.74 643.5Z" fill="black"/>
<path d="M709.06 658.26C708.979 658.245 708.905 658.202 708.853 658.138C708.801 658.074 708.773 657.993 708.774 657.911C708.775 657.828 708.805 657.749 708.86 657.686C708.914 657.624 708.988 657.583 709.07 657.57C709.777 657.423 710.367 657.207 710.84 656.92C710.977 656.835 711.081 656.706 711.134 656.555C711.187 656.403 711.185 656.239 711.13 656.09L704.95 639.89C704.922 639.813 704.87 639.747 704.803 639.701C704.736 639.654 704.657 639.629 704.575 639.629C704.493 639.629 704.414 639.654 704.347 639.701C704.28 639.747 704.228 639.813 704.2 639.89L701.33 647.62C701.283 647.753 701.271 647.896 701.294 648.036C701.317 648.175 701.375 648.306 701.462 648.416C701.549 648.526 701.662 648.612 701.792 648.665C701.921 648.718 702.061 648.737 702.2 648.72C703.913 648.52 705.387 648.55 706.62 648.81C706.692 648.833 706.754 648.878 706.798 648.939C706.842 649 706.865 649.074 706.864 649.149C706.863 649.224 706.837 649.297 706.792 649.356C706.746 649.416 706.682 649.459 706.61 649.48C705.063 649.773 703.447 649.653 701.76 649.12C701.53 649.048 701.282 649.065 701.066 649.17C700.85 649.274 700.683 649.457 700.6 649.68L698.19 656.14C698.157 656.229 698.142 656.324 698.147 656.419C698.151 656.514 698.174 656.607 698.215 656.694C698.256 656.78 698.314 656.858 698.385 656.923C698.456 656.987 698.539 657.037 698.63 657.07L700.54 657.77C700.585 657.789 700.624 657.821 700.65 657.863C700.676 657.904 700.689 657.953 700.687 658.002C700.685 658.051 700.668 658.098 700.638 658.137C700.608 658.176 700.567 658.205 700.52 658.22C698.827 658.693 697.087 658.757 695.3 658.41C695.228 658.397 695.16 658.366 695.103 658.32C695.046 658.273 695.002 658.213 694.975 658.145C694.948 658.077 694.939 658.003 694.949 657.931C694.958 657.858 694.986 657.789 695.03 657.73C695.217 657.47 695.587 657.223 696.14 656.99C696.386 656.886 696.609 656.733 696.793 656.54C696.977 656.348 697.119 656.119 697.21 655.87L704.58 636.04C704.671 635.8 704.822 635.586 705.019 635.421C705.216 635.255 705.451 635.143 705.704 635.093C705.956 635.044 706.217 635.061 706.461 635.14C706.705 635.22 706.925 635.361 707.1 635.55C707.16 635.61 707.65 637.77 707.9 638.48C708.127 639.133 710.513 645.113 715.06 656.42C715.123 656.577 715.218 656.72 715.341 656.839C715.463 656.958 715.609 657.05 715.77 657.11L717.22 657.65C717.287 657.677 717.345 657.725 717.384 657.787C717.423 657.848 717.442 657.92 717.437 657.992C717.433 658.064 717.405 658.131 717.359 658.185C717.313 658.239 717.25 658.276 717.18 658.29C714.407 658.903 711.7 658.893 709.06 658.26Z" fill="black"/>
</svg>
