<svg width="1250" height="830" viewBox="0 0 1250 830" fill="none" xmlns="http://www.w3.org/2000/svg">
<path d="M586.46 76.37C586.449 76.2904 586.467 76.2095 586.51 76.1416C586.553 76.0738 586.619 76.0235 586.696 75.9995C586.772 75.9755 586.855 75.9795 586.929 76.0107C587.003 76.0419 587.064 76.0984 587.1 76.17L605.47 109.85C605.587 110.064 605.761 110.241 605.973 110.361C606.185 110.481 606.427 110.539 606.67 110.53L621.36 109.94C621.528 109.933 621.694 109.891 621.845 109.818C621.997 109.745 622.132 109.641 622.243 109.514C622.353 109.387 622.436 109.238 622.488 109.078C622.539 108.917 622.557 108.748 622.54 108.58C620.82 90.28 619.52 73.29 616.89 55.37C616.844 55.0627 616.685 54.7835 616.445 54.586C616.205 54.3885 615.901 54.2866 615.59 54.3L607.05 54.64C606.614 54.6582 606.203 54.8463 605.904 55.164C605.605 55.4817 605.442 55.9038 605.45 56.34C605.703 73.7467 605.83 84.0633 605.83 87.29C605.83 87.71 605.76 88.0533 605.62 88.32C605.597 88.3641 605.563 88.401 605.521 88.4269C605.478 88.4527 605.43 88.4663 605.38 88.4663C605.331 88.4663 605.282 88.4527 605.24 88.4269C605.197 88.401 605.163 88.3641 605.14 88.32C599.4 78.05 594.34 67.46 587.82 57.46C587.616 57.1458 587.333 56.8903 587 56.7185C586.667 56.5466 586.295 56.4645 585.92 56.48L573.13 57C573.038 57.0039 572.948 57.0258 572.864 57.0646C572.781 57.1034 572.706 57.1582 572.644 57.2261C572.582 57.2939 572.533 57.3733 572.502 57.4598C572.47 57.5462 572.456 57.6381 572.46 57.73L574.63 111.72C574.64 112.011 574.759 112.287 574.965 112.494C575.171 112.702 575.447 112.825 575.74 112.84C580.913 113.113 585.537 112.863 589.61 112.09C589.832 112.049 590.032 111.927 590.17 111.748C590.309 111.569 590.376 111.346 590.36 111.12C589.94 105.48 589.2 95.45 587.93 86.83C587.037 80.83 586.547 77.3433 586.46 76.37Z" stroke="#AEF0F3" stroke-width="2"/>
<path d="M681.64 111.47C681.007 108.27 680.34 105.083 679.64 101.91C679.602 101.753 679.519 101.61 679.401 101.5C679.284 101.39 679.138 101.317 678.98 101.29L664.87 98.86C664.643 98.8225 664.41 98.8597 664.206 98.9662C664.002 99.0726 663.839 99.2424 663.74 99.45L657.96 111.48C657.797 111.82 657.513 112.087 657.163 112.229C656.814 112.372 656.424 112.379 656.07 112.25C651.723 110.703 648.27 108.913 645.71 106.88C645.333 106.579 645.077 106.151 644.991 105.675C644.904 105.199 644.993 104.707 645.24 104.29L672.46 58.28C672.714 57.852 673.091 57.511 673.543 57.3021C673.995 57.0932 674.499 57.0262 674.99 57.11L681.3 58.2C681.615 58.2537 681.909 58.3957 682.148 58.6097C682.387 58.8237 682.561 59.1011 682.65 59.41C687.857 77.7434 692.403 95.76 696.29 113.46C696.349 113.716 696.303 113.985 696.163 114.208C696.022 114.431 695.798 114.59 695.54 114.65C692.093 115.477 688.636 115.917 685.17 115.97C682.15 116.02 682.2 114.24 681.64 111.47Z" stroke="#AEF0F3" stroke-width="2"/>
<path d="M549.35 118.88C549.949 118.712 550.457 118.314 550.762 117.772C551.068 117.23 551.146 116.589 550.98 115.99L537.23 66.67C537.072 66.0964 536.702 65.6041 536.196 65.2923C535.689 64.9805 535.083 64.8725 534.5 64.99L527.01 66.51C526.4 66.6353 525.865 66.9973 525.522 67.5166C525.179 68.0359 525.056 68.6701 525.18 69.28L535.5 120.13C535.564 120.446 535.692 120.746 535.877 121.01C536.061 121.275 536.298 121.498 536.573 121.667C536.848 121.836 537.155 121.947 537.474 121.992C537.794 122.037 538.119 122.016 538.43 121.93L549.35 118.88Z" stroke="#AEF0F3" stroke-width="2"/>
<path d="M763.48 112C763.44 112.547 763.483 113.003 763.61 113.37C763.632 113.438 763.674 113.497 763.73 113.541C763.785 113.585 763.853 113.612 763.925 113.619C763.997 113.625 764.069 113.61 764.134 113.577C764.199 113.544 764.253 113.493 764.29 113.43L780.3 85.69C780.524 85.3063 780.89 85.0268 781.319 84.9124C781.748 84.7981 782.205 84.8584 782.59 85.08L790.48 89.64C790.805 89.8251 791.048 90.1255 791.163 90.4825C791.278 90.8395 791.255 91.2273 791.1 91.57C788.067 98.2634 785.42 103.707 783.16 107.9C776.973 119.393 771.32 129.62 766.2 138.58C765.962 139.001 765.58 139.322 765.125 139.485C764.67 139.648 764.172 139.643 763.72 139.47L751.5 134.85C751.168 134.726 750.884 134.498 750.691 134.199C750.499 133.9 750.407 133.546 750.43 133.19C750.923 126.223 751.547 118.83 752.3 111.01C752.347 110.557 752.27 110.077 752.07 109.57C752.053 109.525 752.024 109.486 751.986 109.457C751.948 109.428 751.903 109.41 751.855 109.405C751.808 109.399 751.76 109.407 751.716 109.428C751.673 109.448 751.636 109.48 751.61 109.52L738.57 128.22C738.369 128.508 738.09 128.734 737.767 128.872C737.443 129.01 737.088 129.054 736.74 129C732.44 128.32 729.39 126.76 722.84 124.22C722.689 124.164 722.562 124.055 722.483 123.914C722.404 123.773 722.379 123.609 722.41 123.45C725.857 106.023 729.527 89.0034 733.42 72.39C733.893 70.37 735.153 69.5734 737.2 70C742.667 71.1467 745.49 71.74 745.67 71.78C745.778 71.7981 745.88 71.8374 745.972 71.8957C746.065 71.954 746.144 72.03 746.207 72.1194C746.269 72.2088 746.313 72.3097 746.336 72.4163C746.359 72.5228 746.36 72.6329 746.34 72.74L740.32 104.41C740.307 104.469 740.315 104.531 740.343 104.585C740.371 104.638 740.417 104.681 740.472 104.704C740.528 104.728 740.59 104.732 740.648 104.714C740.706 104.697 740.756 104.66 740.79 104.61L755.43 85.12C755.54 84.9756 755.692 84.8704 755.865 84.8199C756.038 84.7694 756.223 84.7765 756.39 84.84L764.79 88.02C765.014 88.1029 765.205 88.2579 765.331 88.4605C765.458 88.6632 765.514 88.9022 765.49 89.14C764.457 99.98 763.787 107.6 763.48 112Z" stroke="#AEF0F3" stroke-width="2"/>
<path d="M480.9 118.38L507.57 130.78C507.885 130.925 508.242 130.947 508.573 130.844C508.903 130.741 509.184 130.518 509.36 130.22L512.99 123.93C513.063 123.802 513.11 123.661 513.129 123.515C513.147 123.368 513.137 123.22 513.098 123.078C513.059 122.936 512.992 122.803 512.902 122.686C512.811 122.57 512.698 122.473 512.57 122.4L486.64 107.42C486.497 107.338 486.389 107.205 486.337 107.049C486.286 106.892 486.294 106.721 486.36 106.57L496.34 83.78C496.45 83.5267 496.507 83.2537 496.509 82.9776C496.51 82.7015 496.455 82.428 496.348 82.1737C496.24 81.9194 496.082 81.6896 495.883 81.4981C495.684 81.3067 495.448 81.1576 495.19 81.06L486.87 77.92C486.656 77.836 486.418 77.838 486.206 77.9256C485.993 78.0132 485.823 78.1796 485.73 78.39L474.64 103.73C474.577 103.873 474.473 103.996 474.342 104.082C474.211 104.168 474.058 104.215 473.902 104.217C473.745 104.22 473.591 104.177 473.457 104.094C473.324 104.011 473.218 103.892 473.15 103.75L465.99 88.71C465.8 88.3096 465.465 87.9966 465.053 87.8349C464.64 87.6733 464.181 87.6751 463.77 87.84L456.18 90.9C455.835 91.0395 455.547 91.2908 455.362 91.6135C455.177 91.9363 455.106 92.3119 455.16 92.68C455.454 94.6666 456.007 96.7567 456.82 98.95C466.08 124.01 471.53 138.757 473.17 143.19C473.228 143.347 473.316 143.491 473.431 143.614C473.545 143.736 473.683 143.834 473.836 143.902C473.989 143.97 474.154 144.007 474.321 144.01C474.489 144.013 474.655 143.982 474.81 143.92L487.17 138.93C487.472 138.808 487.714 138.571 487.841 138.271C487.969 137.971 487.972 137.632 487.85 137.33L480.4 118.86C480.37 118.791 480.362 118.714 480.377 118.64C480.392 118.566 480.429 118.499 480.484 118.447C480.538 118.394 480.607 118.36 480.682 118.348C480.756 118.336 480.832 118.347 480.9 118.38Z" stroke="#AEF0F3" stroke-width="2"/>
<path d="M400.61 124.67C400.584 124.769 400.536 124.86 400.47 124.937C400.404 125.015 400.321 125.077 400.228 125.118C400.135 125.159 400.034 125.179 399.932 125.176C399.83 125.173 399.73 125.147 399.64 125.1C398.02 124.29 396.75 123.84 395.3 125.24C387.05 133.16 395.3 148.87 400.21 156.84C404.277 163.433 408.483 167.87 412.83 170.15C419.89 173.857 427.363 173.16 435.25 168.06C439.463 165.333 442.817 162.347 445.31 159.1C449.09 154.18 447.44 149.85 445.94 143.37C445.473 141.37 444.397 138.967 442.71 136.16C438.943 129.907 436.343 126.057 434.91 124.61C430.363 120.01 427.05 117.213 424.97 116.22C415.763 111.833 407.973 113.537 401.6 121.33C401.534 121.409 401.486 121.505 401.46 121.61L400.61 124.67Z" stroke="#AEF0F3" stroke-width="2"/>
<path d="M823.3 168.65C824.08 165.483 824.827 162.317 825.54 159.15C825.573 158.993 825.56 158.83 825.501 158.681C825.443 158.531 825.341 158.402 825.21 158.31L813.47 150.12C813.281 149.988 813.053 149.921 812.822 149.93C812.591 149.939 812.369 150.023 812.19 150.17L801.85 158.61C801.559 158.847 801.191 158.968 800.816 158.949C800.441 158.931 800.087 158.774 799.82 158.51C796.54 155.263 794.173 152.177 792.72 149.25C792.504 148.817 792.453 148.321 792.576 147.852C792.7 147.383 792.989 146.974 793.39 146.7L837.56 116.6C837.973 116.32 838.46 116.173 838.958 116.176C839.457 116.18 839.942 116.335 840.35 116.62L845.6 120.28C845.863 120.462 846.07 120.716 846.195 121.011C846.321 121.307 846.361 121.632 846.31 121.95C843.237 140.757 839.704 158.997 835.71 176.67C835.655 176.926 835.501 177.15 835.279 177.292C835.058 177.434 834.789 177.484 834.53 177.43C831.057 176.717 827.74 175.647 824.58 174.22C821.83 172.99 822.63 171.4 823.3 168.65Z" stroke="#AEF0F3" stroke-width="2"/>
<path d="M675.51 76.04C675.498 75.9267 675.449 75.8206 675.37 75.7384C675.291 75.6563 675.187 75.6029 675.075 75.5868C674.962 75.5707 674.847 75.5928 674.748 75.6496C674.649 75.7063 674.573 75.7945 674.53 75.9L669.1 88.29C669.067 88.3654 669.054 88.4474 669.06 88.5291C669.066 88.6108 669.092 88.6898 669.135 88.7595C669.178 88.8291 669.238 88.8874 669.308 88.9293C669.378 88.9711 669.458 88.9954 669.54 89L676.72 89.42C676.795 89.425 676.87 89.4134 676.939 89.386C677.009 89.3587 677.072 89.3163 677.124 89.2619C677.175 89.2075 677.214 89.1423 677.238 89.0711C677.261 88.9999 677.269 88.9245 677.26 88.85L675.51 76.04Z" stroke="#AEF0F3" stroke-width="2"/>
<path d="M408.73 128.27C405.23 130.68 404.57 134.36 406.11 138.15C408.47 144 419.81 163.55 428.76 157.39C437.72 151.24 423.51 133.65 418.89 129.35C415.9 126.56 412.23 125.86 408.73 128.27Z" stroke="#AEF0F3" stroke-width="2"/>
<path d="M821.97 142.14C821.904 142.199 821.852 142.273 821.82 142.355C821.787 142.438 821.774 142.527 821.782 142.615C821.79 142.703 821.818 142.789 821.865 142.864C821.911 142.94 821.975 143.003 822.05 143.05L828.3 146.88C828.376 146.927 828.462 146.955 828.55 146.963C828.639 146.97 828.728 146.957 828.811 146.924C828.893 146.891 828.967 146.839 829.026 146.772C829.085 146.706 829.127 146.626 829.15 146.54L832.29 134.39C832.321 134.272 832.313 134.147 832.267 134.033C832.222 133.92 832.141 133.824 832.036 133.76C831.932 133.696 831.81 133.668 831.688 133.678C831.567 133.689 831.452 133.739 831.36 133.82L821.97 142.14Z" stroke="#AEF0F3" stroke-width="2"/>
<path d="M768.445 647.107C768.467 647.083 768.492 647.069 768.519 647.065C768.547 647.06 768.575 647.066 768.604 647.082C768.632 647.098 768.659 647.124 768.684 647.158C768.709 647.192 768.731 647.233 768.749 647.279C768.766 647.326 768.78 647.376 768.788 647.428C768.796 647.48 768.798 647.532 768.795 647.582C768.792 647.631 768.783 647.677 768.77 647.717C768.756 647.757 768.737 647.789 768.715 647.813C768.693 647.837 768.668 647.851 768.641 647.855C768.613 647.86 768.585 647.853 768.556 647.837C768.528 647.821 768.501 647.796 768.476 647.762C768.451 647.728 768.429 647.687 768.411 647.641C768.394 647.594 768.38 647.544 768.372 647.492C768.364 647.44 768.362 647.388 768.365 647.338C768.368 647.288 768.377 647.242 768.39 647.203C768.404 647.163 768.423 647.131 768.445 647.107Z" stroke="#354F77" stroke-width="2"/>
<path d="M872.76 623.71C872.802 623.702 872.84 623.681 872.87 623.652C872.9 623.623 872.921 623.585 872.93 623.544C872.94 623.503 872.937 623.46 872.923 623.42C872.909 623.38 872.884 623.346 872.85 623.32C872.61 623.14 872.357 623.073 872.09 623.12C872.037 623.125 871.987 623.149 871.95 623.187C871.912 623.225 871.889 623.275 871.884 623.328C871.879 623.382 871.893 623.435 871.924 623.479C871.954 623.523 871.999 623.555 872.05 623.57C872.39 623.683 872.627 623.73 872.76 623.71Z" stroke="#354F77" stroke-width="2"/>
<path d="M808.831 634.658C808.816 634.562 808.837 634.486 808.888 634.449C808.914 634.43 808.946 634.421 808.983 634.423C809.02 634.424 809.061 634.436 809.105 634.457C809.148 634.479 809.192 634.509 809.235 634.547C809.278 634.585 809.318 634.629 809.354 634.678C809.426 634.777 809.474 634.886 809.489 634.982C809.504 635.078 809.483 635.154 809.432 635.191C809.406 635.21 809.374 635.219 809.337 635.217C809.3 635.216 809.258 635.204 809.215 635.183C809.172 635.161 809.128 635.131 809.085 635.093C809.042 635.055 809.002 635.01 808.966 634.962C808.894 634.863 808.845 634.754 808.831 634.658Z" stroke="#354F77" stroke-width="2"/>
<path d="M586.46 76.37C586.547 77.3433 587.037 80.83 587.93 86.83C589.2 95.45 589.94 105.48 590.36 111.12C590.376 111.346 590.309 111.569 590.17 111.748C590.032 111.927 589.832 112.049 589.61 112.09C585.537 112.863 580.913 113.113 575.74 112.84C575.447 112.825 575.171 112.702 574.965 112.494C574.759 112.287 574.64 112.011 574.63 111.72L572.46 57.73C572.456 57.6381 572.47 57.5462 572.502 57.4598C572.533 57.3733 572.582 57.2939 572.644 57.2261C572.706 57.1582 572.781 57.1034 572.864 57.0646C572.948 57.0258 573.038 57.0039 573.13 57L585.92 56.48C586.295 56.4645 586.667 56.5466 587 56.7185C587.333 56.8903 587.616 57.1458 587.82 57.46C594.34 67.46 599.4 78.05 605.14 88.32C605.163 88.3641 605.197 88.401 605.24 88.4269C605.282 88.4527 605.331 88.4663 605.38 88.4663C605.43 88.4663 605.478 88.4527 605.521 88.4269C605.563 88.401 605.597 88.3641 605.62 88.32C605.76 88.0533 605.83 87.71 605.83 87.29C605.83 84.0633 605.703 73.7467 605.45 56.34C605.442 55.9038 605.605 55.4817 605.904 55.164C606.203 54.8463 606.614 54.6582 607.05 54.64L615.59 54.3C615.901 54.2866 616.205 54.3885 616.445 54.586C616.685 54.7835 616.844 55.0627 616.89 55.37C619.52 73.29 620.82 90.28 622.54 108.58C622.557 108.748 622.539 108.917 622.488 109.078C622.436 109.238 622.353 109.387 622.243 109.514C622.132 109.641 621.997 109.745 621.845 109.818C621.694 109.891 621.528 109.933 621.36 109.94L606.67 110.53C606.427 110.539 606.185 110.481 605.973 110.361C605.761 110.241 605.587 110.064 605.47 109.85L587.1 76.17C587.064 76.0984 587.003 76.0419 586.929 76.0107C586.855 75.9795 586.772 75.9755 586.696 75.9995C586.619 76.0235 586.553 76.0738 586.51 76.1416C586.467 76.2095 586.449 76.2904 586.46 76.37Z" fill="#5CE1E6"/>
<path d="M679.64 101.91C679.602 101.753 679.519 101.61 679.401 101.5C679.284 101.39 679.138 101.317 678.98 101.29L664.87 98.8601C664.643 98.8225 664.41 98.8598 664.206 98.9662C664.002 99.0727 663.839 99.2425 663.74 99.4501L657.96 111.48C657.797 111.82 657.513 112.087 657.163 112.229C656.814 112.372 656.424 112.379 656.07 112.25C651.723 110.703 648.27 108.913 645.71 106.88C645.333 106.579 645.077 106.151 644.991 105.675C644.904 105.199 644.993 104.707 645.24 104.29L672.46 58.2801C672.714 57.852 673.091 57.5111 673.543 57.3022C673.995 57.0933 674.499 57.0263 674.99 57.1101L681.3 58.2001C681.615 58.2537 681.909 58.3957 682.148 58.6098C682.387 58.8238 682.561 59.1012 682.65 59.4101C687.857 77.7434 692.403 95.7601 696.29 113.46C696.349 113.716 696.303 113.985 696.163 114.208C696.022 114.431 695.798 114.59 695.54 114.65C692.093 115.477 688.636 115.917 685.17 115.97C682.15 116.02 682.2 114.24 681.64 111.47C681.007 108.27 680.34 105.083 679.64 101.91ZM675.51 76.0401C675.498 75.9268 675.449 75.8206 675.37 75.7385C675.291 75.6563 675.187 75.6029 675.075 75.5868C674.962 75.5707 674.847 75.5928 674.748 75.6496C674.65 75.7064 674.573 75.7945 674.53 75.9001L669.1 88.2901C669.068 88.3654 669.054 88.4474 669.06 88.5291C669.066 88.6108 669.092 88.6899 669.135 88.7595C669.178 88.8292 669.238 88.8874 669.308 88.9293C669.379 88.9712 669.458 88.9954 669.54 89.0001L676.72 89.4201C676.795 89.425 676.87 89.4134 676.939 89.3861C677.009 89.3588 677.072 89.3164 677.124 89.2619C677.175 89.2075 677.214 89.1424 677.238 89.0712C677.261 89 677.269 88.9245 677.26 88.8501L675.51 76.0401Z" fill="#5CE1E6"/>
<path d="M549.35 118.88L538.43 121.93C538.119 122.016 537.794 122.037 537.474 121.992C537.155 121.947 536.848 121.836 536.573 121.667C536.298 121.498 536.061 121.275 535.877 121.01C535.692 120.746 535.564 120.446 535.5 120.13L525.18 69.2799C525.056 68.67 525.179 68.0358 525.522 67.5165C525.865 66.9972 526.4 66.6352 527.01 66.5099L534.5 64.9899C535.083 64.8724 535.689 64.9804 536.196 65.2922C536.702 65.604 537.072 66.0964 537.23 66.6699L550.98 115.99C551.146 116.589 551.068 117.23 550.762 117.772C550.457 118.313 549.949 118.712 549.35 118.88Z" fill="#5CE1E6"/>
<path d="M763.61 113.37C763.632 113.438 763.674 113.497 763.73 113.541C763.785 113.585 763.853 113.612 763.925 113.619C763.997 113.625 764.069 113.61 764.134 113.577C764.199 113.544 764.253 113.493 764.29 113.43L780.3 85.69C780.524 85.3063 780.89 85.0268 781.319 84.9124C781.748 84.7981 782.205 84.8584 782.59 85.08L790.48 89.64C790.805 89.8251 791.048 90.1255 791.163 90.4825C791.278 90.8395 791.255 91.2273 791.1 91.57C788.067 98.2634 785.42 103.707 783.16 107.9C776.973 119.393 771.32 129.62 766.2 138.58C765.962 139.001 765.58 139.322 765.125 139.485C764.67 139.648 764.172 139.643 763.72 139.47L751.5 134.85C751.168 134.726 750.884 134.498 750.691 134.199C750.499 133.9 750.407 133.546 750.43 133.19C750.923 126.223 751.547 118.83 752.3 111.01C752.347 110.557 752.27 110.077 752.07 109.57C752.053 109.525 752.024 109.486 751.986 109.457C751.948 109.428 751.903 109.41 751.855 109.405C751.808 109.399 751.76 109.407 751.716 109.428C751.673 109.448 751.636 109.48 751.61 109.52L738.57 128.22C738.369 128.508 738.09 128.734 737.767 128.872C737.443 129.01 737.088 129.054 736.74 129C732.44 128.32 729.39 126.76 722.84 124.22C722.689 124.164 722.562 124.055 722.483 123.914C722.404 123.773 722.379 123.609 722.41 123.45C725.857 106.023 729.527 89.0034 733.42 72.39C733.893 70.37 735.153 69.5734 737.2 70C742.667 71.1467 745.49 71.74 745.67 71.78C745.778 71.7981 745.88 71.8374 745.972 71.8957C746.065 71.954 746.144 72.03 746.207 72.1194C746.269 72.2088 746.313 72.3097 746.336 72.4163C746.359 72.5228 746.36 72.6329 746.34 72.74L740.32 104.41C740.307 104.469 740.315 104.531 740.343 104.585C740.371 104.638 740.417 104.681 740.472 104.704C740.528 104.728 740.59 104.732 740.648 104.714C740.706 104.697 740.756 104.66 740.79 104.61L755.43 85.12C755.54 84.9756 755.692 84.8704 755.865 84.8199C756.038 84.7694 756.223 84.7765 756.39 84.84L764.79 88.02C765.014 88.1029 765.205 88.2579 765.331 88.4605C765.458 88.6632 765.514 88.9022 765.49 89.14C764.457 99.98 763.787 107.6 763.48 112C763.44 112.547 763.483 113.003 763.61 113.37Z" fill="#5CE1E6"/>
<path d="M480.9 118.38C480.832 118.347 480.756 118.336 480.682 118.348C480.607 118.36 480.538 118.394 480.484 118.447C480.429 118.499 480.392 118.566 480.377 118.64C480.362 118.714 480.37 118.791 480.4 118.86L487.85 137.33C487.972 137.632 487.969 137.971 487.841 138.271C487.714 138.571 487.472 138.808 487.17 138.93L474.81 143.92C474.655 143.982 474.489 144.013 474.321 144.01C474.154 144.007 473.989 143.97 473.836 143.902C473.683 143.834 473.545 143.736 473.431 143.614C473.316 143.491 473.228 143.347 473.17 143.19C471.53 138.757 466.08 124.01 456.82 98.95C456.007 96.7567 455.454 94.6666 455.16 92.68C455.106 92.3119 455.177 91.9363 455.362 91.6135C455.547 91.2908 455.835 91.0395 456.18 90.9L463.77 87.84C464.181 87.6751 464.64 87.6733 465.053 87.8349C465.465 87.9966 465.8 88.3096 465.99 88.71L473.15 103.75C473.218 103.892 473.324 104.011 473.457 104.094C473.591 104.177 473.745 104.22 473.902 104.217C474.058 104.215 474.211 104.168 474.342 104.082C474.473 103.996 474.577 103.873 474.64 103.73L485.73 78.39C485.823 78.1796 485.993 78.0132 486.206 77.9256C486.418 77.838 486.656 77.836 486.87 77.92L495.19 81.06C495.448 81.1576 495.684 81.3067 495.883 81.4981C496.082 81.6896 496.24 81.9194 496.348 82.1737C496.455 82.428 496.51 82.7015 496.509 82.9776C496.507 83.2537 496.45 83.5267 496.34 83.78L486.36 106.57C486.294 106.721 486.286 106.892 486.337 107.049C486.389 107.205 486.497 107.338 486.64 107.42L512.57 122.4C512.698 122.473 512.811 122.57 512.902 122.686C512.992 122.803 513.059 122.936 513.098 123.078C513.137 123.22 513.147 123.368 513.129 123.515C513.11 123.661 513.063 123.802 512.99 123.93L509.36 130.22C509.184 130.518 508.903 130.741 508.573 130.844C508.242 130.947 507.885 130.925 507.57 130.78L480.9 118.38Z" fill="#5CE1E6"/>
<path d="M400.61 124.67L401.46 121.61C401.486 121.505 401.534 121.409 401.6 121.33C407.973 113.537 415.763 111.833 424.97 116.22C427.05 117.213 430.363 120.01 434.91 124.61C436.343 126.057 438.943 129.907 442.71 136.16C444.397 138.967 445.473 141.37 445.94 143.37C447.44 149.85 449.09 154.18 445.31 159.1C442.817 162.347 439.463 165.333 435.25 168.06C427.363 173.16 419.89 173.857 412.83 170.15C408.483 167.87 404.277 163.433 400.21 156.84C395.3 148.87 387.05 133.16 395.3 125.24C396.75 123.84 398.02 124.29 399.64 125.1C399.73 125.147 399.83 125.173 399.932 125.176C400.034 125.179 400.135 125.159 400.228 125.118C400.321 125.077 400.404 125.015 400.47 124.937C400.536 124.86 400.584 124.769 400.61 124.67ZM408.73 128.27C405.23 130.68 404.57 134.36 406.11 138.15C408.47 144 419.81 163.55 428.76 157.39C437.72 151.24 423.51 133.65 418.89 129.35C415.9 126.56 412.23 125.86 408.73 128.27Z" fill="#5CE1E6"/>
<path d="M825.54 159.15C825.573 158.993 825.56 158.83 825.501 158.681C825.443 158.531 825.341 158.402 825.21 158.31L813.47 150.12C813.281 149.988 813.053 149.921 812.822 149.93C812.591 149.939 812.369 150.023 812.19 150.17L801.85 158.61C801.559 158.847 801.191 158.968 800.816 158.949C800.441 158.931 800.087 158.774 799.82 158.51C796.54 155.263 794.173 152.177 792.72 149.25C792.504 148.817 792.453 148.321 792.576 147.852C792.7 147.383 792.989 146.974 793.39 146.7L837.56 116.6C837.973 116.32 838.46 116.173 838.958 116.176C839.457 116.18 839.942 116.335 840.35 116.62L845.6 120.28C845.863 120.462 846.07 120.716 846.195 121.011C846.321 121.307 846.361 121.632 846.31 121.95C843.237 140.757 839.704 158.997 835.71 176.67C835.655 176.926 835.501 177.15 835.279 177.292C835.058 177.434 834.789 177.484 834.53 177.43C831.057 176.717 827.74 175.647 824.58 174.22C821.83 172.99 822.63 171.4 823.3 168.65C824.08 165.483 824.827 162.317 825.54 159.15ZM821.97 142.14C821.904 142.199 821.853 142.273 821.82 142.355C821.787 142.438 821.774 142.527 821.782 142.615C821.79 142.703 821.818 142.789 821.865 142.864C821.911 142.94 821.975 143.003 822.05 143.05L828.3 146.88C828.376 146.927 828.462 146.955 828.55 146.963C828.639 146.97 828.728 146.957 828.811 146.924C828.893 146.891 828.967 146.839 829.026 146.772C829.085 146.706 829.128 146.626 829.15 146.54L832.29 134.39C832.321 134.272 832.313 134.147 832.267 134.033C832.222 133.92 832.141 133.824 832.036 133.76C831.932 133.696 831.81 133.668 831.688 133.678C831.567 133.689 831.452 133.739 831.36 133.82L821.97 142.14Z" fill="#5CE1E6"/>
<path d="M504.25 169.02C504.177 168.992 504.114 168.944 504.069 168.881C504.023 168.817 503.996 168.742 503.992 168.663C503.988 168.585 504.006 168.506 504.045 168.436C504.084 168.367 504.141 168.309 504.21 168.27C508.544 165.937 513.35 164.22 518.63 163.12C535.817 159.54 554.497 157.213 574.67 156.14C575.104 156.115 575.538 156.18 575.946 156.331C576.353 156.481 576.726 156.714 577.04 157.015C577.354 157.316 577.603 157.679 577.772 158.081C577.94 158.482 578.025 158.914 578.02 159.35V159.49C578.009 160.45 577.672 161.377 577.063 162.12C576.454 162.863 575.611 163.378 574.67 163.58C573.324 163.873 570.864 164.347 567.29 165C563.17 165.76 560.48 171.54 555.73 170.63C539.28 167.49 523.17 167.54 506.51 169.4C505.837 169.48 505.084 169.353 504.25 169.02Z" fill="#D80002"/>
<path d="M699.89 163.67C699.957 163.735 700.006 163.816 700.03 163.906C700.055 163.996 700.055 164.091 700.031 164.181C700.006 164.271 699.958 164.353 699.891 164.418C699.824 164.483 699.741 164.528 699.65 164.55C698.91 164.73 697.863 164.72 696.51 164.52C687.82 163.26 677.54 161.92 671.88 168.5C670.767 169.793 669.637 170.98 668.49 172.06C668.221 172.313 667.865 172.454 667.495 172.456C667.124 172.458 666.766 172.32 666.49 172.07C665.977 171.597 665.49 170.99 665.03 170.25C663.277 167.45 661.327 163.687 659.18 158.96C659.084 158.751 659.04 158.521 659.054 158.291C659.067 158.061 659.137 157.838 659.258 157.64C659.378 157.443 659.545 157.278 659.744 157.159C659.943 157.041 660.169 156.972 660.4 156.96C668.01 156.61 676.1 158.43 691.1 160.65C693.68 161.03 697.64 161.54 699.89 163.67Z" fill="#D80002"/>
<path d="M644.34 175.19C643.813 175.83 642.763 176.337 641.19 176.71C640.403 176.903 629.173 179.183 607.5 183.55C603.626 184.33 600.956 184.653 599.49 184.52C593.4 183.97 587.83 180.25 582.56 176.99C581.742 176.485 580.877 176.069 579.98 175.75C578.186 175.11 576.666 174.48 575.42 173.86C575.214 173.759 575.03 173.619 574.878 173.451C574.725 173.282 574.609 173.088 574.535 172.879C574.461 172.67 574.431 172.452 574.448 172.237C574.464 172.023 574.526 171.816 574.63 171.63C575.84 169.47 583.56 170.12 585.7 170.12C602.353 170.153 619.82 171.087 638.1 172.92C640.033 173.113 642.04 173.597 644.12 174.37C644.198 174.399 644.268 174.446 644.324 174.507C644.38 174.569 644.42 174.643 644.442 174.723C644.464 174.803 644.466 174.888 644.448 174.969C644.43 175.05 644.393 175.126 644.34 175.19Z" fill="#FF2116"/>
<path d="M662.62 302.6C662.467 301.553 662.657 300.49 663.19 299.41C669.92 285.65 669.48 270.34 664.88 256.09C659.38 239.06 653.95 220.25 659.66 202.49C662.307 194.27 666.76 186.943 673.02 180.51C674.76 178.72 676.45 175.7 678.21 174.73C680.437 173.497 682.557 173.483 684.57 174.69C706.323 187.73 720.827 206.063 728.08 229.69C733.82 248.38 731.34 268.16 724.43 286.15C722.1 292.22 714.31 294.59 708.62 295.8C696.5 298.36 684.26 301.207 671.9 304.34C669.75 304.89 667.39 305.08 665.05 304.72C664.424 304.621 663.851 304.362 663.414 303.981C662.976 303.599 662.698 303.116 662.62 302.6Z" fill="#D80002"/>
<path d="M707.87 174.18C708.623 173.873 709.753 173.817 711.26 174.01C737.4 177.37 760.51 185.75 772.31 210.83C775.203 216.977 776.793 223.277 777.08 229.73C777.767 244.97 773.057 258.227 762.95 269.5C760.56 272.16 756.09 275.63 751.93 278.96C749 281.32 745.69 283.41 741.99 283.28C741.425 283.26 740.882 283.058 740.443 282.705C740.005 282.351 739.695 281.865 739.56 281.32C738.69 277.74 740.08 272.48 741.04 268.83C742.027 265.11 742.583 262.397 742.71 260.69C744.83 232.19 734.96 205.74 715.44 185.02C713.987 183.473 711.287 180.763 707.34 176.89C707.144 176.699 706.998 176.462 706.917 176.2C706.835 175.938 706.82 175.661 706.872 175.392C706.925 175.123 707.044 174.871 707.218 174.66C707.392 174.448 707.616 174.283 707.87 174.18Z" fill="#FF2116"/>
<path d="M557.01 197.4C556.937 197.12 556.95 196.74 557.05 196.26C557.737 193.093 558.257 189.4 558.61 185.18C558.783 183.067 559.05 181.663 559.41 180.97C561.09 177.75 563.43 175.97 567.27 177.74C574.77 181.187 582.36 185.257 590.04 189.95C591.353 190.75 593.757 191.353 597.25 191.76C599.657 192.04 603.82 191.693 609.74 190.72C611.407 190.447 622.877 188 644.15 183.38C645.977 182.987 647.997 182.477 650.21 181.85C653.63 180.88 656.88 179.62 658.14 180.33C658.357 180.451 658.542 180.621 658.685 180.83C658.827 181.039 658.924 181.283 658.968 181.546C659.012 181.809 659.003 182.085 658.941 182.358C658.88 182.631 658.767 182.893 658.61 183.13C656.503 186.303 654.667 189.43 653.1 192.51C651.57 195.53 651.02 199.07 649.64 202.09C648.907 203.697 647.817 204.13 646.37 203.39C630.01 195.07 612.9 191.523 595.04 192.75C591.18 193.017 583.753 193.92 572.76 195.46C567.91 196.13 563.03 197.97 559 198.66C558.574 198.737 558.134 198.651 557.766 198.418C557.398 198.185 557.128 197.822 557.01 197.4Z" fill="#D80002"/>
<path d="M522.85 177.5C522.961 177.489 523.073 177.51 523.173 177.559C523.273 177.608 523.357 177.684 523.417 177.779C523.476 177.873 523.507 177.982 523.508 178.094C523.509 178.205 523.478 178.315 523.42 178.41C522.78 179.423 521.907 180.223 520.8 180.81C514.127 184.343 508.41 187.873 503.65 191.4C487.06 203.71 475.38 221.72 474.06 242.51C473.973 243.943 473.58 245.053 472.88 245.84C472.739 245.998 472.566 246.124 472.373 246.211C472.179 246.298 471.97 246.344 471.759 246.345C471.548 246.346 471.339 246.302 471.146 246.217C470.953 246.132 470.781 246.007 470.64 245.85C463.627 238.137 460.903 229.107 462.47 218.76C464.12 207.86 469.37 196.14 478.69 189.57C487.257 183.537 496.867 180.037 507.52 179.07C508.027 179.023 513.137 178.5 522.85 177.5Z" fill="#D80002"/>
<path d="M511.42 285.13C511.382 285.264 511.313 285.387 511.22 285.491C511.126 285.594 511.009 285.674 510.879 285.724C510.75 285.774 510.61 285.794 510.471 285.781C510.332 285.768 510.198 285.723 510.08 285.65C504.42 282.163 499.243 278.023 494.55 273.23C479.47 257.84 483.73 234.54 494.31 218.26C505.81 200.57 524.4 191.2 544.03 183.53C545.33 183.017 546.776 182.96 548.37 183.36C548.563 183.405 548.741 183.502 548.884 183.641C549.026 183.78 549.129 183.956 549.18 184.15C549.593 185.71 549.736 186.85 549.61 187.57C547.63 199.07 543.696 208.48 537.81 215.8C534.45 219.98 530.286 224.903 525.32 230.57C519.82 236.84 514.71 244.48 512.67 252.38C511.89 255.393 511.51 259.667 511.53 265.2C511.55 269.52 511.676 274.543 511.91 280.27C511.99 282.117 511.826 283.737 511.42 285.13Z" fill="#FF2116"/>
<path d="M586.55 305.49C585.26 303.99 584.5 300.88 584.23 298.37C583.11 288.083 582.46 281.047 582.28 277.26C581.207 254.893 585.24 233.343 594.38 212.61C598.84 202.47 606.41 201.54 616.07 203.4C624.07 204.947 632.163 207.337 640.35 210.57C644.21 212.09 645.13 215.53 645.41 219.78C646.46 235.47 650.23 250.58 654.92 265.83C658.23 276.57 655.27 288.52 650.73 299.54C649.223 303.193 646.547 305.327 642.7 305.94C635.807 307.047 628.93 307.747 622.07 308.04C608.81 308.6 600.87 308.847 598.25 308.78C594.64 308.7 588.88 308.21 586.55 305.49Z" fill="#FF2116"/>
<path d="M573.6 305.84C573.58 305.99 573.513 306.13 573.409 306.238C573.304 306.346 573.168 306.417 573.02 306.44C569.773 307.007 566.34 307.04 562.72 306.54C555.74 305.567 548.753 304.12 541.76 302.2C536.62 300.793 532.773 297.737 530.22 293.03C525.25 283.87 521.45 270.59 523.09 260.53C525.04 248.51 532.01 240.59 540.47 230.97C543.423 227.617 547.71 221.653 553.33 213.08C554.637 211.087 556.517 209.72 558.97 208.98C566.49 206.7 574.48 204.873 582.94 203.5C583.787 203.367 584.387 203.63 584.74 204.29C585.107 204.977 584.977 205.923 584.35 207.13C575.81 223.737 571.16 242.08 570.4 262.16C569.893 275.807 570.93 288.803 573.51 301.15C573.8 302.51 573.77 304.51 573.6 305.84Z" fill="#D80002"/>
<path d="M803.34 238.03C806.46 241.83 811.51 248.09 811.86 253.41C812.06 256.51 809.17 257.27 806.71 256.6C801.916 255.28 797.93 254.563 794.75 254.45C790.93 254.31 788.096 254.19 786.25 254.09C785.53 254.043 785 253.817 784.66 253.41C784.32 252.997 784.2 252.433 784.3 251.72C784.553 249.887 784.98 247.083 785.58 243.31C786.08 240.163 786.143 236.113 785.77 231.16C785.58 228.61 786.88 225.92 789.88 226.72C795.04 228.08 800.21 234.24 803.34 238.03Z" fill="#D80002"/>
<path d="M476.62 273.39C476.692 273.879 476.586 274.378 476.322 274.797C476.058 275.215 475.653 275.525 475.18 275.67C471.753 276.723 468.973 277.7 466.84 278.6C447.66 286.66 429.693 296.813 412.94 309.06C405.6 314.43 398.11 321.01 392.64 327.4C388.51 332.21 384.71 337.55 379.48 339.24C379.088 339.367 378.662 339.344 378.286 339.176C377.909 339.008 377.608 338.707 377.44 338.33C377.033 337.443 376.863 336.43 376.93 335.29C377.983 316.87 382.697 299.733 391.07 283.88C402.19 262.83 421.12 245.54 444.3 239.31C449.02 238.04 452.37 241.57 454.44 244.85C457.38 249.51 459.71 253.29 463.69 257.64C467.37 261.66 471.043 265.703 474.71 269.77C475.81 270.99 476.447 272.197 476.62 273.39Z" fill="#FF2116"/>
<path d="M743.83 297.26C745.304 295.607 746.59 294.487 747.69 293.9C754.2 290.46 758.01 288.74 762.48 285.6C768.24 281.553 773.077 276.89 776.99 271.61C780.71 266.6 784.29 264.3 790.23 263.98C799.43 263.48 808.57 266.17 817.51 268.74C834.524 273.64 848.247 283.003 858.68 296.83C861.247 300.237 863.874 305.29 866.56 311.99C868.607 317.09 870.167 322.537 871.24 328.33C875.94 353.75 873.15 381.6 864.33 405.54C863.244 408.493 861.794 411.297 859.98 413.95C859.621 414.471 859.116 414.862 858.55 415.058C857.984 415.255 857.391 415.245 856.87 415.03C854.07 413.88 852.46 410.53 851.21 407.53C849.28 402.87 847.49 395.93 844.8 390.42C830.64 361.34 807.21 335.5 780.32 317.8C769.88 310.93 760.11 306.54 748.32 301.77C746.654 301.097 745.15 299.947 743.81 298.32C743.686 298.17 743.619 297.981 743.623 297.786C743.626 297.592 743.7 297.405 743.83 297.26Z" fill="#D80002"/>
<path d="M575.09 322.52C578.05 326.82 565.05 351.1 562.47 355.72C547.46 382.54 535.29 405.56 519.23 426.99C510.46 438.69 500.26 452.13 490.04 464.98C487.313 468.4 484.813 471.66 482.54 474.76C475.94 483.77 464.39 490.44 457.54 476.72C456.733 475.12 453.416 468.153 447.59 455.82C443.103 446.327 439.93 439.283 438.07 434.69C423.63 399.05 419.09 350.73 442.39 317.43C452.9 302.41 468.4 291.21 485.5 284.98C489.42 283.55 493.94 286.5 496.66 289.41C508.84 302.5 526.23 311.07 543.52 315.21C544.338 315.403 545.172 315.517 546.01 315.55C553.663 315.843 560.67 316.573 567.03 317.74C570.663 318.407 573.35 320 575.09 322.52Z" fill="#D80002"/>
<path d="M693.31 519.49C690.43 520.84 686.9 518.82 684.92 516.8C674.373 506.067 663.157 495.043 651.27 483.73C648.87 481.45 644.663 477.08 638.65 470.62C612.7 442.75 591.78 406.45 588.25 367.75C587.577 360.337 587.21 352.59 587.15 344.51C587.1 337.88 587.81 330.94 590.72 325.14C590.917 324.733 591.208 324.379 591.57 324.11C594.963 321.53 598.28 320.25 601.52 320.27C615.327 320.35 629.83 319.803 645.03 318.63C657.69 317.65 671.01 315.713 684.99 312.82C701.61 309.37 719.04 296.39 734.4 312.39C740.8 319.057 746.5 326.683 751.5 335.27C763.867 356.497 768.313 379.44 764.84 404.1C763.853 411.087 762.467 417.53 760.68 423.43C752.95 449.02 738.54 473.29 721 493.26C714.287 500.913 706.017 509.143 696.19 517.95C695.917 518.197 694.957 518.71 693.31 519.49Z" fill="#FF2116"/>
<path d="M426.04 317.45C426.147 318.73 425.907 320.02 425.32 321.32C419.09 335.14 413.09 350.78 411.92 366.82C410.68 383.853 412.073 400.067 416.1 415.46C418.413 424.307 421.777 433.85 426.19 444.09C430.617 454.37 435.69 464.85 441.41 475.53C442.42 477.43 443.63 480.31 444.36 482.6C444.428 482.811 444.454 483.034 444.437 483.252C444.42 483.471 444.36 483.68 444.261 483.867C444.162 484.053 444.027 484.211 443.865 484.331C443.702 484.45 443.516 484.529 443.32 484.56C442.62 484.673 441.897 484.433 441.15 483.84C435.27 479.173 429.313 473.957 423.28 468.19C421.71 466.7 419.81 465.3 421 462.95C423.933 457.11 424.637 451.107 423.11 444.94C421.34 437.75 417.76 427.46 411.89 422.54C411.639 422.335 411.354 422.182 411.05 422.09C407.79 421.11 405.237 421.943 403.39 424.59C401.38 427.47 400.12 430.84 402.56 433.79C402.661 433.916 402.794 434.014 402.944 434.075C403.094 434.136 403.258 434.158 403.42 434.14C404.16 434.067 404.843 433.907 405.47 433.66C405.967 433.464 406.517 433.45 407.022 433.62C407.528 433.791 407.955 434.134 408.23 434.59C410.2 437.86 409.67 443.21 408.85 446.79C408.81 446.958 408.726 447.113 408.606 447.238C408.486 447.363 408.335 447.454 408.169 447.5C408.003 447.546 407.828 447.546 407.663 447.5C407.497 447.455 407.348 447.365 407.23 447.24C402.76 442.54 398.29 437.99 396.89 431.37C395.85 426.483 395.237 423.597 395.05 422.71C393.98 417.75 390.29 417.15 386.54 415.27C385.846 414.923 385.262 414.398 384.85 413.75C382.323 409.817 380.597 405.517 379.67 400.85C376.69 385.83 376.41 371.21 384.89 357.37C390.33 348.497 395.733 341.397 401.1 336.07C406.247 330.957 411.983 325.697 418.31 320.29C420.383 318.517 422.737 317.4 425.37 316.94C425.448 316.926 425.528 316.928 425.605 316.946C425.682 316.965 425.754 316.999 425.817 317.047C425.88 317.095 425.933 317.156 425.971 317.225C426.009 317.294 426.033 317.371 426.04 317.45ZM406.88 407.976C405.873 407.581 404.675 407.794 403.55 408.567C402.425 409.341 401.465 410.612 400.881 412.101C400.592 412.839 400.404 413.607 400.328 414.363C400.252 415.119 400.29 415.848 400.438 416.507C400.586 417.167 400.843 417.744 401.193 418.207C401.544 418.67 401.981 419.009 402.48 419.204C403.487 419.599 404.685 419.386 405.81 418.612C406.935 417.839 407.895 416.568 408.479 415.079C408.767 414.341 408.955 413.573 409.031 412.817C409.107 412.061 409.07 411.332 408.922 410.673C408.773 410.013 408.517 409.435 408.166 408.973C407.816 408.51 407.379 408.171 406.88 407.976Z" fill="#699EEE"/>
<path d="M756.44 321.47C756.395 321.336 756.383 321.192 756.405 321.052C756.427 320.912 756.483 320.779 756.567 320.665C756.652 320.552 756.762 320.46 756.89 320.398C757.018 320.336 757.158 320.306 757.3 320.31C759.427 320.357 761.433 320.9 763.32 321.94C776.547 329.22 788.05 338.21 797.83 348.91C805.21 356.99 812.32 365.46 819.16 374.32C825.667 382.747 831.133 391.637 835.56 400.99C839 408.28 841.16 415.73 842.91 423.05C844.89 431.31 845.09 442.36 841.17 450.16C839.06 454.36 834.96 458.65 831.51 452.28C828.42 446.57 825.58 442.96 819.8 440.32C811.547 436.553 802.88 435.207 793.8 436.28C788.73 436.88 787.47 444.75 787.55 449.03C787.64 453.57 790.28 455.69 793.88 457.45C794.27 457.64 794.708 457.71 795.137 457.651C795.566 457.592 795.967 457.407 796.29 457.12C799.06 454.66 801.58 451.42 805.45 452.78C809.43 454.173 812.333 456.76 814.16 460.54C817.12 466.65 811.53 471.02 805.88 467.9C800.56 464.98 795.73 460.51 788.73 462.44C788.42 462.526 788.134 462.676 787.89 462.88C784.997 465.267 783.717 468.48 784.05 472.52C784.36 476.31 788.52 477.64 791.11 474.63C791.163 474.57 791.207 474.506 791.24 474.44L792.34 472.02C792.484 471.706 792.714 471.438 793.004 471.249C793.294 471.059 793.633 470.956 793.98 470.95C797.04 470.903 798.723 472.413 799.03 475.48C799.31 478.287 798.197 480.017 795.69 480.67C793.257 481.31 791.11 481.563 789.25 481.43C784.457 481.077 778.713 480.923 772.02 480.97C770.38 480.983 768.16 481.707 765.36 483.14C754.99 488.45 762.66 502.05 751.4 505.61C740.873 508.95 731.67 511.437 723.79 513.07C721.997 513.443 720.383 513.43 718.95 513.03C718.734 512.971 718.535 512.861 718.368 512.711C718.202 512.561 718.072 512.374 717.991 512.166C717.909 511.957 717.878 511.732 717.898 511.509C717.919 511.285 717.991 511.07 718.11 510.88C719.337 508.9 720.77 507.243 722.41 505.91C740.563 491.077 754.92 472.76 765.48 450.96C774.99 431.31 781.51 408.66 780.54 387.56C779.54 365.85 773.62 345.27 760.18 328.02C758.52 325.88 757.1 323.46 756.44 321.47ZM776.073 432.892C775.363 433.062 774.709 433.433 774.147 433.984C773.585 434.534 773.128 435.253 772.8 436.1C772.472 436.946 772.281 437.904 772.237 438.917C772.193 439.931 772.297 440.981 772.544 442.008C772.79 443.035 773.174 444.018 773.673 444.901C774.173 445.784 774.778 446.55 775.454 447.156C776.131 447.761 776.865 448.194 777.615 448.429C778.365 448.665 779.117 448.698 779.827 448.528C780.537 448.357 781.191 447.986 781.753 447.436C782.315 446.886 782.772 446.167 783.1 445.32C783.428 444.474 783.619 443.516 783.663 442.503C783.707 441.489 783.603 440.439 783.356 439.412C783.11 438.385 782.726 437.402 782.227 436.519C781.727 435.636 781.122 434.869 780.446 434.264C779.769 433.659 779.035 433.226 778.285 432.99C777.535 432.755 776.783 432.722 776.073 432.892ZM774.056 461.187C773.474 461.286 772.925 461.54 772.44 461.933C771.954 462.326 771.542 462.85 771.226 463.477C770.91 464.104 770.697 464.82 770.599 465.585C770.501 466.351 770.52 467.149 770.654 467.936C770.926 469.526 771.653 470.971 772.675 471.953C773.697 472.935 774.931 473.374 776.104 473.173C776.686 473.074 777.235 472.82 777.72 472.427C778.206 472.034 778.618 471.51 778.934 470.883C779.25 470.256 779.463 469.54 779.561 468.774C779.659 468.009 779.64 467.211 779.506 466.423C779.234 464.834 778.507 463.389 777.485 462.407C776.463 461.425 775.229 460.986 774.056 461.187Z" fill="#699EEE"/>
<path d="M575.12 371.23C575.276 371.122 575.452 371.047 575.638 371.01C575.824 370.972 576.015 370.973 576.201 371.012C576.386 371.052 576.562 371.129 576.716 371.238C576.871 371.348 577.002 371.488 577.1 371.65C577.853 372.87 578.263 374.353 578.33 376.1C579.13 396.747 583.34 414.89 590.96 430.53C597.813 444.597 607.09 458.577 618.79 472.47C633.883 490.397 650.857 507.003 669.71 522.29C671.95 524.1 672.72 528.04 668.44 528.4C658.267 529.273 646.957 530.313 634.51 531.52C631.99 531.767 629.75 531.39 627.79 530.39C627.488 530.236 627.256 529.972 627.14 529.65C626.647 528.23 626.75 526.987 627.45 525.92C634.61 515.05 626.35 501.27 618.27 493.63C608.86 484.74 595.79 477.3 584.42 472.44C577.08 469.3 571.01 471.043 566.21 477.67C565.71 478.357 565.337 479.41 565.09 480.83C564.45 484.49 568.4 488.93 571.02 490.49C573.57 492.01 576.99 491.18 579.55 489.87C580.39 489.441 581.363 489.358 582.26 489.64C589.16 491.82 593.933 496.33 596.58 503.17C597.84 506.42 596.53 511.14 593.14 512.71C584.7 516.62 577.7 505.56 572.42 498.61C571.86 497.877 570.1 496.28 567.14 493.82C562.73 490.16 557.51 488.8 552.51 491.27C550.03 492.49 548.367 494.637 547.52 497.71C547.428 498.051 547.425 498.406 547.51 498.74C548.84 503.95 555.58 502.16 560.47 501.66C565.34 501.17 566.98 507.2 566.09 511.01C566.052 511.175 565.982 511.331 565.884 511.468C565.786 511.605 565.662 511.722 565.52 511.81C563.593 512.997 561.293 513.097 558.62 512.11C549.52 508.75 540.84 501.71 534.32 497.74C528.14 493.98 523.72 491.82 517.02 491.56C512.68 491.393 509.243 493.03 506.71 496.47C505.677 497.877 503.86 500.627 501.26 504.72C497.7 510.32 491.95 506.41 487.87 504.12C482.97 501.38 486.14 495.84 488.65 492.91C507.48 470.87 524.36 452.16 539.53 430.01C546.53 419.79 555.12 404.19 559.68 396.65C563.26 390.73 565.5 384.94 568.86 378.37C570.36 375.443 572.447 373.063 575.12 371.23ZM566.23 465.65C566.23 463.65 565.436 461.733 564.022 460.319C562.608 458.904 560.69 458.11 558.69 458.11C556.69 458.11 554.772 458.904 553.358 460.319C551.944 461.733 551.15 463.65 551.15 465.65C551.15 467.65 551.944 469.568 553.358 470.982C554.772 472.396 556.69 473.19 558.69 473.19C560.69 473.19 562.608 472.396 564.022 470.982C565.436 469.568 566.23 467.65 566.23 465.65ZM546.42 485.23C546.42 483.636 545.787 482.107 544.66 480.98C543.533 479.853 542.004 479.22 540.41 479.22C538.816 479.22 537.287 479.853 536.16 480.98C535.033 482.107 534.4 483.636 534.4 485.23C534.4 486.824 535.033 488.353 536.16 489.48C537.287 490.607 538.816 491.24 540.41 491.24C542.004 491.24 543.533 490.607 544.66 489.48C545.787 488.353 546.42 486.824 546.42 485.23Z" fill="#699EEE"/>
<path d="M408.479 415.079C409.694 411.978 408.978 408.798 406.88 407.976C404.782 407.154 402.097 409.001 400.881 412.101C399.666 415.202 400.382 418.382 402.48 419.204C404.578 420.026 407.264 418.179 408.479 415.079Z" fill="white"/>
<path d="M783.356 439.412C782.32 435.094 779.059 432.175 776.073 432.892C773.087 433.609 771.507 437.69 772.544 442.008C773.58 446.326 776.841 449.245 779.827 448.528C782.813 447.811 784.393 443.73 783.356 439.412Z" fill="white"/>
<path d="M558.69 473.19C562.854 473.19 566.23 469.814 566.23 465.65C566.23 461.486 562.854 458.11 558.69 458.11C554.526 458.11 551.15 461.486 551.15 465.65C551.15 469.814 554.526 473.19 558.69 473.19Z" fill="white"/>
<path d="M779.506 466.423C778.94 463.114 776.5 460.769 774.056 461.187C771.611 461.605 770.089 464.627 770.654 467.936C771.22 471.246 773.66 473.591 776.105 473.173C778.549 472.755 780.072 469.733 779.506 466.423Z" fill="white"/>
<path d="M540.41 491.24C543.729 491.24 546.42 488.549 546.42 485.23C546.42 481.911 543.729 479.22 540.41 479.22C537.091 479.22 534.4 481.911 534.4 485.23C534.4 488.549 537.091 491.24 540.41 491.24Z" fill="white"/>
<path d="M618.06 582.42C616.687 580.887 615.717 579.317 615.15 577.71C615.09 577.546 615.077 577.368 615.112 577.197C615.147 577.025 615.23 576.867 615.35 576.74C617.883 574.06 620.207 571.993 622.32 570.54C622.83 570.19 623.3 569.45 623.87 568.91C624.69 568.13 625.81 568.35 626.43 567.36C626.472 567.296 626.53 567.244 626.598 567.209C626.667 567.175 626.743 567.159 626.82 567.164C626.896 567.17 626.97 567.195 627.033 567.238C627.097 567.281 627.147 567.341 627.18 567.41L627.43 567.93C627.58 568.236 627.821 568.487 628.12 568.65L634.55 572.03C634.741 572.135 634.905 572.279 635.03 572.45C638.15 576.78 641.8 582.18 638.56 586.33C638.504 586.403 638.469 586.49 638.46 586.581C638.451 586.672 638.467 586.765 638.508 586.847C638.549 586.929 638.612 586.999 638.69 587.047C638.768 587.095 638.858 587.12 638.95 587.12C642.35 587.073 647.11 587.107 653.23 587.22C657.657 587.3 661.683 588.433 665.31 590.62C665.708 590.858 666.065 591.155 666.37 591.5L674.29 600.61C674.823 601.228 675.203 601.961 675.4 602.75C676.287 606.377 676.973 609.02 677.46 610.68C679.97 619.27 678.08 628.92 674.21 637.2C672.517 640.813 670.13 643.307 667.05 644.68C665.783 645.247 664.92 645.82 664.46 646.4C662.47 648.91 658.87 648.17 656.44 648.45C655.273 648.577 653.817 648.58 652.07 648.46C649.26 648.27 645.46 649.48 642.43 648.18C642.092 648.038 641.804 647.799 641.601 647.493C641.399 647.187 641.29 646.828 641.29 646.46C641.317 639.393 640.797 632.74 639.73 626.5C639.707 626.376 639.718 626.249 639.761 626.131C639.805 626.014 639.879 625.909 639.976 625.829C640.074 625.749 640.191 625.695 640.317 625.674C640.442 625.654 640.571 625.666 640.69 625.71C645.15 627.39 649.673 627.393 654.26 625.72C654.485 625.638 654.691 625.512 654.866 625.351C655.041 625.189 655.182 624.995 655.28 624.78C656.447 622.267 657 620.69 656.94 620.05C656.34 613.97 655.13 610.03 649.04 608.42C644.63 607.25 638.59 608.77 634.04 610.71C633.967 610.743 633.89 610.767 633.81 610.78L626.52 611.88C626.416 611.896 626.318 611.936 626.232 611.995C626.146 612.055 626.074 612.134 626.023 612.226C625.972 612.317 625.943 612.419 625.937 612.524C625.931 612.629 625.949 612.733 625.99 612.83L626.13 613.14C626.195 613.251 626.233 613.376 626.24 613.505C626.247 613.634 626.223 613.762 626.17 613.88C626.13 613.973 625.887 614.113 625.44 614.3C625.197 614.403 624.976 614.553 624.792 614.74C624.608 614.928 624.465 615.15 624.371 615.391C624.277 615.632 624.234 615.888 624.246 616.142C624.258 616.397 624.324 616.645 624.44 616.87C625.52 618.963 626.31 620.93 626.81 622.77C627.317 624.643 628.017 626.67 628.91 628.85C630.517 632.737 632.93 638.26 636.15 645.42C636.203 645.534 636.228 645.66 636.223 645.785C636.217 645.91 636.182 646.032 636.12 646.14L635.95 646.44C635.854 646.605 635.805 646.794 635.811 646.986C635.816 647.179 635.875 647.367 635.98 647.53C637.487 649.777 638.89 652.98 640.19 657.14C640.232 657.274 640.224 657.42 640.167 657.55C640.111 657.68 640.009 657.787 639.88 657.85C635.693 659.89 631.767 662.867 628.1 666.78C628.001 666.886 627.886 666.977 627.76 667.05L623.33 669.69C623.232 669.75 623.119 669.783 623.004 669.786C622.889 669.788 622.775 669.76 622.674 669.704C622.574 669.648 622.49 669.566 622.431 669.467C622.372 669.368 622.341 669.255 622.34 669.14C622.333 668.34 621.98 667.553 621.28 666.78C621.234 666.73 621.172 666.696 621.105 666.684C621.037 666.673 620.968 666.684 620.907 666.716C620.847 666.748 620.799 666.799 620.77 666.861C620.742 666.923 620.735 666.993 620.75 667.06C620.923 667.753 621.01 668.103 621.01 668.11C620.987 668.257 620.918 668.394 620.813 668.5C620.708 668.606 620.572 668.676 620.425 668.7C620.277 668.725 620.126 668.702 619.992 668.636C619.859 668.569 619.749 668.462 619.68 668.33C616.447 661.97 613.313 655.103 610.28 647.73C609.74 646.41 609.643 645.323 609.99 644.47C610.1 644.217 610.121 643.932 610.05 643.66C609.383 641.04 608.35 639.147 606.95 637.98C606.852 637.902 606.782 637.797 606.75 637.68L604.13 628.28C604.07 628.062 603.962 627.86 603.814 627.688C603.667 627.517 603.483 627.379 603.277 627.286C603.07 627.193 602.845 627.145 602.617 627.148C602.39 627.15 602.166 627.202 601.96 627.3L591.14 632.44C590.794 632.606 590.41 632.677 590.027 632.646C589.644 632.614 589.276 632.481 588.96 632.26L584.74 629.32C584.603 629.227 584.489 629.103 584.406 628.957C584.323 628.812 584.273 628.649 584.26 628.48C584.133 627.053 583.887 625.97 583.52 625.23C582.813 623.797 582.473 622.907 582.5 622.56C582.512 622.338 582.465 622.117 582.363 621.918C582.261 621.72 582.108 621.551 581.92 621.43C581.16 620.943 580.78 620.287 580.78 619.46C580.78 618.847 580.597 618.08 580.23 617.16C579.617 615.647 579.26 613.763 579.16 611.51C579.148 611.252 579.215 610.997 579.353 610.779C579.491 610.561 579.692 610.39 579.93 610.29C581.43 609.67 582.913 609.603 584.38 610.09C584.542 610.145 584.715 610.159 584.883 610.129C585.051 610.099 585.208 610.027 585.34 609.92C586.08 609.33 586.92 607.97 588.34 607.54C589.873 607.08 590.903 606.593 591.43 606.08C591.571 605.946 591.755 605.864 591.948 605.849C592.141 605.835 592.333 605.888 592.49 606C592.697 606.153 592.897 606.387 593.09 606.7C593.127 606.759 593.178 606.809 593.238 606.844C593.298 606.88 593.365 606.901 593.434 606.905C593.503 606.909 593.571 606.896 593.633 606.867C593.695 606.838 593.749 606.795 593.79 606.74C593.877 606.627 593.947 606.393 594 606.04C594.039 605.812 594.144 605.603 594.3 605.44C594.32 605.42 594.56 605.307 595.02 605.1C595.551 604.862 595.977 604.444 596.209 603.931C596.442 603.417 596.464 602.848 596.27 602.34C595.01 599.033 594.033 596.03 593.34 593.33C593.227 592.906 593.049 592.501 592.81 592.13L592.02 590.91C591.78 590.54 591.668 590.108 591.7 589.68C591.793 588.347 591.693 587.313 591.4 586.58C591.338 586.424 591.325 586.253 591.362 586.089C591.4 585.925 591.486 585.775 591.61 585.66C596.31 581.38 601.51 579.32 608.02 578.09C609.38 577.84 609.9 576.95 610.75 576.63C610.827 576.601 610.91 576.589 610.993 576.596C611.075 576.603 611.155 576.629 611.226 576.671C611.297 576.714 611.358 576.772 611.404 576.841C611.449 576.91 611.479 576.988 611.49 577.07C611.79 579.26 614.67 581.92 615.58 584.22C617.167 588.22 618.123 590.67 618.45 591.57C618.723 592.303 619.287 593.203 620.14 594.27C620.256 594.415 620.403 594.533 620.569 594.615C620.736 594.696 620.919 594.74 621.105 594.742C621.291 594.744 621.475 594.704 621.644 594.626C621.812 594.548 621.961 594.433 622.08 594.29C623.36 592.743 623.503 591.573 622.51 590.78C622.347 590.65 622.228 590.479 622.17 590.29C621.537 588.25 620.357 586.097 618.63 583.83C618.617 583.817 618.553 583.583 618.44 583.13C618.368 582.867 618.238 582.624 618.06 582.42ZM616.28 645.46C616.273 645.7 616.543 646.477 617.09 647.79C617.117 647.841 617.161 647.881 617.214 647.904C617.268 647.926 617.327 647.929 617.383 647.913C617.438 647.896 617.486 647.861 617.518 647.813C617.551 647.765 617.565 647.708 617.56 647.65C617.447 647.037 617.15 646.277 616.67 645.37C616.647 645.332 616.613 645.302 616.572 645.284C616.531 645.266 616.486 645.262 616.442 645.272C616.399 645.282 616.36 645.306 616.33 645.34C616.301 645.373 616.284 645.416 616.28 645.46Z" fill="black"/>
<path d="M686.09 574.76C687.11 574.767 691.174 574.993 698.28 575.44C701.54 575.64 703.994 576.103 705.64 576.83C705.885 576.943 706.152 577.013 706.43 577.04C709.77 577.41 711.87 577.92 714.4 576.82C714.704 576.688 715.034 576.62 715.37 576.62H724.67C724.792 576.618 724.911 576.585 725.016 576.522C725.121 576.459 725.207 576.37 725.266 576.264C725.325 576.157 725.354 576.037 725.351 575.915C725.349 575.793 725.314 575.674 725.25 575.57C724.417 574.237 724.107 572.593 724.32 570.64C724.335 570.485 724.397 570.338 724.497 570.22C724.598 570.102 724.731 570.018 724.88 569.98C730.53 568.49 736.4 568.14 743.22 567.22C746.82 566.73 747.28 571.98 748.26 575.76C748.303 575.929 748.379 576.088 748.485 576.227C748.59 576.366 748.722 576.483 748.873 576.571C749.023 576.658 749.19 576.715 749.363 576.737C749.536 576.759 749.712 576.747 749.88 576.7L753.05 575.81C753.396 575.717 753.748 575.667 754.1 575.66L781.75 575.24C782.041 575.233 782.333 575.281 782.61 575.38L787.18 577C787.348 577.058 787.493 577.167 787.593 577.313C787.694 577.459 787.746 577.633 787.74 577.81C787.64 581.85 787.92 585.69 786.49 588.55C786.433 588.666 786.402 588.794 786.399 588.925C786.395 589.056 786.42 589.187 786.47 589.31C786.95 590.477 787.044 592.097 786.75 594.17C786.729 594.325 786.651 594.467 786.532 594.57C786.412 594.672 786.259 594.729 786.1 594.73H769.12C768.26 594.73 767.426 595.031 766.76 595.58L765.28 596.78C765.103 596.928 764.976 597.126 764.916 597.348C764.856 597.571 764.866 597.806 764.945 598.023C765.024 598.239 765.167 598.426 765.356 598.558C765.545 598.69 765.77 598.76 766 598.76C775.34 598.647 780.424 598.597 781.25 598.61C782.737 598.63 783.437 599.343 783.35 600.75C783.17 603.857 783.257 607.18 783.61 610.72C783.957 614.26 783.93 622.447 783.53 635.28C783.48 636.6 783.81 638.07 783.86 639.6C784.02 644.953 784.114 654.713 784.14 668.88C784.14 669.032 784.096 669.181 784.013 669.311C783.93 669.44 783.811 669.544 783.67 669.61C780.33 671.12 776.14 669.88 773.51 669.82C769.137 669.713 762.854 669.837 754.66 670.19C754.574 670.194 754.487 670.181 754.406 670.151C754.325 670.121 754.251 670.075 754.188 670.016C754.125 669.957 754.076 669.887 754.042 669.808C754.008 669.73 753.99 669.645 753.99 669.56V665.2C753.99 665.108 753.972 665.017 753.938 664.932C753.903 664.847 753.852 664.77 753.788 664.705C753.724 664.64 753.648 664.588 753.564 664.553C753.481 664.518 753.391 664.5 753.3 664.5H732.75C732.577 664.5 732.409 664.552 732.268 664.649C732.127 664.745 732.019 664.882 731.96 665.04L731.4 666.52C731.335 666.69 731.22 666.837 731.07 666.941C730.92 667.044 730.743 667.1 730.56 667.1H715.69C715.453 667.1 715.218 667.052 715 666.96C714.782 666.867 714.585 666.731 714.42 666.56C714.256 666.389 714.128 666.187 714.044 665.965C713.959 665.743 713.921 665.507 713.93 665.27C714.13 659.27 714.29 654.103 714.41 649.77C714.45 648.23 715.11 646.51 714.25 645.18C714.185 645.082 714.15 644.964 714.15 644.84V639.49C714.15 639.063 714.002 638.649 713.73 638.32L711.45 635.52C711.354 635.405 711.225 635.322 711.08 635.283C710.935 635.244 710.781 635.251 710.64 635.302C710.499 635.354 710.378 635.447 710.292 635.57C710.206 635.693 710.16 635.84 710.16 635.99C710.25 641.58 710.12 650.48 709.68 658.13C709.494 661.343 709.577 664.973 709.93 669.02C709.939 669.119 709.926 669.22 709.894 669.314C709.861 669.408 709.81 669.495 709.742 669.568C709.674 669.642 709.592 669.7 709.5 669.74C709.409 669.78 709.31 669.8 709.21 669.8H690.29C690.132 669.801 689.979 669.743 689.861 669.638C689.743 669.533 689.668 669.387 689.65 669.23C689.397 666.577 689.457 663.947 689.83 661.34C690.66 655.55 690.53 647.71 690.37 643.91C690.32 642.59 691.25 641.81 691.12 640.39C690.127 629.357 689.697 616.35 689.83 601.37C689.844 599.91 690.484 599.16 691.75 599.12C696.717 598.96 703.087 598.993 710.86 599.22C711.029 599.224 711.195 599.184 711.343 599.103C711.49 599.022 711.613 598.903 711.7 598.758C711.786 598.614 711.833 598.449 711.835 598.28C711.837 598.112 711.794 597.946 711.71 597.8L710.82 596.27C710.641 595.957 710.381 595.696 710.069 595.516C709.756 595.335 709.401 595.24 709.04 595.24H687.71C687.324 595.24 686.952 595.09 686.674 594.821C686.396 594.553 686.233 594.186 686.22 593.8L685.48 575.39C685.476 575.309 685.489 575.228 685.518 575.151C685.547 575.075 685.591 575.005 685.648 574.946C685.705 574.887 685.774 574.841 685.85 574.809C685.926 574.776 686.008 574.76 686.09 574.76ZM722.807 578.318C722.805 578.271 722.735 578.228 722.602 578.191C722.47 578.154 722.276 578.124 722.034 578.103C721.791 578.082 721.503 578.07 721.187 578.067C720.871 578.065 720.533 578.073 720.192 578.09C719.503 578.125 718.845 578.197 718.361 578.289C717.878 578.381 717.609 578.486 717.614 578.581C717.616 578.629 717.685 578.672 717.818 578.709C717.951 578.746 718.144 578.776 718.387 578.797C718.63 578.818 718.917 578.83 719.233 578.832C719.549 578.835 719.887 578.827 720.228 578.809C720.917 578.775 721.575 578.703 722.059 578.611C722.543 578.519 722.812 578.414 722.807 578.318ZM729.87 595.93C730.07 595.917 730.25 595.997 730.41 596.17C730.55 596.337 730.57 596.557 730.47 596.83C730.397 597.023 730.367 597.233 730.38 597.46C730.4 597.627 730.527 597.79 730.76 597.95C731.914 598.717 732.764 599.25 733.31 599.55C733.466 599.641 733.644 599.683 733.82 599.67L743.57 598.94C743.8 598.927 744.027 598.858 744.23 598.74C745.31 598.1 746.19 597.123 746.87 595.81C746.922 595.71 746.949 595.598 746.948 595.485C746.947 595.372 746.918 595.26 746.864 595.16C746.81 595.06 746.733 594.973 746.638 594.909C746.543 594.845 746.434 594.804 746.32 594.79L737.44 593.79C737.407 593.783 737.373 593.783 737.34 593.79C736.067 594.003 733.964 594.173 731.03 594.3C730.544 594.32 730.03 594.563 729.49 595.03C729.408 595.1 729.351 595.193 729.327 595.297C729.302 595.401 729.311 595.511 729.353 595.611C729.395 595.71 729.468 595.795 729.561 595.852C729.653 595.909 729.762 595.936 729.87 595.93ZM713.461 613.415C713.459 613.5 713.679 613.587 714.073 613.657C714.467 613.727 715.002 613.775 715.562 613.79C715.839 613.797 716.113 613.796 716.37 613.787C716.626 613.777 716.859 613.76 717.056 613.735C717.253 613.711 717.409 613.679 717.516 613.643C717.623 613.607 717.679 613.567 717.68 613.525C717.682 613.44 717.462 613.353 717.068 613.283C716.674 613.212 716.138 613.165 715.579 613.15C715.302 613.143 715.027 613.144 714.771 613.153C714.514 613.163 714.281 613.18 714.085 613.205C713.888 613.229 713.732 613.261 713.625 613.297C713.518 613.333 713.462 613.373 713.461 613.415ZM729.41 616.81C730.75 617.66 733.62 618.93 734.96 620.77C735.123 620.994 735.204 621.266 735.191 621.542C735.179 621.818 735.072 622.082 734.89 622.29L730.27 627.57C730.156 627.701 730.085 627.863 730.066 628.035C730.047 628.208 730.081 628.382 730.164 628.534C730.247 628.686 730.374 628.81 730.529 628.888C730.684 628.965 730.859 628.994 731.03 628.97C734.924 628.397 739.444 628.383 744.59 628.93C744.744 628.948 744.899 628.919 745.036 628.849C745.173 628.778 745.286 628.669 745.361 628.534C745.436 628.399 745.47 628.245 745.457 628.091C745.444 627.937 745.386 627.791 745.29 627.67C743.624 625.53 741.78 624.01 739.76 623.11C739.624 623.05 739.505 622.956 739.415 622.837C739.325 622.718 739.266 622.578 739.244 622.43C739.222 622.281 739.238 622.129 739.289 621.988C739.341 621.846 739.427 621.72 739.54 621.62C741.374 620.007 743.3 618.41 745.32 616.83C745.454 616.723 745.584 616.49 745.71 616.13C745.737 616.058 745.745 615.98 745.734 615.903C745.723 615.827 745.693 615.755 745.648 615.692C745.603 615.63 745.543 615.58 745.473 615.547C745.404 615.513 745.327 615.497 745.25 615.5L729.64 615.96C729.542 615.963 729.446 615.998 729.369 616.059C729.291 616.12 729.236 616.204 729.21 616.3C729.184 616.395 729.19 616.496 729.226 616.588C729.262 616.68 729.326 616.758 729.41 616.81ZM756.12 617.32L763.64 623.9C763.773 624.016 763.937 624.09 764.112 624.114C764.286 624.138 764.464 624.11 764.624 624.034C764.784 623.957 764.919 623.836 765.012 623.685C765.106 623.533 765.154 623.358 765.15 623.18L764.97 617.41C764.965 617.195 764.917 616.983 764.83 616.787C764.743 616.59 764.617 616.413 764.461 616.265C764.305 616.118 764.121 616.002 763.92 615.926C763.719 615.849 763.505 615.813 763.29 615.82L756.59 616.02C756.44 616.023 756.295 616.071 756.173 616.158C756.051 616.245 755.959 616.367 755.908 616.508C755.857 616.649 755.85 616.802 755.888 616.947C755.926 617.092 756.007 617.222 756.12 617.32ZM710.45 624.05C710.452 624.189 710.496 624.325 710.575 624.44C710.655 624.554 710.767 624.643 710.897 624.693C711.027 624.744 711.169 624.754 711.305 624.723C711.441 624.692 711.565 624.622 711.66 624.52L718.22 617.56C718.316 617.459 718.379 617.331 718.402 617.194C718.425 617.056 718.406 616.915 718.348 616.788C718.29 616.661 718.195 616.555 718.076 616.482C717.957 616.409 717.82 616.374 717.68 616.38L710.98 616.64C710.798 616.648 710.626 616.726 710.501 616.859C710.376 616.992 710.307 617.168 710.31 617.35L710.45 624.05ZM714.5 623.63L714.82 623.44C714.834 623.43 714.845 623.416 714.852 623.4C714.858 623.385 714.86 623.367 714.857 623.352C714.853 623.336 714.845 623.322 714.833 623.313C714.821 623.304 714.806 623.299 714.79 623.3C714.61 623.28 714.464 623.327 714.35 623.44C714.325 623.46 714.309 623.489 714.305 623.521C714.301 623.553 714.31 623.585 714.33 623.61C714.35 623.635 714.379 623.651 714.411 623.655C714.443 623.659 714.475 623.65 714.5 623.63ZM735.909 629.395C735.905 629.333 735.882 629.273 735.841 629.219C735.799 629.164 735.74 629.116 735.667 629.076C735.594 629.037 735.508 629.007 735.415 628.989C735.321 628.971 735.222 628.965 735.122 628.971C735.023 628.977 734.925 628.995 734.834 629.024C734.743 629.053 734.662 629.092 734.594 629.14C734.526 629.188 734.473 629.243 734.439 629.302C734.404 629.361 734.388 629.423 734.392 629.485C734.395 629.547 734.418 629.607 734.46 629.661C734.501 629.716 734.56 629.764 734.633 629.804C734.707 629.843 734.792 629.873 734.886 629.891C734.979 629.909 735.079 629.915 735.178 629.909C735.278 629.903 735.376 629.885 735.466 629.856C735.557 629.827 735.639 629.788 735.706 629.74C735.774 629.692 735.827 629.637 735.862 629.578C735.897 629.519 735.913 629.456 735.909 629.395ZM765.27 633.93C764.87 633.79 764.397 634.023 763.85 634.63C762.69 635.91 761.457 637.463 760.15 639.29C759.962 639.543 759.86 639.852 759.86 640.17V650.85C759.86 651.039 759.9 651.228 759.977 651.403C760.055 651.579 760.168 651.737 760.31 651.87C761.217 652.73 762.407 652.94 763.88 652.5C764.053 652.45 764.206 652.348 764.317 652.208C764.428 652.068 764.492 651.897 764.5 651.72L765.53 634.31C765.536 634.228 765.514 634.146 765.467 634.077C765.42 634.008 765.35 633.957 765.27 633.93ZM732.5 648.23L741.61 648.95C741.709 648.958 741.808 648.947 741.902 648.917C741.996 648.886 742.084 648.838 742.159 648.773C742.234 648.709 742.296 648.631 742.341 648.543C742.386 648.455 742.413 648.359 742.42 648.26L742.61 645.85C742.672 645.06 742.33 644.271 741.659 643.656C740.987 643.041 740.042 642.65 739.03 642.57L736.06 642.33C735.558 642.29 735.055 642.327 734.579 642.44C734.103 642.553 733.664 642.739 733.287 642.988C732.91 643.237 732.602 643.544 732.381 643.891C732.161 644.238 732.031 644.618 732 645.01L731.81 647.43C731.796 647.627 731.861 647.822 731.99 647.972C732.12 648.122 732.303 648.215 732.5 648.23ZM768.52 647.065C768.492 647.069 768.467 647.083 768.445 647.107C768.423 647.131 768.404 647.163 768.391 647.203C768.377 647.243 768.368 647.288 768.365 647.338C768.362 647.388 768.365 647.44 768.373 647.492C768.381 647.544 768.394 647.594 768.412 647.641C768.429 647.687 768.451 647.728 768.476 647.762C768.501 647.796 768.528 647.821 768.557 647.837C768.585 647.853 768.613 647.86 768.641 647.855C768.668 647.851 768.693 647.837 768.716 647.813C768.738 647.789 768.756 647.757 768.77 647.717C768.784 647.677 768.792 647.632 768.795 647.582C768.798 647.532 768.796 647.48 768.788 647.428C768.78 647.376 768.767 647.326 768.749 647.279C768.731 647.233 768.709 647.192 768.684 647.158C768.659 647.124 768.632 647.099 768.604 647.082C768.576 647.066 768.547 647.06 768.52 647.065Z" fill="black"/>
<path d="M894.42 575.74L894.64 582.91C894.647 583.094 894.695 583.272 894.78 583.43C894.913 583.683 895.283 586.65 895.89 592.33C895.912 592.526 895.856 592.723 895.732 592.878C895.609 593.033 895.428 593.135 895.23 593.16C886.75 594.2 877.68 593.66 866.52 593.28C866.37 593.274 866.221 593.3 866.081 593.354C865.941 593.408 865.815 593.491 865.708 593.596C865.602 593.701 865.519 593.827 865.465 593.965C865.41 594.103 865.384 594.251 865.39 594.4L865.49 597.87C865.497 598.067 865.542 598.261 865.623 598.44C865.705 598.62 865.821 598.782 865.965 598.916C866.109 599.051 866.278 599.156 866.462 599.225C866.647 599.294 866.843 599.327 867.04 599.32L894.38 598.51C894.547 598.507 894.71 598.552 894.851 598.639C894.991 598.726 895.102 598.852 895.17 599C895.883 600.6 896.043 602.303 895.65 604.11C895.63 604.216 895.623 604.324 895.63 604.43L896.57 613.57C896.596 613.83 896.568 614.093 896.488 614.342C896.407 614.591 896.276 614.821 896.102 615.016C895.928 615.212 895.715 615.369 895.478 615.478C895.24 615.587 894.982 615.646 894.72 615.65L870.09 615.95C869.819 615.95 869.551 615.997 869.3 616.09L866.14 617.27C865.94 617.345 865.768 617.482 865.65 617.662C865.531 617.841 865.472 618.054 865.48 618.27L865.57 620.66C865.581 620.908 865.675 621.145 865.837 621.332C865.999 621.519 866.218 621.645 866.46 621.69L870.48 622.45C870.565 622.468 870.655 622.463 870.739 622.434C870.823 622.406 870.899 622.357 870.96 622.29C871.227 622.003 871.577 621.843 872.01 621.81C880.623 621.097 885.537 620.697 886.75 620.61C889.077 620.43 891.067 620.493 892.72 620.8C892.812 620.816 892.899 620.85 892.977 620.899C893.056 620.948 893.123 621.013 893.176 621.088C893.229 621.163 893.267 621.248 893.286 621.338C893.306 621.428 893.307 621.52 893.29 621.61C893.07 622.817 892.947 623.947 892.92 625C892.707 633.52 892.58 644.52 892.54 658C892.527 661.92 892.753 665.35 893.22 668.29C893.23 668.357 893.227 668.425 893.21 668.49C893.194 668.555 893.165 668.616 893.125 668.669C893.085 668.722 893.034 668.767 892.977 668.799C892.919 668.832 892.856 668.853 892.79 668.86C889.197 669.3 885.677 669.38 882.23 669.1C878.037 668.76 875.377 668.62 874.25 668.68C874.099 668.688 873.95 668.646 873.827 668.558C873.703 668.471 873.613 668.345 873.57 668.2C873.417 667.707 873.197 667.277 872.91 666.91C872.695 666.649 872.41 666.458 872.09 666.36C868.637 665.367 865.157 665.1 861.65 665.56C856.06 666.3 852.75 666.1 846.85 666.58C846.324 666.626 845.811 666.79 845.35 667.06C843.61 668.1 840.993 668.73 837.5 668.95C836.267 669.03 832.933 669.263 827.5 669.65C826.467 669.723 825.77 669.423 825.41 668.75C825.37 668.67 825.273 667.853 825.12 666.3C824.62 661.3 825.65 656.82 825.69 652.56C825.757 645.28 825.403 637.487 824.63 629.18C824.623 629.107 824.623 629.03 824.63 628.95L825.18 622.51C825.21 622.132 825.382 621.78 825.662 621.522C825.942 621.265 826.309 621.121 826.69 621.12H844.75C844.827 621.12 844.902 621.105 844.973 621.075C845.043 621.045 845.107 621.001 845.16 620.946C845.214 620.891 845.255 620.826 845.283 620.754C845.31 620.683 845.323 620.607 845.32 620.53L844.25 594.06C844.248 593.987 844.231 593.915 844.2 593.849C844.17 593.782 844.127 593.723 844.074 593.673C844.021 593.624 843.959 593.586 843.891 593.561C843.824 593.537 843.752 593.526 843.68 593.53L827.42 594.18C827.045 594.194 826.687 594.336 826.403 594.581C826.12 594.827 825.928 595.161 825.86 595.53L824.65 601.88C824.598 602.16 824.633 602.45 824.75 602.71L825.12 603.53C825.176 603.664 825.193 603.81 825.168 603.952C825.144 604.094 825.078 604.226 824.98 604.33C824.52 604.81 824.37 605.667 824.53 606.9C824.57 607.213 824.59 608.003 824.59 609.27C824.59 614.65 823.743 623.807 822.05 636.74C820.57 648.013 817.807 658.9 813.76 669.4C813.7 669.556 813.59 669.686 813.448 669.77C813.306 669.854 813.141 669.886 812.98 669.86C809.74 669.36 806.71 668.26 803.89 666.56C802.177 665.527 800.367 664.693 798.46 664.06C796.84 663.527 795.577 662.603 794.67 661.29C794.524 661.08 794.436 660.836 794.415 660.581C794.394 660.326 794.441 660.071 794.55 659.84L799.82 648.71C799.84 648.67 799.854 648.626 799.86 648.58C800.27 646.4 801.32 643.86 801.71 641.33C802.94 633.41 804.05 629.14 804 622.81C803.94 615.33 805.26 605.36 805.34 597.64C805.373 594.127 805.417 586.803 805.47 575.67C805.469 575.516 805.527 575.367 805.632 575.251C805.737 575.134 805.882 575.06 806.04 575.04C807.067 574.92 808.307 574.887 809.76 574.94C817.093 575.207 826.853 575.667 839.04 576.32C839.358 576.337 839.676 576.282 839.974 576.159C840.272 576.036 840.544 575.847 840.773 575.604C841.002 575.361 841.183 575.069 841.304 574.747C841.426 574.425 841.486 574.078 841.48 573.73C841.48 573.717 841.263 573.597 840.83 573.37C840.643 573.27 840.482 573.129 840.359 572.957C840.236 572.785 840.154 572.588 840.12 572.38C839.847 570.887 840.61 569.96 842.41 569.6C843.75 569.333 849.02 568.603 858.22 567.41C859.193 567.29 860.323 567.68 861.61 568.58C861.747 568.678 861.848 568.814 861.9 568.97L863.81 575.19C863.87 575.384 863.995 575.551 864.164 575.666C864.333 575.78 864.536 575.834 864.74 575.82C867.113 575.647 869.423 575.85 871.67 576.43C872.042 576.523 872.428 576.57 872.82 576.57H881.15C881.96 576.57 882.764 576.459 883.54 576.24C887.04 575.233 890.42 574.813 893.68 574.98C893.877 574.99 894.062 575.074 894.199 575.215C894.336 575.356 894.415 575.543 894.42 575.74ZM891.67 600.43C891.67 600.364 891.651 600.3 891.614 600.245C891.577 600.19 891.524 600.146 891.46 600.117C891.396 600.089 891.323 600.077 891.249 600.083C891.175 600.088 891.103 600.112 891.04 600.15C890.827 600.27 890.733 600.413 890.76 600.58C890.775 600.66 890.813 600.731 890.871 600.786C890.93 600.841 891.005 600.878 891.087 600.89C891.17 600.903 891.257 600.892 891.338 600.858C891.418 600.824 891.488 600.769 891.54 600.7C891.627 600.587 891.67 600.497 891.67 600.43ZM872.76 623.71C872.801 623.702 872.839 623.681 872.87 623.652C872.9 623.623 872.921 623.585 872.93 623.544C872.94 623.503 872.937 623.46 872.923 623.42C872.909 623.38 872.884 623.346 872.85 623.32C872.61 623.14 872.357 623.073 872.09 623.12C872.037 623.125 871.987 623.149 871.95 623.187C871.912 623.225 871.889 623.275 871.884 623.328C871.879 623.382 871.893 623.435 871.924 623.479C871.954 623.523 871.999 623.555 872.05 623.57C872.39 623.683 872.627 623.73 872.76 623.71ZM808.888 634.449C808.837 634.486 808.816 634.562 808.831 634.658C808.846 634.754 808.894 634.863 808.966 634.962C809.002 635.01 809.042 635.055 809.085 635.093C809.128 635.131 809.172 635.161 809.215 635.183C809.258 635.204 809.3 635.216 809.337 635.217C809.374 635.219 809.406 635.21 809.432 635.191C809.483 635.154 809.504 635.078 809.489 634.982C809.475 634.886 809.426 634.777 809.354 634.678C809.318 634.63 809.278 634.585 809.235 634.547C809.192 634.509 809.148 634.479 809.105 634.457C809.062 634.436 809.02 634.424 808.983 634.423C808.946 634.421 808.914 634.43 808.888 634.449ZM873.519 640.86C873.512 640.364 873.309 639.891 872.953 639.545C872.598 639.199 872.119 639.009 871.624 639.016L846.626 639.365C846.13 639.372 845.657 639.575 845.311 639.931C844.966 640.287 844.775 640.765 844.782 641.261L844.841 645.46C844.848 645.956 845.051 646.429 845.407 646.775C845.762 647.121 846.241 647.311 846.737 647.304L871.734 646.955C872.23 646.948 872.703 646.745 873.049 646.389C873.395 646.033 873.585 645.555 873.578 645.059L873.519 640.86Z" fill="black"/>
<path d="M361.45 667.32C361.389 667.331 361.326 667.328 361.266 667.311C361.206 667.295 361.151 667.265 361.105 667.224C361.059 667.184 361.022 667.134 360.999 667.077C360.976 667.021 360.966 666.961 360.97 666.9L361.97 649.98C361.973 649.971 361.975 649.962 361.975 649.953C361.975 649.945 361.973 649.937 361.97 649.93C361.437 644.637 361.58 639.11 362.4 633.35C362.44 633.077 362.457 632.799 362.45 632.52L360.82 577.6C360.815 577.386 360.889 577.179 361.025 577.018C361.162 576.857 361.353 576.755 361.56 576.73C368.647 575.903 375.213 575.7 381.26 576.12C381.442 576.131 381.615 576.198 381.757 576.311C381.898 576.423 382.001 576.577 382.05 576.75C382.51 578.277 382.617 579.843 382.37 581.45C382.337 581.665 382.367 581.884 382.456 582.081C382.545 582.278 382.688 582.444 382.87 582.56C382.923 582.593 382.953 582.613 382.96 582.62C383.219 582.892 383.381 583.24 383.42 583.61C384.053 590.19 384.063 596.187 383.45 601.6C382.85 606.853 382.56 610.8 382.58 613.44C382.64 620.747 382.59 624.917 382.43 625.95C382.385 626.285 382.463 626.626 382.65 626.91C383.063 627.543 383.243 628.077 383.19 628.51C382.76 631.85 382.4 635.74 382.8 639.17C383.793 647.67 384.127 655.61 383.8 662.99C383.753 664.083 383.563 665 383.23 665.74C383.147 665.92 383.013 666.071 382.846 666.173C382.678 666.275 382.484 666.322 382.29 666.31L380.02 666.18C379.557 666.154 379.1 666.304 378.74 666.6L377.87 667.31C377.706 667.443 377.503 667.52 377.29 667.529C377.078 667.538 376.868 667.479 376.69 667.36C375.557 666.58 374.387 666.023 373.18 665.69C372.902 665.613 372.606 665.634 372.34 665.75C370.587 666.53 368.693 666.793 366.66 666.54C366.315 666.5 365.968 666.51 365.63 666.57L361.45 667.32ZM382.009 583.626C381.923 583.645 381.876 583.821 381.878 584.114C381.88 584.408 381.93 584.795 382.018 585.191C382.061 585.388 382.113 585.58 382.169 585.758C382.225 585.935 382.286 586.095 382.346 586.227C382.407 586.359 382.467 586.461 382.523 586.527C382.578 586.594 382.629 586.623 382.671 586.614C382.757 586.595 382.804 586.419 382.802 586.126C382.8 585.832 382.75 585.445 382.662 585.049C382.619 584.852 382.567 584.66 382.511 584.482C382.455 584.305 382.394 584.145 382.334 584.013C382.273 583.881 382.213 583.779 382.157 583.713C382.102 583.646 382.051 583.617 382.009 583.626ZM382.334 592.77C382.279 592.771 382.225 592.819 382.176 592.912C382.126 593.006 382.081 593.142 382.045 593.313C382.008 593.485 381.98 593.688 381.962 593.911C381.944 594.135 381.937 594.374 381.94 594.616C381.943 594.857 381.958 595.097 381.982 595.32C382.006 595.542 382.04 595.745 382.081 595.915C382.123 596.085 382.171 596.22 382.223 596.312C382.275 596.404 382.331 596.451 382.386 596.45C382.441 596.449 382.495 596.401 382.544 596.308C382.594 596.214 382.639 596.078 382.675 595.907C382.712 595.735 382.74 595.532 382.758 595.309C382.776 595.085 382.783 594.846 382.78 594.604C382.777 594.362 382.762 594.123 382.738 593.9C382.714 593.677 382.68 593.475 382.639 593.305C382.597 593.134 382.549 593 382.497 592.908C382.445 592.816 382.389 592.769 382.334 592.77ZM382.376 596.972C382.28 596.975 382.198 597.211 382.146 597.625C382.094 598.04 382.078 598.601 382.1 599.184C382.111 599.472 382.132 599.758 382.16 600.024C382.188 600.29 382.224 600.531 382.265 600.734C382.307 600.937 382.353 601.098 382.4 601.206C382.448 601.315 382.497 601.37 382.545 601.368C382.64 601.365 382.722 601.129 382.774 600.715C382.826 600.3 382.842 599.739 382.82 599.156C382.809 598.867 382.788 598.582 382.76 598.316C382.732 598.05 382.696 597.809 382.655 597.606C382.613 597.403 382.568 597.242 382.52 597.134C382.472 597.025 382.423 596.97 382.376 596.972Z" fill="black"/>
<path d="M542.41 632.28C542.697 632.32 543.107 632.587 543.64 633.08C543.714 633.147 543.803 633.194 543.899 633.218C543.996 633.243 544.097 633.243 544.193 633.219C544.29 633.196 544.379 633.149 544.454 633.083C544.528 633.017 544.585 632.933 544.62 632.84L544.98 631.89C545.018 631.781 545.092 631.689 545.189 631.628C545.286 631.566 545.401 631.539 545.516 631.551C545.631 631.562 545.74 631.611 545.826 631.691C545.912 631.77 545.969 631.875 545.99 631.99C546.217 633.25 547.1 633.763 548.64 633.53C552.29 632.99 554.26 632.42 557.61 633.48C557.769 633.533 557.902 633.643 557.983 633.79C558.065 633.936 558.088 634.107 558.05 634.27C557.91 634.85 557.95 635.6 558.17 636.52C558.9 639.55 558.47 643.31 558.19 646.73C558.105 647.745 557.707 648.706 557.05 649.48C551.503 656.04 544.97 661.19 537.45 664.93C535.85 665.723 532.277 666.537 526.73 667.37C526.392 667.416 526.065 667.514 525.76 667.66C524.8 668.107 523.887 668.403 523.02 668.55C512.62 670.25 502.79 670.32 493.31 665.52C490.73 664.213 488.623 662.19 486.99 659.45C484.537 655.337 482.933 651.25 482.18 647.19C481.58 643.943 481.54 640.943 482.06 638.19C482.133 637.794 482.126 637.386 482.04 636.99C481.847 636.117 481.967 635.487 482.4 635.1C482.468 635.039 482.522 634.966 482.56 634.884C482.599 634.801 482.62 634.712 482.623 634.621C482.626 634.531 482.61 634.44 482.577 634.356C482.544 634.271 482.494 634.195 482.43 634.13C481.603 633.303 481.557 632.063 482.29 630.41C482.427 630.11 482.476 629.78 482.43 629.46C482.137 627.173 482.117 625.77 482.37 625.25C483.57 622.83 482.94 619.93 482.27 617.29C482.13 616.745 482.06 616.188 482.06 615.63L481.75 577.2C481.75 576.956 481.846 576.722 482.016 576.549C482.187 576.377 482.419 576.28 482.66 576.28H504.25C504.559 576.28 504.863 576.366 505.128 576.531C505.392 576.695 505.608 576.93 505.75 577.21C505.99 577.683 506.297 577.983 506.67 578.11C506.744 578.135 506.81 578.178 506.864 578.234C506.917 578.291 506.955 578.361 506.975 578.436C506.995 578.511 506.996 578.591 506.977 578.666C506.959 578.742 506.922 578.812 506.87 578.87C505.263 580.63 504.43 582.857 504.37 585.55C504.29 588.843 504.337 591.8 504.51 594.42C504.87 600.03 504.3 605.96 504.59 611.13C505.1 620.35 503.98 631.69 505.3 641.46C505.397 642.207 505.73 642.904 506.25 643.45C512.12 649.65 523.81 646.44 529.83 642.56C531.937 641.207 534.947 638.743 538.86 635.17C538.96 635.084 539.067 635.01 539.18 634.95L540.9 634.07C541.09 633.972 541.258 633.837 541.393 633.674C541.529 633.511 541.63 633.322 541.69 633.12C541.703 633.067 541.71 632.987 541.71 632.88C541.71 632.793 541.73 632.706 541.766 632.627C541.803 632.548 541.857 632.477 541.923 632.42C541.989 632.363 542.067 632.321 542.151 632.297C542.235 632.273 542.323 632.267 542.41 632.28ZM485.383 601.798C485.331 601.789 485.277 601.794 485.225 601.813C485.172 601.832 485.122 601.865 485.077 601.909C485.031 601.953 484.992 602.008 484.961 602.07C484.93 602.133 484.908 602.201 484.896 602.273C484.871 602.416 484.889 602.561 484.946 602.676C485.002 602.79 485.093 602.864 485.197 602.882C485.249 602.891 485.303 602.886 485.355 602.867C485.408 602.848 485.458 602.815 485.503 602.771C485.548 602.727 485.588 602.672 485.619 602.61C485.65 602.547 485.672 602.479 485.684 602.407C485.709 602.264 485.691 602.119 485.634 602.004C485.578 601.89 485.487 601.816 485.383 601.798ZM485.492 604.121C485.454 604.122 485.418 604.195 485.386 604.335C485.354 604.476 485.327 604.681 485.307 604.94C485.286 605.199 485.272 605.505 485.266 605.843C485.26 606.181 485.261 606.542 485.27 606.907C485.288 607.644 485.336 608.35 485.403 608.87C485.47 609.39 485.551 609.681 485.628 609.679C485.666 609.678 485.702 609.605 485.734 609.465C485.765 609.324 485.792 609.119 485.813 608.86C485.834 608.601 485.847 608.295 485.854 607.957C485.86 607.619 485.859 607.258 485.85 606.893C485.832 606.156 485.784 605.45 485.717 604.93C485.65 604.41 485.569 604.119 485.492 604.121ZM484.56 623.73C484.94 623.283 485.103 622.537 485.05 621.49C485.044 621.414 485.068 621.338 485.116 621.278C485.165 621.219 485.234 621.18 485.31 621.17L485.58 621.13C485.606 621.126 485.632 621.127 485.657 621.133C485.683 621.14 485.706 621.151 485.727 621.167C485.748 621.183 485.765 621.203 485.777 621.226C485.79 621.249 485.797 621.274 485.8 621.3L486.13 623.71C486.14 623.774 486.171 623.832 486.218 623.876C486.266 623.92 486.326 623.947 486.39 623.953C486.455 623.959 486.519 623.943 486.573 623.908C486.628 623.873 486.669 623.821 486.69 623.76C487.13 622.393 486.903 621.143 486.01 620.01C485.872 619.836 485.684 619.708 485.471 619.646C485.258 619.583 485.03 619.589 484.82 619.661C484.611 619.734 484.428 619.87 484.299 620.051C484.17 620.231 484.1 620.448 484.1 620.67V623.56C484.099 623.614 484.115 623.666 484.145 623.711C484.176 623.755 484.219 623.789 484.27 623.808C484.32 623.826 484.375 623.829 484.427 623.815C484.479 623.801 484.526 623.771 484.56 623.73ZM485.474 628.33C485.423 628.331 485.373 628.438 485.327 628.646C485.282 628.854 485.242 629.158 485.209 629.542C485.176 629.926 485.151 630.381 485.136 630.883C485.121 631.384 485.115 631.921 485.12 632.463C485.129 633.559 485.18 634.609 485.26 635.383C485.339 636.156 485.442 636.591 485.546 636.59C485.597 636.589 485.647 636.482 485.692 636.274C485.738 636.066 485.778 635.762 485.811 635.378C485.844 634.994 485.869 634.539 485.884 634.037C485.899 633.536 485.905 632.999 485.9 632.457C485.89 631.361 485.84 630.311 485.76 629.537C485.68 628.764 485.577 628.329 485.474 628.33Z" fill="black"/>
<path d="M550.03 593.66L546.29 595.44C545.726 595.707 545.082 595.753 544.485 595.568C543.889 595.383 543.384 594.98 543.07 594.44L535.47 581.28C535.419 581.191 535.39 581.091 535.385 580.989C535.379 580.886 535.399 580.784 535.441 580.69C535.483 580.597 535.546 580.514 535.626 580.45C535.706 580.386 535.8 580.341 535.9 580.32L543.39 578.8C543.896 578.697 544.422 578.767 544.884 578.999C545.346 579.231 545.718 579.612 545.94 580.08L551.04 590.8C551.285 591.315 551.316 591.906 551.126 592.442C550.937 592.978 550.543 593.416 550.03 593.66Z" fill="black"/>
<path d="M394.27 581.02C394.268 580.96 394.279 580.899 394.303 580.844C394.326 580.788 394.361 580.738 394.406 580.697C394.451 580.656 394.504 580.626 394.561 580.607C394.619 580.589 394.68 580.583 394.74 580.59L401.33 581.38C401.428 581.392 401.528 581.38 401.621 581.345C401.713 581.311 401.795 581.254 401.86 581.18L402.05 580.96C402.165 580.829 402.308 580.726 402.468 580.658C402.627 580.591 402.799 580.561 402.97 580.57L408.25 580.89C408.27 580.89 408.29 580.89 408.31 580.89C416.196 580.203 422.76 579.897 428 579.97C434.62 580.07 439.27 579.6 446 579.63C446.124 579.633 446.242 579.683 446.329 579.771C446.417 579.858 446.467 579.976 446.47 580.1L446.58 592.36C446.586 592.708 446.507 593.051 446.35 593.36C446.336 593.373 446.26 593.483 446.12 593.69C446.063 593.775 446.026 593.871 446.01 593.971C445.995 594.071 446.001 594.173 446.03 594.27L446.95 597.58C446.975 597.673 446.967 597.772 446.929 597.859C446.891 597.947 446.824 598.018 446.74 598.06C446.346 598.253 446.243 598.737 446.43 599.51C446.483 599.731 446.486 599.961 446.438 600.183C446.39 600.405 446.294 600.613 446.155 600.791C446.016 600.969 445.839 601.113 445.637 601.212C445.436 601.31 445.214 601.361 444.99 601.36C432.09 601.26 421.49 600.56 410.14 601.62C409.273 601.7 404.536 602.043 395.93 602.65C395.798 602.66 395.665 602.642 395.54 602.599C395.415 602.556 395.3 602.488 395.202 602.399C395.104 602.31 395.025 602.203 394.969 602.083C394.914 601.962 394.883 601.832 394.88 601.7L394.27 581.02Z" fill="black"/>
<path d="M540.76 596.32C539.1 598.013 536.67 598.913 533.47 599.02C533.053 599.033 532.648 598.886 532.34 598.61C528.5 595.13 527.04 590.23 523.45 586.89C523.367 586.813 523.303 586.718 523.263 586.612C523.224 586.506 523.209 586.393 523.221 586.28C523.232 586.168 523.27 586.059 523.33 585.964C523.391 585.869 523.473 585.788 523.57 585.73C526.697 583.837 530.047 583.043 533.62 583.35C533.86 583.368 534.092 583.451 534.293 583.59C534.493 583.729 534.654 583.918 534.76 584.14L539.12 593.31C539.193 593.456 539.284 593.594 539.39 593.72L540.78 595.3C540.906 595.441 540.974 595.625 540.97 595.814C540.966 596.003 540.891 596.184 540.76 596.32Z" fill="black"/>
<path d="M872.76 623.71C872.627 623.73 872.39 623.683 872.05 623.57C871.999 623.555 871.954 623.523 871.924 623.479C871.893 623.435 871.879 623.382 871.884 623.328C871.889 623.275 871.912 623.225 871.95 623.187C871.987 623.149 872.037 623.125 872.09 623.12C872.357 623.073 872.61 623.14 872.85 623.32C872.884 623.346 872.909 623.38 872.923 623.42C872.937 623.46 872.94 623.503 872.93 623.544C872.921 623.585 872.9 623.623 872.87 623.652C872.84 623.681 872.802 623.702 872.76 623.71Z" fill="#699EEE"/>
<path d="M451.82 659.89C451.921 660.618 451.765 661.358 451.378 661.984C450.991 662.61 450.398 663.083 449.7 663.32C447.72 663.993 445.89 664.333 444.21 664.34C441.723 664.347 439.76 664.45 438.32 664.65C432.34 665.49 426.17 665.867 419.81 665.78C419.493 665.78 419.177 665.715 418.88 665.59C417.733 665.117 416.563 664.987 415.37 665.2C414.276 665.4 413.026 665.387 411.62 665.16C401.426 663.52 394.323 657.767 390.31 647.9C388.783 644.14 388.303 639.903 388.87 635.19C388.889 635.039 388.961 634.9 389.075 634.798C389.189 634.695 389.336 634.636 389.49 634.63L408.2 633.88C408.465 633.869 408.726 633.956 408.932 634.123C409.138 634.291 409.276 634.528 409.32 634.79C409.546 636.183 410 637.6 410.68 639.04C410.877 639.461 411.168 639.834 411.53 640.13C414.41 642.537 416.7 643.98 418.4 644.46C420.526 645.053 424.456 645.067 430.19 644.5C430.608 644.454 431.015 644.346 431.4 644.18C436.246 642.127 441.17 641.293 446.17 641.68C447.132 641.758 448.042 642.14 448.77 642.77C449.416 643.33 449.886 643.623 450.18 643.65C450.267 643.661 450.35 643.691 450.423 643.739C450.497 643.787 450.558 643.851 450.602 643.926C450.647 644.002 450.673 644.087 450.68 644.174C450.686 644.261 450.673 644.349 450.64 644.43L450.02 645.93C449.968 646.054 449.95 646.186 449.97 646.31L451.82 659.89Z" fill="black"/>
<path d="M809.354 634.678C809.204 634.473 808.996 634.371 808.889 634.449C808.782 634.527 808.817 634.757 808.967 634.962C809.117 635.167 809.325 635.27 809.432 635.191C809.539 635.113 809.504 634.883 809.354 634.678Z" fill="#699EEE"/>
<path d="M768.788 647.428C768.754 647.21 768.634 647.047 768.52 647.065C768.405 647.082 768.339 647.273 768.373 647.492C768.406 647.71 768.526 647.873 768.641 647.855C768.755 647.838 768.821 647.647 768.788 647.428Z" fill="#699EEE"/>
<path d="M578.21 740.98C578.146 740.99 578.08 740.987 578.017 740.969C577.955 740.951 577.897 740.92 577.848 740.878C577.799 740.836 577.761 740.784 577.735 740.726C577.709 740.667 577.698 740.604 577.7 740.54L578.15 726.93C578.156 726.643 578.076 726.357 577.92 726.11L573.37 718.96C573.304 718.854 573.215 718.762 573.11 718.69C571.89 717.81 570.407 715.86 568.66 712.84C568.585 712.707 568.547 712.556 568.553 712.402C568.558 712.249 568.606 712.099 568.69 711.97C570.337 709.51 572.68 708.23 575.72 708.13C575.837 708.124 575.953 708.151 576.056 708.208C576.158 708.264 576.243 708.348 576.3 708.45L581.18 716.9C581.262 717.043 581.381 717.162 581.524 717.245C581.667 717.328 581.83 717.372 581.995 717.372C582.16 717.372 582.323 717.328 582.466 717.245C582.609 717.162 582.728 717.043 582.81 716.9L587.25 709.21C587.374 708.995 587.542 708.808 587.742 708.661C587.943 708.514 588.172 708.41 588.415 708.356C588.657 708.303 588.908 708.3 589.152 708.349C589.396 708.398 589.627 708.497 589.83 708.64L591.58 709.86C591.655 709.912 591.739 709.949 591.828 709.969C591.917 709.989 592.009 709.991 592.099 709.975C592.188 709.959 592.273 709.926 592.349 709.877C592.424 709.828 592.49 709.764 592.54 709.69L592.96 709.1C593.061 708.956 593.205 708.847 593.372 708.79C593.538 708.733 593.719 708.731 593.887 708.783C594.055 708.836 594.202 708.94 594.307 709.081C594.412 709.223 594.469 709.394 594.47 709.57V712.79C594.47 712.907 594.435 713.022 594.37 713.12L586.48 724.96C586.043 725.612 585.81 726.381 585.81 727.17V740.69C585.811 740.741 585.798 740.792 585.774 740.838C585.75 740.883 585.715 740.923 585.672 740.952C585.629 740.982 585.579 741 585.526 741.007C585.474 741.014 585.42 741.008 585.37 740.99C583.757 740.39 581.37 740.387 578.21 740.98Z" fill="#FF2116"/>
<path d="M731.96 709.09C731.96 708.96 732.012 708.836 732.106 708.744C732.2 708.652 732.327 708.6 732.46 708.6C735.773 708.613 739.45 708.53 743.49 708.35C746.83 708.197 749.88 708.983 752.64 710.71C753.146 711.032 753.571 711.471 753.88 711.99C755.94 715.51 757.58 717.63 756.1 721.4C753.546 727.947 748.653 730.677 741.42 729.59C741.277 729.568 741.132 729.578 740.993 729.617C740.854 729.656 740.726 729.725 740.617 729.818C740.507 729.911 740.42 730.026 740.36 730.156C740.3 730.286 740.269 730.427 740.27 730.57V739.94C740.27 740.048 740.228 740.152 740.154 740.23C740.079 740.308 739.978 740.355 739.87 740.36L731.92 740.68C731.84 740.684 731.761 740.669 731.688 740.636C731.616 740.604 731.551 740.555 731.5 740.493C731.449 740.431 731.412 740.358 731.393 740.28C731.374 740.201 731.373 740.119 731.39 740.04L732.64 734.83C732.679 734.652 732.686 734.469 732.66 734.29C732.26 731.19 732.506 728.277 733.4 725.55C733.446 725.411 733.466 725.269 733.46 725.13L732.87 716.59C732.844 716.165 732.702 715.757 732.46 715.41L732.21 715.04C732.047 714.799 731.96 714.517 731.96 714.23V709.09ZM740.08 714.99L740.24 722.77C740.242 722.905 740.272 723.039 740.326 723.163C740.38 723.287 740.458 723.399 740.556 723.493C740.653 723.586 740.768 723.66 740.894 723.709C741.02 723.759 741.154 723.783 741.29 723.78L743.52 723.73C744.739 723.705 745.897 723.181 746.741 722.273C747.585 721.366 748.045 720.149 748.02 718.89V718.55C747.993 717.291 747.482 716.093 746.601 715.221C745.72 714.349 744.539 713.874 743.32 713.9L741.09 713.94C740.955 713.943 740.821 713.972 740.697 714.026C740.573 714.08 740.461 714.158 740.367 714.256C740.273 714.353 740.2 714.468 740.15 714.594C740.101 714.72 740.077 714.855 740.08 714.99Z" fill="#FF2116"/>
<path d="M644.91 730.97C645.276 731.157 647.037 731.87 650.19 733.11C653.177 734.29 655.66 733.793 657.64 731.62C657.788 731.458 657.902 731.268 657.976 731.061C658.049 730.854 658.08 730.634 658.067 730.415C658.054 730.196 657.997 729.982 657.9 729.785C657.802 729.588 657.666 729.413 657.5 729.27C655.41 727.46 651.02 726.59 648.73 726.06C648.303 725.961 647.905 725.763 647.57 725.48C645.223 723.473 643.967 721.587 643.8 719.82C643.167 713.067 646.167 709.29 652.8 708.49C656.013 708.103 659.21 708.53 662.39 709.77C662.611 709.858 662.801 710.01 662.935 710.206C663.069 710.402 663.14 710.633 663.14 710.87V716.15C663.14 716.292 663.104 716.433 663.034 716.557C662.965 716.681 662.864 716.786 662.743 716.86C662.621 716.934 662.483 716.976 662.34 716.981C662.198 716.987 662.057 716.955 661.93 716.89C658.62 715.22 655.07 713.98 651.68 716.24C651.417 716.412 651.225 716.673 651.14 716.973C651.056 717.273 651.084 717.592 651.22 717.87C652.28 720.05 656.92 720.63 659.88 721.56C663.36 722.66 665.327 725.137 665.78 728.99C666.147 732.143 665.58 734.693 664.08 736.64C662.38 738.84 660.08 740.167 657.18 740.62C652.407 741.36 648.05 740.67 644.11 738.55C643.888 738.432 643.707 738.25 643.59 738.027C643.472 737.805 643.423 737.551 643.45 737.3L644.06 731.44C644.069 731.345 644.102 731.253 644.154 731.174C644.207 731.094 644.278 731.028 644.361 730.982C644.445 730.936 644.539 730.91 644.634 730.908C644.73 730.906 644.824 730.927 644.91 730.97Z" fill="#FF2116"/>
<path d="M728.053 728.124C727.99 729.819 727.595 731.486 726.889 733.028C726.182 734.571 725.179 735.96 723.936 737.115C722.693 738.27 721.235 739.168 719.645 739.76C718.055 740.351 716.363 740.624 714.668 740.561L712.369 740.477C708.945 740.352 705.711 738.871 703.378 736.361C701.046 733.851 699.806 730.517 699.932 727.092L700.148 721.196C700.21 719.501 700.605 717.834 701.312 716.291C702.018 714.749 703.021 713.36 704.264 712.205C705.507 711.05 706.965 710.151 708.555 709.56C710.146 708.969 711.837 708.696 713.532 708.758L715.831 708.843C719.255 708.968 722.489 710.449 724.822 712.959C727.154 715.469 728.394 718.803 728.269 722.228L728.053 728.124ZM714.198 715.5C713.325 715.493 712.458 715.717 711.648 716.161C710.837 716.605 710.098 717.259 709.473 718.086C708.849 718.914 708.35 719.898 708.007 720.984C707.663 722.069 707.481 723.234 707.47 724.412C707.45 726.791 708.13 729.078 709.363 730.771C710.595 732.464 712.278 733.424 714.042 733.44C714.915 733.447 715.782 733.223 716.593 732.779C717.403 732.335 718.142 731.681 718.767 730.853C719.392 730.026 719.89 729.041 720.234 727.956C720.577 726.871 720.76 725.706 720.77 724.528C720.791 722.149 720.11 719.861 718.878 718.168C717.645 716.475 715.962 715.516 714.198 715.5Z" fill="#FF2116"/>
<path d="M514.19 726.77C514.24 725.36 513.54 724.29 513.55 722.66C513.57 717.847 513.457 713.43 513.21 709.41C513.206 709.358 513.212 709.305 513.23 709.255C513.247 709.206 513.274 709.16 513.31 709.122C513.346 709.083 513.389 709.053 513.437 709.032C513.485 709.011 513.537 709 513.59 709H521.62C521.66 709 521.699 709.008 521.736 709.023C521.772 709.039 521.805 709.061 521.832 709.089C521.86 709.117 521.88 709.151 521.894 709.187C521.907 709.223 521.913 709.262 521.91 709.3C521.71 713.4 521.33 716.08 521.51 719.6C521.617 721.76 521.777 728.607 521.99 740.14C521.991 740.182 521.984 740.223 521.968 740.262C521.953 740.3 521.93 740.336 521.9 740.366C521.87 740.396 521.834 740.419 521.795 740.435C521.755 740.452 521.713 740.46 521.67 740.46H514.07C513.636 740.46 513.211 740.338 512.844 740.108C512.478 739.878 512.185 739.549 512 739.16L504.22 722.8C504.177 722.713 504.105 722.642 504.017 722.6C503.929 722.557 503.829 722.546 503.735 722.567C503.64 722.588 503.557 722.64 503.498 722.715C503.439 722.79 503.408 722.884 503.41 722.98V739.73C503.41 739.937 503.328 740.135 503.181 740.282C503.035 740.428 502.837 740.51 502.63 740.51H495.75C495.641 740.51 495.537 740.468 495.46 740.393C495.383 740.318 495.34 740.216 495.34 740.11V709.49C495.34 709.31 495.411 709.137 495.539 709.009C495.667 708.882 495.839 708.81 496.02 708.81H504.47C504.712 708.81 504.949 708.879 505.153 709.008C505.357 709.137 505.519 709.322 505.62 709.54L513.85 726.84C513.868 726.875 513.897 726.903 513.932 726.921C513.968 726.938 514.008 726.943 514.047 726.935C514.085 726.927 514.12 726.906 514.146 726.877C514.172 726.847 514.187 726.809 514.19 726.77Z" fill="#FF2116"/>
<path d="M534.26 708.76H527.24C527.096 708.76 526.98 708.876 526.98 709.02V740.38C526.98 740.524 527.096 740.64 527.24 740.64H534.26C534.404 740.64 534.52 740.524 534.52 740.38V709.02C534.52 708.876 534.404 708.76 534.26 708.76Z" fill="#FF2116"/>
<path d="M539.3 734.51L542.61 735.13C542.748 735.156 542.891 735.127 543.007 735.048C543.123 734.969 543.204 734.848 543.23 734.71C543.637 732.583 543.847 729.677 543.86 725.99C543.874 721.53 543.617 716.31 543.09 710.33C543.072 710.127 543.097 709.923 543.162 709.73C543.228 709.537 543.333 709.36 543.471 709.209C543.61 709.059 543.778 708.939 543.965 708.856C544.153 708.774 544.355 708.731 544.56 708.73H550.07C550.278 708.73 550.484 708.772 550.675 708.853C550.866 708.934 551.038 709.054 551.181 709.203C551.325 709.353 551.436 709.53 551.508 709.724C551.58 709.918 551.611 710.124 551.6 710.33C551.353 715.643 551.18 720.657 551.08 725.37C550.99 730.17 552.12 734.7 551.89 739.81C551.885 739.935 551.831 740.053 551.74 740.14C551.649 740.228 551.528 740.278 551.4 740.28L539.07 740.65C538.954 740.653 538.839 740.632 538.731 740.59C538.623 740.548 538.525 740.485 538.442 740.405C538.359 740.325 538.293 740.229 538.248 740.124C538.203 740.018 538.18 739.905 538.18 739.79V735.43C538.181 735.292 538.212 735.155 538.271 735.03C538.33 734.905 538.416 734.794 538.523 734.706C538.631 734.618 538.756 734.555 538.89 734.521C539.024 734.487 539.164 734.483 539.3 734.51Z" fill="#FF2116"/>
<path d="M563.682 708.754L556.682 708.766C556.539 708.766 556.423 708.883 556.423 709.027L556.478 740.387C556.478 740.53 556.594 740.646 556.738 740.646L563.738 740.634C563.882 740.634 563.998 740.517 563.998 740.373L563.943 709.013C563.943 708.87 563.826 708.754 563.682 708.754Z" fill="#FF2116"/>
<path d="M606.2 718.85L609.36 709.25C609.417 709.086 609.522 708.944 609.662 708.844C609.802 708.743 609.969 708.689 610.14 708.69H616.05C616.269 708.691 616.483 708.755 616.665 708.876C616.846 708.997 616.987 709.169 617.07 709.37L629.48 740.14C629.493 740.173 629.499 740.209 629.496 740.245C629.492 740.28 629.481 740.314 629.462 740.344C629.443 740.373 629.418 740.398 629.388 740.414C629.358 740.431 629.324 740.44 629.29 740.44L619.98 740.81C619.844 740.815 619.71 740.775 619.599 740.695C619.489 740.615 619.408 740.501 619.37 740.37L617.37 733.19C617.324 733.026 617.225 732.881 617.088 732.778C616.951 732.675 616.783 732.62 616.61 732.62H609.08C608.748 732.621 608.428 732.736 608.174 732.947C607.92 733.157 607.749 733.448 607.69 733.77L606.67 739.12C606.595 739.527 606.379 739.895 606.06 740.16C605.74 740.425 605.337 740.57 604.92 740.57H598.07C597.921 740.57 597.774 740.533 597.643 740.461C597.513 740.39 597.402 740.287 597.321 740.161C597.24 740.036 597.193 739.892 597.182 739.743C597.171 739.595 597.198 739.446 597.26 739.31L603.93 724.5C603.97 724.414 604 724.32 604.02 724.22C604.314 722.367 605.014 720.627 606.12 719C606.153 718.953 606.18 718.903 606.2 718.85ZM612.45 725.97C613.21 725.957 613.767 725.917 614.12 725.85C614.205 725.832 614.286 725.796 614.356 725.745C614.426 725.693 614.484 725.628 614.527 725.552C614.569 725.476 614.595 725.392 614.603 725.306C614.61 725.219 614.599 725.132 614.57 725.05L612.59 719.5C612.58 719.48 612.558 719.46 612.526 719.442C612.495 719.424 612.455 719.41 612.41 719.4C612.35 719.38 612.317 719.37 612.31 719.37C612.304 719.37 612.267 719.38 612.2 719.4C612.156 719.412 612.117 719.429 612.087 719.449C612.057 719.468 612.038 719.489 612.03 719.51L610.29 725.14C610.265 725.223 610.257 725.31 610.268 725.396C610.279 725.482 610.309 725.565 610.354 725.638C610.399 725.712 610.46 725.775 610.532 725.824C610.604 725.873 610.685 725.905 610.77 725.92C611.124 725.973 611.684 725.99 612.45 725.97Z" fill="#FF2116"/>
<path d="M669.95 740.64C669.872 740.64 669.797 740.611 669.741 740.559C669.685 740.506 669.653 740.435 669.65 740.36C669.57 737.833 669.783 735.933 670.29 734.66C670.396 734.388 670.457 734.101 670.47 733.81C670.72 727.52 671.08 723.48 670.54 718.77C670.467 718.157 670.24 714.933 669.86 709.1C669.857 709.064 669.862 709.028 669.874 708.994C669.886 708.96 669.904 708.929 669.929 708.903C669.953 708.877 669.983 708.856 670.016 708.842C670.049 708.827 670.084 708.82 670.12 708.82H678.96C678.99 708.821 679.02 708.828 679.047 708.842C679.074 708.855 679.097 708.875 679.116 708.899C679.134 708.923 679.147 708.951 679.153 708.981C679.158 709.01 679.158 709.041 679.15 709.07C678.023 713.003 677.74 716.577 678.3 719.79C678.309 719.838 678.333 719.881 678.368 719.912C678.403 719.943 678.446 719.96 678.49 719.96H686.85C686.952 719.961 687.051 719.924 687.127 719.858C687.203 719.791 687.25 719.699 687.26 719.6C687.727 715.68 687.57 712.323 686.79 709.53C686.764 709.44 686.758 709.345 686.775 709.253C686.792 709.161 686.83 709.074 686.886 708.999C686.943 708.924 687.016 708.864 687.1 708.822C687.184 708.781 687.276 708.759 687.37 708.76H695.52C695.591 708.759 695.662 708.774 695.726 708.803C695.791 708.833 695.849 708.876 695.897 708.929C695.944 708.983 695.98 709.047 696.001 709.116C696.022 709.185 696.029 709.258 696.02 709.33C695.53 713.39 694.84 716.11 695.1 719.24C695.213 720.647 695.207 723.74 695.08 728.52C694.967 732.727 695.03 735.84 695.27 737.86C695.309 738.173 695.438 738.471 695.64 738.72L696.27 739.5C696.349 739.598 696.399 739.717 696.414 739.842C696.428 739.968 696.407 740.095 696.353 740.209C696.299 740.322 696.213 740.419 696.106 740.486C696 740.554 695.876 740.59 695.75 740.59H686.58C686.48 740.59 686.381 740.565 686.293 740.517C686.205 740.468 686.131 740.398 686.079 740.314C686.027 740.229 685.997 740.132 685.994 740.034C685.991 739.935 686.013 739.837 686.06 739.75C687.68 736.64 687.28 733.62 687.54 728.39C687.544 728.31 687.532 728.23 687.505 728.154C687.478 728.079 687.437 728.009 687.383 727.95C687.329 727.89 687.264 727.842 687.191 727.808C687.119 727.773 687.04 727.754 686.96 727.75L678.73 727.26C678.571 727.251 678.414 727.303 678.292 727.405C678.169 727.507 678.09 727.652 678.07 727.81C677.577 731.917 677.89 736.113 679.01 740.4C679.018 740.428 679.019 740.457 679.013 740.485C679.007 740.513 678.994 740.54 678.976 740.563C678.957 740.586 678.934 740.605 678.907 740.618C678.88 740.632 678.85 740.639 678.82 740.64H669.95Z" fill="#FF2116"/>
</svg>
